<svg width="217" height="32" viewBox="0 0 217 32" fill="none" xmlns="http://www.w3.org/2000/svg">
<path d="M159.252 0H206.77C212.09 0 216.403 4.31247 216.403 9.63217V21.8329C216.403 27.1526 212.09 31.4651 206.77 31.4651H159.252V0Z" fill="white"/>
<path d="M0.321072 9.63217C0.321072 4.4898 4.48979 0.321072 9.63217 0.321072H158.799V31.5029H9.63218C4.4898 31.5029 0.321072 27.3341 0.321072 22.1918V9.63217Z" stroke="white" stroke-width="0.642145"/>
<path d="M178.645 20.5212C177.496 20.5212 176.518 20.132 175.709 19.3537C174.907 18.5755 174.507 17.5429 174.507 16.256C174.507 14.9769 174.915 13.9443 175.732 13.1583C176.549 12.3723 177.516 11.9794 178.633 11.9794C179.619 11.9794 180.428 12.2298 181.06 12.7307C181.7 13.2315 182.12 13.8673 182.32 14.6378L181.014 15.0771C180.883 14.5454 180.617 14.1138 180.217 13.7825C179.816 13.4511 179.288 13.2855 178.633 13.2855C177.901 13.2855 177.265 13.5475 176.726 14.0715C176.194 14.5877 175.928 15.3159 175.928 16.256C175.928 17.173 176.194 17.8935 176.726 18.4175C177.258 18.9338 177.897 19.1919 178.645 19.1919C179.284 19.1919 179.812 19.0185 180.228 18.6718C180.644 18.325 180.929 17.8974 181.083 17.3888L182.355 17.8049C182.155 18.5678 181.731 19.2112 181.083 19.7352C180.444 20.2592 179.631 20.5212 178.645 20.5212ZM184.796 18.8452C185.105 19.1611 185.478 19.3191 185.918 19.3191C186.357 19.3191 186.727 19.1611 187.027 18.8452C187.335 18.5292 187.49 18.09 187.49 17.5275C187.49 16.9727 187.335 16.5411 187.027 16.2329C186.727 15.917 186.357 15.759 185.918 15.759C185.478 15.759 185.105 15.917 184.796 16.2329C184.496 16.5411 184.346 16.9727 184.346 17.5275C184.346 18.0823 184.496 18.5215 184.796 18.8452ZM185.918 14.5454C186.765 14.5454 187.463 14.8266 188.01 15.3891C188.565 15.9517 188.842 16.6644 188.842 17.5275C188.842 18.3905 188.565 19.1072 188.01 19.6774C187.463 20.2399 186.765 20.5212 185.918 20.5212C185.078 20.5212 184.38 20.2399 183.826 19.6774C183.278 19.1072 183.005 18.3905 183.005 17.5275C183.005 16.6644 183.278 15.9517 183.826 15.3891C184.38 14.8266 185.078 14.5454 185.918 14.5454ZM191.467 22.5439H190.138V14.7187H191.432V15.4816C191.579 15.2273 191.81 15.0154 192.126 14.8459C192.442 14.6764 192.808 14.5916 193.224 14.5916C194.033 14.5916 194.669 14.869 195.131 15.4238C195.593 15.9709 195.825 16.6721 195.825 17.5275C195.825 18.3828 195.582 19.0917 195.096 19.6543C194.611 20.2091 193.971 20.4865 193.178 20.4865C192.792 20.4865 192.449 20.4133 192.149 20.2669C191.848 20.1205 191.621 19.9355 191.467 19.7121V22.5439ZM194.484 17.5275C194.484 17.0035 194.345 16.5835 194.068 16.2676C193.79 15.944 193.424 15.7821 192.97 15.7821C192.523 15.7821 192.157 15.944 191.871 16.2676C191.594 16.5835 191.455 17.0035 191.455 17.5275C191.455 18.0592 191.594 18.4868 191.871 18.8105C192.157 19.1341 192.523 19.2959 192.97 19.2959C193.416 19.2959 193.779 19.1341 194.056 18.8105C194.341 18.4868 194.484 18.0592 194.484 17.5275ZM198.565 22.6248H197.131L198.484 19.6774L196.079 14.7187H197.594L199.212 18.2788L200.726 14.7187H202.148L198.565 22.6248Z" fill="#1B315B"/>
<path d="M20.2333 20.5212C19.0851 20.5212 18.1065 20.132 17.2974 19.3537C16.496 18.5755 16.0953 17.5429 16.0953 16.256C16.0953 14.9769 16.5037 13.9443 17.3205 13.1583C18.1373 12.3723 19.1044 11.9794 20.2217 11.9794C21.2081 11.9794 22.0172 12.2298 22.6491 12.7307C23.2886 13.2315 23.7086 13.8673 23.9089 14.6378L22.6028 15.0771C22.4718 14.5454 22.206 14.1138 21.8053 13.7825C21.4046 13.4511 20.8767 13.2855 20.2217 13.2855C19.4897 13.2855 18.854 13.5475 18.3146 14.0715C17.7829 14.5877 17.517 15.3159 17.517 16.256C17.517 17.173 17.7829 17.8935 18.3146 18.4175C18.8463 18.9338 19.4858 19.1919 20.2333 19.1919C20.8729 19.1919 21.4007 19.0185 21.8168 18.6718C22.2329 18.325 22.5181 17.8974 22.6722 17.3888L23.9436 17.8049C23.7433 18.5678 23.3195 19.2112 22.6722 19.7352C22.0326 20.2592 21.2196 20.5212 20.2333 20.5212ZM26.4639 20.3478H25.1231V11.9794H26.4639V20.3478ZM29.5226 20.3478H28.1934V14.7187H29.5226V20.3478ZM28.2396 13.3548C28.0701 13.1853 27.9853 12.9811 27.9853 12.7422C27.9853 12.5033 28.0701 12.2991 28.2396 12.1296C28.4091 11.9524 28.6133 11.8638 28.8522 11.8638C29.0988 11.8638 29.3069 11.9485 29.4764 12.1181C29.6459 12.2876 29.7307 12.4956 29.7307 12.7422C29.7307 12.9811 29.6459 13.1853 29.4764 13.3548C29.3069 13.5244 29.0988 13.6091 28.8522 13.6091C28.6133 13.6091 28.4091 13.5244 28.2396 13.3548ZM33.7028 15.7821C33.2713 15.7821 32.9052 15.9401 32.6047 16.256C32.3042 16.5643 32.1539 16.9881 32.1539 17.5275C32.1539 18.0746 32.3042 18.5061 32.6047 18.822C32.9129 19.138 33.2867 19.2959 33.7259 19.2959C34.1189 19.2959 34.431 19.1919 34.6621 18.9839C34.901 18.7681 35.059 18.5254 35.136 18.2557L36.315 18.6833C36.1609 19.1842 35.8604 19.6157 35.4134 19.9779C34.9742 20.3401 34.4117 20.5212 33.7259 20.5212C32.9014 20.5212 32.2079 20.236 31.6453 19.6658C31.0905 19.0956 30.8131 18.3828 30.8131 17.5275C30.8131 16.6644 31.0867 15.9517 31.6338 15.3891C32.1886 14.8266 32.8744 14.5454 33.6912 14.5454C34.3924 14.5454 34.9627 14.7264 35.4019 15.0886C35.8488 15.4508 36.1378 15.8862 36.2688 16.3947L35.0667 16.834C34.9896 16.5411 34.8394 16.2946 34.6159 16.0942C34.4001 15.8862 34.0958 15.7821 33.7028 15.7821ZM42.7765 14.7187L40.4647 17.0998L42.8227 20.3478H41.1814L39.5285 18.0476L38.835 18.7758V20.3478H37.5057V11.9794H38.835V16.9958L40.9964 14.7187H42.7765ZM48.0009 17.042V20.3478H46.6601V11.9794H48.0009V15.262C48.363 14.7919 48.8986 14.5569 49.6075 14.5569C50.2702 14.5569 50.7788 14.765 51.1332 15.1811C51.4877 15.5972 51.6649 16.1327 51.6649 16.7877V20.3478H50.3241V17.0189C50.3241 16.6413 50.2317 16.3408 50.0467 16.1173C49.8618 15.8862 49.569 15.7706 49.1683 15.7706C48.8138 15.7706 48.5326 15.89 48.3245 16.1289C48.1241 16.3678 48.0163 16.6721 48.0009 17.042ZM54.2335 16.9149H56.996C56.9806 16.5604 56.8534 16.2637 56.6145 16.0249C56.3834 15.786 56.0482 15.6665 55.6089 15.6665C55.2082 15.6665 54.8846 15.7937 54.638 16.048C54.3914 16.2946 54.2566 16.5835 54.2335 16.9149ZM57.1462 18.3828L58.279 18.7411C58.1172 19.2574 57.8128 19.6851 57.3659 20.0241C56.9266 20.3555 56.3834 20.5212 55.7361 20.5212C54.9347 20.5212 54.2527 20.2476 53.6902 19.7005C53.1354 19.1534 52.858 18.4213 52.858 17.5044C52.858 16.6413 53.1277 15.9324 53.6671 15.3776C54.2142 14.8228 54.8576 14.5454 55.5974 14.5454C56.4604 14.5454 57.1347 14.8112 57.6201 15.3429C58.1056 15.8669 58.3483 16.5758 58.3483 17.4697C58.3483 17.7086 58.3368 17.8511 58.3137 17.8974H54.1988C54.2142 18.3212 54.3683 18.6718 54.6611 18.9492C54.9617 19.2266 55.32 19.3653 55.7361 19.3653C56.4604 19.3653 56.9305 19.0378 57.1462 18.3828ZM62.9238 14.6841V16.048C62.7697 16.0249 62.6233 16.0133 62.4846 16.0133C61.4751 16.0133 60.9704 16.5643 60.9704 17.6662V20.3478H59.6296V14.7187H60.9357V15.6203C61.0667 15.3198 61.2786 15.0848 61.5715 14.9152C61.8643 14.738 62.1956 14.6494 62.5655 14.6494C62.6888 14.6494 62.8082 14.6609 62.9238 14.6841ZM64.9229 16.9149H67.6854C67.67 16.5604 67.5429 16.2637 67.304 16.0249C67.0728 15.786 66.7376 15.6665 66.2984 15.6665C65.8977 15.6665 65.5741 15.7937 65.3275 16.048C65.0809 16.2946 64.946 16.5835 64.9229 16.9149ZM67.8357 18.3828L68.9684 18.7411C68.8066 19.2574 68.5022 19.6851 68.0553 20.0241C67.6161 20.3555 67.0728 20.5212 66.4255 20.5212C65.6241 20.5212 64.9422 20.2476 64.3797 19.7005C63.8249 19.1534 63.5474 18.4213 63.5474 17.5044C63.5474 16.6413 63.8171 15.9324 64.3565 15.3776C64.9037 14.8228 65.5471 14.5454 66.2868 14.5454C67.1499 14.5454 67.8241 14.8112 68.3096 15.3429C68.7951 15.8669 69.0378 16.5758 69.0378 17.4697C69.0378 17.7086 69.0262 17.8511 69.0031 17.8974H64.8882C64.9037 18.3212 65.0578 18.6718 65.3506 18.9492C65.6511 19.2266 66.0094 19.3653 66.4255 19.3653C67.1499 19.3653 67.6199 19.0378 67.8357 18.3828ZM74.8853 12.9965V14.7187H76.0527V15.9093H74.8853V18.5215C74.8853 18.7681 74.9431 18.9492 75.0586 19.0648C75.1742 19.1727 75.3553 19.2266 75.6019 19.2266C75.756 19.2266 75.9101 19.2112 76.0642 19.1804V20.29C75.8639 20.3747 75.5903 20.4171 75.2436 20.4171C74.7196 20.4171 74.3073 20.2707 74.0068 19.9779C73.7063 19.6774 73.556 19.2651 73.556 18.7411V15.9093H72.5157V14.7187H72.8047C73.0898 14.7187 73.3056 14.6378 73.452 14.476C73.5984 14.3142 73.6716 14.1023 73.6716 13.8403V12.9965H74.8853ZM78.7262 18.8452C79.0345 19.1611 79.4082 19.3191 79.8474 19.3191C80.2867 19.3191 80.6565 19.1611 80.9571 18.8452C81.2653 18.5292 81.4194 18.09 81.4194 17.5275C81.4194 16.9727 81.2653 16.5411 80.9571 16.2329C80.6565 15.917 80.2867 15.759 79.8474 15.759C79.4082 15.759 79.0345 15.917 78.7262 16.2329C78.4257 16.5411 78.2755 16.9727 78.2755 17.5275C78.2755 18.0823 78.4257 18.5215 78.7262 18.8452ZM79.8474 14.5454C80.6951 14.5454 81.3924 14.8266 81.9395 15.3891C82.4943 15.9517 82.7718 16.6644 82.7718 17.5275C82.7718 18.3905 82.4943 19.1072 81.9395 19.6774C81.3924 20.2399 80.6951 20.5212 79.8474 20.5212C79.0075 20.5212 78.3101 20.2399 77.7553 19.6774C77.2082 19.1072 76.9347 18.3905 76.9347 17.5275C76.9347 16.6644 77.2082 15.9517 77.7553 15.3891C78.3101 14.8266 79.0075 14.5454 79.8474 14.5454ZM90.2288 14.6841V16.048C90.0746 16.0249 89.9282 16.0133 89.7895 16.0133C88.7801 16.0133 88.2754 16.5643 88.2754 17.6662V20.3478H86.9346V14.7187H88.2407V15.6203C88.3717 15.3198 88.5836 15.0848 88.8764 14.9152C89.1692 14.738 89.5006 14.6494 89.8704 14.6494C89.9937 14.6494 90.1132 14.6609 90.2288 14.6841ZM92.2279 16.9149H94.9904C94.9749 16.5604 94.8478 16.2637 94.6089 16.0249C94.3778 15.786 94.0426 15.6665 93.6033 15.6665C93.2026 15.6665 92.879 15.7937 92.6324 16.048C92.3858 16.2946 92.251 16.5835 92.2279 16.9149ZM95.1406 18.3828L96.2734 18.7411C96.1115 19.2574 95.8072 19.6851 95.3602 20.0241C94.921 20.3555 94.3778 20.5212 93.7305 20.5212C92.9291 20.5212 92.2471 20.2476 91.6846 19.7005C91.1298 19.1534 90.8524 18.4213 90.8524 17.5044C90.8524 16.6413 91.1221 15.9324 91.6615 15.3776C92.2086 14.8228 92.852 14.5454 93.5918 14.5454C94.4548 14.5454 95.1291 14.8112 95.6145 15.3429C96.1 15.8669 96.3427 16.5758 96.3427 17.4697C96.3427 17.7086 96.3312 17.8511 96.308 17.8974H92.1932C92.2086 18.3212 92.3627 18.6718 92.6555 18.9492C92.956 19.2266 93.3144 19.3653 93.7305 19.3653C94.4548 19.3653 94.9249 19.0378 95.1406 18.3828ZM100.121 13.1237C99.8972 13.1237 99.7007 13.1892 99.5312 13.3201C99.3694 13.4434 99.2885 13.6631 99.2885 13.979V14.7187H100.595V15.8862H99.2885V20.3478H97.9361V15.8862H96.9536V14.7187H97.9361V13.9443C97.9361 13.3201 98.1172 12.827 98.4793 12.4648C98.8415 12.1026 99.3154 11.9216 99.9011 11.9216C100.217 11.9216 100.452 11.9601 100.606 12.0371V13.1814C100.467 13.1429 100.306 13.1237 100.121 13.1237ZM102.432 16.9149H105.194C105.179 16.5604 105.052 16.2637 104.813 16.0249C104.582 15.786 104.247 15.6665 103.807 15.6665C103.407 15.6665 103.083 15.7937 102.836 16.048C102.59 16.2946 102.455 16.5835 102.432 16.9149ZM105.345 18.3828L106.477 18.7411C106.316 19.2574 106.011 19.6851 105.564 20.0241C105.125 20.3555 104.582 20.5212 103.935 20.5212C103.133 20.5212 102.451 20.2476 101.889 19.7005C101.334 19.1534 101.056 18.4213 101.056 17.5044C101.056 16.6413 101.326 15.9324 101.866 15.3776C102.413 14.8228 103.056 14.5454 103.796 14.5454C104.659 14.5454 105.333 14.8112 105.819 15.3429C106.304 15.8669 106.547 16.5758 106.547 17.4697C106.547 17.7086 106.535 17.8511 106.512 17.8974H102.397C102.413 18.3212 102.567 18.6718 102.86 18.9492C103.16 19.2266 103.518 19.3653 103.935 19.3653C104.659 19.3653 105.129 19.0378 105.345 18.3828ZM111.122 14.6841V16.048C110.968 16.0249 110.822 16.0133 110.683 16.0133C109.674 16.0133 109.169 16.5643 109.169 17.6662V20.3478H107.828V14.7187H109.134V15.6203C109.265 15.3198 109.477 15.0848 109.77 14.9152C110.063 14.738 110.394 14.6494 110.764 14.6494C110.887 14.6494 111.007 14.6609 111.122 14.6841Z" fill="white"/>
</svg>
