<svg width="217" height="32" viewBox="0 0 217 32" fill="none" xmlns="http://www.w3.org/2000/svg">
<path d="M159.252 0H206.77C212.09 0 216.403 4.31247 216.403 9.63217V21.8329C216.403 27.1526 212.09 31.4651 206.77 31.4651H159.252V0Z" fill="white"/>
<path d="M9.63217 0.321072H158.799V31.5029H9.63218C4.4898 31.5029 0.321072 27.3341 0.321072 22.1918V9.63217C0.321072 4.4898 4.48979 0.321072 9.63217 0.321072Z" stroke="white" stroke-width="0.642145"/>
<path d="M178.645 20.5212C177.496 20.5212 176.518 20.132 175.709 19.3537C174.907 18.5755 174.507 17.5429 174.507 16.256C174.507 14.9769 174.915 13.9443 175.732 13.1583C176.549 12.3723 177.516 11.9794 178.633 11.9794C179.619 11.9794 180.428 12.2298 181.06 12.7307C181.7 13.2315 182.12 13.8673 182.32 14.6378L181.014 15.0771C180.883 14.5454 180.617 14.1138 180.217 13.7825C179.816 13.4511 179.288 13.2855 178.633 13.2855C177.901 13.2855 177.265 13.5475 176.726 14.0715C176.194 14.5877 175.928 15.3159 175.928 16.256C175.928 17.173 176.194 17.8935 176.726 18.4175C177.258 18.9338 177.897 19.1919 178.645 19.1919C179.284 19.1919 179.812 19.0185 180.228 18.6718C180.644 18.325 180.929 17.8974 181.083 17.3888L182.355 17.8049C182.155 18.5678 181.731 19.2112 181.083 19.7352C180.444 20.2592 179.631 20.5212 178.645 20.5212ZM184.796 18.8452C185.105 19.1611 185.478 19.3191 185.918 19.3191C186.357 19.3191 186.727 19.1611 187.027 18.8452C187.335 18.5292 187.49 18.09 187.49 17.5275C187.49 16.9727 187.335 16.5411 187.027 16.2329C186.727 15.917 186.357 15.759 185.918 15.759C185.478 15.759 185.105 15.917 184.796 16.2329C184.496 16.5411 184.346 16.9727 184.346 17.5275C184.346 18.0823 184.496 18.5215 184.796 18.8452ZM185.918 14.5454C186.765 14.5454 187.463 14.8266 188.01 15.3891C188.565 15.9517 188.842 16.6644 188.842 17.5275C188.842 18.3905 188.565 19.1072 188.01 19.6774C187.463 20.2399 186.765 20.5212 185.918 20.5212C185.078 20.5212 184.38 20.2399 183.826 19.6774C183.278 19.1072 183.005 18.3905 183.005 17.5275C183.005 16.6644 183.278 15.9517 183.826 15.3891C184.38 14.8266 185.078 14.5454 185.918 14.5454ZM191.467 22.5439H190.138V14.7187H191.432V15.4816C191.579 15.2273 191.81 15.0154 192.126 14.8459C192.442 14.6764 192.808 14.5916 193.224 14.5916C194.033 14.5916 194.669 14.869 195.131 15.4238C195.593 15.9709 195.825 16.6721 195.825 17.5275C195.825 18.3828 195.582 19.0917 195.096 19.6543C194.611 20.2091 193.971 20.4865 193.178 20.4865C192.792 20.4865 192.449 20.4133 192.149 20.2669C191.848 20.1205 191.621 19.9355 191.467 19.7121V22.5439ZM194.484 17.5275C194.484 17.0035 194.345 16.5835 194.068 16.2676C193.79 15.944 193.424 15.7821 192.97 15.7821C192.523 15.7821 192.157 15.944 191.871 16.2676C191.594 16.5835 191.455 17.0035 191.455 17.5275C191.455 18.0592 191.594 18.4868 191.871 18.8105C192.157 19.1341 192.523 19.2959 192.97 19.2959C193.416 19.2959 193.779 19.1341 194.056 18.8105C194.341 18.4868 194.484 18.0592 194.484 17.5275ZM198.565 22.6248H197.131L198.484 19.6774L196.079 14.7187H197.594L199.212 18.2788L200.726 14.7187H202.148L198.565 22.6248Z" fill="#1B315B"/>
<path d="M11.7829 20.3478H10.4768V11.9794H11.7944V15.4123C11.9331 15.1734 12.1605 14.973 12.4764 14.8112C12.7923 14.6494 13.1545 14.5685 13.5629 14.5685C14.3797 14.5685 15.0154 14.8459 15.4701 15.4007C15.9324 15.9478 16.1636 16.649 16.1636 17.5044C16.1636 18.3751 15.9209 19.0917 15.4354 19.6543C14.9576 20.2091 14.3181 20.4865 13.5167 20.4865C12.7153 20.4865 12.1373 20.1898 11.7829 19.5965V20.3478ZM14.3836 18.822C14.6687 18.4984 14.8112 18.063 14.8112 17.5159C14.8112 16.9688 14.6725 16.5411 14.3951 16.2329C14.1177 15.917 13.7517 15.759 13.2971 15.759C12.8578 15.759 12.4957 15.917 12.2105 16.2329C11.9254 16.5411 11.7829 16.9688 11.7829 17.5159C11.7829 18.0553 11.9254 18.4868 12.2105 18.8105C12.4957 19.1341 12.8578 19.2959 13.2971 19.2959C13.744 19.2959 14.1062 19.138 14.3836 18.822ZM17.1058 18.822C17.1058 18.3443 17.2599 17.9629 17.5681 17.6777C17.8841 17.3849 18.2963 17.2 18.8049 17.1229L20.2497 16.9033C20.5271 16.8648 20.6658 16.7299 20.6658 16.4988C20.6658 16.2445 20.5772 16.0403 20.4 15.8862C20.2228 15.7243 19.9569 15.6434 19.6025 15.6434C19.2634 15.6434 18.9937 15.7397 18.7934 15.9324C18.593 16.1173 18.4774 16.3601 18.4466 16.6606L17.2214 16.3832C17.2753 15.8746 17.5181 15.4431 17.9496 15.0886C18.3811 14.7264 18.9282 14.5454 19.5909 14.5454C20.4077 14.5454 21.0088 14.7419 21.394 15.1348C21.787 15.5278 21.9835 16.0326 21.9835 16.649V19.4462C21.9835 19.8161 22.0066 20.1166 22.0529 20.3478H20.8045C20.766 20.2322 20.7468 19.9933 20.7468 19.6311C20.3769 20.2245 19.799 20.5212 19.013 20.5212C18.4427 20.5212 17.9804 20.3555 17.6259 20.0241C17.2792 19.6851 17.1058 19.2844 17.1058 18.822ZM19.2673 19.4693C19.6834 19.4693 20.0186 19.3576 20.2729 19.1341C20.5348 18.903 20.6658 18.5292 20.6658 18.0129V17.7587L19.1979 17.9783C18.697 18.063 18.4466 18.3173 18.4466 18.7411C18.4466 18.9415 18.5198 19.1149 18.6662 19.2613C18.8126 19.4 19.013 19.4693 19.2673 19.4693ZM26.0435 15.7821C25.612 15.7821 25.2459 15.9401 24.9454 16.256C24.6449 16.5643 24.4946 16.9881 24.4946 17.5275C24.4946 18.0746 24.6449 18.5061 24.9454 18.822C25.2536 19.138 25.6274 19.2959 26.0666 19.2959C26.4596 19.2959 26.7717 19.1919 27.0028 18.9839C27.2417 18.7681 27.3997 18.5254 27.4768 18.2557L28.6557 18.6833C28.5016 19.1842 28.2011 19.6157 27.7542 19.9779C27.3149 20.3401 26.7524 20.5212 26.0666 20.5212C25.2421 20.5212 24.5486 20.236 23.9861 19.6658C23.4312 19.0956 23.1538 18.3828 23.1538 17.5275C23.1538 16.6644 23.4274 15.9517 23.9745 15.3891C24.5293 14.8266 25.2151 14.5454 26.0319 14.5454C26.7331 14.5454 27.3034 14.7264 27.7426 15.0886C28.1895 15.4508 28.4785 15.8862 28.6095 16.3947L27.4074 16.834C27.3303 16.5411 27.1801 16.2946 26.9566 16.0942C26.7409 15.8862 26.4365 15.7821 26.0435 15.7821ZM35.1172 14.7187L32.8054 17.0998L35.1634 20.3478H33.5221L31.8692 18.0476L31.1757 18.7758V20.3478H29.8464V11.9794H31.1757V16.9958L33.3371 14.7187H35.1172ZM39.7413 19.7236C39.6103 19.9702 39.3946 20.1628 39.094 20.3015C38.8012 20.4402 38.4853 20.5096 38.1462 20.5096C37.4913 20.5096 36.9711 20.2977 36.5858 19.8739C36.2083 19.4501 36.0195 18.9145 36.0195 18.2672V14.7187H37.3603V18.0245C37.3603 18.4021 37.4527 18.7103 37.6377 18.9492C37.8226 19.1881 38.1077 19.3075 38.493 19.3075C38.8706 19.3075 39.1595 19.1919 39.3599 18.9607C39.568 18.7296 39.672 18.4252 39.672 18.0476V14.7187H41.0128V19.3191C41.0128 19.6581 41.032 20.001 41.0706 20.3478H39.7876C39.7567 20.1783 39.7413 19.9702 39.7413 19.7236ZM44.0775 22.5439H42.7483V14.7187H44.0428V15.4816C44.1893 15.2273 44.4204 15.0154 44.7364 14.8459C45.0523 14.6764 45.4183 14.5916 45.8344 14.5916C46.6435 14.5916 47.2793 14.869 47.7416 15.4238C48.2039 15.9709 48.4351 16.6721 48.4351 17.5275C48.4351 18.3828 48.1924 19.0917 47.7069 19.6543C47.2215 20.2091 46.5819 20.4865 45.7882 20.4865C45.4029 20.4865 45.06 20.4133 44.7595 20.2669C44.459 20.1205 44.2316 19.9355 44.0775 19.7121V22.5439ZM47.0943 17.5275C47.0943 17.0035 46.9556 16.5835 46.6782 16.2676C46.4008 15.944 46.0348 15.7821 45.5801 15.7821C45.1332 15.7821 44.7672 15.944 44.4821 16.2676C44.2047 16.5835 44.066 17.0035 44.066 17.5275C44.066 18.0592 44.2047 18.4868 44.4821 18.8105C44.7672 19.1341 45.1332 19.2959 45.5801 19.2959C46.0271 19.2959 46.3892 19.1341 46.6667 18.8105C46.9518 18.4868 47.0943 18.0592 47.0943 17.5275ZM52.1745 15.7821C51.743 15.7821 51.377 15.9401 51.0764 16.256C50.7759 16.5643 50.6257 16.9881 50.6257 17.5275C50.6257 18.0746 50.7759 18.5061 51.0764 18.822C51.3847 19.138 51.7584 19.2959 52.1976 19.2959C52.5906 19.2959 52.9027 19.1919 53.1339 18.9839C53.3727 18.7681 53.5307 18.5254 53.6078 18.2557L54.7867 18.6833C54.6326 19.1842 54.3321 19.6157 53.8852 19.9779C53.446 20.3401 52.8834 20.5212 52.1976 20.5212C51.3731 20.5212 50.6796 20.236 50.1171 19.6658C49.5623 19.0956 49.2849 18.3828 49.2849 17.5275C49.2849 16.6644 49.5584 15.9517 50.1055 15.3891C50.6603 14.8266 51.3461 14.5454 52.1629 14.5454C52.8642 14.5454 53.4344 14.7264 53.8736 15.0886C54.3206 15.4508 54.6095 15.8862 54.7405 16.3947L53.5384 16.834C53.4614 16.5411 53.3111 16.2946 53.0876 16.0942C52.8719 15.8862 52.5675 15.7821 52.1745 15.7821ZM55.5968 18.822C55.5968 18.3443 55.751 17.9629 56.0592 17.6777C56.3751 17.3849 56.7874 17.2 57.296 17.1229L58.7408 16.9033C59.0182 16.8648 59.1569 16.7299 59.1569 16.4988C59.1569 16.2445 59.0683 16.0403 58.891 15.8862C58.7138 15.7243 58.448 15.6434 58.0935 15.6434C57.7544 15.6434 57.4847 15.7397 57.2844 15.9324C57.084 16.1173 56.9685 16.3601 56.9376 16.6606L55.7124 16.3832C55.7664 15.8746 56.0091 15.4431 56.4406 15.0886C56.8721 14.7264 57.4192 14.5454 58.0819 14.5454C58.8988 14.5454 59.4998 14.7419 59.8851 15.1348C60.2781 15.5278 60.4746 16.0326 60.4746 16.649V19.4462C60.4746 19.8161 60.4977 20.1166 60.5439 20.3478H59.2956C59.2571 20.2322 59.2378 19.9933 59.2378 19.6311C58.8679 20.2245 58.29 20.5212 57.504 20.5212C56.9338 20.5212 56.4714 20.3555 56.117 20.0241C55.7702 19.6851 55.5968 19.2844 55.5968 18.822ZM57.7583 19.4693C58.1744 19.4693 58.5096 19.3576 58.7639 19.1341C59.0259 18.903 59.1569 18.5292 59.1569 18.0129V17.7587L57.6889 17.9783C57.1881 18.063 56.9376 18.3173 56.9376 18.7411C56.9376 18.9415 57.0108 19.1149 57.1573 19.2613C57.3037 19.4 57.504 19.4693 57.7583 19.4693ZM61.5984 18.822L62.7658 18.4984C62.7889 18.7681 62.9006 18.9954 63.101 19.1804C63.3013 19.3653 63.571 19.4578 63.9101 19.4578C64.1721 19.4578 64.3763 19.3961 64.5227 19.2728C64.6768 19.1495 64.7539 18.9954 64.7539 18.8105C64.7539 18.4868 64.5343 18.2788 64.095 18.1863L63.2628 18.0014C62.7774 17.8935 62.4036 17.6932 62.1416 17.4003C61.8796 17.1075 61.7486 16.7608 61.7486 16.3601C61.7486 15.8669 61.949 15.4431 62.3497 15.0886C62.7504 14.7264 63.2397 14.5454 63.8176 14.5454C64.1875 14.5454 64.515 14.5993 64.8001 14.7072C65.0852 14.8151 65.3048 14.9576 65.4589 15.1348C65.6208 15.3044 65.7441 15.47 65.8288 15.6319C65.9136 15.7937 65.9675 15.9555 65.9906 16.1173L64.8579 16.441C64.8271 16.2252 64.7269 16.0326 64.5574 15.863C64.3956 15.6858 64.149 15.5972 63.8176 15.5972C63.5865 15.5972 63.3938 15.6627 63.2397 15.7937C63.0856 15.917 63.0085 16.0672 63.0085 16.2445C63.0085 16.5604 63.1973 16.7569 63.5749 16.834L64.4302 17.0073C64.9542 17.1229 65.3549 17.331 65.6323 17.6315C65.9097 17.932 66.0484 18.2942 66.0484 18.718C66.0484 19.1881 65.8596 19.608 65.4821 19.9779C65.1122 20.3401 64.5921 20.5212 63.9217 20.5212C63.5364 20.5212 63.1896 20.4634 62.8814 20.3478C62.5809 20.2322 62.342 20.0858 62.1647 19.9086C61.9952 19.7236 61.8604 19.5425 61.7602 19.3653C61.6677 19.1804 61.6138 18.9993 61.5984 18.822ZM68.7188 17.042V20.3478H67.378V11.9794H68.7188V15.262C69.081 14.7919 69.6166 14.5569 70.3255 14.5569C70.9882 14.5569 71.4968 14.765 71.8512 15.1811C72.2057 15.5972 72.3829 16.1327 72.3829 16.7877V20.3478H71.0421V17.0189C71.0421 16.6413 70.9496 16.3408 70.7647 16.1173C70.5798 15.8862 70.287 15.7706 69.8863 15.7706C69.5318 15.7706 69.2505 15.89 69.0425 16.1289C68.8421 16.3678 68.7342 16.6721 68.7188 17.042ZM74.1886 20.1513C74.0114 19.9663 73.9227 19.7429 73.9227 19.4809C73.9227 19.2189 74.0114 18.9954 74.1886 18.8105C74.3735 18.6255 74.597 18.5331 74.859 18.5331C75.121 18.5331 75.3444 18.6255 75.5294 18.8105C75.7143 18.9954 75.8068 19.2189 75.8068 19.4809C75.8068 19.7429 75.7143 19.9663 75.5294 20.1513C75.3444 20.3285 75.121 20.4171 74.859 20.4171C74.597 20.4171 74.3735 20.3285 74.1886 20.1513ZM79.6939 15.7821C79.2624 15.7821 78.8964 15.9401 78.5958 16.256C78.2953 16.5643 78.1451 16.9881 78.1451 17.5275C78.1451 18.0746 78.2953 18.5061 78.5958 18.822C78.9041 19.138 79.2778 19.2959 79.717 19.2959C80.11 19.2959 80.4221 19.1919 80.6533 18.9839C80.8921 18.7681 81.0501 18.5254 81.1272 18.2557L82.3061 18.6833C82.152 19.1842 81.8515 19.6157 81.4046 19.9779C80.9654 20.3401 80.4028 20.5212 79.717 20.5212C78.8925 20.5212 78.199 20.236 77.6365 19.6658C77.0817 19.0956 76.8043 18.3828 76.8043 17.5275C76.8043 16.6644 77.0778 15.9517 77.6249 15.3891C78.1797 14.8266 78.8655 14.5454 79.6823 14.5454C80.3836 14.5454 80.9538 14.7264 81.393 15.0886C81.84 15.4508 82.1289 15.8862 82.2599 16.3947L81.0578 16.834C80.9808 16.5411 80.8305 16.2946 80.607 16.0942C80.3913 15.8862 80.0869 15.7821 79.6939 15.7821ZM84.7928 18.8452C85.101 19.1611 85.4747 19.3191 85.914 19.3191C86.3532 19.3191 86.7231 19.1611 87.0236 18.8452C87.3318 18.5292 87.4859 18.09 87.4859 17.5275C87.4859 16.9727 87.3318 16.5411 87.0236 16.2329C86.7231 15.917 86.3532 15.759 85.914 15.759C85.4747 15.759 85.101 15.917 84.7928 16.2329C84.4923 16.5411 84.342 16.9727 84.342 17.5275C84.342 18.0823 84.4923 18.5215 84.7928 18.8452ZM85.914 14.5454C86.7616 14.5454 87.459 14.8266 88.0061 15.3891C88.5609 15.9517 88.8383 16.6644 88.8383 17.5275C88.8383 18.3905 88.5609 19.1072 88.0061 19.6774C87.459 20.2399 86.7616 20.5212 85.914 20.5212C85.074 20.5212 84.3767 20.2399 83.8219 19.6774C83.2748 19.1072 83.0012 18.3905 83.0012 17.5275C83.0012 16.6644 83.2748 15.9517 83.8219 15.3891C84.3767 14.8266 85.074 14.5454 85.914 14.5454ZM91.4633 20.3478H90.134V14.7187H91.417V15.4354C91.5712 15.158 91.8023 14.9422 92.1106 14.7881C92.4265 14.634 92.7501 14.5569 93.0815 14.5569C93.4591 14.5569 93.7981 14.6417 94.0986 14.8112C94.3992 14.9807 94.6226 15.2273 94.769 15.551C95.162 14.8883 95.7708 14.5569 96.5953 14.5569C97.1501 14.5569 97.6202 14.738 98.0054 15.1002C98.3907 15.4623 98.5834 15.994 98.5834 16.6953V20.3478H97.2888V16.9149C97.2888 16.5681 97.1963 16.2907 97.0114 16.0827C96.8342 15.8669 96.5645 15.759 96.2023 15.759C95.8555 15.759 95.5743 15.8785 95.3585 16.1173C95.1428 16.3562 95.0349 16.6529 95.0349 17.0073V20.3478H93.7172V16.9149C93.7172 16.5681 93.6247 16.2907 93.4398 16.0827C93.2626 15.8669 92.9929 15.759 92.6307 15.759C92.2762 15.759 91.9911 15.8785 91.7754 16.1173C91.5673 16.3485 91.4633 16.6452 91.4633 17.0073V20.3478ZM104.629 12.0949L100.595 20.4056H99.3583L103.392 12.0949H104.629ZM106.826 20.3478H105.497V14.7187H106.826V20.3478ZM105.543 13.3548C105.373 13.1853 105.289 12.9811 105.289 12.7422C105.289 12.5033 105.373 12.2991 105.543 12.1296C105.712 11.9524 105.917 11.8638 106.155 11.8638C106.402 11.8638 106.61 11.9485 106.78 12.1181C106.949 12.2876 107.034 12.4956 107.034 12.7422C107.034 12.9811 106.949 13.1853 106.78 13.3548C106.61 13.5244 106.402 13.6091 106.155 13.6091C105.917 13.6091 105.712 13.5244 105.543 13.3548ZM109.896 17.0998V20.3478H108.556V14.7187H109.862V15.47C110.039 15.1618 110.274 14.9345 110.567 14.7881C110.867 14.634 111.187 14.5569 111.526 14.5569C112.189 14.5569 112.694 14.765 113.04 15.1811C113.387 15.5972 113.56 16.1327 113.56 16.7877V20.3478H112.22V17.0189C112.22 16.6413 112.127 16.3408 111.942 16.1173C111.757 15.8862 111.464 15.7706 111.064 15.7706C110.694 15.7706 110.405 15.8977 110.197 16.152C109.997 16.3986 109.896 16.7145 109.896 17.0998ZM120.222 14.7187L118.014 20.3478H116.674L114.385 14.7187H115.864L117.356 18.7411L118.812 14.7187H120.222ZM122.538 20.3478H121.209V14.7187H122.538V20.3478ZM121.255 13.3548C121.086 13.1853 121.001 12.9811 121.001 12.7422C121.001 12.5033 121.086 12.2991 121.255 12.1296C121.425 11.9524 121.629 11.8638 121.868 11.8638C122.114 11.8638 122.323 11.9485 122.492 12.1181C122.662 12.2876 122.746 12.4956 122.746 12.7422C122.746 12.9811 122.662 13.1853 122.492 13.3548C122.323 13.5244 122.114 13.6091 121.868 13.6091C121.629 13.6091 121.425 13.5244 121.255 13.3548ZM125.967 12.9965V14.7187H127.135V15.9093H125.967V18.5215C125.967 18.7681 126.025 18.9492 126.141 19.0648C126.256 19.1727 126.437 19.2266 126.684 19.2266C126.838 19.2266 126.992 19.2112 127.146 19.1804V20.29C126.946 20.3747 126.672 20.4171 126.325 20.4171C125.801 20.4171 125.389 20.2707 125.089 19.9779C124.788 19.6774 124.638 19.2651 124.638 18.7411V15.9093H123.598V14.7187H123.887C124.172 14.7187 124.387 14.6378 124.534 14.476C124.68 14.3142 124.753 14.1023 124.753 13.8403V12.9965H125.967ZM129.392 16.9149H132.155C132.139 16.5604 132.012 16.2637 131.773 16.0249C131.542 15.786 131.207 15.6665 130.767 15.6665C130.367 15.6665 130.043 15.7937 129.797 16.048C129.55 16.2946 129.415 16.5835 129.392 16.9149ZM132.305 18.3828L133.438 18.7411C133.276 19.2574 132.971 19.6851 132.524 20.0241C132.085 20.3555 131.542 20.5212 130.895 20.5212C130.093 20.5212 129.411 20.2476 128.849 19.7005C128.294 19.1534 128.017 18.4213 128.017 17.5044C128.017 16.6413 128.286 15.9324 128.826 15.3776C129.373 14.8228 130.016 14.5454 130.756 14.5454C131.619 14.5454 132.293 14.8112 132.779 15.3429C133.264 15.8669 133.507 16.5758 133.507 17.4697C133.507 17.7086 133.495 17.8511 133.472 17.8974H129.357C129.373 18.3212 129.527 18.6718 129.82 18.9492C130.12 19.2266 130.479 19.3653 130.895 19.3653C131.619 19.3653 132.089 19.0378 132.305 18.3828Z" fill="white"/>
</svg>
