<svg xmlns="http://www.w3.org/2000/svg" width="42.499" height="42.499" viewBox="0 0 42.499 42.499"><defs><style>.a{fill:#818dff;opacity:0.4;}.b{fill:#6c63ff;}</style></defs><g transform="translate(-875.486 -371.206)"><ellipse class="a" cx="21.249" cy="21.249" rx="21.249" ry="21.249" transform="translate(875.486 371.206)"/><g transform="translate(889.641 385.995)"><g transform="translate(0 0)"><path class="b" d="M485.006,255.013a.923.923,0,0,0,.924-.922v-2.767H497v2.767a.922.922,0,0,0,1.845,0V250.4a.922.922,0,0,0-.922-.922H485.006a.923.923,0,0,0-.922.922v3.69A.923.923,0,0,0,485.006,255.013Z" transform="translate(-484.084 -249.478)"/></g><g transform="translate(3.692 3.69)"><path class="b" d="M490.4,251.716a.923.923,0,0,0-1.3,0l-2.767,2.767a.923.923,0,0,0,1.3,1.3l1.192-1.192v5.152a.922.922,0,1,0,1.845,0V254.6l1.192,1.192a.923.923,0,0,0,1.3-1.3Z" transform="translate(-486.053 -251.446)"/></g></g></g></svg>