<svg xmlns="http://www.w3.org/2000/svg" width="50.508" height="50.508" viewBox="0 0 50.508 50.508"><defs><style>.a{fill:#6648bf;}.b{fill:#f3f3f3;}</style></defs><g transform="translate(-426.979 -341.362)"><ellipse class="a" cx="25.254" cy="25.254" rx="25.254" ry="25.254" transform="translate(426.979 341.362)"/><g transform="translate(441.587 356.217)"><path class="b" d="M275.9,230.574h-1.331v-3.992a1.329,1.329,0,0,0-1.331-1.331H259.929a4,4,0,0,0-3.993,3.992v10.646a4,4,0,0,0,3.993,3.992H275.9a1.33,1.33,0,0,0,1.331-1.331V231.9A1.33,1.33,0,0,0,275.9,230.574Zm-15.968-2.661h11.976v2.661H259.929a1.331,1.331,0,1,1,0-2.661Zm0,13.307a1.332,1.332,0,0,1-1.331-1.331v-6.9a3.957,3.957,0,0,0,1.331.245h14.637v7.985Z" transform="translate(-255.936 -225.252)"/></g></g></svg>