<svg xmlns="http://www.w3.org/2000/svg" xmlns:xlink="http://www.w3.org/1999/xlink" width="22.033" height="14.688" viewBox="0 0 22.033 14.688"><defs><style>.a{fill:#0ac769;}.b{clip-path:url(#a);}</style><clipPath id="a"><path class="a" d="M22.023,1.179a1.078,1.078,0,0,0-.051-.256,1.159,1.159,0,0,0-.058-.208A1.058,1.058,0,0,0,21.8.541,1.2,1.2,0,0,0,21.632.33C21.621.319,21.616.3,21.6.295a1.137,1.137,0,0,0-.146-.082A1.234,1.234,0,0,0,21.23.084a1.228,1.228,0,0,0-.247-.049A1.151,1.151,0,0,0,20.809,0h-6.12a1.224,1.224,0,0,0,0,2.448h3.459l-4.94,5.763L7.974,5.071a1.221,1.221,0,0,0-1.57.266L.283,12.681a1.224,1.224,0,0,0,1.881,1.567L7.614,7.709l5.22,3.133a1.224,1.224,0,0,0,1.559-.253l5.191-6.056V7.344a1.224,1.224,0,1,0,2.448,0V1.224c0-.016-.009-.029-.01-.045" transform="translate(0)"/></clipPath></defs><g transform="translate(-3 -6)"><path class="a" d="M22.023,1.179a1.078,1.078,0,0,0-.051-.256,1.159,1.159,0,0,0-.058-.208A1.058,1.058,0,0,0,21.8.541,1.2,1.2,0,0,0,21.632.33C21.621.319,21.616.3,21.6.295a1.137,1.137,0,0,0-.146-.082A1.234,1.234,0,0,0,21.23.084a1.228,1.228,0,0,0-.247-.049A1.151,1.151,0,0,0,20.809,0h-6.12a1.224,1.224,0,0,0,0,2.448h3.459l-4.94,5.763L7.974,5.071a1.221,1.221,0,0,0-1.57.266L.283,12.681a1.224,1.224,0,0,0,1.881,1.567L7.614,7.709l5.22,3.133a1.224,1.224,0,0,0,1.559-.253l5.191-6.056V7.344a1.224,1.224,0,1,0,2.448,0V1.224c0-.016-.009-.029-.01-.045" transform="translate(3 6)"/></g></svg>