<svg xmlns="http://www.w3.org/2000/svg" xmlns:xlink="http://www.w3.org/1999/xlink" width="20" height="20" viewBox="0 0 20 20"><defs><style>.a{fill:#6c63ff;}.b{clip-path:url(#a);}</style><clipPath id="a"><path class="a" d="M10,20A10,10,0,1,1,20,10,10.011,10.011,0,0,1,10,20Zm0-7a1,1,0,1,0,1,1A1,1,0,0,0,10,13Zm0-8A1,1,0,0,0,9,6v5a1,1,0,1,0,2,0V6A1,1,0,0,0,10,5Z" transform="translate(2 2)"/></clipPath></defs><g transform="translate(-2 -2)"><path class="a" d="M10,20A10,10,0,1,1,20,10,10.011,10.011,0,0,1,10,20Zm0-7a1,1,0,1,0,1,1A1,1,0,0,0,10,13Zm0-8A1,1,0,0,0,9,6v5a1,1,0,1,0,2,0V6A1,1,0,0,0,10,5Z" transform="translate(2 2)"/></g></svg>