<svg xmlns="http://www.w3.org/2000/svg" width="163.606" height="147.029" viewBox="0 0 163.606 147.029"><defs><style>.a{fill:#fff;stroke:#fff;stroke-width:6px;}</style></defs><g transform="translate(1.188 -2.513)"><path class="a" d="M84.836,59.935a2.661,2.661,0,0,1-2.661-2.66V23.906H55.565a2.661,2.661,0,1,1,0-5.321h29.27A2.661,2.661,0,0,1,87.5,21.246V57.279a2.66,2.66,0,0,1-2.661,2.656Z" transform="translate(63.329 16.203)"/><path class="a" d="M148.165,138.442H24.431A22.643,22.643,0,0,1,1.812,115.823V14.708a2.661,2.661,0,0,1,5.321,0V115.826a17.316,17.316,0,0,0,17.3,17.3H145.5V97.31a2.661,2.661,0,0,1,5.321,0v38.474a2.66,2.66,0,0,1-2.661,2.658Z" transform="translate(0 8.1)"/><path class="a" d="M99.371,71.926H64.59a18.626,18.626,0,0,1,0-37.252H99.371a5.328,5.328,0,0,1,5.321,5.321V66.6A5.328,5.328,0,0,1,99.371,71.926Zm0-31.931H64.59a13.3,13.3,0,0,0,0,26.61H99.371Z" transform="translate(54.726 36.145)"/><path class="a" d="M118.895,40.1H19.108a17.3,17.3,0,0,1,0-34.591h97.115a5.346,5.346,0,0,1,5.332,5.346V37.444a2.661,2.661,0,0,1-2.66,2.661ZM19.108,10.834a11.975,11.975,0,0,0,0,23.949h97.115V10.859Z" transform="translate(0 0)"/><path class="a" d="M104.4,17.369H16.165a2.661,2.661,0,0,1,0-5.321H104.4a2.661,2.661,0,0,1,0,5.321Z" transform="translate(14.493 8.1)"/><path class="a" d="M60.249,56.5a8.893,8.893,0,1,1,8.9-8.891A8.893,8.893,0,0,1,60.249,56.5Zm0-13.09a4.2,4.2,0,1,0,4.192,4.2,4.2,4.2,0,0,0-4.192-4.2Z" transform="translate(61.412 41.155)"/></g></svg>