<svg xmlns="http://www.w3.org/2000/svg" width="24.326" height="21.799" viewBox="0 0 24.326 21.799"><defs><style>.a{fill:#818dff;stroke:#818dff;stroke-width:0.3px;}</style></defs><g transform="translate(-1.662 -5.363)"><path class="a" d="M57.773,24.889a.406.406,0,0,1-.406-.406V19.4H53.311a.406.406,0,1,1,0-.811h4.462a.406.406,0,0,1,.406.406v5.493a.406.406,0,0,1-.406.4Z" transform="translate(-33.65 -8.609)"/><path class="a" d="M24.123,31.316H5.26a3.452,3.452,0,0,1-3.448-3.448V12.454a.406.406,0,0,1,.811,0V27.868A2.64,2.64,0,0,0,5.26,30.505H23.717v-5.46a.406.406,0,0,1,.811,0v5.865a.406.406,0,0,1-.406.405Z" transform="translate(0 -4.304)"/><path class="a" d="M54.106,40.353H48.8a2.839,2.839,0,0,1,0-5.679h5.3a.812.812,0,0,1,.811.811v4.057A.812.812,0,0,1,54.106,40.353Zm0-4.868H48.8a2.028,2.028,0,0,0,0,4.057h5.3Z" transform="translate(-29.078 -19.205)"/><path class="a" d="M19.661,10.786H4.449a2.637,2.637,0,0,1,0-5.273h14.8a.815.815,0,0,1,.813.815v4.053a.406.406,0,0,1-.406.406ZM4.449,6.324a1.825,1.825,0,0,0,0,3.651h14.8V6.328Z"/><path class="a" d="M27.362,12.859H13.911a.406.406,0,0,1,0-.811H27.362a.406.406,0,1,1,0,.811Z" transform="translate(-7.701 -4.304)"/><path class="a" d="M52.713,41.427a1.356,1.356,0,1,1,1.356-1.355A1.356,1.356,0,0,1,52.713,41.427Zm0-2a.64.64,0,1,0,.639.64.64.64,0,0,0-.639-.64Z" transform="translate(-32.631 -21.867)"/></g></svg>