<svg xmlns="http://www.w3.org/2000/svg" xmlns:xlink="http://www.w3.org/1999/xlink" width="29.036" height="29.036" viewBox="0 0 29.036 29.036">
  <defs>
    <linearGradient id="linear-gradient" y1="0.5" x2="1" y2="0.5" gradientUnits="objectBoundingBox">
      <stop offset="0" stop-color="#17e1ff"/>
      <stop offset="0.72" stop-color="#367bff"/>
    </linearGradient>
  </defs>
  <g id="Group_417" data-name="Group 417" transform="translate(-770.391 -373.242)">
    <circle id="Ellipse_73" data-name="Ellipse 73" cx="14.518" cy="14.518" r="14.518" transform="translate(770.391 373.242)" fill="#f7fbff"/>
    <path id="Path_346" data-name="Path 346" d="M778.433,384.024V390.5c0,2.127,3.258,3.238,6.476,3.238s6.476-1.111,6.476-3.238v-6.475C791.385,379.771,778.433,379.771,778.433,384.024Zm11.333,3.238c0,.57-1.844,1.618-4.857,1.618s-4.857-1.048-4.857-1.618v-1.049a11.769,11.769,0,0,0,9.714,0Zm-4.857-4.857c3.013,0,4.857,1.048,4.857,1.619s-1.844,1.619-4.857,1.619-4.857-1.049-4.857-1.619S781.9,382.4,784.909,382.4Zm0,9.713c-3.013,0-4.857-1.048-4.857-1.619v-1.048a11.779,11.779,0,0,0,9.714,0V390.5C789.766,391.07,787.922,392.118,784.909,392.118Z" fill="url(#linear-gradient)"/>
  </g>
</svg>
