<svg xmlns="http://www.w3.org/2000/svg" width="12.97" height="9.44" viewBox="0 0 12.97 9.44"><defs><style>.a{fill:#e5e5e5;}</style></defs><g transform="translate(-20.011 -182.177)"><path class="a" d="M28.585,188.039a.22.22,0,0,0,.154.212v-.415l-.018.007A.214.214,0,0,0,28.585,188.039Z"/><path class="a" d="M29.227,189.376a.326.326,0,0,0,.052-.028.284.284,0,0,0,.138-.249.239.239,0,0,0-.19-.236Z"/><path class="a" d="M27.949,182.269l-.033-.014-.013-.005a1.083,1.083,0,0,0-.619-.049l-.014,0-.021.006c-1.947.529-4.536,1.229-5.81,1.564l-.029.01-.086.033a4.893,4.893,0,0,1-1.069.2.24.24,0,0,0-.24.24v.175a.232.232,0,0,0,0,.046l0,2.2a.241.241,0,0,0,.236.282,2.58,2.58,0,0,1,1.632.767c.113.09.226.18.344.267a3.129,3.129,0,0,0,1.944.716c.366,0,.663,0,.9-.011H26.1a2.815,2.815,0,1,0,5.622-.072,3.086,3.086,0,0,0-.142-.929l.027.011a1.228,1.228,0,0,0,.132.031.881.881,0,0,0,.322-.006,1.05,1.05,0,0,0,.919-1.066,1.091,1.091,0,0,0-.293-.748l-.012-.013a1.055,1.055,0,0,0-.23-.18l-4.427-3.423A.248.248,0,0,0,27.949,182.269Zm.961,9.028a2.576,2.576,0,0,1-2.485-2.485h.616a.829.829,0,0,0,.774-.569.808.808,0,0,0,.129.281,1.056,1.056,0,0,0,.636.407v.168a.894.894,0,0,1-.091-.093.282.282,0,0,0-.228-.113.347.347,0,0,0-.138.037l-.017.009-.238.149h0a.27.27,0,0,0-.075.4,1.372,1.372,0,0,0,.276.293,1.355,1.355,0,0,0,.512.265v.1a.291.291,0,0,0,.287.3H29.1a.291.291,0,0,0,.287-.3v-.1a1.278,1.278,0,0,0,.421-.188.913.913,0,0,0,.4-.762.816.816,0,0,0-.166-.531,1.126,1.126,0,0,0-.657-.386v-.04a.32.32,0,0,0,.107.018.314.314,0,0,0,.158-.044l.013-.008.262-.175a.27.27,0,0,0,.125-.223.265.265,0,0,0-.075-.189,1.2,1.2,0,0,0-.59-.387V187a.292.292,0,0,0-.287-.3h-.233a.292.292,0,0,0-.287.3v.125a1.177,1.177,0,0,0-.238.086.93.93,0,0,0-.5.516.869.869,0,0,0-.443-.565.779.779,0,0,0-.355-.087h-.153a2.451,2.451,0,0,1,2.022-1.114c.037,0,.073,0,.109,0l1.922,1.329.2.156a2.78,2.78,0,0,1,.259,1.179A2.588,2.588,0,0,1,28.91,191.3Zm.948-3.666a.1.1,0,0,1,.034.079.11.11,0,0,1-.054.092l-.262.175h0A.213.213,0,0,1,29.5,188a.157.157,0,0,1-.109-.042.663.663,0,0,0-.16-.112v.469a1.028,1.028,0,0,1,.691.351.661.661,0,0,1,.132.429.753.753,0,0,1-.335.635,1.166,1.166,0,0,1-.488.189v.231a.131.131,0,0,1-.127.136h-.233a.132.132,0,0,1-.128-.136v-.231a1.2,1.2,0,0,1-.569-.26,1.229,1.229,0,0,1-.25-.265.109.109,0,0,1-.027-.072.111.111,0,0,1,.059-.1l.238-.149h0a.245.245,0,0,1,.07-.021.121.121,0,0,1,.1.054.939.939,0,0,0,.375.278V188.8a.951.951,0,0,1-.664-.368.69.69,0,0,1-.126-.4.718.718,0,0,1,.463-.684,1.126,1.126,0,0,1,.327-.1V187a.132.132,0,0,1,.128-.136H29.1a.131.131,0,0,1,.127.136v.264A1.036,1.036,0,0,1,29.858,187.631Zm-3.393-.472a.117.117,0,0,0-.01.026H25.2a.527.527,0,0,1-.4-.529.548.548,0,0,1,.237-.458c.074-.022.241-.068.46-.13l.171-.049c.213-.054.433-.116.65-.183l.043-.012c.936-.264,1.531-.431,1.69-.472a.687.687,0,0,1,.133.006l.434.3A2.819,2.819,0,0,0,26.465,187.159Zm5.7-1.041a.211.211,0,0,0,.031.021.517.517,0,0,1,.131.1l.006.007a.609.609,0,0,1,.167.423.569.569,0,0,1-.5.589l-.031.005a.357.357,0,0,1-.155,0,.343.343,0,0,1-.061-.014.474.474,0,0,1-.076-.034.3.3,0,0,1-.045-.027l-.011-.007-.475-.366-.01-.008-2.714-1.876a.229.229,0,0,0-.076-.035,1.077,1.077,0,0,0-.34-.026.161.161,0,0,0-.044.006c-.157.04-1.025.283-1.727.481l-.048.014q-.323.1-.638.18l-.177.05-.494.14a.249.249,0,0,0-.056.024,1.027,1.027,0,0,0-.5.886,1,1,0,0,0,.812,1,.271.271,0,0,0,.041,0H26.9a.28.28,0,0,1,0,.556H25.061c-.237.008-.529.012-.89.012a2.658,2.658,0,0,1-1.658-.622c-.113-.084-.223-.171-.332-.258A3.289,3.289,0,0,0,20.5,186.5v-1.729l0-.256,0-.032a7.022,7.022,0,0,0,.967-.2l.026-.008.087-.035c1.28-.336,3.859-1.034,5.8-1.561l.014,0a.6.6,0,0,1,.344.029l.019.009,4.227,3.267Z"/></g></svg>