<svg xmlns="http://www.w3.org/2000/svg" width="9.976" height="10.075" viewBox="0 0 9.976 10.075">
  <g id="Group_129" data-name="Group 129" transform="translate(-897.736 -2110.438)">
    <path id="Path_189" data-name="Path 189" d="M897.736,2119c0,.985,2.427,1.517,4.711,1.517s4.711-.532,4.711-1.517c0-.6-.906-1.035-2.13-1.281l.227-.186a2.174,2.174,0,0,0,.8-1.69,2.141,2.141,0,0,0-.129-.736.678.678,0,0,0,.075,0,.722.722,0,0,0,.464-.166l.451-.37a2.163,2.163,0,0,0,.8-1.69,2.185,2.185,0,0,0-.49-1.378l-.005-.007-.214-.26a2.186,2.186,0,0,0-3.072-.305l-1.648,1.351a2.181,2.181,0,0,0-.67,2.426c-.023,0-.048,0-.075,0a.731.731,0,0,0-.464.166l-.451.369a2.184,2.184,0,0,0-.658,2.457C898.691,2117.938,897.736,2118.377,897.736,2119Zm3.111-3.484.45-.37a.381.381,0,0,1,.237-.086.477.477,0,0,1,.082.009.309.309,0,0,0,.351-.417,1.828,1.828,0,0,1,.539-2.094l1.648-1.35a1.833,1.833,0,0,1,2.577.256l.21.256,0,0,0,0a1.835,1.835,0,0,1-.255,2.577l-.451.369a.362.362,0,0,1-.236.087h-.011a.31.31,0,0,1-.072-.009.309.309,0,0,0-.351.417,1.8,1.8,0,0,1,.131.676,1.823,1.823,0,0,1-.67,1.418l-1.647,1.35a1.834,1.834,0,0,1-2.578-.256l-.215-.262a1.833,1.833,0,0,1,.256-2.577Zm-1.556,2.7a7.847,7.847,0,0,1,.828-.194,2.136,2.136,0,0,0,.2.29l.215.262a2.185,2.185,0,0,0,3.073.3l1.067-.874a7.88,7.88,0,0,1,.929.211c.887.262,1.2.575,1.2.78s-.316.517-1.2.78a13.128,13.128,0,0,1-6.312,0c-.887-.263-1.2-.575-1.2-.78S898.4,2118.478,899.291,2118.216Z" fill="#c4c6cc"/>
    <path id="Path_190" data-name="Path 190" d="M903.188,2113.842a.361.361,0,0,1,.159-.069,1.817,1.817,0,0,1,.788.039h0a1.806,1.806,0,0,1,.336.129l.005,0,.009,0c.049.026.1.054.148.085l.018.011,0,0c.039.026.078.053.122.087l.013.01.009.007c.042.034.083.071.124.109l.028.029c.046.047.083.087.116.127l.013.015a.305.305,0,0,0,.239.114.32.32,0,0,0,.074-.009.31.31,0,0,0,.229-.238.382.382,0,0,1,.131-.218l.451-.369a1.074,1.074,0,0,0,.392-.83,1.059,1.059,0,0,0-.243-.678l-.215-.263a1.072,1.072,0,0,0-.821-.392h-.009a1.062,1.062,0,0,0-.678.242l-1.648,1.351a1.069,1.069,0,0,0-.25.3.309.309,0,0,0,.451.4Zm.023-.428,1.648-1.35a.712.712,0,0,1,.452-.163h.006a.724.724,0,0,1,.554.263l.215.263a.721.721,0,0,1-.1,1.012h0l-.45.369a.725.725,0,0,0-.231.338c-.029-.033-.061-.067-.1-.1l-.031-.032c-.05-.048-.1-.091-.156-.137l-.01-.007-.01-.009c-.051-.039-.1-.072-.14-.1l-.009-.007-.022-.014c-.06-.038-.12-.072-.181-.1l-.012-.006,0,0a2.153,2.153,0,0,0-.4-.152l0,0a2.2,2.2,0,0,0-.943-.047.686.686,0,0,0-.126.034C903.177,2113.444,903.193,2113.428,903.211,2113.414Z" fill="#c4c6cc"/>
    <path id="Path_191" data-name="Path 191" d="M904.295,2114.719l-.03-.022c-.03-.02-.062-.04-.1-.058l-.056-.028h0l-.007,0-.042-.019c-.024-.009-.047-.018-.079-.028l-.018-.006a1.029,1.029,0,0,0-.176-.038,1.042,1.042,0,0,0-.317,0,.323.323,0,0,1-.063,0,.309.309,0,0,0-.186.554,1.078,1.078,0,0,0,.659.225,1.12,1.12,0,0,0,.173-.015h.007a.475.475,0,0,1,.059,0,.31.31,0,0,0,.287-.215.316.316,0,0,0-.107-.343Zm-.412.233a.734.734,0,0,1-.341-.085.7.7,0,0,1,.205,0,.791.791,0,0,1,.119.026l.015,0,.045.016a.178.178,0,0,0,.062.032A.859.859,0,0,1,903.883,2114.952Z" fill="#c4c6cc"/>
    <path id="Path_192" data-name="Path 192" d="M901.394,2117.87a1.073,1.073,0,0,0,1.508.15l1.648-1.351a1.054,1.054,0,0,0,.25-.3h0a.307.307,0,0,0-.063-.384.312.312,0,0,0-.388-.019.362.362,0,0,1-.158.069,1.835,1.835,0,0,1-1.726-.643l-.013-.017a.309.309,0,0,0-.542.134.379.379,0,0,1-.131.218l-.45.37a1.072,1.072,0,0,0-.15,1.507Zm.83.039a.713.713,0,0,1-.311-.07q.264-.009.534-.009h.1A.715.715,0,0,1,902.224,2117.909Zm-.672-1.537L902,2116a.73.73,0,0,0,.23-.338,2.182,2.182,0,0,0,2.017.72.641.641,0,0,0,.127-.034c-.016.016-.033.031-.05.045l-1.333,1.092c-.182-.006-.365-.01-.547-.01-.3,0-.6.009-.9.027l-.1-.122a.707.707,0,0,1-.162-.454A.717.717,0,0,1,901.552,2116.372Z" fill="#c4c6cc"/>
  </g>
</svg>
