<svg xmlns="http://www.w3.org/2000/svg" width="48" height="48" viewBox="0 0 48 48">
  <g id="Group_88" data-name="Group 88" transform="translate(-1031 -402)">
    <circle id="Ellipse_26" data-name="Ellipse 26" cx="24" cy="24" r="24" transform="translate(1031 402)" fill="#c6a1ff" opacity="0.33"/>
    <circle id="Ellipse_27" data-name="Ellipse 27" cx="19.714" cy="19.714" r="19.714" transform="translate(1035.286 406.286)" fill="#c6a1ff" opacity="0.33"/>
    <g id="Group_75" data-name="Group 75" transform="translate(1048.303 417.662)">
      <path id="Path_33" data-name="Path 33" d="M24.167,303.67h9.488a2.224,2.224,0,0,0,2.222-2.222v-6.076a2.224,2.224,0,0,0-1.93-2.2v-2.4a5.035,5.035,0,1,0-10.07,0v2.4a2.224,2.224,0,0,0-1.93,2.2v6.076A2.224,2.224,0,0,0,24.167,303.67Zm-1.392-8.3a1.393,1.393,0,0,1,1.392-1.392h9.488a1.393,1.393,0,0,1,1.392,1.392v6.076a1.394,1.394,0,0,1-1.392,1.393H24.167a1.394,1.394,0,0,1-1.392-1.393Zm6.136-8.808a4.21,4.21,0,0,1,4.205,4.205v2.381h-.664V290.77a3.541,3.541,0,1,0-7.081,0v2.381h-.664V290.77A4.211,4.211,0,0,1,28.911,286.565Zm2.712,6.586H26.2V290.77a2.711,2.711,0,0,1,5.423,0Z" transform="translate(-21.945 -285.735)" fill="#818dff"/>
      <path id="Path_34" data-name="Path 34" d="M25.885,296.719h1.657a.332.332,0,0,0,.331-.333v-3.84a.331.331,0,0,0-.331-.331H25.885a.331.331,0,0,0-.331.331v3.84A.332.332,0,0,0,25.885,296.719Zm.331-3.842h.993v3.177h-.993Z" transform="translate(-19.748 -281.791)" fill="#818dff"/>
    </g>
  </g>
</svg>
