<svg xmlns="http://www.w3.org/2000/svg" width="7.439" height="8.949" viewBox="0 0 7.439 8.949">
  <path id="Path_188" data-name="Path 188" d="M903.833,2131.138a.7.7,0,0,0-.713.63v.95a3.719,3.719,0,1,0,1.426,0v-.95A.7.7,0,0,0,903.833,2131.138Zm-.294.63c0-.1.159-.211.294-.211s.293.114.293.211v3.7c0,.1-.159.209-.293.209s-.294-.113-.294-.209Zm.294,4.334a.7.7,0,0,0,.713-.629v-1.158a2.174,2.174,0,1,1-1.426,0v1.158A.7.7,0,0,0,903.833,2136.1Zm3.3.266a3.3,3.3,0,1,1-4.012-3.222v.729a2.592,2.592,0,1,0,1.426,0v-.729A3.3,3.3,0,0,1,907.132,2136.368Z" transform="translate(-900.113 -2131.138)" fill="#c4c6cc"/>
</svg>
