<svg xmlns="http://www.w3.org/2000/svg" width="27.775" height="27.775" viewBox="0 0 27.775 27.775">
  <g id="Group_125" data-name="Group 125" transform="translate(-200.924 -315.403)">
    <circle id="Ellipse_72" data-name="Ellipse 72" cx="13.887" cy="13.887" r="13.887" transform="translate(200.924 315.403)" fill="#a4fffa" opacity="0.6"/>
    <g id="Group_118" data-name="Group 118" transform="translate(-6178.993 -991.183)">
      <g id="Group_116" data-name="Group 116">
        <path id="Path_90" data-name="Path 90" d="M6389.424,1321.059a.6.6,0,0,0,.6-.6v-1.809h7.235v1.809a.6.6,0,0,0,1.206,0v-2.412a.6.6,0,0,0-.6-.6h-8.441a.6.6,0,0,0-.6.6v2.412A.6.6,0,0,0,6389.424,1321.059Z" fill="#13d6b9"/>
      </g>
      <g id="Group_117" data-name="Group 117">
        <path id="Path_91" data-name="Path 91" d="M6394.071,1320.03a.6.6,0,0,0-.853,0l-1.808,1.809a.6.6,0,0,0,.852.853l.78-.78v3.368a.6.6,0,0,0,1.206,0v-3.368l.779.78a.6.6,0,0,0,.853-.853Z" fill="#13d6b9"/>
      </g>
    </g>
  </g>
</svg>
