<svg xmlns="http://www.w3.org/2000/svg" width="27.775" height="27.775" viewBox="0 0 27.775 27.775">
  <g id="Group_128" data-name="Group 128" transform="translate(-200.591 -315.403)">
    <circle id="Ellipse_57" data-name="Ellipse 57" cx="13.887" cy="13.887" r="13.887" transform="translate(200.591 315.403)" fill="#ffbca1" opacity="0.6"/>
    <g id="Group_94" data-name="Group 94" transform="translate(-5732.993 -991.183)">
      <g id="Group_92" data-name="Group 92">
        <path id="Path_63" data-name="Path 63" d="M5943.091,1321.059a.6.6,0,0,0,.6-.6v-1.809h7.235v1.809a.6.6,0,0,0,1.206,0v-2.412a.6.6,0,0,0-.6-.6h-8.441a.6.6,0,0,0-.6.6v2.412A.6.6,0,0,0,5943.091,1321.059Z" fill="#ff994d"/>
      </g>
      <g id="Group_93" data-name="Group 93">
        <path id="Path_64" data-name="Path 64" d="M5947.738,1320.03a.6.6,0,0,0-.853,0l-1.808,1.809a.6.6,0,0,0,.852.853l.78-.78v3.368a.6.6,0,0,0,1.206,0v-3.368l.779.78a.6.6,0,0,0,.853-.853Z" fill="#ff994d"/>
      </g>
    </g>
  </g>
</svg>
