<svg xmlns="http://www.w3.org/2000/svg" width="27.487" height="65.428" viewBox="0 0 27.487 65.428">
  <g id="Group_255" data-name="Group 255" transform="translate(-1422.257 -2293.185)">
    <g id="Group_249" data-name="Group 249" opacity="0.1">
      <path id="Path_383" data-name="Path 383" d="M1439.626,2299.346a1.16,1.16,0,1,1-1.16-1.161A1.161,1.161,0,0,1,1439.626,2299.346Z"/>
      <path id="Path_384" data-name="Path 384" d="M1441.04,2356.038a2.574,2.574,0,1,1-2.574-2.574A2.574,2.574,0,0,1,1441.04,2356.038Z"/>
      <path id="Path_385" data-name="Path 385" d="M1447.264,2326.5h-17.527a2.488,2.488,0,0,0-2.48,2.48V2343.7a2.487,2.487,0,0,0,2.48,2.479h17.527a2.486,2.486,0,0,0,2.48-2.479v-14.717A2.488,2.488,0,0,0,1447.264,2326.5Z"/>
      <path id="Path_386" data-name="Path 386" d="M1446.076,2326.5l-2.185-.009v-7.317a4.376,4.376,0,0,0-4.37-4.371h-2.11a4.375,4.375,0,0,0-4.37,4.371v7.317h-2.184v-7.317a6.561,6.561,0,0,1,6.554-6.555h2.11c3.614,0,6.555,2.94,6.555,7.306Z"/>
      <path id="Path_387" data-name="Path 387" d="M1442.652,2340.272l-2.687-4.655a3.147,3.147,0,1,0-2.929,0l-2.687,4.655c-.3.517-.055.939.542.939h7.219C1442.706,2341.211,1442.951,2340.789,1442.652,2340.272Z"/>
    </g>
    <g id="Group_254" data-name="Group 254">
      <g id="Group_253" data-name="Group 253">
        <g id="Group_250" data-name="Group 250">
          <path id="Path_388" data-name="Path 388" d="M1434.626,2294.346a1.16,1.16,0,1,1-1.16-1.161A1.161,1.161,0,0,1,1434.626,2294.346Z" fill="#fff"/>
          <path id="Path_389" data-name="Path 389" d="M1436.04,2351.038a2.574,2.574,0,1,1-2.574-2.574A2.574,2.574,0,0,1,1436.04,2351.038Z" fill="#fff"/>
        </g>
        <g id="Group_252" data-name="Group 252">
          <path id="Path_390" data-name="Path 390" d="M1442.264,2321.5h-17.527a2.488,2.488,0,0,0-2.48,2.48V2338.7a2.487,2.487,0,0,0,2.48,2.479h17.527a2.486,2.486,0,0,0,2.48-2.479v-14.717A2.488,2.488,0,0,0,1442.264,2321.5Z" fill="#367bff"/>
          <g id="Group_251" data-name="Group 251">
            <path id="Path_391" data-name="Path 391" d="M1441.076,2321.5l-2.185-.009v-7.317a4.376,4.376,0,0,0-4.37-4.371h-2.11a4.375,4.375,0,0,0-4.37,4.371v7.317h-2.184v-7.317a6.561,6.561,0,0,1,6.554-6.555h2.11c3.614,0,6.555,2.94,6.555,7.306Z" fill="#367bff"/>
          </g>
          <path id="Path_392" data-name="Path 392" d="M1437.652,2335.272l-2.687-4.655a3.147,3.147,0,1,0-2.929,0l-2.687,4.655c-.3.517-.055.939.542.939h7.219C1437.706,2336.211,1437.951,2335.789,1437.652,2335.272Z" fill="#fff"/>
        </g>
      </g>
    </g>
  </g>
</svg>
