<svg xmlns="http://www.w3.org/2000/svg" width="12.339" height="10.334" viewBox="0 0 12.339 10.334"><defs><style>.a{fill:#e5e5e5;}</style></defs><g transform="translate(-19.815 -466.224)"><path class="a" d="M31.62,474.254a.263.263,0,0,0,.308-.209l.222-1.162a.263.263,0,0,0-.041-.2.266.266,0,0,0-.168-.111l-.449-.085a3.133,3.133,0,0,0-.15-.722l.378-.257a.263.263,0,0,0,.07-.365l-.665-.979a.261.261,0,0,0-.168-.11.258.258,0,0,0-.2.04l-.379.257a3.128,3.128,0,0,0-.615-.4l.085-.449a.263.263,0,0,0-.209-.307l-1.162-.222a.264.264,0,0,0-.308.209l-.085.449a3.133,3.133,0,0,0-.722.15l-.257-.378a.262.262,0,0,0-.168-.111.266.266,0,0,0-.2.041l-.978.665a.26.26,0,0,0-.111.168.264.264,0,0,0,.041.2l.257.378a3.142,3.142,0,0,0-.405.617l-.448-.086a.264.264,0,0,0-.308.209l-.222,1.162a.264.264,0,0,0,.209.308l.449.085a3.082,3.082,0,0,0,.15.722l-.378.257a.262.262,0,0,0-.07.365l.665.979a.264.264,0,0,0,.365.07l.379-.257a3.13,3.13,0,0,0,.615.4l-.085.448a.263.263,0,0,0,.209.308l1.162.222a.283.283,0,0,0,.05.005.265.265,0,0,0,.258-.214l.085-.449a3.133,3.133,0,0,0,.722-.15l.257.378a.266.266,0,0,0,.168.111.263.263,0,0,0,.2-.041l.979-.665a.263.263,0,0,0,.07-.365l-.258-.379a3.089,3.089,0,0,0,.406-.615Zm-.844-.484a2.607,2.607,0,0,1-.532.809.262.262,0,0,0-.029.33l.226.332-.544.369-.225-.332a.265.265,0,0,0-.318-.1,2.58,2.58,0,0,1-.947.2.262.262,0,0,0-.254.214l-.075.393-.645-.123.075-.393a.265.265,0,0,0-.158-.293,2.579,2.579,0,0,1-.808-.532.263.263,0,0,0-.33-.028l-.332.225-.369-.543.331-.225a.264.264,0,0,0,.1-.318,2.576,2.576,0,0,1-.2-.947.262.262,0,0,0-.214-.254l-.393-.075.123-.645.393.074a.262.262,0,0,0,.292-.157,2.6,2.6,0,0,1,.532-.808.263.263,0,0,0,.029-.33l-.226-.332.544-.369.225.332a.265.265,0,0,0,.318.1,2.579,2.579,0,0,1,.947-.2.264.264,0,0,0,.254-.214l.075-.393.645.123-.075.393a.265.265,0,0,0,.158.293,2.593,2.593,0,0,1,.808.531.26.26,0,0,0,.33.028l.332-.225.369.544-.331.225a.264.264,0,0,0-.1.318,2.6,2.6,0,0,1,.2.947.262.262,0,0,0,.214.254l.393.075-.124.645-.392-.075A.263.263,0,0,0,30.776,473.77Z"/><path class="a" d="M28.713,470.9A1.89,1.89,0,1,0,28,474.619h0a1.863,1.863,0,0,0,.355.034,1.891,1.891,0,0,0,.353-3.748Zm.986,2.113a1.363,1.363,0,0,1-1.6,1.084h0a1.365,1.365,0,0,1,.253-2.7,1.429,1.429,0,0,1,.259.025A1.365,1.365,0,0,1,29.7,473.018Z"/><path class="a" d="M19.944,469.916a.2.2,0,0,0,.224.168l.339-.048a2.364,2.364,0,0,0,.283.476l-.206.275a.2.2,0,0,0,.04.277l.712.532a.2.2,0,0,0,.276-.039l.206-.275a2.329,2.329,0,0,0,.537.137l.049.34a.194.194,0,0,0,.077.13.2.2,0,0,0,.119.04l.028,0,.88-.126a.2.2,0,0,0,.167-.224l-.048-.341a2.36,2.36,0,0,0,.476-.282l.275.206a.2.2,0,0,0,.277-.04l.533-.712a.2.2,0,0,0-.04-.276l-.275-.206a2.328,2.328,0,0,0,.137-.537l.34-.049a.2.2,0,0,0,.131-.077.2.2,0,0,0,.037-.146l-.127-.881a.2.2,0,0,0-.223-.167l-.34.048a2.364,2.364,0,0,0-.283-.476l.206-.275a.193.193,0,0,0,.037-.147.2.2,0,0,0-.077-.13L24,466.556a.2.2,0,0,0-.147-.037.194.194,0,0,0-.13.077l-.206.275a2.381,2.381,0,0,0-.537-.138l-.049-.339a.2.2,0,0,0-.223-.168l-.881.126a.207.207,0,0,0-.13.077.2.2,0,0,0-.037.147l.049.34a2.344,2.344,0,0,0-.477.283l-.275-.206a.2.2,0,0,0-.147-.038.207.207,0,0,0-.13.077l-.533.713a.2.2,0,0,0,.04.276l.275.206a2.315,2.315,0,0,0-.137.537l-.34.048a.2.2,0,0,0-.13.077.2.2,0,0,0-.038.147Zm.59-.783a.2.2,0,0,0,.169-.183,1.964,1.964,0,0,1,.181-.7.2.2,0,0,0-.061-.243l-.241-.18.3-.395.241.18a.2.2,0,0,0,.25-.009,1.939,1.939,0,0,1,.625-.372.2.2,0,0,0,.128-.214l-.043-.3.489-.071.043.3a.2.2,0,0,0,.183.169,1.943,1.943,0,0,1,.7.181.2.2,0,0,0,.242-.061l.181-.241.4.3-.18.241a.2.2,0,0,0,.009.25,1.952,1.952,0,0,1,.372.624.2.2,0,0,0,.214.129l.3-.043.07.489-.3.042a.2.2,0,0,0-.169.184,1.949,1.949,0,0,1-.181.7.2.2,0,0,0,.061.242l.241.18-.3.4-.241-.181a.2.2,0,0,0-.249.01,1.961,1.961,0,0,1-.626.372.2.2,0,0,0-.128.214l.043.3-.489.07-.043-.3a.2.2,0,0,0-.183-.169,1.942,1.942,0,0,1-.7-.18.194.194,0,0,0-.084-.019.2.2,0,0,0-.158.079l-.181.241-.4-.3.181-.241a.2.2,0,0,0-.01-.25,1.963,1.963,0,0,1-.372-.624.2.2,0,0,0-.213-.129l-.3.043-.07-.489Z"/><path class="a" d="M22.667,470.5a1.562,1.562,0,0,0,.2-.014,1.425,1.425,0,1,0-.2.014Zm-.145-2.436a1.026,1.026,0,1,1-.869,1.161A1.031,1.031,0,0,1,22.522,468.061Z"/></g></svg>