<svg xmlns="http://www.w3.org/2000/svg" width="12.339" height="11.317" viewBox="0 0 12.339 11.317"><defs><style>.a{fill:#e5e5e5;}</style></defs><g transform="translate(-20.934 -222.507)"><path class="a" d="M27.2,226.235a1.1,1.1,0,0,1-.594-.177l-.114-.076-.183.51.066.047a1.4,1.4,0,0,0,.65.214v.464h.5v-.492a.885.885,0,0,0,.718-.859,1.013,1.013,0,0,0-.77-.93c-.425-.176-.5-.271-.5-.418s.1-.284.374-.284a.985.985,0,0,1,.518.141l.11.062.19-.5-.079-.046a1.274,1.274,0,0,0-.537-.167v-.447h-.5v.479a.833.833,0,0,0-.685.818c0,.5.393.719.816.885.317.128.446.256.446.44C27.638,226.1,27.464,226.235,27.2,226.235Zm.067-.978c-.491-.192-.681-.384-.681-.685a.636.636,0,0,1,.6-.625l.09-.015v-.442h.067v.437l.1,0a1.161,1.161,0,0,1,.46.1l-.037.1a1.222,1.222,0,0,0-.514-.11.517.517,0,0,0-.589.5c0,.33.273.469.63.617.452.184.637.4.637.731a.683.683,0,0,1-.627.666l-.091.015V227h-.071v-.456l-.1,0a1.309,1.309,0,0,1-.566-.138l.036-.1a1.327,1.327,0,0,0,.6.145.586.586,0,0,0,.648-.553C27.853,225.539,27.543,225.367,27.272,225.257Z"/><path class="a" d="M29.618,226.5a2.673,2.673,0,1,0-4.646,0H21.754l-.82,2.232.386,5.093H32.937l.336-5.105-1.041-2.22Zm-4.689-1.319a2.365,2.365,0,0,1,3.758-1.912c.029.022.059.044.088.068a2.378,2.378,0,0,1,.558.644,2.351,2.351,0,0,1,.328,1.2,2.4,2.4,0,0,1-.012.241,2.366,2.366,0,0,1-4.72-.241Zm2.938,2.61h3.2v.548H23.142v-.548h3.581l.033.006a2.685,2.685,0,0,0,.527.056H27.3A2.631,2.631,0,0,0,27.867,227.79Zm4.639,5.574H21.747l-.31-4.083H32.775ZM32.8,228.9l0,.06H21.413l0-.06-.008-.1.675-1.837H25.3c.038.043.079.082.12.122a2.662,2.662,0,0,0,.689.494H22.928v.978h8.351v-.978h-2.8a2.671,2.671,0,0,0,.809-.616h2.652l.867,1.848Z"/></g></svg>