<svg xmlns="http://www.w3.org/2000/svg" width="33.026" height="33.026" viewBox="0 0 33.026 33.026">
  <g id="Group_422" data-name="Group 422" transform="translate(-246.384 -208.667)">
    <circle id="Ellipse_96" data-name="Ellipse 96" cx="16.513" cy="16.513" r="16.513" transform="translate(246.384 208.667)" fill="#b0daf4" opacity="0.6"/>
    <g id="Group_367" data-name="Group 367" transform="translate(-1420.04)">
      <path id="Path_418" data-name="Path 418" d="M1689.028,221.86h-.87v-2.61a.87.87,0,0,0-.87-.871h-8.7a2.614,2.614,0,0,0-2.611,2.611v6.961a2.613,2.613,0,0,0,2.611,2.61h10.441a.869.869,0,0,0,.87-.87V222.73A.869.869,0,0,0,1689.028,221.86Zm-10.441-1.74h7.831v1.74h-7.831a.87.87,0,0,1,0-1.74Zm0,8.7a.871.871,0,0,1-.87-.87V223.44a2.587,2.587,0,0,0,.87.16h9.571v5.221Z" fill="#f4f4f4"/>
    </g>
  </g>
</svg>
