<svg xmlns="http://www.w3.org/2000/svg" width="26" height="26" viewBox="0 0 26 26">
  <g id="Group_317" data-name="Group 317" transform="translate(-1194 -134)">
    <circle id="Ellipse_97" data-name="Ellipse 97" cx="13" cy="13" r="13" transform="translate(1194 134)" fill="#4072ff"/>
    <g id="Group_311" data-name="Group 311" transform="translate(1202.366 143.1)">
      <g id="Group_43" data-name="Group 43" transform="translate(0 0)">
        <path id="Path_33" data-name="Path 33" d="M645.858,183.422l1.737.147-4.237,3.406a.931.931,0,1,0,1.168,1.448l4.237-3.407-.226,1.725a.9.9,0,0,0,.827,1.023,1,1,0,0,0,1.072-.862l.523-4a.9.9,0,0,0-.826-1.023l-4.028-.342a1,1,0,0,0-1.072.862A.9.9,0,0,0,645.858,183.422Z" transform="translate(-642.985 -181.533)" fill="#fff"/>
      </g>
    </g>
  </g>
</svg>
