<svg xmlns="http://www.w3.org/2000/svg" width="13.194" height="10.86" viewBox="0 0 13.194 10.86"><defs><style>.a{fill:#e5e5e5;}</style></defs><g transform="translate(-19.455 -420.59)"><path class="a" d="M29.389,420.59l-1.123,1.123c-.057-.008-.113-.013-.17-.018a1.914,1.914,0,0,0-1.958.369l-.02.018-.276.277a1.82,1.82,0,0,0-2.094-.118l-1.034-1.034-3.259,3.26L20.69,425.7a3.17,3.17,0,0,0,.589,1.7,4.535,4.535,0,0,0,.541.656c.255.258.513.513.769.77a.746.746,0,0,0,.132,1.042.85.85,0,0,0,.985.231l.01,0c.292.438.562.65.853.674.121.117.24.236.361.353a1.131,1.131,0,0,0,1.343.176.769.769,0,0,0,.315-.348c.734.616,1.223.627,1.8-.237l.006,0a.856.856,0,0,0,.989-.231.754.754,0,0,0,.08-1.112s-.091-.118-.086-.118a.688.688,0,0,0,.544-.285.84.84,0,0,0-.038-1.133c.133-.133.268-.266.4-.4a4.471,4.471,0,0,0,.541-.656,3.153,3.153,0,0,0,.589-1.7l1.236-1.235Zm-7.371,6.991a3,3,0,0,1-.779-1.33,2.214,2.214,0,0,1-.057-.34,2.551,2.551,0,0,1-.01-.292l-1.253-1.253,2.694-2.694.864.864.057.057,0,.009.417.034.027-.067a1.446,1.446,0,0,1,1.759.2l1.207,1.212a.324.324,0,0,1,.093.229.319.319,0,0,1-.1.228l-.079.079a.324.324,0,0,1-.458,0l-1.234-1.24-.3.21.334.391.145.146c-.142.142-.284.283-.425.425a.242.242,0,0,0-.066.113l-.021.022c-.829.83-1.662,1.658-2.489,2.491A1.3,1.3,0,0,0,22.018,427.581Zm4,3.361a.416.416,0,0,1-.337.135.714.714,0,0,1-.429-.26l-.174-.173a2.642,2.642,0,0,0,.436-.306.766.766,0,0,0,.316.348,1.089,1.089,0,0,0,.263.108A.314.314,0,0,1,26.019,430.942Zm1.778-.167c-.185.218-.4.237-.667-.014L27,430.643a1.183,1.183,0,0,0,.168-.133c.155-.15.307-.3.462-.451l.049.049C27.939,430.363,27.972,430.569,27.8,430.775Zm1.289-.674a.442.442,0,0,1-.729.006l-.381-.381c.21-.205.42-.409.629-.615.118.119.237.236.355.355C29.187,429.694,29.226,429.91,29.086,430.1Zm.522-1.51a.432.432,0,0,1-.6.226c-.022-.012-.042-.026-.063-.04.2-.2.4-.4.6-.6A.393.393,0,0,1,29.608,428.591ZM30.931,425a2.344,2.344,0,0,1-.009.292,2.248,2.248,0,0,1-.058.341,2.994,2.994,0,0,1-.784,1.334c-.512.539-1.048,1.054-1.573,1.579-.552.552-1.1,1.105-1.657,1.653a.72.72,0,0,1-.429.259.406.406,0,0,1-.336-.135.489.489,0,0,1-.08-.413.941.941,0,0,1,.265-.374c.251-.257.507-.51.761-.765.124-.124.247-.248.369-.374s.508-.417.3-.616c-.195-.183-.475.17-.592.288s-.248.248-.373.371c-.584.57-1.159,1.148-1.757,1.7-.271.251-.483.231-.668.014s-.141-.412.113-.667l1.985-1.985a.473.473,0,0,0,.19-.3c.012-.105-.026-.2-.134-.214a.384.384,0,0,0-.378.159q-1.169,1.169-2.336,2.335a.442.442,0,0,1-.729-.006c-.139-.191-.1-.407.127-.635q1.185-1.189,2.374-2.374c.13-.129.231-.273.073-.422s-.282-.016-.4.1q-.914.916-1.83,1.829a1.227,1.227,0,0,1-.266.218.431.431,0,0,1-.6-.226c-.1-.244.028-.4.183-.552,1.012-1.009,2.024-2.017,3.027-3.035l.414.417a.725.725,0,0,0,1.023,0l.08-.079a.721.721,0,0,0,.024-1l-.919-.929h0l-.181-.181.246-.247a1.72,1.72,0,0,1,1.962-.183l.272-.272.864-.864,2.694,2.694Z"/></g></svg>