<svg xmlns="http://www.w3.org/2000/svg" xmlns:xlink="http://www.w3.org/1999/xlink" width="279.174" height="279.175" viewBox="0 0 279.174 279.175">
  <defs>
    <linearGradient id="linear-gradient" x1="1.853" y1="4.754" x2="2.856" y2="4.754" gradientUnits="objectBoundingBox">
      <stop offset="0" stop-color="#57f676"/>
      <stop offset="1" stop-color="#57a976"/>
    </linearGradient>
  </defs>
  <g id="Group_278" data-name="Group 278" transform="translate(-2632.383 -4431.216)" opacity="0.1">
    <g id="Group_276" data-name="Group 276">
      <path id="Path_426" data-name="Path 426" d="M2850.178,4600.936l-21.6-80.6c-7.821-29.188-44.305-38.964-65.672-17.6l-59,59.005c-21.366,21.367-11.591,57.851,17.6,65.672l80.6,21.6c29.187,7.821,55.9-18.888,48.075-48.075l-21.6-80.6c-7.821-29.188-44.305-38.964-65.672-17.6l-59,59.005c-21.366,21.367-11.591,57.851,17.6,65.672l80.6,21.6C2831.29,4656.832,2858,4630.123,2850.178,4600.936Z" fill="#fff" opacity="0.05"/>
      <path id="Path_427" data-name="Path 427" d="M2839.545,4598.345l-21.6-80.6c-7.82-29.187-44.3-38.963-65.672-17.6l-59,59c-21.367,21.367-11.591,57.851,17.6,65.672l80.6,21.6c29.188,7.821,55.9-18.887,48.075-48.075l-21.6-80.6c-7.82-29.187-44.3-38.963-65.672-17.6l-59,59c-21.367,21.367-11.591,57.851,17.6,65.672l80.6,21.6C2820.658,4654.241,2847.366,4627.533,2839.545,4598.345Z" fill="#e3e3e3" opacity="0.525"/>
      <path id="Path_428" data-name="Path 428" d="M2828.913,4595.755l-21.6-80.6c-7.821-29.188-44.3-38.964-65.672-17.6l-59.005,59c-21.366,21.366-11.59,57.851,17.6,65.672l80.6,21.6c29.187,7.82,55.9-18.888,48.075-48.075l-21.6-80.6c-7.821-29.188-44.3-38.964-65.672-17.6l-59.005,59c-21.366,21.366-11.59,57.851,17.6,65.672l80.6,21.6C2810.025,4651.65,2836.734,4624.942,2828.913,4595.755Z" fill="#c6c6c6"/>
    </g>
    <path id="Path_429" data-name="Path 429" d="M2699.617,4619.385l80.081,23.472c29,8.5,56.322-17.579,49.182-46.94l-19.716-81.082c-7.14-29.362-43.388-39.986-65.247-19.124l-60.364,57.611c-21.859,20.862-12.934,57.564,16.064,66.063l80.081,23.472c29,8.5,56.322-17.579,49.182-46.94l-19.716-81.082c-7.14-29.362-43.388-39.986-65.247-19.124l-60.364,57.611C2661.694,4574.184,2670.619,4610.886,2699.617,4619.385Z" fill="url(#linear-gradient)"/>
    <g id="Group_277" data-name="Group 277">
      <path id="Path_430" data-name="Path 430" d="M2796.141,4563.727a36.8,36.8,0,0,0-73.534-.671c-.018.533-.035,1.067-.035,1.6a36.237,36.237,0,0,0,5.271,18.862l-6.632,19.585,20.377-6.477a36.84,36.84,0,0,0,54.57-31.97C2796.158,4564.346,2796.158,4564.037,2796.141,4563.727Zm-36.776,31.625a30.809,30.809,0,0,1-17.018-5.081l-11.886,3.79,3.858-11.4a30.391,30.391,0,0,1-5.891-18,28.908,28.908,0,0,1,.155-2.98,30.949,30.949,0,0,1,61.615.585c.069.794.1,1.585.1,2.4A30.85,30.85,0,0,1,2759.365,4595.352Z" fill="#fff" fill-rule="evenodd"/>
      <path id="Path_431" data-name="Path 431" d="M2776.229,4572.029c-.913-.447-5.34-2.618-6.167-2.911-.827-.31-1.43-.447-2.033.448s-2.342,2.911-2.859,3.5c-.534.6-1.05.672-1.963.224a24.363,24.363,0,0,1-7.252-4.445,26.727,26.727,0,0,1-5.013-6.183c-.517-.9-.052-1.378.4-1.826.413-.413.9-1.051,1.36-1.567.122-.156.225-.293.328-.431a9.948,9.948,0,0,0,.568-1.069,1.611,1.611,0,0,0-.068-1.567c-.224-.448-2.033-4.857-2.791-6.649-.74-1.791-1.5-1.481-2.032-1.481-.517,0-1.12-.086-1.723-.086a3.336,3.336,0,0,0-2.411,1.119,10.025,10.025,0,0,0-3.152,7.476,11.384,11.384,0,0,0,.465,3.049,20.326,20.326,0,0,0,3.221,6.2c.447.585,6.235,9.921,15.4,13.522,9.181,3.565,9.181,2.376,10.835,2.221,1.653-.138,5.34-2.153,6.08-4.254a7.389,7.389,0,0,0,.534-4.255C2777.727,4572.7,2777.124,4572.477,2776.229,4572.029Z" fill="#fff" fill-rule="evenodd"/>
    </g>
  </g>
</svg>
