<svg xmlns="http://www.w3.org/2000/svg" width="55.645" height="46.674"><g transform="translate(-564.772 -2227.565)"><path d="M605.542 2245.413c-.225-.767-1.37-1.333-2.291-1.788a10.376 10.376 0 0 1-.789-.415q-2.452-1.515-4.916-3.014c-2.421-1.467-4.925-2.867-7.347-4.22q-1.309-.732-2.62-1.469l-.38-.221a4.152 4.152 0 0 0-2.086-.778 2.294 2.294 0 0 0-.531.063 16.642 16.642 0 0 0-4.2 1.931c-.5.289-1 .571-1.467.816-3.665 1.91-7.6 4.171-12.031 6.911l-.3.18c-.8.473-1.905 1.12-1.81 2.149.121 1.295 1.78 1.394 2.495 1.437l.688-.01-.007.148c-.039.79-.082 1.683.77 2.045.007 1.734.039 3.467.071 5.2.038 2.08.076 4.231.066 6.287a1.19 1.19 0 0 0-.1.029c-.687.258-.77.751-.807 1.368-.078 1.3-.049 2.637-.021 3.93.008.387.017.774.022 1.159 0 0-.116.021-.157.033-1.371.367-1.326 1.459-1.278 2.615l.008.2a3.475 3.475 0 0 0-.551.174 1.471 1.471 0 0 0-.77.95 3.315 3.315 0 0 0 .151 2.408c.346.6 1.128.629 1.757.655l.255.011c.467.028.939.038 1.412.038.69 0 1.383-.022 2.076-.044.606-.018 1.212-.038 1.812-.042 1.174-.007 2.351-.03 3.531-.052 1.473-.027 2.949-.055 4.422-.055 1.712 0 3.2.039 4.558.12q2.6 0 5.2.018 3.165.014 6.329.018 3.1 0 6.2-.036a2.434 2.434 0 0 0 2.037-.884 2.364 2.364 0 0 0 .156-2.179 1.658 1.658 0 0 0-1.271-1.084v-.443c.013-.87.027-1.77-.777-2.224a2.351 2.351 0 0 0-.645-.228c0-.465.008-.93.015-1.4.017-1.215.034-2.471-.029-3.7a1.5 1.5 0 0 0-.764-1.43 848.63 848.63 0 0 1-.177-8.133l-.065-3.4a1.4 1.4 0 0 0 .605-.344 2.124 2.124 0 0 0 .327-1.533c0-.088 0-.173-.005-.256.292.012.592.023.886.023a5.115 5.115 0 0 0 1.364-.143 1.477 1.477 0 0 0 .916-.616 1 1 0 0 0 .063-.775zm-2.278.5a2.953 2.953 0 0 1-1.066.153c-.381 0-.784-.033-1.164-.065a12.129 12.129 0 0 0-.934-.056 290.23 290.23 0 0 1-5.6-.089 289.38 289.38 0 0 0-5.782-.089h-.625c-3.279 0-6.614.051-9.838.1l-10.977.164-.136-.007c-.443-.025-.946-.052-1.051-.3s.124-.668.664-1.3a2.22 2.22 0 0 1 .636-.4c.114-.056.22-.109.3-.158l2.134-1.277c1.5-.9 3.005-1.79 4.521-2.662a134.896 134.896 0 0 1 8.438-4.478c.191-.092.39-.2.594-.317a4.007 4.007 0 0 1 1.82-.676 1.452 1.452 0 0 1 .292.029 4.159 4.159 0 0 1 1.318.658 10 10 0 0 0 .533.329c.587.328 1.183.638 1.778.948.735.382 1.495.778 2.222 1.2 2.963 1.72 5.884 3.5 8.35 5.011q1.625.995 3.244 2l.137.084c.408.251.83.51.81.731-.011.154-.225.311-.618.467zm-.4 23.976h-.267c-.468 0-.939.038-1.395.074-.385.031-.744.06-1.046.06h-.146a101.516 101.516 0 0 0-3.711-.061c-1.475 0-2.952.023-4.428.045-1.227.019-2.454.038-3.679.044h-.592c-1.726 0-3.451-.034-5.176-.067s-3.45-.067-5.175-.067h-.839c-.833 0-1.663.009-2.494.009-.975 0-1.949-.006-2.926-.026-.256 0-.545-.018-.852-.031a36.655 36.655 0 0 0-1.568-.044c-.4 0-.76.013-1.08.04-.013-1.066.18-1.554 1.289-1.779a6.014 6.014 0 0 1 1.2-.094c.22 0 .442.006.66.011s.424.01.627.01h.278c.684-.02 1.368-.028 2.053-.028 1.187 0 2.376.023 3.562.047l1.922.038c3.315.067 6.742.136 10.116.157h.482c1.273 0 2.544-.03 3.816-.061 1.086-.026 2.173-.052 3.261-.058h.21c.449 0 .9.008 1.344.017s.9.016 1.347.016h.1c.223 0 .491-.026.774-.052.312-.029.641-.06.945-.06a2.289 2.289 0 0 1 .641.073c.743.225.744.973.746 1.7zm-12.318 3.355c-1.789-.02-3.577-.04-5.359-.042-.956-.057-2-.084-3.186-.084-1.087 0-2.174.022-3.262.044s-2.175.045-3.265.045c-.407 0-.814 0-1.221-.011q-1.081-.019-2.164-.02-1.6 0-3.19.049c-.185.006-.369.017-.549.028-.243.015-.479.03-.7.03-.8 0-1.367-.2-1.495-1.181-.1-.781-.115-.881.723-1.066a10.766 10.766 0 0 1 2.084-.165l.508-.009c.338-.01.675-.013 1.013-.013.662 0 1.324.014 1.987.028s1.328.028 1.992.028h.578q.61-.007 1.22-.008c1.49 0 2.98.034 4.47.069s2.982.069 4.475.069q.591 0 1.182-.008a899.25 899.25 0 0 1 11.6-.078s3.424.013 4.065.013h.8a1.637 1.637 0 0 1 1.2.314 1.074 1.074 0 0 1 .192.857c-.09.928-.653 1.017-1.57 1.052-1.911.074-3.935.108-6.368.108-1.918-.006-3.84-.028-5.762-.049zm-21.651-10.324c-.033-.533-.068-1.083.4-1.332a1.225 1.225 0 0 1 .524-.077c.145 0 .3.008.436.015.109.006.212.011.348.011h.044a77.876 77.876 0 0 1 1.673-.055c.185 0 .449-.037.744-.074a10.1 10.1 0 0 1 1.191-.1 1.508 1.508 0 0 1 .582.085c.5.218.454.953.417 1.545a6.865 6.865 0 0 0-.017.4c.006.915 0 1.83 0 2.744v.958l-1-.012c-.5 0-1.052-.027-1.623-.052-.668-.03-1.366-.06-2.052-.06a14.98 14.98 0 0 0-1.645.079 244.507 244.507 0 0 1-.008-3.531v-.15c.001-.128-.009-.259-.016-.394zm7.222-15.727c0-.109-.006-.216-.005-.317q2.481-.029 4.962-.048c0 .1-.008.2-.013.305-.039.8-.084 1.7.769 2.051.007 1.732.039 3.465.07 5.2.038 2.079.077 4.229.066 6.284-.034.009-.069.018-.1.029-.687.258-.77.751-.807 1.368-.078 1.3-.049 2.642-.021 3.938.007.376.016.751.021 1.125q-2.427-.049-4.855-.08c0-.439.009-.879.015-1.319.016-1.215.034-2.471-.029-3.7a1.5 1.5 0 0 0-.764-1.43c-.077-2.717-.127-5.434-.178-8.151l-.064-3.377a1.394 1.394 0 0 0 .6-.344 2.123 2.123 0 0 0 .331-1.534zm13.1 0c0-.134-.007-.265 0-.387 1.6 0 3.2.022 4.795.039h.166c0 .094-.008.191-.013.289-.038.79-.082 1.682.77 2.044.007 1.734.039 3.467.07 5.2.038 2.081.077 4.232.069 6.287a1.051 1.051 0 0 0-.1.03c-.688.258-.771.751-.808 1.368-.078 1.3-.049 2.641-.021 3.936.009.387.017.772.029 1.188l-.66.014c-1.269.028-2.537.056-3.806.056h-.4c0-.514.008-1.029.016-1.544.017-1.21.035-2.461-.029-3.685a1.5 1.5 0 0 0-.764-1.43c-.075-2.7-.126-5.394-.176-8.091l-.066-3.437a1.407 1.407 0 0 0 .606-.344 2.128 2.128 0 0 0 .323-1.535zM582 2262.921c-.034-.533-.069-1.084.4-1.333a1.225 1.225 0 0 1 .524-.077c.145 0 .3.008.436.015.109.006.211.011.348.011h.044a77.57 77.57 0 0 1 1.672-.055c.186 0 .45-.037.744-.074a10.133 10.133 0 0 1 1.192-.1 1.511 1.511 0 0 1 .582.085c.5.218.454.954.417 1.545a6.865 6.865 0 0 0-.017.4c.005.955 0 1.909 0 2.863v1.05a578.73 578.73 0 0 1-6.318-.1c-.015-1.125-.012-2.25-.009-3.376v-.46c-.001-.129-.009-.26-.015-.394zm5.559-2.5c-.266 0-.549.021-.841.042-.274.02-.555.041-.834.044h-.122c-.285 0-.6-.013-.931-.026-.365-.015-.747-.031-1.123-.031-.263 0-.523.008-.772.029 0-2.04-.035-4.111-.071-6.114-.03-1.662-.06-3.323-.068-4.985.221.02.452.028.687.028.526 0 1.084-.041 1.576-.076.33-.025.64-.047.912-.056l.36-.006c.3 0 .646-.007.995-.035l.061 3.158c.05 2.676.1 5.352.174 8.027zm.337-12.3a2.988 2.988 0 0 1-1.324.211c-.21 0-.417-.006-.606-.011-.162 0-.31-.01-.437-.01l-.6.007c-.356 0-.713.009-1.07.009h-.577c-.555-.01-.863-.088-1.031-.262-.206-.214-.222-.606-.217-1.248q2.469-.016 4.938-.015h1.281v.21c-.002.444-.001.9-.36 1.116zm-18.2 1.257c.221.02.452.028.687.028.527 0 1.084-.041 1.576-.076.33-.025.641-.047.913-.056l.359-.006c.3 0 .646-.007 1-.035l.061 3.178c.05 2.669.1 5.338.174 8.007-.265 0-.549.021-.841.042-.273.02-.555.041-.834.044h-.122c-.284 0-.6-.013-.931-.026-.364-.015-.747-.031-1.123-.031-.262 0-.522.008-.772.029 0-2.043-.035-4.118-.071-6.125a241.062 241.062 0 0 1-.082-4.966zm26.207 0c.221.02.452.028.688.028.526 0 1.084-.041 1.575-.076.331-.025.641-.047.913-.056l.36-.006c.3 0 .646-.007.995-.035l.061 3.177c.05 2.669.1 5.339.174 8.008-.265 0-.549.021-.84.042-.275.02-.555.041-.835.044h-.122c-.284 0-.6-.012-.931-.026-.365-.015-.747-.03-1.123-.03-.263 0-.522.007-.772.028 0-2.043-.035-4.118-.071-6.125a248.398 248.398 0 0 1-.075-4.966zm-20.752-2.5v.127c0 .442 0 .9-.356 1.115a2.985 2.985 0 0 1-1.324.211c-.209 0-.416-.006-.606-.011-.161 0-.31-.01-.436-.01l-.6.007c-.357 0-.714.009-1.071.009h-.577c-1.174-.02-1.254-.345-1.244-1.357q3.102-.044 6.208-.083zm26.318 16.047c-.009.146-.018.283-.017.4.005.915 0 1.829 0 2.743v.937h-.189c-.5 0-1.015.041-1.514.081-.44.035-.858.068-1.218.068h-.1q-.6-.011-1.2-.01c-.7 0-1.4.009-2.1.021-.015-1.148-.012-2.3-.01-3.446v-.415c0-.122-.008-.253-.016-.388-.034-.533-.069-1.083.4-1.332a1.228 1.228 0 0 1 .524-.077c.145 0 .3.008.436.015.11.006.212.011.348.011h.044a77.876 77.876 0 0 1 1.673-.055c.185 0 .45-.037.744-.074a10.117 10.117 0 0 1 1.192-.1 1.515 1.515 0 0 1 .582.085c.497.217.452.953.415 1.544zm-.111-15.92c0 .442 0 .9-.355 1.115a2.99 2.99 0 0 1-1.324.211c-.21 0-.417-.006-.607-.011-.161 0-.31-.01-.436-.01l-.6.007c-.357 0-.714.009-1.07.009h-.578c-.621-.011-.936-.108-1.089-.335a2.164 2.164 0 0 1-.154-1.139l.96.009c.534 0 1.067.008 1.6.018.946.016 1.893.028 2.84.028h.812z" fill="#ffbf3e"/><path d="M586.918 2236.618a4.939 4.939 0 0 0-1.871-.36 4.293 4.293 0 0 0-4.253 2.815 4.337 4.337 0 0 0 3.05 5.506 6.748 6.748 0 0 0 1.442.158 4.083 4.083 0 0 0 4.2-2.714 4.41 4.41 0 0 0-2.568-5.405zm-2.819 7.031a3.413 3.413 0 0 1-2.474-3.823c.172-1.781 1.887-2.592 3.408-2.592a4.01 4.01 0 0 1 1.937.473 3.407 3.407 0 0 1 1.59 4.052 3.149 3.149 0 0 1-3.248 2.024 5.683 5.683 0 0 1-1.212-.134zM573.1 2241.413a.463.463 0 0 0-.246.074c-1.351.833-2.7 1.7-4 2.59a.5.5 0 0 0 .241.91.444.444 0 0 0 .254-.084 105.08 105.08 0 0 1 4-2.585.463.463 0 0 0 .208-.535.488.488 0 0 0-.457-.37zM574.585 2240.434a.446.446 0 0 0-.351.154.5.5 0 0 0-.117.328.46.46 0 0 0 .468.482.446.446 0 0 0 .352-.154.5.5 0 0 0 .117-.328.461.461 0 0 0-.469-.482z" fill="#ffbf3e"/><circle cx="19.32" cy="19.32" r="19.32" transform="translate(581.777 2227.565)" fill="#fffdc9" opacity=".396"/></g></svg>