<svg xmlns="http://www.w3.org/2000/svg" width="56.249" height="33.971"><g fill="#fcd200"><path d="M56.095 10.367c-.383-2.778-4.822-3.472-7.1-3.841a65.569 65.569 0 0 0-12.7-.592q-.02-2.176-.063-4.355A1.064 1.064 0 0 0 35.46.565C26.448-.854 17.039.744 8.037 1.646 5.528 1.897.189 1.527.016 5.003a59.477 59.477 0 0 0 .541 7.287l.6 7.815a1.09 1.09 0 0 0 1.051 1.051 50.792 50.792 0 0 0 9.035.2 17.863 17.863 0 0 0 2.311-.064c.012.346.045.7.048 1.022.016 2.536-.09 5.073-.057 7.608a1.062 1.062 0 0 0 1.052 1.051c1.66-.091 2.714-1.391 3.861-2.484a64.518 64.518 0 0 0 4.976-5.3c.116-.14.235-.3.356-.465-.144 2.057-.168 4.42 1.155 5.643 1.944 1.8 5.936.388 8.179.1 1.914-.245 3.84-.421 5.758-.631l3.29-.361a15.933 15.933 0 0 1 3.291-.36c1.331.165 2.161 1.784 3.073 2.742a42.8 42.8 0 0 0 4.21 3.841c.541.435 1.62.4 1.758-.464a135.383 135.383 0 0 0 1.366-13.926c.156-2.858.618-6.088.225-8.941zM13.583 21.284c.072-.018.12-.04.135-.067-.071.128-.112.129-.135.066zm0-.671c.02-.231.041-.342 0 0zm6.347 3.386q-1.168 1.266-2.4 2.469a23.325 23.325 0 0 1-1.872 1.884c.029-2.48.161-4.965.032-7.44-.075-1.433-.451-1.854-1.966-1.8a79.1 79.1 0 0 1-10.529.041q-.437-5.694-.872-11.389c-.08-1.044-.609-2.566.444-3.278a8.909 8.909 0 0 1 2.885-.484c1.967-.249 3.948-.409 5.921-.6 7.413-.734 15.138-1.927 22.579-.911.05 2.629.076 5.259.06 7.889-.007 1.065.5 7.192-.529 7.479a29.275 29.275 0 0 1-6.694.706 4.683 4.683 0 0 0-3.1.9c-1.52 1.221-2.636 3.102-3.962 4.533zm27.882 1.862c-1.9-1.75-5.417-.513-7.691-.263-3.225.353-6.454.659-9.658 1.166-1.793.283-4 1.024-4.444-1.225a22.608 22.608 0 0 1 .02-4.843 10.75 10.75 0 0 1 1.751-.031 28.181 28.181 0 0 0 6.449-.78 1.23 1.23 0 0 0 .226-.081 2.829 2.829 0 0 0 1.821-2.7c.136.018.246.073.6-.231l5.933-.229c3.317 2.5 3.361-3.078.139-.95l-6.218-.513c-.249-.2-.333-.163-.439-.156-.018-.45-.037-.889-.03-1.3q.049-2.847.042-5.693a78.288 78.288 0 0 1 10.71.331 22.652 22.652 0 0 1 6.058 1.543c1.17.459.991 1.016.981 2.262a140.746 140.746 0 0 1-1.319 18.715c-1.708-1.623-3.196-3.421-4.934-5.023z"/><path d="M24.786 12.561l1.066-1.307c2.289-1.07-.613-3.861-1.357-.955l-.447.065c-.635-1.217-1.466-2.629-2.585-2.623a2.2 2.2 0 0 0-1.493.813c-.411.371-2.457 2.94-2.935 2.876.587.079-.936-2.519-1.106-2.71A1.83 1.83 0 0 0 14.724 8a2.145 2.145 0 0 0-1.76.969c-1.135 1.3-.866 1.52-1.849-.255C10.46 7.53 8.643 8.589 9.3 9.775c.637 1.152 1.37 3.513 3.137 2.884a3.336 3.336 0 0 0 1.455-1.439c.554-.889.168-1.315.811-.491.376.482.6 1.093.941 1.6.762 1.122 1.528 1.544 2.716.716.917-.639 1.573-1.988 2.564-2.479.7-.345.245-.4.859.3a7.045 7.045 0 0 1 1.078 1.732 1.039 1.039 0 0 0 1.925-.037z"/></g></svg>