<svg xmlns="http://www.w3.org/2000/svg" width="42.761" height="31.463"><path d="M18.708 4.009l-6.2 9.4a9.362 9.362 0 0 1 4.373 2.989 8.4 8.4 0 0 1 1.943 5.674 8.98 8.98 0 0 1-2.794 6.651 9.206 9.206 0 0 1-6.681 2.744 9.347 9.347 0 0 1-9.354-9.389 10.072 10.072 0 0 1 .972-4.451 35.98 35.98 0 0 1 2.429-4.208L12.508.004zm23.932 0l-6.2 9.4a9.36 9.36 0 0 1 4.374 2.989 8.4 8.4 0 0 1 1.944 5.674 8.981 8.981 0 0 1-2.794 6.651 9.206 9.206 0 0 1-6.682 2.744 9.347 9.347 0 0 1-9.353-9.389 10.085 10.085 0 0 1 .971-4.451 35.995 35.995 0 0 1 2.43-4.208L36.44.004z" opacity=".1"/></svg>