<svg xmlns="http://www.w3.org/2000/svg" width="1196.028" height="1196.027" viewBox="0 0 1196.028 1196.027">
  <g id="Group_406" data-name="Group 406" transform="translate(-390.987 49.472)">
    <path id="Path_632" data-name="Path 632" d="M457.83,117.083c252.852,0,457.83,65.1,457.83,317.95S710.682,892.862,457.83,892.862,0,687.885,0,435.033,204.977,117.083,457.83,117.083Z" transform="translate(1022.336 -132.262) rotate(45)" fill="#ffffec"/>
    <path id="Path_631" data-name="Path 631" d="M457.83,117.083c252.852,0,457.83,65.1,457.83,317.95S710.682,892.862,457.83,892.862,0,687.885,0,435.033,204.977,117.083,457.83,117.083Z" transform="translate(731.492 -82.564) rotate(20)" fill="#fffdd3"/>
    <path id="Path_630" data-name="Path 630" d="M414.992,117.083c229.194,0,414.992,59.006,414.992,288.2s-185.8,414.992-414.992,414.992S0,634.477,0,405.283,185.8,117.083,414.992,117.083Z" transform="matrix(0.999, -0.035, 0.035, 0.999, 511.904, 113.631)" fill="#fff6d2"/>
  </g>
</svg>
