<svg xmlns="http://www.w3.org/2000/svg" xmlns:xlink="http://www.w3.org/1999/xlink" width="457.963" height="604.77"><defs><linearGradient id="a" x1=".238" y1=".501" x2="2.686" y2=".501" gradientUnits="objectBoundingBox"><stop offset="0" stop-color="#fff"/><stop offset="1" stop-color="#f0ff9a"/></linearGradient><clipPath id="c"><path data-name="Path 181" d="M1791.63 601.687L1333.667 604V1.011l327.5-1.78a97.544 97.544 0 0 1 98.074 97.542z" fill="url(#a)"/></clipPath><radialGradient id="d" cx="46.744" cy="11.346" r="192.576" gradientTransform="matrix(.243 0 0 .059 35.398 10.677)" gradientUnits="userSpaceOnUse"><stop offset="0" stop-color="#d7d6dc"/><stop offset="1" stop-color="#d7d6dc" stop-opacity="0"/></radialGradient><linearGradient id="b" x1="-18.937" y1="-3.004" x2="-17.777" y2="-3.004" gradientUnits="objectBoundingBox"><stop offset="0" stop-color="#a7ccf4"/><stop offset="1" stop-color="#006ac7"/></linearGradient><linearGradient id="e" x1="-23.639" y1="-6.375" x2="-22.607" y2="-6.375" xlink:href="#b"/><linearGradient id="f" x1="-34.232" y1="-6.584" x2="-33.299" y2="-6.584" xlink:href="#b"/><linearGradient id="g" x1="-29.459" y1="-7.743" x2="-28.467" y2="-7.743" xlink:href="#b"/><linearGradient id="h" x1="-47.147" y1="-6.246" x2="-46.315" y2="-6.246" xlink:href="#b"/><linearGradient id="i" x1="-41.03" y1="-7.238" x2="-39.935" y2="-7.238" xlink:href="#b"/><linearGradient id="j" x1="-43.27" y1="-7.816" x2="-42.415" y2="-7.816" xlink:href="#b"/><linearGradient id="k" x1="-18.146" y1="10.849" x2="-17.208" y2="10.849" xlink:href="#b"/><linearGradient id="l" x1="-28.777" y1="10.322" x2="-27.736" y2="10.322" xlink:href="#b"/><linearGradient id="m" x1="-47.952" y1="7.466" x2="-46.848" y2="7.466" xlink:href="#b"/><linearGradient id="n" x1="-39.304" y1="9.31" x2="-38.218" y2="9.31" xlink:href="#b"/><linearGradient id="o" x1="-83.31" y1="7.588" x2="-82.08" y2="7.588" xlink:href="#b"/><linearGradient id="p" x1="-44.778" y1="15.755" x2="-43.799" y2="15.755" xlink:href="#b"/><linearGradient id="q" x1="-79.78" y1="8.114" x2="-78.475" y2="8.114" xlink:href="#b"/><linearGradient id="r" x1=".5" y1=".431" x2=".5" y2="-.099" gradientUnits="objectBoundingBox"><stop offset=".011" stop-color="#ffd73e"/><stop offset="1" stop-color="#f2a739"/></linearGradient></defs><g data-name="Group 232" transform="translate(-2.805 .77)"><g data-name="Group 148"><path data-name="Path 162" d="M1791.63 601.687L1333.667 604V1.011l327.5-1.78a97.544 97.544 0 0 1 98.074 97.542z" fill="url(#a)" transform="translate(-1330.862)"/><g data-name="Group 147" clip-path="url(#c)" transform="translate(-1330.862)"><g data-name="Group 146"><ellipse data-name="Ellipse 21" cx="46.744" cy="11.346" rx="46.744" ry="11.346" transform="translate(1709.015 501.62)" fill="url(#d)"/><g data-name="Group 145"><g data-name="Group 142"><path data-name="Path 163" d="M1570.881 60.642a224.534 224.534 0 0 1 43.47 14.136c6.712 2.912 13.324 7.259 20.307 9.4a62.331 62.331 0 0 1 21.208 10.893 265.308 265.308 0 0 1 33.943 31.654q8.039 8.811 15.321 18.28c5.934 7.723 12.654 14.933 9.446 25.329-1.722 5.58-7.312 10.067-13.314 9.774-9.822-.479-13.606-6.5-19.011-13.572q-6.84-8.955-14.379-17.347c-9.783-10.9-20.487-20.67-31.525-30.264a110.6 110.6 0 0 1-14.757-15.769c-4.143-5.228-10.164-9.291-15.4-13.337a416.844 416.844 0 0 0-37.161-25.05c-2.29-1.408-.585-4.632 1.852-4.127z" fill="url(#b)"/><path data-name="Path 164" d="M1601.529 208.9c3.4-4.069 5.153-9.2 9.67-12.217a38.629 38.629 0 0 1 12.986-5.047c11.439-2.443 23.661-.991 34.9 1.774 20.905 5.14 45.7 16.425 58.921 34.076 4.5 6.011 5.367 12.132 1.888 18.88-2.917 5.66-9.57 7.953-15.562 7.033-7.362-1.13-10.827-7.21-16.007-11.71-7.095-6.166-15.888-10.614-24.6-14.011-10.462-4.081-20.8-8.011-31-12.75-7.533-3.5-22.706-10.235-30.339-4.839-.741.525-1.345-.607-.857-1.189z" fill="url(#e)"/><path data-name="Path 165" d="M1782.574 177.6c21.885-1.711 39.715 17.959 48.129 36.331.3.656-.269 1.65-1.074 1.33-6.882-2.741-13.05-6.952-20.139-9.195a46.515 46.515 0 0 0-20.326-1.145c-12.9 2.053-15.63 15.427-18.2 26.46-1.921 8.243-11.666 12.881-19.444 10.587-8.779-2.589-12.186-11.1-10.588-19.444 4.113-21.477 17.935-43.071 41.642-44.924z" fill="url(#f)"/><path data-name="Path 166" d="M1638.167 302.871c5.027-7.567 9.325-14.789 16.936-20.116a51.345 51.345 0 0 1 28.075-9.484c21.5-.3 46.266 14.772 53.139 35.632 4.989 15.143-15.735 24.107-25.778 14.036-4.434-4.447-7.351-9.815-12.583-13.538a53.417 53.417 0 0 0-17.9-7.992c-11.947-3.06-28.386-3.7-38.761 4.018-1.717 1.273-4.511-.473-3.128-2.556z" fill="url(#g)"/><path data-name="Path 167" d="M1788.662 264.2c7.349-4.191 15.533-5.874 23.8-3.622 7.68 2.093 11.277 7.132 16.665 12.263 1.1 1.045-.145 3.277-1.622 2.636-7.425-3.22-20.715 5.341-25.586 10.678-6.9 7.564-8.252 18.724-7.8 28.486.911 19.774-31.241 19.456-30.9-.549.337-19.86 7.426-39.617 25.443-49.892z" fill="url(#h)"/><path data-name="Path 168" d="M1668.5 350.01c10.147-8.842 20.272-9.91 32.68-4.24 13.96 6.379 24.273 17.2 34.842 27.973 14.16 14.441-9.153 36.5-22.906 21.557-7.663-8.329-14.251-17.086-21.4-25.778-4.744-5.771-13.962-15.186-21.861-15.994-1.655-.17-2.798-2.264-1.355-3.518z" fill="url(#i)"/><path data-name="Path 169" d="M1787.406 379c4.985-.909 8.125-4.369 11.424-8.071 5.267-5.912 10.8-12.042 18.113-15.453a30.478 30.478 0 0 1 18.252-2.667c6.8 1.1 9.57 3.837 13.337 9.225a2.056 2.056 0 0 1-2.115 3.3c-10.811-2.4-17.632 16.578-22.125 22.751-7.481 10.28-17.253 19.277-30.143 21.627-19.893 3.635-26.705-27.069-6.743-30.712z" fill="url(#j)"/><path data-name="Path 170" d="M1639.155 205.437c41.078 8.8 77.475 35.3 99.017 71.343 2.173 3.635 4.334 7.451 6.324 11.385a503.572 503.572 0 0 0-27.593-85.542 523.539 523.539 0 0 0-35.66-69.077c-.426-.7.67-1.277 1.1-.6a480.326 480.326 0 0 1 57.15 126.677 505.28 505.28 0 0 1 3.823 14.046c3.078-21.318 10.231-42.466 19.506-61.785 3.911-8.148 7.742-19.268 15.65-24.475 5.036-3.316 12.636-3.136 16.143 2.263.045.07-.069.155-.119.087-2.735-3.753-7.373-4.593-11.671-3.271-4.763 1.465-8.05 5.816-10.476 9.924-4.845 8.205-8.536 17.195-11.883 26.1-6.7 17.815-11.326 35.733-15.247 54.317-.1.48 2.386 14.588 3.813 21.533 1.376 3.579 2.935 12.1 2.352 12.233 3.35 18.618 7.209 61.683 7.29 63.258l.367-.886a1.24 1.24 0 0 1 .784-.75c11.376-16.778 14.19-36.262 18.573-55.748 3.5-15.548 9.013-38.737 25.782-45.323a.124.124 0 0 1 .118.217c-16.81 11.827-20.8 33.094-24.592 52.039-3.6 18.026-6.762 37.718-18.967 52.259-.53.631-1.416 14.78-1.4 22.235.017 7.375.058 21.78.448 21.788 14.606.3 23.084-13.14 30.4-23.752 6.412-9.3 14.193-18.5 26.08-20.036.239-.031.338.328.092.371-26.435 4.647-27.406 47.067-56.625 46.377-.425-.01-3.677 35.288-6.7 52.953-.143.834-1.606.618-1.486-.228q3.814-27.03 4.956-54.291c-13.743-4.117-23.248-16.978-30.562-28.54-8.466-13.382-15.3-27.055-28.37-36.639a.284.284 0 0 1 .3-.482c11.989 6.608 19.866 19.125 26.988 30.371 8.436 13.32 16.966 25.854 31.732 32.4.59-16.491.446-33-.551-49.479-8.007-2.9-14.08-11.744-17.843-18.813-4.839-9.094-7.357-19.113-11.014-28.688-4.092-10.711-9.839-20.414-19.621-26.827a47.606 47.606 0 0 0-30.692-7.527c-.227.022-.272-.367-.045-.4 19.829-3.018 38.927 7.211 48.421 24.661 5.279 9.7 7.959 20.5 12.233 30.634a63.871 63.871 0 0 0 8.385 14.826c2.914 3.7 6.3 6.126 9.954 8.637q-.957-14.155-2.72-28.264-2.079-16.45-5.241-32.747c-2.993-7.436-5.9-14.824-9.853-21.906a155.336 155.336 0 0 0-17.86-25.547 160.48 160.48 0 0 0-48.011-38.151 150.49 150.49 0 0 0-33.157-12.586c-.362-.098-.191-.653.178-.574z" fill="#349299"/></g><g data-name="Group 143"><path data-name="Path 171" d="M1449.385 280.491a180.827 180.827 0 0 1 35.536-9.6c5.808-.989 12.18-.967 17.832-2.6a50.185 50.185 0 0 1 19.095-1.986 213.555 213.555 0 0 1 36.821 6.412q9.3 2.4 18.376 5.586c7.4 2.6 15.1 4.5 17.516 12.925 1.294 4.521-.5 10.007-4.678 12.45-6.835 4-12.035 1.606-18.793-.788q-8.553-3.028-17.33-5.371a283.474 283.474 0 0 0-34.578-6.538 89.016 89.016 0 0 1-16.891-4.141c-5.095-1.7-10.943-1.793-16.253-2.219a335.446 335.446 0 0 0-36.085-.542c-2.165.068-2.435-2.856-.568-3.588z" fill="url(#k)"/><path data-name="Path 172" d="M1535.292 366.99c.505-4.242-.573-8.472 1.146-12.494a31.127 31.127 0 0 1 6.536-9.118c6.64-6.682 15.521-11.08 24.321-14.163 16.361-5.732 38.049-9.033 54.731-2.946 5.681 2.073 8.958 5.82 9.582 11.9.523 5.1-2.955 9.574-7.4 11.591-5.462 2.477-10.474-.1-15.948-.854-7.5-1.036-15.385-.167-22.754 1.375-8.852 1.851-17.555 3.751-26.519 5.043-6.621.955-19.817 3.09-22.59 10.087-.272.689-1.178.189-1.105-.421z" fill="url(#l)"/><path data-name="Path 173" d="M1643.617 266.215c14.006-10.784 34.686-5.363 48.445 3.324.491.31.545 1.231-.14 1.369-5.847 1.18-11.859 1.054-17.627 2.661a37.448 37.448 0 0 0-14.211 8.172c-7.8 7.06-3.754 17.282-.633 25.854 2.332 6.4-2.2 13.82-8.454 15.7-7.06 2.117-13.1-2.127-15.7-8.454-6.672-16.298-6.853-36.941 8.32-48.626z" fill="url(#m)"/><path data-name="Path 174" d="M1601.352 414.244c.06-7.316-.219-14.078 2.569-21.019a41.352 41.352 0 0 1 14.761-18.75c14.366-9.663 37.7-10.4 51.517.647 10.027 8.017 0 23.182-11.208 20.81-4.948-1.048-9.277-3.385-14.444-3.594a43.015 43.015 0 0 0-15.591 2.489c-9.4 3.193-20.772 9.995-24.373 19.766-.594 1.613-3.248 1.664-3.231-.349z" fill="url(#n)"/><path data-name="Path 175" d="M1685.83 321.941c3.112-6.06 7.891-10.8 14.457-12.914 6.1-1.969 10.743-.153 16.634.936 1.2.222 1.345 2.274.067 2.492-6.425 1.1-11.62 12.717-12.557 18.46-1.327 8.139 2.674 16.259 7.273 22.645 9.316 12.934-12.508 26.868-21.08 13.226-8.511-13.544-12.424-29.986-4.794-44.845z" fill="url(#o)"/><path data-name="Path 176" d="M1642.549 432.689c2.952-10.428 9.311-15.6 20.173-17.24 12.222-1.841 23.937.916 35.807 3.534 15.9 3.507 9.89 28.645-5.962 24.616-8.833-2.244-17.13-5.251-25.773-7.969-5.739-1.8-16.1-4.1-21.782-1.167a1.659 1.659 0 0 1-2.463-1.774z" fill="url(#p)"/><path data-name="Path 177" d="M1735.5 399.918c2.962-2.806 3.558-6.522 4.153-10.471.951-6.3 1.984-12.872 5.416-18.391a24.533 24.533 0 0 1 11.136-9.83c5.071-2.248 8.142-1.624 13.053.352a1.655 1.655 0 0 1 .028 3.16c-8.346 3.139-4.6 18.939-4.909 25.079-.523 10.225-3.153 20.593-10.813 27.85-11.82 11.199-29.925-6.511-18.064-17.749z" fill="url(#q)"/><path data-name="Path 178" d="M1559.144 348.1c31.575-12.141 67.784-10.283 98.17 4.543 3.066 1.495 6.2 3.118 9.275 4.9a405.434 405.434 0 0 0-56.25-45.549 421.665 421.665 0 0 0-54.445-30.9c-.594-.28-.11-1.156.48-.892a386.806 386.806 0 0 1 94.284 60.284q4.438 3.826 8.759 7.791c-7.3-15.731-11.786-33.141-14.032-50.252-.948-7.215-3.257-16.4-.215-23.392 1.937-4.453 7.142-7.675 11.882-5.577.061.027.022.134-.042.11-3.5-1.327-6.993.147-9.31 2.93-2.568 3.084-2.87 7.465-2.7 11.3a133.807 133.807 0 0 0 3.469 22.828 296.658 296.658 0 0 0 13.618 43.341c.143.369 8.029 8.789 12.047 12.845 2.5 1.807 7.3 6.865 6.969 7.215 10.452 11.081 32 38.426 32.752 39.453-.047-.253-.1-.506-.142-.759a1 1 0 0 1 .2-.851c.289-16.321-6.387-30.7-12.005-45.769-4.483-12.025-10.967-30.091-2.556-41.911a.1.1 0 0 1 .175.094c-6.132 15.373.532 31.474 6.314 45.917 5.5 13.742 12.037 28.413 10.2 43.59-.08.659 5.549 10.59 8.841 15.61 3.257 4.967 9.624 14.663 9.89 14.5 9.981-6.227 9.786-19.019 10.05-29.395.232-9.094 1.431-18.723 8.772-24.989.148-.126.372.073.225.21-15.782 14.766 2.229 43.8-17.78 56.194-.291.18 13.048 25.416 18.784 38.659.271.625-.81 1.123-1.1.5q-9.322-19.908-20.548-38.8c-11.079 3.27-23.149-1.22-33.17-5.8-11.6-5.3-22.222-11.515-35.254-12.227a.229.229 0 0 1-.011-.457c10.994-.819 21.814 4.157 31.566 8.607 11.55 5.272 22.818 9.971 35.658 7.89q-10.287-17.071-22.144-33.127c-6.677 1.565-14.663-1.724-20.311-4.836-7.265-4-13.373-9.652-20.053-14.5-7.472-5.424-15.617-9.438-25.036-9.459a38.339 38.339 0 0 0-24.011 8.429c-.144.115-.345-.127-.207-.251 12.044-10.761 29.426-12.266 43.507-4.675 7.829 4.22 14.389 10.325 21.73 15.277a51.424 51.424 0 0 0 12.179 6.309 33.943 33.943 0 0 0 10.513 1.444q-6.875-9.124-14.271-17.864-8.642-10.179-17.945-19.779a151.549 151.549 0 0 0-16.284-10.437 125.048 125.048 0 0 0-23.287-9.371 129.212 129.212 0 0 0-49.166-4.6 121.151 121.151 0 0 0-27.9 6.1c-.289.107-.418-.343-.134-.451z" fill="#349299"/></g><g data-name="Group 144"><path data-name="Path 179" d="M1776.344 475.133h-41.078a2.336 2.336 0 0 0-2.278 2.855l1.521 6.687a2.337 2.337 0 0 0 2.279 1.818h38.034a2.337 2.337 0 0 0 2.278-1.818l1.522-6.687a2.337 2.337 0 0 0-2.278-2.855z" fill="#ffd73e"/><path data-name="Path 180" d="M1737.347 487.567l3.306 22.929a3.162 3.162 0 0 0 3.128 2.71h24.047a3.161 3.161 0 0 0 3.128-2.71l3.306-22.929z" fill="url(#r)"/></g></g></g></g></g><circle data-name="Ellipse 22" cx="44.279" cy="44.279" r="44.279" transform="translate(4.805 72.476)" fill="#fffdc9" opacity=".4"/><circle data-name="Ellipse 23" cx="68.524" cy="68.524" r="68.524" transform="translate(13.009 3.952)" fill="#fffdc9" opacity=".8"/></g></svg>