<svg xmlns="http://www.w3.org/2000/svg" width="27.775" height="27.775"><g data-name="Group 125" transform="translate(-200.924 -315.403)"><circle data-name="Ellipse 72" cx="13.887" cy="13.887" r="13.887" transform="translate(200.924 315.403)" fill="#a4fffa" opacity=".6"/><g data-name="Group 118"><g data-name="Group 116"><path data-name="Path 90" d="M210.431 329.876a.6.6 0 0 0 .6-.6v-1.809h7.235v1.809a.603.603 0 0 0 1.206 0v-2.412a.6.6 0 0 0-.6-.6h-8.441a.6.6 0 0 0-.6.6v2.412a.6.6 0 0 0 .6.6z" fill="#13d6b9"/></g><g data-name="Group 117"><path data-name="Path 91" d="M215.078 328.847a.6.6 0 0 0-.853 0l-1.808 1.809a.603.603 0 0 0 .852.853l.78-.78v3.368a.603.603 0 0 0 1.206 0v-3.368l.779.78a.603.603 0 0 0 .853-.853z" fill="#13d6b9"/></g></g></g></svg>