<svg xmlns="http://www.w3.org/2000/svg" width="13.362" height="15.357"><g data-name="Group 372"><g data-name="Group 371"><path data-name="Path 595" d="M3.913 15.357a3.065 3.065 0 0 1-2.168-5.234l4.337-4.337a1.022 1.022 0 0 1 1.445 1.446L3.19 11.569a1.023 1.023 0 0 0 1.446 1.446l5.783-5.783a3.067 3.067 0 0 0 0-4.337 3.139 3.139 0 0 0-4.337 0L1.745 7.232A1.022 1.022 0 0 1 .299 5.786l4.337-4.337a5.231 5.231 0 0 1 7.229 0 5.112 5.112 0 0 1 0 7.229l-5.783 5.783a3.059 3.059 0 0 1-2.169.896z" fill="#a5a5a5"/></g></g></svg>