<svg xmlns="http://www.w3.org/2000/svg" width="43.868" height="55.978"><g transform="translate(-166.196 -2233.387)"><path d="M179.574 2258.452c-.092 0-.182 0-.274.007-1.845.092-4.142.206-5.841 1.535a9.966 9.966 0 0 0-3.205 5.768 6.351 6.351 0 0 0 1.476 5.14 8.139 8.139 0 0 0 5.88 2.981h.264a8.615 8.615 0 0 0 8.627-7.408 6.643 6.643 0 0 0-1.607-5.378 7.135 7.135 0 0 0-5.32-2.645zm-1.642 14.474c-.105 0-.21 0-.317-.006a6.782 6.782 0 0 1-5.332-2.935 5.857 5.857 0 0 1-.746-5.272 8.272 8.272 0 0 1 2.971-4.276 9.842 9.842 0 0 1 4.71-1.01s.267-.011.355-.011a5.8 5.8 0 0 1 4.7 2.511 6.251 6.251 0 0 1 .949 5.593 7.471 7.471 0 0 1-7.29 5.406z" fill="#ffbf3e"/><path d="M178.99 2261.55h-.084c-3.1.167-4.958 1.683-5.377 4.384a3.872 3.872 0 0 0 .956 3.135 4.889 4.889 0 0 0 3.6 1.7h.015a5.094 5.094 0 0 0 5.112-4.359 4.034 4.034 0 0 0-.956-3.269 4.36 4.36 0 0 0-3.266-1.591zm-.009.963a3.227 3.227 0 0 1 2.625 1.386 3.328 3.328 0 0 1 .489 2.982 3.917 3.917 0 0 1-4 2.851 3.811 3.811 0 0 1-3.012-1.472 2.986 2.986 0 0 1-.473-2.692c.578-1.956 1.946-2.927 4.3-3.054zM200.447 2248.789c.212.019.421.028.628.028a6.343 6.343 0 0 0 6.238-5.137 5.01 5.01 0 0 0-1.028-4.265 5.4 5.4 0 0 0-4.159-2.1h-.107c-3.857.2-6.113 2.023-6.706 5.419a4.761 4.761 0 0 0 1 3.73 6 6 0 0 0 4.134 2.325zm-3.988-6.664c.776-2.47 2.545-3.693 5.566-3.85h.1a4.121 4.121 0 0 1 3.465 1.882 4.559 4.559 0 0 1 .446 4.279 5.255 5.255 0 0 1-6.119 3.3 4.762 4.762 0 0 1-3.069-2.258 4.163 4.163 0 0 1-.389-3.353z" fill="#ffbf3e"/><path d="M201.137 2246.541h.01a3.831 3.831 0 0 0 3.854-3.3 3.072 3.072 0 0 0-.736-2.478 3.326 3.326 0 0 0-2.531-1.2c-2.33.125-3.729 1.269-4.044 3.306a2.947 2.947 0 0 0 .727 2.387 3.7 3.7 0 0 0 2.72 1.285zm.649-6.014a2.22 2.22 0 0 1 1.809.956 2.293 2.293 0 0 1 .335 2.058 2.734 2.734 0 0 1-2.79 1.986 2.641 2.641 0 0 1-2.088-1.021 2.055 2.055 0 0 1-.325-1.85 2.868 2.868 0 0 1 3.01-2.129zM188.188 2244.8a.5.5 0 0 0 .465-.337 13.739 13.739 0 0 1 4.25-5.827.39.39 0 0 0 .15-.321.583.583 0 0 0-.234-.435c-1.509-1.123-3.131-2.127-4.7-3.1a136.03 136.03 0 0 1-2.115-1.325.438.438 0 0 0-.241-.073.467.467 0 0 0-.362.182.5.5 0 0 0-.108.428l.565 2.653a20.1 20.1 0 0 0-13.09 7.835 16.106 16.106 0 0 0-2.9 12.291.4.4 0 0 0 .381.354l.084.007a.512.512 0 0 0 .128-.017 53.678 53.678 0 0 1 8.19-1.614.546.546 0 0 0 .4-.232.44.44 0 0 0 .052-.379c-1.711-5.545 1.8-11.782 7.681-13.664a23.85 23.85 0 0 0 .934 3.235.491.491 0 0 0 .47.339zm-10.137 9.815a55.776 55.776 0 0 0-7.31 1.44 15.1 15.1 0 0 1 3.043-11.344 19.1 19.1 0 0 1 12.663-7.191.546.546 0 0 0 .385-.216.479.479 0 0 0 .069-.388l-.433-2.031.977.609c1.444.9 2.937 1.827 4.345 2.836a14.237 14.237 0 0 0-3.533 4.643 23.1 23.1 0 0 1-.649-2.487.477.477 0 0 0-.474-.358.467.467 0 0 0-.119.016c-6.428 1.756-10.515 8.368-8.964 14.474zM209.619 2250.019a.42.42 0 0 0-.191-.275.415.415 0 0 0-.255-.089.457.457 0 0 0-.151.026l-.327.108a44.96 44.96 0 0 1-7.025 1.923.386.386 0 0 0-.265.175.548.548 0 0 0-.081.415c1.345 6.074-2.892 11.866-7.587 14.271a24.83 24.83 0 0 0-1.163-3.19.4.4 0 0 0-.383-.245.531.531 0 0 0-.5.35 13.551 13.551 0 0 1-3.847 6.1.442.442 0 0 0-.14.367.519.519 0 0 0 .233.389 58.257 58.257 0 0 0 7.1 3.967.523.523 0 0 0 .223.05.512.512 0 0 0 .409-.2.451.451 0 0 0 .069-.4l-.745-2.629a20 20 0 0 0 12.523-8.647 16.088 16.088 0 0 0 2.103-12.466zm-15.355 20.291a.437.437 0 0 0-.283.2.5.5 0 0 0-.06.389l.589 2.079a57.981 57.981 0 0 1-5.557-3.135 14.575 14.575 0 0 0 3.228-4.872 23.02 23.02 0 0 1 .8 2.412.461.461 0 0 0 .46.346.577.577 0 0 0 .241-.054c5.977-2.735 9.687-9.224 8.66-15.121a46.118 46.118 0 0 0 6.449-1.789 15.1 15.1 0 0 1-2.287 11.513 19.221 19.221 0 0 1-12.24 8.032z" fill="#ffbf3e"/><path d="M172.345 2249.812a.426.426 0 0 0-.383.246 7.443 7.443 0 0 0-.431 4.548.525.525 0 0 0 .532.452.448.448 0 0 0 .341-.141.4.4 0 0 0 .09-.331 6.792 6.792 0 0 1 .3-4.049.467.467 0 0 0-.012-.47.531.531 0 0 0-.437-.255zM172.912 2248.238a.449.449 0 0 0-.352.153.51.51 0 0 0-.116.328.46.46 0 0 0 .468.482.449.449 0 0 0 .352-.153.506.506 0 0 0 .116-.329.459.459 0 0 0-.468-.481zM206.514 2258.788a.463.463 0 0 0 .4-.221 10.76 10.76 0 0 0 1.377-4.519.5.5 0 0 0-.118-.4.56.56 0 0 0-.414-.192.388.388 0 0 0-.4.36 10.172 10.172 0 0 1-1.273 4.262.424.424 0 0 0-.028.448.533.533 0 0 0 .456.262zM207.645 2253.022a.449.449 0 0 0 .352-.153.51.51 0 0 0 .116-.328.46.46 0 0 0-.468-.482.449.449 0 0 0-.352.153.512.512 0 0 0-.116.329.46.46 0 0 0 .468.481z" fill="#ffbf3e"/><circle cx="19.32" cy="19.32" r="19.32" transform="translate(166.196 2250.724)" fill="#fffdc9" opacity=".401"/></g></svg>