<svg xmlns="http://www.w3.org/2000/svg" width="327.156" height="296.996"><defs><filter id="a" x="57.749" y="56.654" width="135.157" height="165.237"><feOffset dy="4"/><feGaussianBlur stdDeviation="5" result="blur"/><feFlood flood-opacity=".102"/><feComposite operator="in" in2="blur"/><feComposite in="SourceGraphic"/></filter><filter id="b" x="95.625" y="122.242" width="113.906" height="60.998"><feOffset dy="5"/><feGaussianBlur stdDeviation="5" result="blur-2"/><feFlood flood-color="#367bff" flood-opacity=".4"/><feComposite operator="in" in2="blur-2"/><feComposite in="SourceGraphic"/></filter><filter id="c" x="187.784" y="121.242" width="43.01" height="43.01"><feOffset dy="4"/><feGaussianBlur stdDeviation="5" result="blur-3"/><feFlood flood-color="#0a3560" flood-opacity=".2"/><feComposite operator="in" in2="blur-3"/><feComposite in="SourceGraphic"/></filter><linearGradient id="d" y1=".483" x2="1" y2=".517" gradientUnits="objectBoundingBox"><stop offset="0" stop-color="#57f676"/><stop offset="1" stop-color="#57a976"/></linearGradient></defs><g data-name="Group 376" transform="translate(-237.077 -3484.086)"><g transform="translate(237.08 3484.09)" filter="url(#a)"><path data-name="Path 585" d="M170.119 202.388H81.045c-4.046 0-7.342-4.354-7.362-9.726l-.432-114.786c-.02-5.371 3.244-9.725 7.289-9.725h89.074c4.046 0 7.342 4.354 7.362 9.725l.432 114.786c.02 5.368-3.243 9.726-7.289 9.726z" fill="#e3eeff" stroke="#fff" stroke-miterlimit="10"/></g><g transform="translate(237.08 3484.09)" filter="url(#b)"><path data-name="Rectangle 219" d="M126.12 132.24h68.406v15.5a15.5 15.5 0 0 1-15.499 15.5H126.12a15.5 15.5 0 0 1-15.5-15.5 15.5 15.5 0 0 1 15.5-15.5z" fill="#367bff"/></g><g transform="translate(237.08 3484.09)" filter="url(#c)"><circle data-name="Ellipse 121" cx="6.505" cy="6.505" r="6.505" transform="translate(202.78 132.24)" fill="#367bff"/></g><path data-name="Rectangle 220" d="M329.718 3580.711h56.669v12.839a12.839 12.839 0 0 1-12.84 12.84h-43.829a12.839 12.839 0 0 1-12.839-12.84h0a12.839 12.839 0 0 1 12.839-12.839z" fill="#fff" stroke="#fff" stroke-miterlimit="10"/><path data-name="Rectangle 221" fill="#fff" stroke="#fff" stroke-miterlimit="10" d="M310.732 3671.908h103.751v14.796H310.732z"/><circle data-name="Ellipse 122" cx="5.209" cy="5.209" r="5.209" transform="translate(391.29 3581.896)" fill="#fff" stroke="#fff" stroke-miterlimit="10"/><g data-name="Group 369"><g data-name="Group 367"><path data-name="Path 586" d="M331.922 3568.318l-4.769-17.8a8.668 8.668 0 0 0-14.5-3.885l-13.03 13.029a8.668 8.668 0 0 0 3.886 14.5l17.8 4.769a8.668 8.668 0 0 0 10.616-10.616l-4.769-17.8a8.668 8.668 0 0 0-14.5-3.885l-13.03 13.029a8.668 8.668 0 0 0 3.886 14.5l17.8 4.769a8.668 8.668 0 0 0 10.61-10.61z" fill="#fff" opacity=".05"/><path data-name="Path 587" d="M329.575 3567.742l-4.769-17.8a8.668 8.668 0 0 0-14.5-3.886l-13.03 13.03a8.668 8.668 0 0 0 3.886 14.5l17.8 4.769a8.668 8.668 0 0 0 10.616-10.616l-4.769-17.8a8.668 8.668 0 0 0-14.5-3.886l-13.03 13.03a8.668 8.668 0 0 0 3.886 14.5l17.8 4.769a8.668 8.668 0 0 0 10.61-10.61z" fill="#e3e3e3" opacity=".525"/><path data-name="Path 588" d="M327.226 3567.17l-4.769-17.8a8.668 8.668 0 0 0-14.5-3.886l-13.03 13.03a8.668 8.668 0 0 0 3.886 14.5l17.8 4.769a8.668 8.668 0 0 0 10.616-10.616l-4.769-17.8a8.668 8.668 0 0 0-14.5-3.886l-13.03 13.03a8.668 8.668 0 0 0 3.886 14.5l17.8 4.769a8.668 8.668 0 0 0 10.61-10.61z" fill="#c6c6c6"/></g><path data-name="Path 589" d="M298.675 3572.388l17.684 5.183a8.668 8.668 0 0 0 10.861-10.365l-4.354-17.9a8.669 8.669 0 0 0-14.408-4.223l-13.33 12.722a8.668 8.668 0 0 0 3.547 14.588l17.684 5.183a8.668 8.668 0 0 0 10.861-10.365l-4.354-17.9a8.669 8.669 0 0 0-14.408-4.223l-13.33 12.722a8.668 8.668 0 0 0 3.547 14.578z" fill="#367bff"/><g data-name="Group 368" fill="#fff" fill-rule="evenodd"><path data-name="Path 590" d="M319.989 3560.097a8.127 8.127 0 0 0-16.238-.148c0 .118-.008.236-.008.354a8 8 0 0 0 1.164 4.165l-1.464 4.325 4.5-1.43a8.135 8.135 0 0 0 12.05-7.06c0-.069 0-.137-.004-.206zm-8.121 6.984a6.805 6.805 0 0 1-3.758-1.122l-2.625.837.852-2.518a6.72 6.72 0 0 1-1.3-3.975 6.267 6.267 0 0 1 .034-.658 6.834 6.834 0 0 1 13.606.129c.015.175.023.35.023.529a6.812 6.812 0 0 1-6.832 6.778z"/><path data-name="Path 591" d="M315.592 3561.931c-.2-.1-1.179-.578-1.362-.643s-.316-.1-.449.1-.517.643-.631.772-.232.148-.434.05a5.41 5.41 0 0 1-1.6-.982 5.936 5.936 0 0 1-1.107-1.365c-.114-.2-.011-.305.088-.4s.2-.232.3-.346c.027-.034.049-.064.072-.1a2.153 2.153 0 0 0 .126-.236.359.359 0 0 0-.015-.346c-.05-.1-.449-1.072-.617-1.468s-.33-.327-.448-.327-.248-.019-.381-.019a.734.734 0 0 0-.532.247 2.213 2.213 0 0 0-.7 1.651 2.546 2.546 0 0 0 .1.673 4.505 4.505 0 0 0 .712 1.37 8.181 8.181 0 0 0 3.4 2.986c2.027.787 2.027.524 2.393.49a1.981 1.981 0 0 0 1.342-.939 1.626 1.626 0 0 0 .118-.94c-.044-.08-.177-.129-.375-.228z"/></g></g><g data-name="Group 370"><path data-name="Path 592" d="M503.891 3705.368l-6.148-26.52a12.805 12.805 0 0 0-21.217-6.464l-19.892 18.585a12.806 12.806 0 0 0 5.009 21.607l26.041 7.934a12.806 12.806 0 0 0 16.207-15.142l-6.148-26.52a12.805 12.805 0 0 0-21.217-6.464l-19.892 18.585a12.806 12.806 0 0 0 5.009 21.607l26.041 7.934a12.806 12.806 0 0 0 16.207-15.142z" fill="#fff" opacity=".05"/><path data-name="Path 593" d="M500.453 3704.405l-6.148-26.519a12.806 12.806 0 0 0-21.217-6.465l-19.892 18.585a12.806 12.806 0 0 0 5.01 21.607l26.04 7.935a12.806 12.806 0 0 0 16.207-15.143l-6.148-26.519a12.806 12.806 0 0 0-21.217-6.465l-19.892 18.585a12.806 12.806 0 0 0 5.01 21.607l26.04 7.935a12.806 12.806 0 0 0 16.207-15.143z" fill="#9bbdff" opacity=".525"/><path data-name="Path 594" d="M497.015 3703.443l-6.148-26.519a12.805 12.805 0 0 0-21.217-6.465l-19.892 18.585a12.806 12.806 0 0 0 5.01 21.607l26.04 7.934a12.805 12.805 0 0 0 16.207-15.142l-6.148-26.519a12.805 12.805 0 0 0-21.217-6.465l-19.892 18.585a12.806 12.806 0 0 0 5.01 21.607l26.04 7.934a12.805 12.805 0 0 0 16.207-15.142z" fill="#367bff"/></g><circle data-name="Ellipse 123" cx="24.5" cy="24.5" r="24.5" transform="translate(449.022 3670.504)" fill="url(#d)"/><g data-name="Group 373" fill="#fff" fill-rule="evenodd"><path data-name="Path 596" d="M486.685 3692.637a12.006 12.006 0 0 0-23.968-1.033c-.011.174-.023.348-.029.522a11.822 11.822 0 0 0 1.51 6.208l-2.38 6.312 6.716-1.886a12.017 12.017 0 0 0 18.146-9.819c.004-.102.007-.202.005-.304zm-12.341 9.9a10.041 10.041 0 0 1-5.492-1.845l-3.917 1.1 1.384-3.675a9.906 9.906 0 0 1-1.721-5.934 9.451 9.451 0 0 1 .083-.97 10.1 10.1 0 0 1 20.083.873c.013.259.016.518.007.782a10.064 10.064 0 0 1-10.427 9.673z"/><path data-name="Path 597" d="M480.101 3695.124c-.293-.156-1.712-.913-1.978-1.018s-.462-.161-.668.124-.8.923-.971 1.108-.35.208-.643.052a7.946 7.946 0 0 1-2.315-1.53 8.762 8.762 0 0 1-1.566-2.071c-.158-.3 0-.45.15-.591s.3-.333.46-.5l.112-.137a3.3 3.3 0 0 0 .2-.342.526.526 0 0 0 0-.512c-.068-.148-.609-1.606-.836-2.2s-.472-.5-.646-.5-.364-.041-.561-.047a1.086 1.086 0 0 0-.8.338 3.271 3.271 0 0 0-1.11 2.4 3.682 3.682 0 0 0 .118 1 6.614 6.614 0 0 0 .981 2.057 12.084 12.084 0 0 0 4.871 4.58c2.954 1.264 2.967.876 3.508.844a2.937 2.937 0 0 0 2.03-1.32 2.414 2.414 0 0 0 .221-1.381c-.076-.119-.27-.198-.557-.354z"/></g></g></svg>