<svg xmlns="http://www.w3.org/2000/svg" xmlns:xlink="http://www.w3.org/1999/xlink" width="775" height="237.984" viewBox="0 0 775 237.984">
  <defs>
    <clipPath id="clip-path">
      <rect id="Rectangle_4" data-name="Rectangle 4" width="102.51" height="153.424" transform="translate(563.101 10.383)" fill="none"/>
    </clipPath>
    <clipPath id="clip-path-2">
      <rect id="Rectangle_3" data-name="Rectangle 3" width="103.471" height="154.172" transform="translate(562.752 9.64)" fill="none"/>
    </clipPath>
    <clipPath id="clip-path-3">
      <rect id="Rectangle_21" data-name="Rectangle 21" width="775" height="237.984" transform="translate(-26 -8.985)" fill="none"/>
    </clipPath>
    <clipPath id="clip-path-4">
      <path id="Path_62" data-name="Path 62" d="M172.794,97.425l4.323-20.565c1.041-4.966,5.2-8.6,11.561-9.043l-4.323,20.565C177.993,88.826,173.839,92.459,172.794,97.425Z" fill="none" clip-rule="evenodd"/>
    </clipPath>
    <clipPath id="clip-path-5">
      <rect id="Rectangle_9" data-name="Rectangle 9" width="16.555" height="30.007" transform="translate(172.665 67.584)" fill="none"/>
    </clipPath>
    <clipPath id="clip-path-6">
      <path id="Path_64" data-name="Path 64" d="M201.976,82.178l-4.32,20.568a12.6,12.6,0,0,0,.219-3.546c-.5-6.708-5.719-11.362-13.519-10.818l4.323-20.565c7.8-.548,13.021,4.11,13.519,10.818A12.77,12.77,0,0,1,201.976,82.178Z" fill="none" clip-rule="evenodd"/>
    </clipPath>
    <clipPath id="clip-path-7">
      <rect id="Rectangle_10" data-name="Rectangle 10" width="18.625" height="36.215" transform="translate(184.047 66.549)" fill="none"/>
    </clipPath>
    <clipPath id="clip-path-8">
      <path id="Path_66" data-name="Path 66" d="M229.218,84.369,224.9,104.923a28.734,28.734,0,0,1-9.246,15.7l4.322-20.565A28.74,28.74,0,0,0,229.218,84.369Z" fill="none" clip-rule="evenodd"/>
    </clipPath>
    <clipPath id="clip-path-9">
      <rect id="Rectangle_11" data-name="Rectangle 11" width="14.486" height="37.25" transform="translate(215.088 84.139)" fill="none"/>
    </clipPath>
    <clipPath id="clip-path-10">
      <path id="Path_68" data-name="Path 68" d="M145.391,90.22l4.32-20.569a39.257,39.257,0,0,0-.657,10.978c.806,10.845,5.885,18.422,13.412,23.451l-4.322,20.565c-7.524-5.029-12.607-12.6-13.41-23.451A39,39,0,0,1,145.391,90.22Z" fill="none" clip-rule="evenodd"/>
    </clipPath>
    <clipPath id="clip-path-11">
      <rect id="Rectangle_12" data-name="Rectangle 12" width="19.66" height="56.909" transform="translate(143.693 68.619)" fill="none"/>
    </clipPath>
    <clipPath id="clip-path-12">
      <path id="Path_70" data-name="Path 70" d="M209.629,130.119l-4.319,20.565a15.332,15.332,0,0,0,.258-4.283c-.676-9.13-8.187-13.953-17.891-13.273-8.077.564-14.088,4.69-15.482,11.326l4.319-20.565c1.4-6.635,7.4-10.762,15.486-11.33,9.7-.676,17.211,4.144,17.891,13.277A15.179,15.179,0,0,1,209.629,130.119Z" fill="none" clip-rule="evenodd"/>
    </clipPath>
    <clipPath id="clip-path-13">
      <rect id="Rectangle_13" data-name="Rectangle 13" width="39.319" height="40.354" transform="translate(171.63 111.042)" fill="none"/>
    </clipPath>
    <clipPath id="clip-path-14">
      <path id="Path_72" data-name="Path 72" d="M237.235,138.8l-4.322,20.566c-3.374,16.057-17.629,26.815-41.176,28.461-28.574,2-45.592-11.19-47.228-33.208a35.628,35.628,0,0,1,.637-9.966l4.319-20.568a35.755,35.755,0,0,0-.633,9.969c1.635,22.018,18.651,35.2,47.227,33.208C219.606,165.619,233.861,154.859,237.235,138.8Z" fill="none" clip-rule="evenodd"/>
    </clipPath>
    <clipPath id="clip-path-15">
      <rect id="Rectangle_14" data-name="Rectangle 14" width="94.159" height="67.256" transform="translate(143.693 123.458)" fill="none"/>
    </clipPath>
    <clipPath id="clip-path-16">
      <path id="Path_75" data-name="Path 75" d="M73.347,104.377l4.318-20.563c1.045-4.967,5.2-8.6,11.562-9.044L84.9,95.335C78.543,95.783,74.391,99.413,73.347,104.377Z" fill="none" clip-rule="evenodd"/>
    </clipPath>
    <clipPath id="clip-path-17">
      <rect id="Rectangle_15" data-name="Rectangle 15" width="16.555" height="31.041" transform="translate(73.332 73.792)" fill="none"/>
    </clipPath>
    <clipPath id="clip-path-18">
      <path id="Path_77" data-name="Path 77" d="M102.527,89.132,98.2,109.7a12.694,12.694,0,0,0,.222-3.543c-.5-6.711-5.722-11.366-13.522-10.822L89.227,74.77c7.8-.544,13.021,4.111,13.519,10.819A12.614,12.614,0,0,1,102.527,89.132Z" fill="none" clip-rule="evenodd"/>
    </clipPath>
    <clipPath id="clip-path-19">
      <rect id="Rectangle_16" data-name="Rectangle 16" width="18.625" height="36.215" transform="translate(84.714 73.792)" fill="none"/>
    </clipPath>
    <clipPath id="clip-path-20">
      <path id="Path_79" data-name="Path 79" d="M129.774,91.311l-4.323,20.565a28.727,28.727,0,0,1-9.249,15.7l4.322-20.565A28.78,28.78,0,0,0,129.774,91.311Z" fill="none" clip-rule="evenodd"/>
    </clipPath>
    <clipPath id="clip-path-21">
      <rect id="Rectangle_17" data-name="Rectangle 17" width="14.486" height="37.25" transform="translate(115.756 90.348)" fill="none"/>
    </clipPath>
    <clipPath id="clip-path-22">
      <path id="Path_81" data-name="Path 81" d="M45.94,97.173l4.319-20.55a39.126,39.126,0,0,0-.653,10.959c.8,10.845,5.885,18.422,13.409,23.452L58.692,131.6c-7.524-5.026-12.6-12.6-13.409-23.452A39.229,39.229,0,0,1,45.94,97.173Z" fill="none" clip-rule="evenodd"/>
    </clipPath>
    <clipPath id="clip-path-23">
      <rect id="Rectangle_18" data-name="Rectangle 18" width="19.66" height="55.875" transform="translate(44.36 75.862)" fill="none"/>
    </clipPath>
    <clipPath id="clip-path-24">
      <path id="Path_83" data-name="Path 83" d="M110.18,137.072l-4.323,20.569a15.3,15.3,0,0,0,.262-4.283c-.68-9.133-8.187-13.957-17.891-13.277-8.075.564-14.063,4.685-15.456,11.313L77.1,130.829c1.393-6.628,7.381-10.749,15.452-11.316,9.7-.677,17.215,4.147,17.892,13.277A15.364,15.364,0,0,1,110.18,137.072Z" fill="none" clip-rule="evenodd"/>
    </clipPath>
    <clipPath id="clip-path-25">
      <rect id="Rectangle_19" data-name="Rectangle 19" width="38.284" height="40.354" transform="translate(72.298 118.285)" fill="none"/>
    </clipPath>
    <clipPath id="clip-path-26">
      <path id="Path_85" data-name="Path 85" d="M137.788,145.76l-4.323,20.563c-3.374,16.056-17.629,26.815-41.176,28.464-28.577,2-45.592-11.193-47.228-33.208a35.579,35.579,0,0,1,.634-9.943l4.322-20.564a35.394,35.394,0,0,0-.633,9.938c1.632,22.019,18.651,35.206,47.224,33.208C120.155,172.573,134.413,161.812,137.788,145.76Z" fill="none" clip-rule="evenodd"/>
    </clipPath>
    <clipPath id="clip-path-27">
      <rect id="Rectangle_20" data-name="Rectangle 20" width="94.159" height="66.222" transform="translate(44.36 130.701)" fill="none"/>
    </clipPath>
    <clipPath id="clip-path-28">
      <path id="Path_124" data-name="Path 124" d="M155.713,118.64l2.207-10.5c.532-2.535,2.654-4.39,5.9-4.617l-2.207,10.5C158.367,114.25,156.247,116.1,155.713,118.64Z" fill="none" clip-rule="evenodd"/>
    </clipPath>
    <clipPath id="clip-path-29">
      <rect id="Rectangle_22" data-name="Rectangle 22" width="9.312" height="16.555" transform="translate(155.075 102.764)" fill="none"/>
    </clipPath>
    <clipPath id="clip-path-30">
      <path id="Path_126" data-name="Path 126" d="M170.612,110.856l-2.205,10.5a6.466,6.466,0,0,0,.112-1.81c-.254-3.425-2.92-5.8-6.9-5.523l2.207-10.5c3.98-.28,6.648,2.1,6.9,5.523A6.538,6.538,0,0,1,170.612,110.856Z" fill="none" clip-rule="evenodd"/>
    </clipPath>
    <clipPath id="clip-path-31">
      <rect id="Rectangle_23" data-name="Rectangle 23" width="10.347" height="18.625" transform="translate(161.283 102.764)" fill="none"/>
    </clipPath>
    <clipPath id="clip-path-32">
      <path id="Path_128" data-name="Path 128" d="M184.52,111.974l-2.205,10.493a14.672,14.672,0,0,1-4.72,8.017l2.207-10.5A14.671,14.671,0,0,0,184.52,111.974Z" fill="none" clip-rule="evenodd"/>
    </clipPath>
    <clipPath id="clip-path-33">
      <rect id="Rectangle_24" data-name="Rectangle 24" width="8.278" height="19.66" transform="translate(176.804 111.042)" fill="none"/>
    </clipPath>
    <clipPath id="clip-path-34">
      <path id="Path_130" data-name="Path 130" d="M141.723,114.961l2.206-10.5a20.036,20.036,0,0,0-.336,5.6,15.05,15.05,0,0,0,6.848,11.973l-2.207,10.5a15.043,15.043,0,0,1-6.846-11.972A19.915,19.915,0,0,1,141.723,114.961Z" fill="none" clip-rule="evenodd"/>
    </clipPath>
    <clipPath id="clip-path-35">
      <rect id="Rectangle_25" data-name="Rectangle 25" width="10.347" height="28.972" transform="translate(140.589 103.799)" fill="none"/>
    </clipPath>
    <clipPath id="clip-path-36">
      <path id="Path_132" data-name="Path 132" d="M174.519,135.331l-2.205,10.5a7.81,7.81,0,0,0,.132-2.186c-.345-4.661-4.18-7.124-9.134-6.777-4.123.288-7.192,2.394-7.9,5.783l2.205-10.5c.713-3.387,3.78-5.494,7.906-5.784,4.954-.345,8.787,2.116,9.134,6.778A7.738,7.738,0,0,1,174.519,135.331Z" fill="none" clip-rule="evenodd"/>
    </clipPath>
    <clipPath id="clip-path-37">
      <rect id="Rectangle_26" data-name="Rectangle 26" width="19.66" height="20.694" transform="translate(155.075 125.528)" fill="none"/>
    </clipPath>
    <clipPath id="clip-path-38">
      <path id="Path_134" data-name="Path 134" d="M188.613,139.765l-2.206,10.5c-1.723,8.2-9,13.691-21.022,14.531-14.588,1.021-23.277-5.713-24.112-16.954a18.2,18.2,0,0,1,.325-5.088l2.206-10.5a18.209,18.209,0,0,0-.324,5.09c.835,11.241,9.522,17.973,24.111,16.953C179.613,153.455,186.89,147.962,188.613,139.765Z" fill="none" clip-rule="evenodd"/>
    </clipPath>
    <clipPath id="clip-path-39">
      <rect id="Rectangle_27" data-name="Rectangle 27" width="48.632" height="34.146" transform="translate(140.589 131.736)" fill="none"/>
    </clipPath>
    <clipPath id="clip-path-40">
      <path id="Path_137" data-name="Path 137" d="M104.944,122.189l2.2-10.5c.534-2.536,2.654-4.391,5.9-4.617l-2.207,10.5C107.6,117.8,105.476,119.655,104.944,122.189Z" fill="none" clip-rule="evenodd"/>
    </clipPath>
    <clipPath id="clip-path-41">
      <rect id="Rectangle_28" data-name="Rectangle 28" width="9.312" height="15.521" transform="translate(104.374 106.903)" fill="none"/>
    </clipPath>
    <clipPath id="clip-path-42">
      <path id="Path_139" data-name="Path 139" d="M119.84,114.406l-2.207,10.5a6.491,6.491,0,0,0,.113-1.808c-.254-3.427-2.921-5.8-6.9-5.525l2.207-10.5c3.982-.278,6.647,2.1,6.9,5.523A6.421,6.421,0,0,1,119.84,114.406Z" fill="none" clip-rule="evenodd"/>
    </clipPath>
    <clipPath id="clip-path-43">
      <rect id="Rectangle_29" data-name="Rectangle 29" width="10.347" height="19.66" transform="translate(110.582 105.868)" fill="none"/>
    </clipPath>
    <clipPath id="clip-path-44">
      <path id="Path_141" data-name="Path 141" d="M133.751,115.518l-2.207,10.5a14.674,14.674,0,0,1-4.722,8.016l2.207-10.5A14.7,14.7,0,0,0,133.751,115.518Z" fill="none" clip-rule="evenodd"/>
    </clipPath>
    <clipPath id="clip-path-45">
      <rect id="Rectangle_30" data-name="Rectangle 30" width="8.278" height="19.66" transform="translate(126.103 115.181)" fill="none"/>
    </clipPath>
    <clipPath id="clip-path-46">
      <path id="Path_143" data-name="Path 143" d="M90.951,118.511l2.205-10.492a20.022,20.022,0,0,0-.334,5.6,15.046,15.046,0,0,0,6.846,11.972l-2.207,10.5a15.041,15.041,0,0,1-6.845-11.972A20.028,20.028,0,0,1,90.951,118.511Z" fill="none" clip-rule="evenodd"/>
    </clipPath>
    <clipPath id="clip-path-47">
      <rect id="Rectangle_31" data-name="Rectangle 31" width="10.347" height="28.972" transform="translate(89.888 107.938)" fill="none"/>
    </clipPath>
    <clipPath id="clip-path-48">
      <path id="Path_145" data-name="Path 145" d="M123.748,138.881l-2.207,10.5a7.855,7.855,0,0,0,.134-2.187c-.347-4.662-4.18-7.125-9.134-6.778-4.123.288-7.18,2.392-7.891,5.776l2.207-10.5c.711-3.384,3.768-5.488,7.889-5.778,4.954-.345,8.789,2.117,9.134,6.778A7.814,7.814,0,0,1,123.748,138.881Z" fill="none" clip-rule="evenodd"/>
    </clipPath>
    <clipPath id="clip-path-49">
      <rect id="Rectangle_32" data-name="Rectangle 32" width="19.66" height="21.729" transform="translate(104.374 128.632)" fill="none"/>
    </clipPath>
    <clipPath id="clip-path-50">
      <path id="Path_147" data-name="Path 147" d="M137.842,143.316l-2.206,10.5c-1.723,8.2-9,13.69-21.023,14.532-14.589,1.02-23.276-5.714-24.111-16.954a18.117,18.117,0,0,1,.324-5.076l2.206-10.5a18.107,18.107,0,0,0-.323,5.075c.833,11.241,9.522,17.973,24.11,16.953C128.84,157.005,136.119,151.511,137.842,143.316Z" fill="none" clip-rule="evenodd"/>
    </clipPath>
    <clipPath id="clip-path-51">
      <rect id="Rectangle_33" data-name="Rectangle 33" width="48.632" height="35.18" transform="translate(89.888 134.84)" fill="none"/>
    </clipPath>
  </defs>
  <g id="Group_129" data-name="Group 129" transform="translate(26 8.985)">
    <path id="Path_1" data-name="Path 1" d="M1.21,209.567V22.057A18.625,18.625,0,0,1,19.835,3.432H730.072A18.625,18.625,0,0,1,748.7,22.057v187.51a18.625,18.625,0,0,1-18.625,18.624H19.835A18.625,18.625,0,0,1,1.21,209.567Z" fill="#180f33"/>
    <path id="Path_2" data-name="Path 2" d="M454.414,228.191V3.432H730.072A18.625,18.625,0,0,1,748.7,22.057v187.51a18.625,18.625,0,0,1-18.625,18.624Z" fill="#fff"/>
    <path id="Path_3" data-name="Path 3" d="M679.3,80.282s3.5,12.11-16.495,16.849L605.989,110.6s-6.233,1.477-7.965-4.505l-1.772-6.128s-3.5-12.109,16.495-16.849l50.52-11.972S675.8,68.172,679.279,80.2Z" fill="#ddb392"/>
    <path id="Path_4" data-name="Path 4" d="M676.118,119.029s1.225,12.009-18.49,13.262l-56.017,3.56s-6.142.39-6.746-5.537l-.621-6.083s-1.226-12.008,18.489-13.261l49.81-3.166s12.347-.785,13.564,11.134Z" fill="#ddb392"/>
    <path id="Path_5" data-name="Path 5" d="M673.848,148.539s1.291,12.64-19.461,13.96l-58.96,3.747s-6.47.411-7.108-5.835l-.653-6.4s-1.289-12.641,19.462-13.96l52.423-3.332s13.008-.826,14.289,11.73Z" fill="#ddb392"/>
    <path id="Path_6" data-name="Path 6" d="M650.971,187.657s-1.1,11.328-19.576,9.055l-52.553-6.466s-5.712-.7-5.174-6.249l.56-5.781s1.1-11.329,19.577-9.056l46.711,5.748s11.552,1.421,10.466,12.642Z" fill="#ddb392"/>
    <rect id="Rectangle_1" data-name="Rectangle 1" width="102.51" height="153.424" transform="translate(563.1 10.383)" fill="#ede8e8"/>
    <g id="Group_5" data-name="Group 5">
      <g id="Group_4" data-name="Group 4" clip-path="url(#clip-path)">
        <g id="Group_3" data-name="Group 3">
          <g id="Group_2" data-name="Group 2">
            <g id="Group_1" data-name="Group 1" clip-path="url(#clip-path-2)">
              <rect id="Rectangle_2" data-name="Rectangle 2" width="89.844" height="153.433" transform="translate(572.348 0.768)" fill="#fff"/>
            </g>
          </g>
        </g>
      </g>
    </g>
    <path id="Path_7" data-name="Path 7" d="M563.931,165.475V177.59s0,10.717,19.595,10.717h63.311s19.6.812,19.6-14.749v-8.083Zm102.5-143.793V17.674s0-14.244-19.6-14.244H583.526s-19.595-1.337-19.595,14.244v4.008Z" fill="#282b53"/>
    <rect id="Rectangle_5" data-name="Rectangle 5" width="22.863" height="2.776" transform="translate(606.094 8.995)" fill="#ede8e8"/>
    <rect id="Rectangle_6" data-name="Rectangle 6" width="3.816" height="2.776" transform="translate(599.785 8.995)" fill="#ede8e8"/>
    <path id="Path_8" data-name="Path 8" d="M598.474,188.709s39.717-30.493,19.931-45.961c-12.14-9.492-19.674,9.341-31.18,14.266-18.539,7.933-24.153,13.742-24.153,13.742v-63.5c-2.894.786-15.752,6.751-20.705,13.675s-30.514,75.23-32.059,79.832c-.737,2.2-10.627,24.262-13.252,27.429h80.416C583.845,222.929,594.051,210.58,598.474,188.709Z" fill="#e8ba97"/>
    <path id="Path_9" data-name="Path 9" d="M602.575,159.048s-8.6-4.9-4.637-10.047c0,0,8.785-12.534,16.293-6.066.935.805,7.383,5,2.39,11.9l-1.671,2.31s-4.992,6.9-12.124,2.069Z" fill="#efceb4"/>
    <ellipse id="Ellipse_1" data-name="Ellipse 1" cx="13.411" cy="12.98" rx="13.411" ry="12.98" transform="translate(583.112 115.12)" fill="#98c737"/>
    <path id="Path_10" data-name="Path 10" d="M632.16,141.081A12.987,12.987,0,1,0,618.748,128.1,13.2,13.2,0,0,0,632.16,141.081Z" fill="#e25c5a"/>
    <path id="Path_11" data-name="Path 11" d="M608.913,64.986a1.675,1.675,0,0,0-1.727,1.671v.835a1.654,1.654,0,0,0,1.727,1.671h12.879a1.675,1.675,0,0,0,1.727-1.671v-.835a1.654,1.654,0,0,0-1.727-1.671Z" fill="#fff"/>
    <path id="Path_12" data-name="Path 12" d="M600.495,130.487a1.093,1.093,0,0,0-1.616,0c-.378.362-.756.725-1.127,1.093a.227.227,0,0,1-.311.056c-.246-.129-.506-.234-.74-.375a11.6,11.6,0,0,1-2.828-2.489,6.475,6.475,0,0,1-1.013-1.571.224.224,0,0,1,.057-.29c.378-.353.747-.715,1.119-1.078a1.02,1.02,0,0,0,0-1.6c-.3-.288-.591-.57-.887-.86s-.606-.593-.914-.885a1.1,1.1,0,0,0-1.617,0c-.381.363-.747.735-1.135,1.092a1.769,1.769,0,0,0-.578,1.2,4.981,4.981,0,0,0,.407,2.192,13.251,13.251,0,0,0,2.443,3.939,15.06,15.06,0,0,0,5.006,3.789,7.392,7.392,0,0,0,2.772.78,2.057,2.057,0,0,0,1.743-.642c.325-.35.69-.67,1.032-1a1.023,1.023,0,0,0,.007-1.593C601.708,131.654,601.1,131.071,600.495,130.487Z" fill="#fff"/>
    <path id="Path_13" data-name="Path 13" d="M599.889,128.037l1.171-.194a5.021,5.021,0,0,0-1.464-2.737,5.28,5.28,0,0,0-2.985-1.44l-.166,1.14a4.1,4.1,0,0,1,2.313,1.115A3.887,3.887,0,0,1,599.889,128.037Z" fill="#fff"/>
    <path id="Path_14" data-name="Path 14" d="M601.72,123.106a8.75,8.75,0,0,0-4.954-2.391l-.165,1.14a7.586,7.586,0,0,1,4.281,2.066,7.173,7.173,0,0,1,2.1,3.919l1.171-.194A8.336,8.336,0,0,0,601.72,123.106Z" fill="#fff"/>
    <path id="Path_15" data-name="Path 15" d="M627.609,131.27a1.054,1.054,0,0,0,1.144-1.107c0-.515,0-1.031,0-1.545a.216.216,0,0,1,.18-.252c.266-.077.528-.181.8-.242a12.122,12.122,0,0,1,3.819-.173,6.848,6.848,0,0,1,1.864.416.227.227,0,0,1,.171.244c-.009.509-.005,1.017,0,1.529a1.058,1.058,0,0,0,1.173,1.13h1.255c.431,0,.862.005,1.294,0a1.057,1.057,0,0,0,1.14-1.108c0-.518-.009-1.031,0-1.547a1.749,1.749,0,0,0-.47-1.246,5.252,5.252,0,0,0-1.888-1.272,14.137,14.137,0,0,0-4.6-1.113,15.606,15.606,0,0,0-6.309.746,7.3,7.3,0,0,0-2.53,1.345,1.942,1.942,0,0,0-.764,1.648c.027.47,0,.946,0,1.417a1.063,1.063,0,0,0,1.159,1.13C625.9,131.274,626.753,131.271,627.609,131.27Z" fill="#fff"/>
    <rect id="Rectangle_7" data-name="Rectangle 7" width="2.152" height="9.537" transform="translate(77.994 53.908)" fill="#fff"/>
    <path id="Path_16" data-name="Path 16" d="M95.87,63.445V53.908H93.745v5.8l-3.578-5.8H87.584v9.537H89.7V57.177l3.928,6.268Z" fill="#fff"/>
    <path id="Path_17" data-name="Path 17" d="M110.532,55.939V53.908h-8v2.031h2.932v7.506h2.125V55.939Z" fill="#fff"/>
    <path id="Path_18" data-name="Path 18" d="M119.329,58.065V55.751h1.251c.875,0,1.346.444,1.346,1.157,0,.672-.471,1.157-1.346,1.157Zm2.462,5.38h2.341l-1.937-3.86a2.736,2.736,0,0,0,1.883-2.691,2.911,2.911,0,0,0-3.094-2.986H117.2v9.537h2.125V59.894h.754Z" fill="#fff"/>
    <path id="Path_19" data-name="Path 19" d="M130.413,58.683a4.957,4.957,0,1,0,4.964-4.977A4.828,4.828,0,0,0,130.413,58.683Zm2.206-.013a2.754,2.754,0,1,1,2.758,2.879A2.7,2.7,0,0,1,132.619,58.67Z" fill="#fff"/>
    <path id="Path_20" data-name="Path 20" d="M150.671,63.445a4.473,4.473,0,0,0,4.8-4.762,4.48,4.48,0,0,0-4.789-4.775h-3.457v9.537Zm-1.318-2V55.912h1.237a2.766,2.766,0,0,1,0,5.529Z" fill="#fff"/>
    <path id="Path_21" data-name="Path 21" d="M166.073,63.66A3.5,3.5,0,0,0,169.852,60V53.908h-2.125v5.919a1.656,1.656,0,1,1-3.309,0V53.908h-2.125V60A3.5,3.5,0,0,0,166.073,63.66Z" fill="#fff"/>
    <path id="Path_22" data-name="Path 22" d="M181.622,63.647a4.4,4.4,0,0,0,4.533-3.336l-2.031-.578a2.434,2.434,0,0,1-2.5,1.789,2.876,2.876,0,0,1-.027-5.744,2.3,2.3,0,0,1,2.435,1.775l2-.632a4.236,4.236,0,0,0-4.439-3.215,4.857,4.857,0,0,0-4.923,4.991A4.8,4.8,0,0,0,181.622,63.647Z" fill="#fff"/>
    <rect id="Rectangle_8" data-name="Rectangle 8" width="2.152" height="9.537" transform="translate(192.989 53.908)" fill="#fff"/>
    <path id="Path_23" data-name="Path 23" d="M210.865,63.445V53.908H208.74v5.8l-3.578-5.8h-2.583v9.537h2.112V57.177l3.928,6.268Z" fill="#fff"/>
    <path id="Path_24" data-name="Path 24" d="M227.114,63.445v-5.1h-4.855v1.8h2.865a2.26,2.26,0,0,1-2.354,1.56,3.012,3.012,0,0,1-.054-6.013,2.3,2.3,0,0,1,2.367,1.668l2.045-.713a4.284,4.284,0,0,0-4.412-2.946,4.847,4.847,0,0,0-4.964,4.977,4.744,4.744,0,0,0,4.829,4.964,3.16,3.16,0,0,0,2.677-1.17l.135.968Z" fill="#fff"/>
    <g id="Group_68" data-name="Group 68" opacity="0.02">
      <g id="Group_67" data-name="Group 67">
        <g id="Group_66" data-name="Group 66" clip-path="url(#clip-path-3)">
          <path id="Path_25" data-name="Path 25" d="M23.456,61.4,19.134,81.963,10.491,94.51l4.322-20.567Z" fill="#818181"/>
          <path id="Path_26" data-name="Path 26" d="M-5.994,75.4l-4.322,20.566L-20.723,84.751-16.4,64.184Z" fill="gray"/>
          <path id="Path_27" data-name="Path 27" d="M31.417,86.418,27.1,106.985l-15.712-.446,4.322-20.567Z" fill="gray"/>
          <path id="Path_28" data-name="Path 28" d="M-5.1,87.427l-4.322,20.567-15.454,2.625,4.322-20.567Z" fill="#818181"/>
          <path id="Path_29" data-name="Path 29" d="M-20.555,90.052l-4.322,20.566L-26,95.487l4.322-20.567Z" fill="gray"/>
          <path id="Path_30" data-name="Path 30" d="M26.112,97.187l-4.322,20.567L9.726,126.529l4.322-20.567Z" fill="#818181"/>
          <path id="Path_31" data-name="Path 31" d="M14.048,105.962,9.727,126.528,1.38,112.437,5.7,91.87Z" fill="gray"/>
          <path id="Path_32" data-name="Path 32" d="M-.507,106.98l-4.322,20.567-13.237-7.006,4.322-20.567Z" fill="gray"/>
          <path id="Path_33" data-name="Path 33" d="M5.7,91.87,1.379,112.437-4.83,127.546-.508,106.98Z" fill="#818181"/>
          <path id="Path_34" data-name="Path 34" d="M10.218,54.361,23.456,61.4,14.813,73.944l15.481-2.657,1.123,15.131-15.712-.446L26.113,97.186l-12.065,8.775L5.7,91.87-.508,106.98l-13.237-7.006L-5.1,87.427l-15.454,2.625-1.123-15.131,15.684.478L-16.4,64.184l12.063-8.805L4.041,69.5Z" fill="#fdfdfd"/>
          <path id="Path_35" data-name="Path 35" d="M407.625,63.587,403.3,84.153l2.4-26.1,4.322-20.567Z" fill="gray"/>
          <path id="Path_36" data-name="Path 36" d="M371.934,66.083l-4.322,20.566,2.4-26.1,4.322-20.567Z" fill="gray"/>
          <path id="Path_37" data-name="Path 37" d="M443.855,80.066l-4.322,20.567-18.217,1.274,4.322-20.567Z" fill="gray"/>
          <path id="Path_38" data-name="Path 38" d="M370.213,85.215l-4.322,20.566-18.545,1.3,4.322-20.566Z" fill="gray"/>
          <path id="Path_39" data-name="Path 39" d="M351.669,86.512l-4.322,20.566,1.721-19.133,4.322-20.566Z" fill="gray"/>
          <path id="Path_40" data-name="Path 40" d="M404.485,96.662,388.56,97.776l1.389-13.941L405.9,82.719Z" fill="#fdfdfd"/>
          <path id="Path_41" data-name="Path 41" d="M404.484,96.662l-4.322,20.566-15.925,1.114,4.322-20.567Z" fill="gray"/>
          <path id="Path_42" data-name="Path 42" d="M388.559,97.776l-4.322,20.567,1.389-13.941,4.322-20.567Z" fill="gray"/>
          <path id="Path_43" data-name="Path 43" d="M368.794,99.158l-4.322,20.566,1.419-13.943,4.322-20.566Z" fill="gray"/>
          <path id="Path_44" data-name="Path 44" d="M441.072,113.116l-4.322,20.566-18.544,1.3,4.322-20.566Z" fill="gray"/>
          <path id="Path_45" data-name="Path 45" d="M402.793,115.793l-4.322,20.566-15.955,1.116,4.322-20.566Z" fill="gray"/>
          <path id="Path_46" data-name="Path 46" d="M348.736,119.573l-4.322,20.566,1.692-19.131,4.322-20.567Z" fill="gray"/>
          <path id="Path_47" data-name="Path 47" d="M367.1,118.289l-4.322,20.566-18.366,1.284,4.322-20.566Z" fill="gray"/>
          <path id="Path_48" data-name="Path 48" d="M400.362,141.9l-4.322,20.567,2.431-26.1,4.322-20.566Z" fill="gray"/>
          <path id="Path_49" data-name="Path 49" d="M420.127,140.515l-4.322,20.566-19.765,1.382,4.322-20.566Z" fill="gray"/>
          <path id="Path_50" data-name="Path 50" d="M384.437,143.011l-4.322,20.566-19.765,1.382,4.322-20.566Z" fill="gray"/>
          <path id="Path_51" data-name="Path 51" d="M443.855,80.066l-18.217,1.274L424.249,95.28,442.615,94l-1.543,19.12-18.544,1.3-2.4,26.1L400.362,141.9l2.431-26.1-15.955,1.116-2.4,26.1-19.765,1.382,2.431-26.1-18.366,1.284,1.692-19.131,18.366-1.284,1.419-13.943-18.545,1.3,1.721-19.133,18.544-1.3,2.4-26.1L394.1,38.6l-2.431,26.1,15.955-1.116,2.4-26.1L429.79,36.1l-2.431,26.1,18.187-1.272Z" fill="#fdfdfd"/>
          <path id="Path_52" data-name="Path 52" d="M364.672,144.393,360.35,164.96l2.431-26.1,4.322-20.566Z" fill="gray"/>
          <path id="Path_53" data-name="Path 53" d="M302.577,112.433,298.255,133l-1.915-25.8,4.322-20.567Z" fill="gray"/>
          <path id="Path_54" data-name="Path 54" d="M310.294,35.814,305.972,56.38l-33.018,78.389,4.322-20.566Z" fill="#818181"/>
          <path id="Path_55" data-name="Path 55" d="M344.651,135.069l-4.322,20.566-12.115.847,4.322-20.567Z" fill="gray"/>
          <path id="Path_56" data-name="Path 56" d="M304.465,137.879l-4.322,20.566-55.1,3.853,4.322-20.566Z" fill="gray"/>
          <path id="Path_57" data-name="Path 57" d="M249.368,141.732,245.046,162.3l-1.889-25.446,4.322-20.566Z" fill="gray"/>
          <path id="Path_58" data-name="Path 58" d="M305.9,157.148l-4.322,20.567-1.43-19.269,4.322-20.566Z" fill="gray"/>
          <path id="Path_59" data-name="Path 59" d="M333.966,155.185l-4.322,20.567-28.07,1.963,4.322-20.567Z" fill="gray"/>
          <path id="Path_60" data-name="Path 60" d="M310.294,35.814,277.275,114.2l25.3-1.769-1.915-25.8,28.07-1.963,1.915,25.8,12.115-.847,1.889,25.446-12.115.847,1.43,19.269-28.07,1.963-1.43-19.269-55.1,3.853-1.889-25.446L280.5,37.9Z" fill="#fdfdfd"/>
          <g id="Group_10" data-name="Group 10">
            <g id="Group_9" data-name="Group 9" clip-path="url(#clip-path-4)">
              <g id="Group_8" data-name="Group 8">
                <g id="Group_7" data-name="Group 7">
                  <g id="Group_6" data-name="Group 6" clip-path="url(#clip-path-5)">
                    <path id="Path_61" data-name="Path 61" d="M188.678,67.817l-4.323,20.565c-6.362.444-10.516,4.077-11.561,9.043l4.323-20.565c1.041-4.966,5.2-8.6,11.561-9.043" fill="#858585"/>
                  </g>
                </g>
              </g>
            </g>
          </g>
          <g id="Group_15" data-name="Group 15">
            <g id="Group_14" data-name="Group 14" clip-path="url(#clip-path-6)">
              <g id="Group_13" data-name="Group 13">
                <g id="Group_12" data-name="Group 12">
                  <g id="Group_11" data-name="Group 11" clip-path="url(#clip-path-7)">
                    <path id="Path_63" data-name="Path 63" d="M201.976,82.178l-4.32,20.569a12.6,12.6,0,0,0,.219-3.547c-.5-6.708-5.719-11.362-13.519-10.818l4.323-20.565c7.8-.548,13.021,4.11,13.519,10.818a12.77,12.77,0,0,1-.222,3.543" fill="#858585"/>
                  </g>
                </g>
              </g>
            </g>
          </g>
          <g id="Group_20" data-name="Group 20">
            <g id="Group_19" data-name="Group 19" clip-path="url(#clip-path-8)">
              <g id="Group_18" data-name="Group 18">
                <g id="Group_17" data-name="Group 17">
                  <g id="Group_16" data-name="Group 16" clip-path="url(#clip-path-9)">
                    <path id="Path_65" data-name="Path 65" d="M229.221,84.354,224.9,104.923a28.734,28.734,0,0,1-9.246,15.7l4.322-20.565a28.741,28.741,0,0,0,9.246-15.705" fill="#858585"/>
                  </g>
                </g>
              </g>
            </g>
          </g>
          <g id="Group_25" data-name="Group 25">
            <g id="Group_24" data-name="Group 24" clip-path="url(#clip-path-10)">
              <g id="Group_23" data-name="Group 23">
                <g id="Group_22" data-name="Group 22">
                  <g id="Group_21" data-name="Group 21" clip-path="url(#clip-path-11)">
                    <path id="Path_67" data-name="Path 67" d="M162.466,104.08l-4.322,20.565c-7.524-5.029-12.607-12.6-13.41-23.451a39,39,0,0,1,.657-10.974l4.32-20.569a39.257,39.257,0,0,0-.657,10.978c.806,10.845,5.885,18.422,13.412,23.451" fill="#858585"/>
                  </g>
                </g>
              </g>
            </g>
          </g>
          <g id="Group_30" data-name="Group 30">
            <g id="Group_29" data-name="Group 29" clip-path="url(#clip-path-12)">
              <g id="Group_28" data-name="Group 28">
                <g id="Group_27" data-name="Group 27">
                  <g id="Group_26" data-name="Group 26" clip-path="url(#clip-path-13)">
                    <path id="Path_69" data-name="Path 69" d="M209.629,130.119l-4.319,20.565a15.332,15.332,0,0,0,.258-4.283c-.676-9.13-8.187-13.953-17.891-13.273-8.078.564-14.089,4.691-15.483,11.329l4.32-20.568c1.4-6.635,7.4-10.762,15.486-11.33,9.7-.676,17.211,4.144,17.891,13.277a15.179,15.179,0,0,1-.262,4.283" fill="#858585"/>
                  </g>
                </g>
              </g>
            </g>
          </g>
          <g id="Group_35" data-name="Group 35">
            <g id="Group_34" data-name="Group 34" clip-path="url(#clip-path-14)">
              <g id="Group_33" data-name="Group 33">
                <g id="Group_32" data-name="Group 32">
                  <g id="Group_31" data-name="Group 31" clip-path="url(#clip-path-15)">
                    <path id="Path_71" data-name="Path 71" d="M237.236,138.8l-4.323,20.568c-3.374,16.057-17.629,26.815-41.176,28.461-28.574,2-45.592-11.19-47.228-33.208a35.628,35.628,0,0,1,.637-9.966l4.319-20.568a35.755,35.755,0,0,0-.633,9.969c1.635,22.018,18.651,35.2,47.227,33.208,23.548-1.646,37.8-12.408,41.177-28.464" fill="#858585"/>
                  </g>
                </g>
              </g>
            </g>
          </g>
          <path id="Path_73" data-name="Path 73" d="M188.678,67.817c-7.8.544-12.281,5.878-11.784,12.586s5.723,11.366,13.519,10.819,12.281-5.879,11.784-12.587-5.723-11.366-13.519-10.818m5.467,73.648c9.7-.68,16.419-6.526,15.745-15.629C209.21,116.7,201.7,111.883,192,112.56s-16.425,6.5-15.745,15.628c.674,9.1,8.188,13.954,17.891,13.277m25.83-41.406a33.7,33.7,0,0,1,17.918,27.771c1.635,22.018-13.257,37.438-41.834,39.435s-45.592-11.19-47.227-33.208a33.37,33.37,0,0,1,13.635-29.977c-7.528-5.029-12.607-12.606-13.413-23.451-1.735-23.408,15.353-37.05,37.707-38.612s41.282,9.561,43.021,32.966C230.588,85.827,226.677,94.035,219.975,100.059Z" fill="#fdfdfd"/>
          <g id="Group_40" data-name="Group 40">
            <g id="Group_39" data-name="Group 39" clip-path="url(#clip-path-16)">
              <g id="Group_38" data-name="Group 38">
                <g id="Group_37" data-name="Group 37">
                  <g id="Group_36" data-name="Group 36" clip-path="url(#clip-path-17)">
                    <path id="Path_74" data-name="Path 74" d="M89.227,74.77,84.9,95.335c-6.363.448-10.516,4.081-11.558,9.047l4.319-20.568c1.045-4.967,5.2-8.6,11.562-9.044" fill="#858585"/>
                  </g>
                </g>
              </g>
            </g>
          </g>
          <g id="Group_45" data-name="Group 45">
            <g id="Group_44" data-name="Group 44" clip-path="url(#clip-path-18)">
              <g id="Group_43" data-name="Group 43">
                <g id="Group_42" data-name="Group 42">
                  <g id="Group_41" data-name="Group 41" clip-path="url(#clip-path-19)">
                    <path id="Path_76" data-name="Path 76" d="M102.527,89.132,98.2,109.7a12.694,12.694,0,0,0,.222-3.543c-.5-6.711-5.722-11.366-13.522-10.822L89.227,74.77c7.8-.544,13.021,4.111,13.519,10.819a12.614,12.614,0,0,1-.219,3.543" fill="#858585"/>
                  </g>
                </g>
              </g>
            </g>
          </g>
          <g id="Group_50" data-name="Group 50">
            <g id="Group_49" data-name="Group 49" clip-path="url(#clip-path-20)">
              <g id="Group_48" data-name="Group 48">
                <g id="Group_47" data-name="Group 47">
                  <g id="Group_46" data-name="Group 46" clip-path="url(#clip-path-21)">
                    <path id="Path_78" data-name="Path 78" d="M129.774,91.311l-4.323,20.565a28.727,28.727,0,0,1-9.249,15.7l4.322-20.565a28.78,28.78,0,0,0,9.25-15.7" fill="#858585"/>
                  </g>
                </g>
              </g>
            </g>
          </g>
          <g id="Group_55" data-name="Group 55">
            <g id="Group_54" data-name="Group 54" clip-path="url(#clip-path-22)">
              <g id="Group_53" data-name="Group 53">
                <g id="Group_52" data-name="Group 52">
                  <g id="Group_51" data-name="Group 51" clip-path="url(#clip-path-23)">
                    <path id="Path_80" data-name="Path 80" d="M63.015,111.034,58.692,131.6c-7.524-5.026-12.6-12.6-13.409-23.452a39.229,39.229,0,0,1,.657-10.974l4.322-20.565a39.117,39.117,0,0,0-.656,10.974c.8,10.845,5.885,18.422,13.409,23.452" fill="#858585"/>
                  </g>
                </g>
              </g>
            </g>
          </g>
          <g id="Group_60" data-name="Group 60">
            <g id="Group_59" data-name="Group 59" clip-path="url(#clip-path-24)">
              <g id="Group_58" data-name="Group 58">
                <g id="Group_57" data-name="Group 57">
                  <g id="Group_56" data-name="Group 56" clip-path="url(#clip-path-25)">
                    <path id="Path_82" data-name="Path 82" d="M110.18,137.072l-4.323,20.569a15.3,15.3,0,0,0,.262-4.283c-.68-9.133-8.187-13.957-17.891-13.277-8.075.564-14.063,4.685-15.456,11.313L77.1,130.829c1.393-6.628,7.381-10.749,15.452-11.316,9.7-.677,17.215,4.147,17.892,13.277a15.364,15.364,0,0,1-.259,4.282" fill="#858585"/>
                  </g>
                </g>
              </g>
            </g>
          </g>
          <g id="Group_65" data-name="Group 65">
            <g id="Group_64" data-name="Group 64" clip-path="url(#clip-path-26)">
              <g id="Group_63" data-name="Group 63">
                <g id="Group_62" data-name="Group 62">
                  <g id="Group_61" data-name="Group 61" clip-path="url(#clip-path-27)">
                    <path id="Path_84" data-name="Path 84" d="M137.788,145.758l-4.323,20.565c-3.374,16.056-17.629,26.815-41.176,28.464-28.577,2-45.592-11.193-47.228-33.208a35.579,35.579,0,0,1,.634-9.943l4.322-20.565a35.4,35.4,0,0,0-.633,9.939c1.632,22.019,18.651,35.206,47.224,33.208,23.548-1.645,37.806-12.407,41.18-28.46" fill="#858585"/>
                  </g>
                </g>
              </g>
            </g>
          </g>
          <path id="Path_86" data-name="Path 86" d="M89.227,74.77c-7.8.544-12.278,5.879-11.781,12.587s5.72,11.365,13.519,10.821,12.278-5.882,11.781-12.589S97.026,74.226,89.227,74.77m5.467,73.648c9.7-.68,16.422-6.525,15.745-15.628-.677-9.13-8.188-13.954-17.891-13.277s-16.392,6.5-15.715,15.629c.676,9.1,8.157,13.956,17.861,13.276m25.83-41.4a33.7,33.7,0,0,1,17.921,27.77c1.632,22.019-13.26,37.438-41.837,39.435s-45.592-11.19-47.224-33.208a33.432,33.432,0,0,1,13.631-29.976C55.491,106,50.409,98.427,49.606,87.582,47.868,64.174,64.956,50.533,87.313,48.97s41.282,9.561,43.021,32.966C131.136,92.784,127.229,100.988,120.524,107.013Z" fill="#fdfdfd"/>
        </g>
      </g>
    </g>
    <path id="Path_87" data-name="Path 87" d="M79.471,100.246l-2.206,10.5-4.413,6.406,2.206-10.5Z" fill="#818181"/>
    <path id="Path_88" data-name="Path 88" d="M64.436,107.394l-2.206,10.5-5.313-5.725,2.206-10.5Z" fill="gray"/>
    <path id="Path_89" data-name="Path 89" d="M83.535,113.02l-2.206,10.5-8.021-.228,2.206-10.5Z" fill="gray"/>
    <path id="Path_90" data-name="Path 90" d="M64.893,113.535l-2.206,10.5-7.89,1.34L57,114.875Z" fill="#818181"/>
    <path id="Path_91" data-name="Path 91" d="M57,114.875l-2.206,10.5-.573-7.725,2.206-10.5Z" fill="gray"/>
    <path id="Path_92" data-name="Path 92" d="M80.828,118.518l-2.206,10.5-6.16,4.48L74.669,123Z" fill="#818181"/>
    <path id="Path_93" data-name="Path 93" d="M74.668,123l-2.206,10.5L68.2,126.3l2.206-10.5Z" fill="gray"/>
    <path id="Path_94" data-name="Path 94" d="M67.238,123.517l-2.206,10.5-6.758-3.577,2.206-10.5Z" fill="gray"/>
    <path id="Path_95" data-name="Path 95" d="M70.407,115.8,68.2,126.3l-3.17,7.714,2.206-10.5Z" fill="#818181"/>
    <path id="Path_96" data-name="Path 96" d="M72.714,96.654l6.759,3.592-4.413,6.406,7.9-1.356.573,7.725-8.021-.228,5.313,5.725L74.669,123,70.408,115.8l-3.17,7.714L60.48,119.94l4.413-6.406L57,114.875l-.573-7.725,8.007.244-5.313-5.725,6.158-4.5,4.278,7.208Z" fill="#fdfdfd"/>
    <path id="Path_97" data-name="Path 97" d="M275.6,101.364l-2.206,10.5,1.226-13.326,2.206-10.5Z" fill="gray"/>
    <path id="Path_98" data-name="Path 98" d="M257.381,102.638l-2.206,10.5L256.4,99.812l2.206-10.5Z" fill="gray"/>
    <path id="Path_99" data-name="Path 99" d="M294.1,109.777l-2.206,10.5-9.3.65,2.206-10.5Z" fill="gray"/>
    <path id="Path_100" data-name="Path 100" d="M256.5,112.406l-2.206,10.5-9.468.662,2.206-10.5Z" fill="gray"/>
    <path id="Path_101" data-name="Path 101" d="M247.036,113.068l-2.206,10.5.879-9.768,2.206-10.5Z" fill="gray"/>
    <path id="Path_102" data-name="Path 102" d="M274,118.25l-8.13.569.709-7.117,8.146-.57Z" fill="#fdfdfd"/>
    <path id="Path_103" data-name="Path 103" d="M274,118.25l-2.206,10.5-8.13.569,2.206-10.5Z" fill="gray"/>
    <path id="Path_104" data-name="Path 104" d="M265.869,118.819l-2.206,10.5.709-7.117,2.206-10.5Z" fill="gray"/>
    <path id="Path_105" data-name="Path 105" d="M255.779,119.524l-2.206,10.5.724-7.118,2.206-10.5Z" fill="gray"/>
    <path id="Path_106" data-name="Path 106" d="M292.679,126.65l-2.206,10.5-9.468.662,2.206-10.5Z" fill="gray"/>
    <path id="Path_107" data-name="Path 107" d="M273.137,128.017l-2.206,10.5-8.145.57,2.206-10.5Z" fill="gray"/>
    <path id="Path_108" data-name="Path 108" d="M245.539,129.947l-2.206,10.5.864-9.767,2.206-10.5Z" fill="gray"/>
    <path id="Path_109" data-name="Path 109" d="M254.915,129.291l-2.206,10.5-9.376.656,2.206-10.5Z" fill="gray"/>
    <path id="Path_110" data-name="Path 110" d="M271.9,141.344l-2.206,10.5,1.241-13.327,2.206-10.5Z" fill="gray"/>
    <path id="Path_111" data-name="Path 111" d="M281.986,140.639l-2.206,10.5-10.091.706,2.206-10.5Z" fill="gray"/>
    <path id="Path_112" data-name="Path 112" d="M263.765,141.913l-2.206,10.5-10.091.706,2.206-10.5Z" fill="gray"/>
    <path id="Path_113" data-name="Path 113" d="M294.1,109.777l-9.3.65-.709,7.117,9.376-.656-.788,9.762-9.468.662-1.226,13.326-10.091.706,1.241-13.327-8.145.57-1.226,13.326-10.091.706,1.241-13.327-9.376.656.864-9.767,9.376-.656.724-7.118-9.468.662.879-9.768,9.468-.662,1.226-13.326,10.091-.706-1.241,13.327,8.146-.57,1.226-13.326,10.091-.706-1.241,13.327,9.285-.649Z" fill="#fdfdfd"/>
    <path id="Path_114" data-name="Path 114" d="M253.674,142.619l-2.206,10.5,1.241-13.327,2.206-10.5Z" fill="gray"/>
    <path id="Path_115" data-name="Path 115" d="M221.972,126.3l-2.206,10.5-.978-13.172,2.206-10.5Z" fill="gray"/>
    <path id="Path_116" data-name="Path 116" d="M225.913,87.185l-2.206,10.5L206.85,137.7l2.206-10.5Z" fill="#818181"/>
    <path id="Path_117" data-name="Path 117" d="M243.453,137.858l-2.206,10.5-6.185.433,2.206-10.5Z" fill="gray"/>
    <path id="Path_118" data-name="Path 118" d="M222.937,139.293l-2.206,10.5L192.6,151.76l2.206-10.5Z" fill="gray"/>
    <path id="Path_119" data-name="Path 119" d="M194.808,141.26l-2.206,10.5-.964-12.991,2.206-10.5Z" fill="gray"/>
    <path id="Path_120" data-name="Path 120" d="M223.667,149.13l-2.206,10.5-.73-9.838,2.206-10.5Z" fill="gray"/>
    <path id="Path_121" data-name="Path 121" d="M238,148.128l-2.206,10.5-14.331,1,2.206-10.5Z" fill="gray"/>
    <path id="Path_122" data-name="Path 122" d="M225.913,87.185,209.056,127.2l12.917-.9L221,113.13l14.331-1L236.3,125.3l6.185-.433.964,12.991-6.185.432.73,9.838-14.331,1-.73-9.838-28.129,1.967-.964-12.991L210.7,88.248Z" fill="#fdfdfd"/>
    <g id="Group_73" data-name="Group 73">
      <g id="Group_72" data-name="Group 72" clip-path="url(#clip-path-28)">
        <g id="Group_71" data-name="Group 71">
          <g id="Group_70" data-name="Group 70">
            <g id="Group_69" data-name="Group 69" clip-path="url(#clip-path-29)">
              <path id="Path_123" data-name="Path 123" d="M163.823,103.523l-2.207,10.5c-3.249.227-5.369,2.081-5.9,4.617l2.207-10.5c.532-2.535,2.654-4.39,5.9-4.617" fill="#858585"/>
            </g>
          </g>
        </g>
      </g>
    </g>
    <g id="Group_78" data-name="Group 78">
      <g id="Group_77" data-name="Group 77" clip-path="url(#clip-path-30)">
        <g id="Group_76" data-name="Group 76">
          <g id="Group_75" data-name="Group 75">
            <g id="Group_74" data-name="Group 74" clip-path="url(#clip-path-31)">
              <path id="Path_125" data-name="Path 125" d="M170.612,110.856l-2.205,10.5a6.463,6.463,0,0,0,.112-1.81c-.254-3.425-2.92-5.8-6.9-5.523l2.207-10.5c3.98-.28,6.648,2.1,6.9,5.523a6.538,6.538,0,0,1-.114,1.809" fill="#858585"/>
            </g>
          </g>
        </g>
      </g>
    </g>
    <g id="Group_83" data-name="Group 83">
      <g id="Group_82" data-name="Group 82" clip-path="url(#clip-path-32)">
        <g id="Group_81" data-name="Group 81">
          <g id="Group_80" data-name="Group 80">
            <g id="Group_79" data-name="Group 79" clip-path="url(#clip-path-33)">
              <path id="Path_127" data-name="Path 127" d="M184.522,111.967l-2.207,10.5a14.672,14.672,0,0,1-4.72,8.017l2.207-10.5a14.678,14.678,0,0,0,4.72-8.017" fill="#858585"/>
            </g>
          </g>
        </g>
      </g>
    </g>
    <g id="Group_88" data-name="Group 88">
      <g id="Group_87" data-name="Group 87" clip-path="url(#clip-path-34)">
        <g id="Group_86" data-name="Group 86">
          <g id="Group_85" data-name="Group 85">
            <g id="Group_84" data-name="Group 84" clip-path="url(#clip-path-35)">
              <path id="Path_129" data-name="Path 129" d="M150.441,122.037l-2.207,10.5a15.043,15.043,0,0,1-6.846-11.972,19.915,19.915,0,0,1,.335-5.6l2.206-10.5a20.036,20.036,0,0,0-.336,5.6,15.05,15.05,0,0,0,6.848,11.973" fill="#858585"/>
            </g>
          </g>
        </g>
      </g>
    </g>
    <g id="Group_93" data-name="Group 93">
      <g id="Group_92" data-name="Group 92" clip-path="url(#clip-path-36)">
        <g id="Group_91" data-name="Group 91">
          <g id="Group_90" data-name="Group 90">
            <g id="Group_89" data-name="Group 89" clip-path="url(#clip-path-37)">
              <path id="Path_131" data-name="Path 131" d="M174.519,135.331l-2.205,10.5a7.81,7.81,0,0,0,.132-2.186c-.345-4.661-4.18-7.124-9.134-6.777-4.124.288-7.193,2.395-7.9,5.784l2.205-10.5c.713-3.387,3.78-5.494,7.906-5.784,4.954-.345,8.787,2.116,9.134,6.778a7.738,7.738,0,0,1-.134,2.187" fill="#858585"/>
            </g>
          </g>
        </g>
      </g>
    </g>
    <g id="Group_98" data-name="Group 98">
      <g id="Group_97" data-name="Group 97" clip-path="url(#clip-path-38)">
        <g id="Group_96" data-name="Group 96">
          <g id="Group_95" data-name="Group 95">
            <g id="Group_94" data-name="Group 94" clip-path="url(#clip-path-39)">
              <path id="Path_133" data-name="Path 133" d="M188.614,139.764l-2.207,10.5c-1.723,8.2-9,13.691-21.022,14.531-14.588,1.021-23.277-5.713-24.112-16.954a18.2,18.2,0,0,1,.325-5.088l2.206-10.5a18.209,18.209,0,0,0-.324,5.09c.835,11.241,9.522,17.973,24.111,16.953,12.022-.84,19.3-6.334,21.023-14.531" fill="#858585"/>
            </g>
          </g>
        </g>
      </g>
    </g>
    <path id="Path_135" data-name="Path 135" d="M163.823,103.524c-3.981.277-6.27,3-6.016,6.425s2.922,5.8,6.9,5.524,6.27-3,6.016-6.426-2.921-5.8-6.9-5.523m2.792,37.6c4.954-.347,8.382-3.331,8.038-7.978-.347-4.663-4.18-7.124-9.134-6.779s-8.386,3.317-8.038,7.979,4.18,7.124,9.134,6.778M179.8,119.985a17.2,17.2,0,0,1,9.147,14.177c.835,11.241-6.768,19.114-21.357,20.133s-23.277-5.712-24.112-16.954a17.037,17.037,0,0,1,6.962-15.3,15.048,15.048,0,0,1-6.848-11.972c-.886-11.951,7.838-18.916,19.25-19.713s21.077,4.881,21.964,16.83A14.912,14.912,0,0,1,179.8,119.985Z" fill="#fdfdfd"/>
    <g id="Group_103" data-name="Group 103">
      <g id="Group_102" data-name="Group 102" clip-path="url(#clip-path-40)">
        <g id="Group_101" data-name="Group 101">
          <g id="Group_100" data-name="Group 100">
            <g id="Group_99" data-name="Group 99" clip-path="url(#clip-path-41)">
              <path id="Path_136" data-name="Path 136" d="M113.051,107.074l-2.207,10.5c-3.249.228-5.369,2.083-5.9,4.618l2.205-10.5c.534-2.536,2.654-4.391,5.9-4.617" fill="#858585"/>
            </g>
          </g>
        </g>
      </g>
    </g>
    <g id="Group_108" data-name="Group 108">
      <g id="Group_107" data-name="Group 107" clip-path="url(#clip-path-42)">
        <g id="Group_106" data-name="Group 106">
          <g id="Group_105" data-name="Group 105">
            <g id="Group_104" data-name="Group 104" clip-path="url(#clip-path-43)">
              <path id="Path_138" data-name="Path 138" d="M119.84,114.406l-2.207,10.5a6.491,6.491,0,0,0,.113-1.808c-.254-3.427-2.921-5.8-6.9-5.525l2.207-10.5c3.982-.278,6.647,2.1,6.9,5.523a6.421,6.421,0,0,1-.111,1.809" fill="#858585"/>
            </g>
          </g>
        </g>
      </g>
    </g>
    <g id="Group_113" data-name="Group 113">
      <g id="Group_112" data-name="Group 112" clip-path="url(#clip-path-44)">
        <g id="Group_111" data-name="Group 111">
          <g id="Group_110" data-name="Group 110">
            <g id="Group_109" data-name="Group 109" clip-path="url(#clip-path-45)">
              <path id="Path_140" data-name="Path 140" d="M133.751,115.518l-2.207,10.5a14.674,14.674,0,0,1-4.722,8.016l2.207-10.5a14.7,14.7,0,0,0,4.722-8.017" fill="#858585"/>
            </g>
          </g>
        </g>
      </g>
    </g>
    <g id="Group_118" data-name="Group 118">
      <g id="Group_117" data-name="Group 117" clip-path="url(#clip-path-46)">
        <g id="Group_116" data-name="Group 116">
          <g id="Group_115" data-name="Group 115">
            <g id="Group_114" data-name="Group 114" clip-path="url(#clip-path-47)">
              <path id="Path_142" data-name="Path 142" d="M99.668,125.587l-2.207,10.5a15.043,15.043,0,0,1-6.845-11.972,20.028,20.028,0,0,1,.335-5.6l2.207-10.5a19.952,19.952,0,0,0-.336,5.6,15.046,15.046,0,0,0,6.846,11.972" fill="#858585"/>
            </g>
          </g>
        </g>
      </g>
    </g>
    <g id="Group_123" data-name="Group 123">
      <g id="Group_122" data-name="Group 122" clip-path="url(#clip-path-48)">
        <g id="Group_121" data-name="Group 121">
          <g id="Group_120" data-name="Group 120">
            <g id="Group_119" data-name="Group 119" clip-path="url(#clip-path-49)">
              <path id="Path_144" data-name="Path 144" d="M123.748,138.881l-2.207,10.5a7.855,7.855,0,0,0,.134-2.187c-.347-4.662-4.18-7.125-9.134-6.778-4.123.288-7.18,2.392-7.891,5.776l2.207-10.5c.711-3.384,3.768-5.488,7.889-5.778,4.954-.345,8.789,2.117,9.134,6.778a7.814,7.814,0,0,1-.132,2.187" fill="#858585"/>
            </g>
          </g>
        </g>
      </g>
    </g>
    <g id="Group_128" data-name="Group 128">
      <g id="Group_127" data-name="Group 127" clip-path="url(#clip-path-50)">
        <g id="Group_126" data-name="Group 126">
          <g id="Group_125" data-name="Group 125">
            <g id="Group_124" data-name="Group 124" clip-path="url(#clip-path-51)">
              <path id="Path_146" data-name="Path 146" d="M137.842,143.315l-2.206,10.5c-1.723,8.2-9,13.69-21.023,14.532-14.589,1.02-23.276-5.714-24.111-16.954a18.117,18.117,0,0,1,.324-5.076l2.206-10.5a18.107,18.107,0,0,0-.323,5.075c.833,11.241,9.522,17.973,24.11,16.953,12.021-.84,19.3-6.334,21.023-14.53" fill="#858585"/>
            </g>
          </g>
        </g>
      </g>
    </g>
    <path id="Path_148" data-name="Path 148" d="M113.05,107.073c-3.982.278-6.269,3-6.015,6.426s2.92,5.8,6.9,5.525,6.268-3,6.014-6.427-2.92-5.8-6.9-5.524m2.791,37.6c4.954-.347,8.384-3.331,8.038-7.979s-4.18-7.123-9.134-6.778-8.369,3.317-8.023,7.979c.345,4.646,4.165,7.126,9.119,6.778m13.187-21.139a17.208,17.208,0,0,1,9.149,14.178c.834,11.241-6.769,19.114-21.359,20.133s-23.276-5.713-24.11-16.954a17.072,17.072,0,0,1,6.96-15.3,15.043,15.043,0,0,1-6.846-11.972c-.888-11.951,7.837-18.916,19.25-19.713s21.077,4.881,21.964,16.83A14.909,14.909,0,0,1,129.028,123.534Z" fill="#fdfdfd"/>
  </g>
</svg>
