<svg xmlns="http://www.w3.org/2000/svg" width="15.608" height="10.585" viewBox="0 0 15.608 10.585">
  <g id="Group_113" data-name="Group 113" transform="translate(-1877.104 -2151.485)">
    <g id="Group_112" data-name="Group 112">
      <path id="Path_139" data-name="Path 139" d="M1892.442,2151.485h0l.015,0a.2.2,0,0,1,.036,0l0,0,.007,0,.014,0a.211.211,0,0,1,.066.034l0,0a.288.288,0,0,1,.055.056l.005,0,0,0,.008.012,0,0a.414.414,0,0,1,.024.046l0,.006,0,.006.005.014.009.029v.012a.262.262,0,0,1,.007.041v.021c0,.015,0,.03,0,.044l0,.009,0,.012,0,.015,0,.021v0a.42.42,0,0,1-.018.049l0,0v0l0,.005-4.992,9.957a.267.267,0,0,1-.211.155l-.024,0a.259.259,0,0,1-.207-.112l-2.884-3.954-3.15,1.383-.014.006a.235.235,0,0,1-.1.021.257.257,0,0,1-.21-.116.354.354,0,0,1-.045-.3l.3-4.834-3.873-2a.327.327,0,0,1-.155-.35.283.283,0,0,1,.264-.249l15.066-.088Zm-8.454,6.012-.235-.323-.725-.993-1.264,2.291Zm-5.354-5.305,2.823,1.455,7.688-1.516Zm3.043,2.048-.223,3.629,1.315-2.384c.005-.009.012-.016.017-.024l.019-.027.018-.018.015-.013.016-.015a.353.353,0,0,0,.053-.03h0l6.451-2.634Zm1.781,1.558,3.95,5.416,4.431-8.837Z" fill="#dce9ff"/>
    </g>
  </g>
</svg>
