<svg xmlns="http://www.w3.org/2000/svg" width="71.655" height="94.376" viewBox="0 0 71.655 94.376"><defs><style>.a{fill:#f9fbff;}.b{fill:#ffd34d;}.c{fill:#f2ba49;}</style></defs><path class="a" d="M644.041,622.684v40.4l-15.224-15.224-15.224,15.224v-40.4Z" transform="translate(-592.99 -571.954)"/><ellipse class="b" cx="27.254" cy="27.254" rx="27.254" ry="27.254" transform="matrix(0.397, -0.918, 0.918, 0.397, 0, 50.037)"/><g transform="translate(12.58 12.58)"><path class="c" d="M619.731,587.824a23.247,23.247,0,1,1,23.247-23.247A23.274,23.274,0,0,1,619.731,587.824Zm0-44.693a21.445,21.445,0,1,0,21.445,21.445A21.47,21.47,0,0,0,619.731,543.131Z" transform="translate(-596.483 -541.329)"/></g><path class="c" d="M629.842,558.8l3.38,10.4h10.939l-8.85,6.43,3.38,10.4-8.85-6.43-8.85,6.43,3.38-10.4-8.85-6.43h10.939Z" transform="translate(-594.014 -538.025)"/><path class="b" d="M592.83,641.04a2.445,2.445,0,1,1-2.445-2.445A2.445,2.445,0,0,1,592.83,641.04Z" transform="translate(-579.366 -580.404)"/><path class="c" d="M580.113,615.077a1.684,1.684,0,1,1-1.684-1.683A1.684,1.684,0,0,1,580.113,615.077Z" transform="translate(-573.421 -567.021)"/><path class="b" d="M633.591,704.473h-2.539v-2.539h-1.407v2.539h-2.539v1.407h2.539v2.539h1.407V705.88h2.539Z" transform="translate(-600.167 -614.042)"/><path class="c" d="M644.742,696.355a1.476,1.476,0,1,1-1.476-1.476A1.476,1.476,0,0,1,644.742,696.355Z" transform="translate(-607.964 -610.295)"/><ellipse class="b" cx="2.003" cy="2.003" rx="2.003" ry="2.003" transform="translate(7.887 11.856)"/><ellipse class="b" cx="1.641" cy="1.641" rx="1.641" ry="1.641" transform="translate(56.499 8.574)"/><path class="c" d="M701.947,548.568h-1.688V546.88h-.936v1.688h-1.688v.936h1.688v1.688h.936V549.5h1.688Z" transform="translate(-637.622 -531.697)"/><path class="c" d="M689.8,682.638a1.329,1.329,0,1,1-1.329-1.328A1.329,1.329,0,0,1,689.8,682.638Z" transform="translate(-632.05 -603.088)"/></svg>