<svg xmlns="http://www.w3.org/2000/svg" width="11.254" height="12.458" viewBox="0 0 11.254 12.458"><defs><style>.a{fill:#e5e5e5;}</style></defs><g transform="translate(-19.555 -330.664)"><path class="a" d="M23.13,343.122a3.58,3.58,0,0,0,3.374-2.4c.242.01.462.013.643.013,1.1,0,3.651-.116,3.651-1.192v-1.454a.42.42,0,0,0,0-.191v-1.182a.462.462,0,0,0,.011-.1.473.473,0,0,0-.011-.093v-1.315a.46.46,0,0,0,.011-.1.469.469,0,0,0-.03-.16.608.608,0,0,0,.019-.149v-1.454a.462.462,0,0,0,.011-.1.482.482,0,0,0-.011-.093v-1.315a.448.448,0,0,0-.021-.265.447.447,0,0,0-.192-.26c-.746-.633-3.123-.655-3.438-.655s-2.691.022-3.437.655a.45.45,0,0,0-.193.26.489.489,0,0,0-.031.166.536.536,0,0,0,.01.1v1.315a.473.473,0,0,0-.01.093.536.536,0,0,0,.01.1V334.8a.661.661,0,0,0,.019.149.468.468,0,0,0-.029.16.534.534,0,0,0,.01.1v.778c-.12-.012-.243-.018-.366-.018a3.575,3.575,0,0,0,0,7.15Zm7.251-3.605a.225.225,0,0,0,0,.026v.012c-.021.4-1.463.726-3.234.726-.176,0-.347-.005-.516-.011a3.589,3.589,0,0,0,.074-.723c0-.063,0-.126,0-.188.164,0,.317.006.447.006a7.443,7.443,0,0,0,3.234-.551Zm0-1.373a.225.225,0,0,0,0,.026v.012c-.021.4-1.463.726-3.234.726-.171,0-.338,0-.5-.01a3.5,3.5,0,0,0-.378-1.065c.335.02.643.026.881.026a7.444,7.444,0,0,0,3.234-.552Zm0-3.368a.225.225,0,0,0,0,.026v.011c-.021.4-1.463.726-3.234.726s-3.214-.324-3.234-.726v-.875a7.433,7.433,0,0,0,3.235.552,7.443,7.443,0,0,0,3.234-.551Zm-3.234-3.584a6.168,6.168,0,0,1,3.166.553,6.151,6.151,0,0,1-3.166.554,6.151,6.151,0,0,1-3.166-.554A6.167,6.167,0,0,1,27.147,331.192Zm0,1.634a8.893,8.893,0,0,0,3.234-.516v.959a.225.225,0,0,0,0,.026v.012c-.021.4-1.463.726-3.234.726s-3.214-.325-3.234-.727v-1A8.884,8.884,0,0,0,27.147,332.826Zm0,3.369a8.9,8.9,0,0,0,3.234-.517v.96a.208.208,0,0,0,0,.025v.012c-.021.4-1.463.726-3.234.726-.425,0-.83-.02-1.2-.054a3.586,3.586,0,0,0-2.032-1.288v-.382A8.89,8.89,0,0,0,27.147,336.2Zm-4.017.235a3.117,3.117,0,1,1-3.117,3.117A3.121,3.121,0,0,1,23.13,336.43Z"/><path class="a" d="M23.13,341.956a2.409,2.409,0,1,0-2.409-2.409A2.412,2.412,0,0,0,23.13,341.956Zm0-4.512a2.1,2.1,0,1,1-2.1,2.1A2.106,2.106,0,0,1,23.13,337.444Z"/><path class="a" d="M22.373,340.678a1.016,1.016,0,0,0,.309.143,1.135,1.135,0,0,0,.128.031v.227a.152.152,0,0,0,.153.152h.39a.152.152,0,0,0,.153-.152v-.269a.872.872,0,0,0,.355-.242.814.814,0,0,0,.2-.536.85.85,0,0,0-.048-.291.8.8,0,0,0-.252-.348,1.483,1.483,0,0,0-.384-.22l-.015-.006a.971.971,0,0,1-.258-.135.056.056,0,0,1-.02-.023.043.043,0,0,1,0-.019.045.045,0,0,1,.012-.033.184.184,0,0,1,.122-.032.64.64,0,0,1,.2.032.632.632,0,0,1,.121.056l.086.049a.155.155,0,0,0,.128.012.153.153,0,0,0,.091-.09l.148-.391a.152.152,0,0,0-.065-.186l-.062-.036a1.1,1.1,0,0,0-.339-.128v-.216a.152.152,0,0,0-.152-.152h-.387a.152.152,0,0,0-.153.152v.258a.85.85,0,0,0-.321.212.775.775,0,0,0-.209.535.734.734,0,0,0,.06.3.8.8,0,0,0,.278.329,1.863,1.863,0,0,0,.39.2.619.619,0,0,1,.215.122.094.094,0,0,1,.026.036.084.084,0,0,1,.007.037.079.079,0,0,1-.03.066.24.24,0,0,1-.151.042.646.646,0,0,1-.374-.111l-.09-.06a.151.151,0,0,0-.132-.018.154.154,0,0,0-.1.094l-.142.4a.154.154,0,0,0,.054.176Zm.258-.328a1.017,1.017,0,0,0,.467.118.515.515,0,0,0,.349-.113.384.384,0,0,0,.139-.3.391.391,0,0,0-.031-.158.423.423,0,0,0-.089-.131.952.952,0,0,0-.32-.191,1.5,1.5,0,0,1-.326-.166.483.483,0,0,1-.175-.2.44.44,0,0,1-.035-.177.47.47,0,0,1,.126-.326.573.573,0,0,1,.288-.159.153.153,0,0,0,.116-.149v-.217h.082v.193a.152.152,0,0,0,.138.151.891.891,0,0,1,.3.082l-.039.1a.834.834,0,0,0-.106-.043.93.93,0,0,0-.3-.048.457.457,0,0,0-.333.118.346.346,0,0,0-.106.252.325.325,0,0,0,.032.15.375.375,0,0,0,.093.121,1.268,1.268,0,0,0,.352.192h0a1.168,1.168,0,0,1,.314.176.492.492,0,0,1,.158.215.557.557,0,0,1,.031.188.511.511,0,0,1-.125.335h0a.594.594,0,0,1-.313.181.154.154,0,0,0-.116.149v.228h-.085v-.206a.153.153,0,0,0-.14-.152,1.108,1.108,0,0,1-.208-.04.839.839,0,0,1-.175-.071Z"/></g></svg>