<svg xmlns="http://www.w3.org/2000/svg" width="64.064" height="63.826" viewBox="0 0 64.064 63.826"><defs><style>.a{opacity:0.05;}.b{fill:#fff1ee;}</style></defs><g class="a" transform="translate(-896.989 -323.942)"><path class="b" d="M896.989,339.72v32.032c0,10.518,16.114,16.016,32.032,16.016s32.032-5.5,32.032-16.016V339.72C961.053,318.683,896.989,318.683,896.989,339.72Zm56.056,16.016c0,2.823-9.122,8.008-24.024,8.008S905,358.559,905,355.736v-5.187c6.175,3.389,15.078,5.187,24.024,5.187s17.849-1.8,24.024-5.187Zm-24.024-24.024c14.9,0,24.024,5.185,24.024,8.008s-9.122,8.008-24.024,8.008S905,342.543,905,339.72,914.119,331.712,929.021,331.712Zm0,48.048c-14.9,0-24.024-5.185-24.024-8.008v-5.187c6.175,3.389,15.078,5.187,24.024,5.187s17.849-1.8,24.024-5.187v5.187C953.045,374.575,943.923,379.76,929.021,379.76Z"/></g></svg>