<svg xmlns="http://www.w3.org/2000/svg" width="113.401" height="219.983" viewBox="0 0 113.401 219.983"><g transform="translate(-200.79 -1274.891)"><g opacity="0.3"><path d="M222.854,1280.147a3.085,3.085,0,0,1-2.421,1.1,3.2,3.2,0,0,1-1.257-.242,3.087,3.087,0,0,1-1.677-1.677,3.375,3.375,0,0,1,0-2.51,3.076,3.076,0,0,1,1.677-1.681,3.222,3.222,0,0,1,1.257-.242,2.892,2.892,0,0,1,2.251.993l-.68.663a2.119,2.119,0,0,0-.684-.552,1.975,1.975,0,0,0-.887-.187,2.333,2.333,0,0,0-.854.157,2.038,2.038,0,0,0-.7.45,2.138,2.138,0,0,0-.472.714,2.618,2.618,0,0,0,0,1.877,2.145,2.145,0,0,0,.472.713,2.054,2.054,0,0,0,.7.45,2.353,2.353,0,0,0,.854.157,2.036,2.036,0,0,0,.968-.225,2.482,2.482,0,0,0,.756-.624Z" fill="#367bff"/><path d="M223.38,1276.946h.891v.628h.051a1.218,1.218,0,0,1,.208-.3,1.43,1.43,0,0,1,.3-.238,1.922,1.922,0,0,1,.348-.161,1.079,1.079,0,0,1,.352-.063,1.36,1.36,0,0,1,.349.039,1.083,1.083,0,0,1,.263.1l-.272.859a.9.9,0,0,0-.208-.065,1.564,1.564,0,0,0-.276-.02.944.944,0,0,0-.42.093,1.1,1.1,0,0,0-.336.256,1.189,1.189,0,0,0-.225.384,1.385,1.385,0,0,0-.081.47v2.176h-.942Z" fill="#367bff"/><path d="M230.08,1280.113a2.261,2.261,0,0,1-.747.808,2.1,2.1,0,0,1-1.189.322,2.214,2.214,0,0,1-.862-.165,2.035,2.035,0,0,1-.683-.463,2.1,2.1,0,0,1-.451-.7,2.492,2.492,0,0,1-.008-1.741,2.171,2.171,0,0,1,.428-.7,2.041,2.041,0,0,1,1.534-.658,2.172,2.172,0,0,1,.862.162,1.791,1.791,0,0,1,.64.45,1.948,1.948,0,0,1,.4.7,2.713,2.713,0,0,1,.14.892v.076a.447.447,0,0,0-.008.076.277.277,0,0,0-.009.068h-3.2a1.291,1.291,0,0,0,.144.519,1.2,1.2,0,0,0,.293.364,1.119,1.119,0,0,0,.386.213,1.374,1.374,0,0,0,.417.068,1.094,1.094,0,0,0,.671-.2,1.615,1.615,0,0,0,.432-.483Zm-.874-1.6a1.247,1.247,0,0,0-.081-.285.859.859,0,0,0-.2-.288,1.12,1.12,0,0,0-.34-.226,1.237,1.237,0,0,0-.5-.093,1.066,1.066,0,0,0-.7.241,1.191,1.191,0,0,0-.4.651Z" fill="#367bff"/><path d="M233.367,1280.6h-.051a2.009,2.009,0,0,1-.484.446,1.328,1.328,0,0,1-.756.2,1.774,1.774,0,0,1-.62-.106,1.528,1.528,0,0,1-.5-.3,1.4,1.4,0,0,1-.335-.45,1.406,1.406,0,0,1,.008-1.168,1.27,1.27,0,0,1,.365-.442,1.727,1.727,0,0,1,.557-.276,2.392,2.392,0,0,1,.7-.1,2.578,2.578,0,0,1,.7.081,3.054,3.054,0,0,1,.425.149v-.161a.772.772,0,0,0-.081-.349.831.831,0,0,0-.221-.275,1.044,1.044,0,0,0-.318-.179,1.113,1.113,0,0,0-.374-.064,1.264,1.264,0,0,0-.564.123,1.215,1.215,0,0,0-.446.4l-.748-.492a1.9,1.9,0,0,1,.739-.615,2.316,2.316,0,0,1,1-.209,2.052,2.052,0,0,1,1.431.459,1.675,1.675,0,0,1,.506,1.307v2.531h-.926Zm0-1.223a1.907,1.907,0,0,0-.416-.179,1.865,1.865,0,0,0-.526-.067,1.119,1.119,0,0,0-.705.2.608.608,0,0,0-.264.493.521.521,0,0,0,.068.268.751.751,0,0,0,.174.2.741.741,0,0,0,.246.128,1,1,0,0,0,.285.042,1.1,1.1,0,0,0,.438-.089,1.171,1.171,0,0,0,.36-.238,1.188,1.188,0,0,0,.246-.344A.942.942,0,0,0,233.367,1279.375Z" fill="#367bff"/><path d="M235.381,1277.778h-.731v-.832h.731v-1.274h.942v1.274h1.028v.832h-1.028v1.9a1.179,1.179,0,0,0,.034.288.6.6,0,0,0,.1.218.466.466,0,0,0,.365.166.783.783,0,0,0,.212-.022.858.858,0,0,0,.162-.063l.288.832a2.128,2.128,0,0,1-.373.106,2.351,2.351,0,0,1-.441.038,1.356,1.356,0,0,1-.527-.1,1.249,1.249,0,0,1-.4-.259,1.386,1.386,0,0,1-.365-1.014Z" fill="#367bff"/><path d="M241.775,1280.113a2.243,2.243,0,0,1-.747.808,2.093,2.093,0,0,1-1.189.322,2.206,2.206,0,0,1-.861-.165,2.029,2.029,0,0,1-.684-.463,2.1,2.1,0,0,1-.45-.7,2.355,2.355,0,0,1-.161-.888,2.388,2.388,0,0,1,.152-.853,2.173,2.173,0,0,1,.429-.7,2.041,2.041,0,0,1,1.533-.658,2.172,2.172,0,0,1,.862.162,1.8,1.8,0,0,1,.641.45,1.946,1.946,0,0,1,.4.7,2.713,2.713,0,0,1,.141.892v.076a.37.37,0,0,0-.009.076.276.276,0,0,0-.009.068h-3.2a1.291,1.291,0,0,0,.145.519,1.182,1.182,0,0,0,.293.364,1.124,1.124,0,0,0,.385.213,1.379,1.379,0,0,0,.417.068,1.092,1.092,0,0,0,.671-.2,1.632,1.632,0,0,0,.433-.483Zm-.874-1.6a1.2,1.2,0,0,0-.081-.285.859.859,0,0,0-.2-.288,1.12,1.12,0,0,0-.34-.226,1.234,1.234,0,0,0-.505-.093,1.066,1.066,0,0,0-.7.241,1.19,1.19,0,0,0-.394.651Z" fill="#367bff"/><path d="M245.376,1280.869l-1.732-3.923H244.7l1.147,2.76h.043l1.112-2.76h1.045l-2.607,5.995h-1Z" fill="#367bff"/><path d="M250.149,1276.81a2.252,2.252,0,0,1,.875.166,2.026,2.026,0,0,1,.688.462,2.126,2.126,0,0,1,.45.706,2.5,2.5,0,0,1,0,1.766,2.113,2.113,0,0,1-.45.7,2.026,2.026,0,0,1-.688.463,2.4,2.4,0,0,1-1.75,0,2.032,2.032,0,0,1-.687-.463,2.1,2.1,0,0,1-.45-.7,2.5,2.5,0,0,1,0-1.766,2.11,2.11,0,0,1,.45-.706,2.031,2.031,0,0,1,.687-.462A2.255,2.255,0,0,1,250.149,1276.81Zm0,3.558a1.144,1.144,0,0,0,.458-.093,1.263,1.263,0,0,0,.4-.263,1.228,1.228,0,0,0,.276-.42,1.616,1.616,0,0,0,0-1.13,1.233,1.233,0,0,0-.276-.421,1.3,1.3,0,0,0-.4-.263,1.161,1.161,0,0,0-.458-.093,1.173,1.173,0,0,0-.459.093,1.3,1.3,0,0,0-.394.263,1.233,1.233,0,0,0-.276.421,1.616,1.616,0,0,0,0,1.13,1.228,1.228,0,0,0,.276.42,1.265,1.265,0,0,0,.394.263A1.156,1.156,0,0,0,250.149,1280.368Z" fill="#367bff"/><path d="M255.721,1280.547h-.052a1.5,1.5,0,0,1-.53.5,1.524,1.524,0,0,1-.778.2,1.442,1.442,0,0,1-1.18-.472,1.9,1.9,0,0,1-.391-1.251v-2.574h.943v2.446a.828.828,0,0,0,.909.976.893.893,0,0,0,.428-.1,1.024,1.024,0,0,0,.327-.277,1.213,1.213,0,0,0,.205-.4,1.678,1.678,0,0,0,.067-.472v-2.174h.943v4.161h-.891Z" fill="#367bff"/><path d="M257.394,1276.946h.891v.628h.051a1.218,1.218,0,0,1,.208-.3,1.4,1.4,0,0,1,.3-.238,1.913,1.913,0,0,1,.347-.161,1.089,1.089,0,0,1,.353-.063,1.36,1.36,0,0,1,.349.039,1.092,1.092,0,0,1,.262.1l-.271.859a.919.919,0,0,0-.208-.065,1.569,1.569,0,0,0-.277-.02.94.94,0,0,0-.419.093,1.088,1.088,0,0,0-.336.256,1.19,1.19,0,0,0-.225.384,1.362,1.362,0,0,0-.081.47v2.176h-.942Z" fill="#367bff"/><path d="M264.824,1280.6h-.051a2.009,2.009,0,0,1-.484.446,1.328,1.328,0,0,1-.756.2,1.778,1.778,0,0,1-.62-.106,1.529,1.529,0,0,1-.5-.3,1.416,1.416,0,0,1-.335-.45,1.407,1.407,0,0,1,.008-1.168,1.271,1.271,0,0,1,.365-.442,1.727,1.727,0,0,1,.557-.276,2.392,2.392,0,0,1,.7-.1,2.577,2.577,0,0,1,.7.081,3.054,3.054,0,0,1,.425.149v-.161a.772.772,0,0,0-.081-.349.831.831,0,0,0-.221-.275,1.045,1.045,0,0,0-.318-.179,1.114,1.114,0,0,0-.374-.064,1.264,1.264,0,0,0-.564.123,1.215,1.215,0,0,0-.446.4l-.748-.492a1.907,1.907,0,0,1,.74-.615,2.309,2.309,0,0,1,1-.209,2.052,2.052,0,0,1,1.431.459,1.675,1.675,0,0,1,.506,1.307v2.531h-.926Zm0-1.223a1.906,1.906,0,0,0-.416-.179,1.864,1.864,0,0,0-.526-.067,1.119,1.119,0,0,0-.7.2.608.608,0,0,0-.264.493.521.521,0,0,0,.068.268.751.751,0,0,0,.174.2.741.741,0,0,0,.246.128,1,1,0,0,0,.286.042,1.1,1.1,0,0,0,.437-.089,1.172,1.172,0,0,0,.36-.238,1.189,1.189,0,0,0,.246-.344A.942.942,0,0,0,264.824,1279.375Z" fill="#367bff"/><path d="M270.269,1280.046a2.585,2.585,0,0,1-.293.463,2.041,2.041,0,0,1-.409.382,1.833,1.833,0,0,1-.539.258,2.419,2.419,0,0,1-1.546-.071,2.032,2.032,0,0,1-.687-.463,2.1,2.1,0,0,1-.45-.7,2.5,2.5,0,0,1,0-1.766,2.11,2.11,0,0,1,.45-.706,2.031,2.031,0,0,1,.687-.462,2.412,2.412,0,0,1,1.542-.073,1.877,1.877,0,0,1,.939.642,2.078,2.078,0,0,1,.271.454l-.866.365a1.19,1.19,0,0,0-.4-.5,1.1,1.1,0,0,0-.646-.178,1.113,1.113,0,0,0-.454.1,1.238,1.238,0,0,0-.383.273,1.269,1.269,0,0,0-.262.42,1.6,1.6,0,0,0,0,1.1,1.278,1.278,0,0,0,.262.42,1.235,1.235,0,0,0,.383.272,1.1,1.1,0,0,0,.454.1,1.179,1.179,0,0,0,.667-.182,1.216,1.216,0,0,0,.429-.505Z" fill="#367bff"/><path d="M274.583,1280.046a2.53,2.53,0,0,1-.293.463,2.035,2.035,0,0,1-.408.382,1.833,1.833,0,0,1-.539.258,2.419,2.419,0,0,1-1.546-.071,2.036,2.036,0,0,1-.688-.463,2.112,2.112,0,0,1-.45-.7,2.5,2.5,0,0,1,0-1.766,2.126,2.126,0,0,1,.45-.706,2.035,2.035,0,0,1,.688-.462,2.412,2.412,0,0,1,1.542-.073,1.88,1.88,0,0,1,.938.642,2.081,2.081,0,0,1,.272.454l-.866.365a1.192,1.192,0,0,0-.4-.5,1.194,1.194,0,0,0-1.1-.081,1.215,1.215,0,0,0-.383.273,1.271,1.271,0,0,0-.263.42,1.6,1.6,0,0,0,0,1.1,1.281,1.281,0,0,0,.263.42,1.212,1.212,0,0,0,.383.272,1.089,1.089,0,0,0,.454.1,1.183,1.183,0,0,0,.667-.182,1.214,1.214,0,0,0,.428-.505Z" fill="#367bff"/><path d="M276.986,1276.81a2.251,2.251,0,0,1,.875.166,2.035,2.035,0,0,1,.688.462,2.126,2.126,0,0,1,.45.706,2.5,2.5,0,0,1,0,1.766,2.113,2.113,0,0,1-.45.7,2.036,2.036,0,0,1-.688.463,2.4,2.4,0,0,1-1.75,0,2.032,2.032,0,0,1-.687-.463,2.082,2.082,0,0,1-.45-.7,2.5,2.5,0,0,1,0-1.766,2.1,2.1,0,0,1,.45-.706,2.031,2.031,0,0,1,.687-.462A2.255,2.255,0,0,1,276.986,1276.81Zm0,3.558a1.144,1.144,0,0,0,.458-.093,1.262,1.262,0,0,0,.4-.263,1.228,1.228,0,0,0,.276-.42,1.616,1.616,0,0,0,0-1.13,1.233,1.233,0,0,0-.276-.421,1.3,1.3,0,0,0-.4-.263,1.161,1.161,0,0,0-.458-.093,1.173,1.173,0,0,0-.459.093,1.3,1.3,0,0,0-.394.263,1.25,1.25,0,0,0-.277.421,1.631,1.631,0,0,0,0,1.13,1.245,1.245,0,0,0,.277.42,1.265,1.265,0,0,0,.394.263A1.156,1.156,0,0,0,276.986,1280.368Z" fill="#367bff"/><path d="M282.558,1280.547h-.052a1.5,1.5,0,0,1-.53.5,1.524,1.524,0,0,1-.778.2,1.442,1.442,0,0,1-1.18-.472,1.9,1.9,0,0,1-.391-1.251v-2.574h.943v2.446a.828.828,0,0,0,.909.976.893.893,0,0,0,.428-.1,1.024,1.024,0,0,0,.327-.277,1.191,1.191,0,0,0,.2-.4,1.642,1.642,0,0,0,.068-.472v-2.174h.943v4.161h-.891Z" fill="#367bff"/><path d="M285.122,1277.507h.051a1.545,1.545,0,0,1,1.308-.7,1.443,1.443,0,0,1,1.18.471,1.9,1.9,0,0,1,.392,1.253v2.573h-.944v-2.446a.828.828,0,0,0-.908-.976.888.888,0,0,0-.433.1,1.013,1.013,0,0,0-.323.276,1.2,1.2,0,0,0-.2.4,1.6,1.6,0,0,0-.068.472v2.173h-.943v-4.161h.892Z" fill="#367bff"/><path d="M289.046,1277.778h-.731v-.832h.731v-1.274h.942v1.274h1.028v.832h-1.028v1.9a1.178,1.178,0,0,0,.034.288.6.6,0,0,0,.1.218.466.466,0,0,0,.365.166.783.783,0,0,0,.212-.022.858.858,0,0,0,.162-.063l.288.832a2.129,2.129,0,0,1-.373.106,2.351,2.351,0,0,1-.441.038,1.356,1.356,0,0,1-.527-.1,1.249,1.249,0,0,1-.4-.259,1.386,1.386,0,0,1-.365-1.014Z" fill="#367bff"/></g><path d="M203.957,1325.958h87.258a3.167,3.167,0,0,0,0-6.334H203.957a3.167,3.167,0,1,0,0,6.334Z" fill="#eaf1ff"/><path d="M203.957,1362.791H311.024a3.167,3.167,0,1,0,0-6.333H203.957a3.167,3.167,0,1,0,0,6.333Z" fill="#eaf1ff"/><path d="M203.957,1401.247h79.258a3.167,3.167,0,1,0,0-6.333H203.957a3.167,3.167,0,1,0,0,6.333Z" fill="#eaf1ff"/><path d="M311.024,1444.687H203.957a3.167,3.167,0,1,0,0,6.334H311.024a3.167,3.167,0,1,0,0-6.334Z" fill="#eaf1ff"/><rect width="64.613" height="17.342" rx="8.671" transform="translate(204.408 1477.532)" fill="#367bff"/><path d="M203.957,1313h25.972a3.167,3.167,0,1,0,0-6.333H203.957a3.167,3.167,0,1,0,0,6.333Z" fill="#eaf1ff"/><path d="M203.957,1351.333h25.972a3.167,3.167,0,1,0,0-6.333H203.957a3.167,3.167,0,1,0,0,6.333Z" fill="#eaf1ff"/><path d="M203.957,1389.456h25.972a3.167,3.167,0,1,0,0-6.333H203.957a3.167,3.167,0,1,0,0,6.333Z" fill="#eaf1ff"/><path d="M310.987,1428.9H285.014a3.167,3.167,0,1,0,0,6.334h25.973a3.167,3.167,0,0,0,0-6.334Z" fill="#eaf1ff"/><path d="M207.575,1432.063a3.167,3.167,0,1,0,0,6.333h25.973a3.167,3.167,0,1,0,0-6.333Z" fill="#eaf1ff"/></g></svg>