<svg xmlns="http://www.w3.org/2000/svg" width="33.026" height="33.026" viewBox="0 0 33.026 33.026">
  <g id="Group_659" data-name="Group 659" transform="translate(-277.294 -247.097)">
    <circle id="Ellipse_45" data-name="Ellipse 45" cx="16.513" cy="16.513" r="16.513" transform="translate(277.294 247.097)" fill="#1f75ff"/>
    <g id="Group_116" data-name="Group 116" transform="translate(-4147.738 -2743.363)">
      <path id="Path_186" data-name="Path 186" d="M4447.636,3003.653h-.87v-2.61a.87.87,0,0,0-.87-.871h-8.7a2.613,2.613,0,0,0-2.611,2.611v6.961a2.613,2.613,0,0,0,2.611,2.61h10.441a.869.869,0,0,0,.87-.87v-6.961A.869.869,0,0,0,4447.636,3003.653Zm-10.441-1.74h7.831v1.74h-7.831a.87.87,0,0,1,0-1.74Zm0,8.7a.871.871,0,0,1-.87-.87v-4.511a2.582,2.582,0,0,0,.87.16h9.571v5.221Z" fill="#f4f4f4"/>
    </g>
  </g>
</svg>
