<svg xmlns="http://www.w3.org/2000/svg" width="153.819" height="160.375" viewBox="0 0 153.819 160.375"><path d="M153.088,3673.528c-1.807-13.115-22.763-16.389-33.492-18.132C100,3652.214,79.5,3651.9,59.627,3652.6q-.088-10.281-.3-20.56c-.042-1.978-1.5-4.448-3.644-4.787-18.316-2.885-36.979-3.126-55.687-2.13v10.013c16.591-1,33.174-1.026,49.47,1.2.237,12.413.359,24.827.282,37.244-.031,5.028,2.375,33.956-2.5,35.309-10.5,2.615-20.857,3.148-31.6,3.333-5.45.094-10.3.678-14.653,4.226-.339.276-.67.564-1,.853v15.351c.195-.26.389-.519.586-.789-.675,9.707-.789,20.864,5.453,26.638,9.18,8.49,28.024,1.834,38.616.477,9.036-1.158,18.126-1.987,27.183-2.98l15.534-1.7c4.7-.515,10.856-2.282,15.533-1.7,6.284.779,10.2,8.422,14.507,12.945a202.254,202.254,0,0,0,19.878,18.137c2.553,2.052,7.648,1.9,8.3-2.191,3.461-21.825,5.259-43.7,6.45-65.747C152.764,3702.249,154.945,3687,153.088,3673.528Zm-9.6,8.525a664.458,664.458,0,0,1-6.231,88.357c-8.054-7.685-15.077-16.173-23.284-23.736-8.961-8.258-25.57-2.418-36.307-1.241-15.224,1.669-30.468,3.114-45.6,5.5-8.461,1.337-18.888,4.835-20.976-5.782-1.377-7-.171-15.611.092-22.861,2.688-.492,5.767-.111,8.267-.146a133.166,133.166,0,0,0,30.444-3.685,5.492,5.492,0,0,0,1.066-.383c6-2.141,8.034-7.052,8.6-12.736a5.242,5.242,0,0,0,.594.073l37.365.863c6.391.148,6.389-9.78,0-9.927l-37.365-.863c-.185,0-.347.027-.523.039-.085-2.123-.171-4.2-.138-6.125q.232-13.436.195-26.873a369.194,369.194,0,0,1,50.562,1.561,106.919,106.919,0,0,1,28.6,7.283C144.375,3673.545,143.529,3676.174,143.485,3682.053Z" transform="translate(0 -3624.594)" fill="#fff7d4"/></svg>