<svg xmlns="http://www.w3.org/2000/svg" width="64.064" height="63.826" viewBox="0 0 64.064 63.826">
  <g id="Group_269" data-name="Group 269" transform="translate(-908.537 -356.081)" opacity="0.05">
    <g id="Group_268" data-name="Group 268">
      <path id="Path_336" data-name="Path 336" d="M908.537,371.859v32.032c0,10.518,16.114,16.016,32.032,16.016s32.032-5.5,32.032-16.016V371.859C972.6,350.822,908.537,350.822,908.537,371.859Zm56.056,16.016c0,2.823-9.122,8.008-24.024,8.008s-24.024-5.185-24.024-8.008v-5.186c6.175,3.388,15.078,5.186,24.024,5.186s17.85-1.8,24.024-5.186Zm-24.024-24.024c14.9,0,24.024,5.185,24.024,8.008s-9.122,8.008-24.024,8.008-24.024-5.185-24.024-8.008S925.668,363.851,940.569,363.851Zm0,48.048c-14.9,0-24.024-5.185-24.024-8.008V398.7c6.175,3.389,15.078,5.187,24.024,5.187s17.85-1.8,24.024-5.187v5.187C964.593,406.714,955.471,411.9,940.569,411.9Z" fill="#fff1ee"/>
    </g>
  </g>
</svg>
