<svg xmlns="http://www.w3.org/2000/svg" width="12.569" height="12.569" viewBox="0 0 12.569 12.569">
  <g id="Group_358" data-name="Group 358" transform="translate(-1441.292 -123.358)">
    <path id="Path_397" data-name="Path 397" d="M1447.576,135.927a6.285,6.285,0,1,1,6.285-6.285A6.292,6.292,0,0,1,1447.576,135.927Zm0-11.882a5.6,5.6,0,1,0,5.6,5.6A5.6,5.6,0,0,0,1447.576,124.045Z" fill="#c4c4c4"/>
    <path id="Path_398" data-name="Path 398" d="M1447.576,127.524a2.118,2.118,0,1,0,2.119,2.118A2.12,2.12,0,0,0,1447.576,127.524Zm0,3.564a1.445,1.445,0,1,1,1.446-1.446A1.447,1.447,0,0,1,1447.576,131.088Z" fill="#c4c4c4"/>
  </g>
</svg>
