<svg xmlns="http://www.w3.org/2000/svg" xmlns:xlink="http://www.w3.org/1999/xlink" width="260.318" height="230.622" viewBox="0 0 260.318 230.622">
  <defs>
    <filter id="Path_137" x="0" y="0" width="113.438" height="60.195" filterUnits="userSpaceOnUse">
      <feOffset dx="5" dy="10" input="SourceAlpha"/>
      <feGaussianBlur stdDeviation="5" result="blur"/>
      <feFlood flood-opacity="0.502"/>
      <feComposite operator="in" in2="blur"/>
      <feComposite in="SourceGraphic"/>
    </filter>
  </defs>
  <g id="Group_236" data-name="Group 236" transform="translate(-468.583 -153.184)">
    <path id="Path_136" data-name="Path 136" d="M1926.467,2152.955c21.253,5.2,67.874-8.087,58.248-37.865-8.69-26.887,7.2-49.461,39.357-49.985,28.858-.471,39.358-23.615,33.061-42.5-5.517-16.546-11.043-25.241-24.4-35.6-4.648-3.6-23-11.437-28.591-13.275-19.63-6.456-67.938-19.467-122.021-12.65" transform="translate(-1330.667 -1770.779)" fill="none" stroke="#2870c6" stroke-miterlimit="10" stroke-width="1" stroke-dasharray="9"/>
    <g id="Group_111" data-name="Group 111" transform="translate(-1330.667 -1770.779)">
      <rect id="Rectangle_47" data-name="Rectangle 47" width="84.49" height="47.692" rx="5.285" transform="translate(1809.251 1942.254) rotate(-9.051)" fill="#2e9cff"/>
      <g transform="matrix(1, 0, 0, 1, 1799.25, 1923.96)" filter="url(#Path_137)">
        <path id="Path_137-2" data-name="Path 137" d="M1854.721,1959.158l37.968-30.195-83.438,13.291Z" transform="translate(-1799.25 -1923.96)" fill="#70bbff"/>
      </g>
    </g>
    <path id="Path_138" data-name="Path 138" d="M1897.021,1928.6a4.347,4.347,0,1,1-4.69-3.974A4.347,4.347,0,0,1,1897.021,1928.6Z" transform="translate(-1330.667 -1770.779)" fill="#ff3131"/>
  </g>
</svg>
