<svg xmlns="http://www.w3.org/2000/svg" width="38.641" height="57.915" viewBox="0 0 38.641 57.915"><g transform="translate(-169.644 -2068.334)"><path d="M207.2,2107.3a23.115,23.115,0,0,0-3.647-9.867,29.524,29.524,0,0,0-8.275-7.5,1.509,1.509,0,0,0,.83-.784,1.387,1.387,0,0,0-.032-1.083,1.763,1.763,0,0,0-.735-.838c.347-.442.672-.9,1-1.361a17.683,17.683,0,0,1,2.014-2.506c.735-.716,1.4-1.491,2.043-2.241.6-.7,1.216-1.417,1.884-2.082a.47.47,0,0,0,.112-.514.522.522,0,0,0-.458-.335c-.543-.028-1.051-.084-1.538-.138a16.135,16.135,0,0,0-1.763-.133,5.136,5.136,0,0,0-2.831.776,6.047,6.047,0,0,0-.772.594,2.286,2.286,0,0,1-1.389.746,1.358,1.358,0,0,1-.567-.133,4.422,4.422,0,0,1-1.14-.839,4.473,4.473,0,0,0-1.323-.935,4.23,4.23,0,0,0-1.559-.3,3.753,3.753,0,0,0-1.089.157,6.648,6.648,0,0,0-1.576.8,3.877,3.877,0,0,1-1.957.789,2.486,2.486,0,0,1-1.563-.654,4.246,4.246,0,0,0-2.835-1.268,8.612,8.612,0,0,0-2.061.344.481.481,0,0,0-.325.288.5.5,0,0,0,.027.443,25.915,25.915,0,0,0,2.378,3.192,16.562,16.562,0,0,1,3.231,5.018,2.774,2.774,0,0,0-.675.374,1.415,1.415,0,0,0-.684,1.279,1.585,1.585,0,0,0,.9,1.139c-2.725,1.443-4.777,3.8-6.763,6.09l-.58.665a17.968,17.968,0,0,0-3.661,8.133c-.521,2.419-1.168,7.074.353,11.078a16.266,16.266,0,0,0,7.063,7.842,18.61,18.61,0,0,0,9.157,2.665c.691.028,1.376.047,2.054.047h0a17.43,17.43,0,0,0,7.518-1.419,18.078,18.078,0,0,0,8.181-7.774C207.44,2114.528,207.785,2111.338,207.2,2107.3Zm-34.747-.19c.221-2.16.91-6.215,3.032-9.116,3.07-4.194,5.987-6.785,8.914-7.921.069-.026.118-.065.11-.077a13.779,13.779,0,0,1,1.821-.108c.68,0,1.362.035,2.042.07.563.028,1.125.057,1.688.067.414.006.891.049,1.394.095.632.056,1.285.115,1.919.115a2.914,2.914,0,0,0,.507-.031c4.728,3.058,9.817,7.141,11.721,14.233a22.84,22.84,0,0,1,.809,7.905c-.323,3.662-2.445,7.148-5.975,9.818a14.84,14.84,0,0,1-9.081,3.076l-.76,0c-2.913,0-5.987-.111-8.743-1.432a18.559,18.559,0,0,1-7.131-5.634C172.067,2114.606,172.113,2110.389,172.449,2107.114ZM182.6,2080a3.552,3.552,0,0,0,1.815.81c.076.007.15.01.224.01a3.38,3.38,0,0,0,1.672-.523,6.878,6.878,0,0,0,.991-.687,2.712,2.712,0,0,1,1.773-.8,3.087,3.087,0,0,1,.7.087,4.3,4.3,0,0,1,1.889,1.176l.279.249a2.694,2.694,0,0,0,1.744.821,2.508,2.508,0,0,0,1.578-.684c.137-.113.269-.228.4-.341a4.936,4.936,0,0,1,1.771-1.134,3.65,3.65,0,0,1,1.078-.133,16.406,16.406,0,0,1,2.043.183l.322.042c-.4.438-.791.887-1.178,1.336-.649.752-1.32,1.529-2.053,2.243a17.469,17.469,0,0,0-2.02,2.518c-.393.56-.8,1.138-1.244,1.674a11.226,11.226,0,0,0-1.174-.2l-.388-.053a19.844,19.844,0,0,0-2.876-.189c-.928,0-1.876.047-2.768.094-.28.015-.583.019-.9.022a13.346,13.346,0,0,0-2.046.131,17.03,17.03,0,0,0-3.321-5.219,32.152,32.152,0,0,1-2.046-2.677,4.513,4.513,0,0,1,1.261-.263l.1,0a2.769,2.769,0,0,1,1.747.957A7.016,7.016,0,0,0,182.6,2080Zm5.082,7.453c.33-.01.66-.02.987-.034.465-.02.93-.035,1.4-.035.567,0,1.075.022,1.552.068.618.06,1.278.153,2.018.287l.1.016c.3.05,1.114.183,1.2.532.05.206-.16.493-.607.828a1.26,1.26,0,0,1-.685.124,12.874,12.874,0,0,1-1.455-.126c-.312-.04-.58-.073-.744-.076-.31-.007-.621-.009-.931-.011-.537,0-1.075-.007-1.613-.033l-.174-.009c-.755-.037-1.537-.075-2.3-.075a17.062,17.062,0,0,0-2.13.122l-.088.006a1.054,1.054,0,0,1-.808-.449.613.613,0,0,1-.074-.592c.1-.25,1.379-.356,1.86-.4l.265-.024C186.18,2087.5,186.946,2087.476,187.687,2087.454Z" fill="#ffbf3e"/><path d="M187.176,2114.37l-.008,3.63a.467.467,0,0,0,.133.339.513.513,0,0,0,.364.144.477.477,0,0,0,.5-.483l.006-3.5c.2.012.4.019.608.019l.268,0a11.5,11.5,0,0,0,1.415-.13l0,.106c.044,1.135.088,2.269.144,3.4a.5.5,0,0,0,.517.477.492.492,0,0,0,.359-.144.45.45,0,0,0,.118-.341c-.061-1.235-.109-2.469-.157-3.7,1.63-.422,3.524-1.4,3.458-3.652-.068-2.333-2.105-3.149-3.663-3.554-.037-2.074-.053-4.228-.05-6.58a3.733,3.733,0,0,1,2.72,1.541.477.477,0,0,0,.41.23.548.548,0,0,0,.472-.274.439.439,0,0,0-.027-.464,4.936,4.936,0,0,0-3.573-1.907s0-1.383,0-1.747a.464.464,0,0,0-.13-.34.511.511,0,0,0-.363-.143.479.479,0,0,0-.5.482c0,.339,0,1.661,0,1.661-.1,0-.206-.005-.309-.005a9.719,9.719,0,0,0-1.691.148l0-1.693a.469.469,0,0,0-.133-.339.517.517,0,0,0-.364-.144.476.476,0,0,0-.5.483l0,1.93c-2.613.782-3.842,2.456-3.291,4.485a4.122,4.122,0,0,0,3.277,2.8l-.012,6.234a4.112,4.112,0,0,1-2.978-2.911.491.491,0,0,0-.478-.342.532.532,0,0,0-.428.206.446.446,0,0,0-.05.41A4.943,4.943,0,0,0,187.176,2114.37Zm-2.189-11.253a3.466,3.466,0,0,1,1.972-2.025c.078-.039.159-.077.243-.113l-.01,5.127a3.269,3.269,0,0,1-1.781-1.172A2.173,2.173,0,0,1,184.987,2103.117Zm4.251,3.446-.4-.071c-.21-.039-.431-.081-.654-.128l.011-5.736a8.093,8.093,0,0,1,2-.29c0,2.277.012,4.377.047,6.411C189.9,2106.68,189.559,2106.62,189.238,2106.563Zm.822,6.9a10.962,10.962,0,0,1-1.187.069q-.358,0-.7-.03l.012-6.168c.366.074.732.137,1.09.2.338.059.668.117.984.18q.057,2.852.163,5.7C190.3,2113.43,190.178,2113.447,190.06,2113.459Zm1.346-.264q-.095-2.619-.151-5.238a3,3,0,0,1,2.492,2.406C193.967,2112.058,192.62,2112.838,191.406,2113.2Z" fill="#ffbf3e"/><path d="M174.955,2107.525a22.32,22.32,0,0,1,3.9-8.815.412.412,0,0,0,.051-.447.549.549,0,0,0-.486-.281.5.5,0,0,0-.414.213,22.959,22.959,0,0,0-4.016,9.076.489.489,0,0,0,.1.417.561.561,0,0,0,.426.2A.43.43,0,0,0,174.955,2107.525Z" fill="#ffbf3e"/><path d="M179.842,2097.073a.475.475,0,0,0,.483-.5.518.518,0,0,0-.12-.338.5.5,0,0,0-.726,0,.521.521,0,0,0-.12.339A.475.475,0,0,0,179.842,2097.073Z" fill="#ffbf3e"/><circle cx="19.32" cy="19.32" r="19.32" transform="translate(169.644 2068.334)" fill="#fffdc9" opacity="0.39"/></g></svg>