<svg xmlns="http://www.w3.org/2000/svg" width="83.064" height="105.998" viewBox="0 0 83.064 105.998">
  <g id="Group_437" data-name="Group 437" transform="translate(-367.335 -4273.334)">
    <g id="Group_421" data-name="Group 421" transform="translate(0 10)">
      <g id="Group_331" data-name="Group 331" transform="translate(367.335 4263.334)">
        <g id="Group_330" data-name="Group 330" transform="translate(6.53 0)">
          <path id="Path_505" data-name="Path 505" d="M2934.1,3220.358c-.174,0-.344.006-.519.013-3.493.175-7.843.391-11.06,2.9-3.331,2.606-5.448,7.362-6.069,10.924a12.034,12.034,0,0,0,2.795,9.733,15.415,15.415,0,0,0,11.134,5.645l.5.007c8.3,0,14.871-5.639,16.338-14.029a12.59,12.59,0,0,0-3.043-10.181A13.508,13.508,0,0,0,2934.1,3220.358Zm-3.11,27.408c-.2,0-.4-.006-.6-.012a12.846,12.846,0,0,1-10.1-5.558,11.082,11.082,0,0,1-1.412-9.983c.765-2.211,2.515-6.207,5.626-8.1,2.632-1.6,5.826-1.759,8.917-1.911,0,0,.506-.02.673-.02a10.97,10.97,0,0,1,8.9,4.754,11.832,11.832,0,0,1,1.8,10.591C2942.67,3243.938,2937.509,3247.766,2930.994,3247.766Z" transform="translate(-2915.302 -3172.895)" fill="#fff"/>
          <path id="Path_506" data-name="Path 506" d="M2930.035,3223.456h-.161c-5.866.315-9.388,3.187-10.18,8.3a7.33,7.33,0,0,0,1.809,5.936,9.266,9.266,0,0,0,6.82,3.219h.027a9.648,9.648,0,0,0,9.68-8.254,7.626,7.626,0,0,0-1.81-6.189A8.25,8.25,0,0,0,2930.035,3223.456Zm-.019,1.823a6.106,6.106,0,0,1,4.971,2.625,6.3,6.3,0,0,1,.926,5.647,7.418,7.418,0,0,1-7.58,5.4,7.224,7.224,0,0,1-5.7-2.787,5.659,5.659,0,0,1-.894-5.1c1.093-3.706,3.683-5.542,8.15-5.783Z" transform="translate(-2912.337 -3170.126)" fill="#fff"/>
          <path id="Path_507" data-name="Path 507" d="M2951.218,3220.952c.4.036.8.053,1.188.053,5.77,0,10.407-3.817,11.814-9.727a9.5,9.5,0,0,0-1.948-8.076,10.216,10.216,0,0,0-7.876-3.986l-.2,0c-7.3.381-11.577,3.831-12.7,10.261a9.012,9.012,0,0,0,1.888,7.063A11.363,11.363,0,0,0,2951.218,3220.952Zm-7.551-12.619c1.468-4.677,4.818-6.993,10.537-7.291l.184,0a7.808,7.808,0,0,1,6.561,3.564,8.625,8.625,0,0,1,.843,8.1,9.951,9.951,0,0,1-11.586,6.254,9.026,9.026,0,0,1-5.811-4.276A7.88,7.88,0,0,1,2943.667,3208.333Z" transform="translate(-2892.891 -3191.786)" fill="#fff"/>
          <path id="Path_508" data-name="Path 508" d="M2950.373,3214.682h.019a7.255,7.255,0,0,0,7.3-6.252,5.816,5.816,0,0,0-1.391-4.694,6.307,6.307,0,0,0-4.8-2.265h0c-4.412.237-7.061,2.4-7.658,6.26a5.581,5.581,0,0,0,1.378,4.52A7,7,0,0,0,2950.373,3214.682Zm1.229-11.387a4.2,4.2,0,0,1,3.426,1.81,4.333,4.333,0,0,1,.635,3.9,5.175,5.175,0,0,1-5.281,3.762,5.005,5.005,0,0,1-3.956-1.934,3.882,3.882,0,0,1-.613-3.5c.774-2.619,2.533-3.861,5.7-4.031Z" transform="translate(-2890.741 -3189.772)" fill="#fff"/>
          <path id="Path_509" data-name="Path 509" d="M2950.882,3216.911a.945.945,0,0,0,.881-.637,26.028,26.028,0,0,1,8.05-11.034.741.741,0,0,0,.282-.607,1.091,1.091,0,0,0-.443-.824c-2.857-2.126-5.929-4.027-8.9-5.866-1.339-.827-2.678-1.659-4-2.509a.839.839,0,0,0-.458-.14.89.89,0,0,0-.686.345.962.962,0,0,0-.2.813l1.07,5.021a38.065,38.065,0,0,0-24.788,14.838,30.494,30.494,0,0,0-5.482,23.271.749.749,0,0,0,.724.672l.159.014a.924.924,0,0,0,.24-.033,101.682,101.682,0,0,1,15.51-3.055,1.044,1.044,0,0,0,.763-.44.829.829,0,0,0,.1-.718c-3.242-10.5,3.414-22.309,14.542-25.873a44.8,44.8,0,0,0,1.771,6.124A.925.925,0,0,0,2950.882,3216.911Zm-19.193,18.586a105.562,105.562,0,0,0-13.842,2.727,28.581,28.581,0,0,1,5.76-21.48,36.164,36.164,0,0,1,23.978-13.617,1.04,1.04,0,0,0,.731-.409.915.915,0,0,0,.131-.735l-.822-3.846,1.852,1.154c2.734,1.7,5.56,3.459,8.225,5.368a27.046,27.046,0,0,0-6.69,8.794,43.253,43.253,0,0,1-1.227-4.712.9.9,0,0,0-.9-.676.822.822,0,0,0-.228.03C2936.491,3211.414,2928.754,3223.932,2931.689,3235.5Z" transform="translate(-2915.77 -3195.292)" fill="#fff"/>
          <path id="Path_510" data-name="Path 510" d="M2975.327,3212.249a.928.928,0,0,0-.844-.688.91.91,0,0,0-.287.048l-.619.207a85.2,85.2,0,0,1-13.3,3.641.742.742,0,0,0-.5.33,1.05,1.05,0,0,0-.154.787c2.549,11.5-5.477,22.467-14.366,27.021a46.584,46.584,0,0,0-2.2-6.04.764.764,0,0,0-.726-.463,1.006,1.006,0,0,0-.947.663,25.681,25.681,0,0,1-7.282,11.55.829.829,0,0,0-.267.7.994.994,0,0,0,.441.737,110.372,110.372,0,0,0,13.435,7.512,1,1,0,0,0,.424.092.968.968,0,0,0,.774-.371.855.855,0,0,0,.131-.761l-1.412-4.978a37.864,37.864,0,0,0,23.713-16.373A30.468,30.468,0,0,0,2975.327,3212.249Zm-29.075,38.424a.807.807,0,0,0-.534.388.956.956,0,0,0-.115.737l1.117,3.936a109.95,109.95,0,0,1-10.524-5.937,27.538,27.538,0,0,0,6.112-9.225,43.682,43.682,0,0,1,1.516,4.567.872.872,0,0,0,.87.655,1.1,1.1,0,0,0,.455-.1c11.318-5.178,18.344-17.466,16.4-28.632a87.436,87.436,0,0,0,12.213-3.387,28.591,28.591,0,0,1-4.333,21.8A36.391,36.391,0,0,1,2946.252,3250.673Z" transform="translate(-2899.634 -3180.755)" fill="#fff"/>
          <path id="Path_511" data-name="Path 511" d="M2919.334,3211.718a.809.809,0,0,0-.728.464c-1.42,2.751-1.195,5.645-.816,8.614a1,1,0,0,0,1.009.856.847.847,0,0,0,.646-.269.764.764,0,0,0,.168-.625c-.317-2.459-.677-5.244.578-7.669a.874.874,0,0,0-.023-.888A1,1,0,0,0,2919.334,3211.718Z" transform="translate(-2914.218 -3180.615)" fill="#fff"/>
          <path id="Path_512" data-name="Path 512" d="M2919.456,3210.144a.842.842,0,0,0-.667.29.955.955,0,0,0-.219.621.871.871,0,0,0,.886.913.852.852,0,0,0,.666-.29.963.963,0,0,0,.22-.624A.871.871,0,0,0,2919.456,3210.144Z" transform="translate(-2913.267 -3182.021)" fill="#fff"/>
          <path id="Path_513" data-name="Path 513" d="M2953.094,3225.463a.886.886,0,0,0,.754-.419c1.66-2.556,2.179-5.506,2.605-8.556a.95.95,0,0,0-.222-.767,1.067,1.067,0,0,0-.784-.362.737.737,0,0,0-.76.682c-.365,2.607-.778,5.561-2.408,8.07a.8.8,0,0,0-.053.848A1.007,1.007,0,0,0,2953.094,3225.463Z" transform="translate(-2883.281 -3177.363)" fill="#fff"/>
          <path id="Path_514" data-name="Path 514" d="M2954.188,3215.789a.847.847,0,0,0,.667-.29.956.956,0,0,0,.219-.623.87.87,0,0,0-.886-.911.849.849,0,0,0-.667.289.965.965,0,0,0-.219.622A.873.873,0,0,0,2954.188,3215.789Z" transform="translate(-2882.233 -3178.607)" fill="#fff"/>
        </g>
        <circle id="Ellipse_102" data-name="Ellipse 102" cx="36.584" cy="36.584" r="36.584" transform="translate(0 32.829)" fill="#fffdc9" opacity="0.15"/>
      </g>
    </g>
  </g>
</svg>
