<svg xmlns="http://www.w3.org/2000/svg" width="98.61" height="95.07" viewBox="0 0 98.61 95.07">
  <g id="Group_525" data-name="Group 525" transform="translate(-981.154 -4141.424)">
    <g id="Group_438" data-name="Group 438" transform="translate(-78 149)">
      <g id="Group_422" data-name="Group 422" transform="translate(0 10)">
        <g id="Group_327" data-name="Group 327" transform="translate(1059.154 3982.424)">
          <path id="Path_474" data-name="Path 474" d="M3387.852,3095.239c.055-3.749-.227-6.691-4.255-7.572,0-.642.017-1.3.033-1.969.091-3.813.183-7.756-2.155-10.193l-.121-.079.16-.08c.051-.884.055-1.749.057-2.613.005-1.138.009-2.313.132-3.507a10.5,10.5,0,0,0-.7-5.856c-1.532-2.935-4.971-3.179-8.362-3.179l-1.753.006q-2.656-4.235-5.363-8.436c-.2-.314-.419-.71-.652-1.14-.782-1.435-1.755-3.219-3.114-3.6a1.953,1.953,0,0,0-.532-.074,4.3,4.3,0,0,0-2.154.862c-.171.108-.337.212-.5.3-1.664.956-3.319,1.931-4.974,2.906l-.725.426c-.1-.174-.2-.362-.307-.559-.9-1.655-2.137-3.92-3.889-3.944a5.564,5.564,0,0,0-2.885,1.294c-.293.2-.576.4-.839.553q-3.192,1.886-6.375,3.783c-4.3,2.56-8.583,5.141-12.769,7.715a.719.719,0,0,0-.227-.04l-.452,0c-.55,0-1.12-.012-1.7-.024-.61-.014-1.231-.027-1.854-.027-3.051,0-6.164.31-8.29,2.56a8.1,8.1,0,0,0-2,5.287,87.394,87.394,0,0,0-.043,12.891c.072,1.576.144,3.145.183,4.706.074,2.878.015,5.806-.045,8.636-.14,6.8-.286,13.838,1.443,20.663,1.137,4.5,2.251,6.171,6.584,7.2a39.916,39.916,0,0,0,9.278.888c1.093,0,2.189-.019,3.291-.037l.214,0q1.736-.029,3.472-.029c3.943,0,7.949.1,11.823.2s7.887.2,11.833.2c2.837,0,5.386-.051,7.795-.16.68-.028,1.373-.045,2.073-.062,4.229-.095,8.6-.2,11.723-3.31,2.225-2.221,2.147-6.145,2.077-9.606-.024-1.21-.049-2.357.023-3.38.153,0,.313.01.473.017.2.008.413.017.621.017a2.875,2.875,0,0,0,1.659-.409c2.144-1.488,2.112-7.1,2.094-10.115C3387.852,3095.923,3387.847,3095.546,3387.852,3095.239Zm-34.564,26.476c-2.926-.027-5.9-.123-8.779-.216-3.313-.106-6.741-.216-10.111-.223h-.169c-.966,0-1.929.015-2.887.03s-1.9.028-2.841.028a37.3,37.3,0,0,1-8.657-.822,6.292,6.292,0,0,1-4.478-3.428,3.655,3.655,0,0,0,.865.114.8.8,0,0,0,.811-.831.813.813,0,0,0-.818-.856,1.81,1.81,0,0,1-1.254-.48.826.826,0,0,0-.439-.2c-.2-.709-.36-1.451-.523-2.219a54.721,54.721,0,0,1-1.105-10.136c-.055-2.445.042-4.927.136-7.326.1-2.594.207-5.276.119-7.927-.051-1.619-.13-3.25-.214-4.893-.072-1.448-.144-2.9-.2-4.357.121.074.241.146.367.208a.9.9,0,0,0,.388.093.92.92,0,0,0,.861-.712.729.729,0,0,0-.417-.848c-.454-.226-.884-.471-1.253-.641-.032-1.531-.029-2.823.006-4.035,1.229,1.215,3.412,1.833,6.5,1.833.394,0,.768-.009,1.114-.023,3.122-.126,5.719-.185,8.17-.185,2.7,0,5.173.072,7.567.221,2.1.13,4.368.195,6.934.195,2.744,0,5.535-.074,8.233-.144s5.485-.142,8.228-.142q1.594,0,3.187.036c2.992.072,5.626.185,8.054.347.454.03.926.051,1.409.074,2.636.123,5.625.261,7.625,1.876,2.579,2.082,2.408,6.093,2.259,9.634-.026.632-.053,1.251-.062,1.838l-.633-.006c-1.691,0-3.422.085-5.095.165-1.362.066-2.721.132-4.072.155-3.054.053-5.468.095-7.6,2.659a12.154,12.154,0,0,0-2.538,9.756,7.034,7.034,0,0,0,3.829,5.042c2.945,1.456,6.323,1.577,9.527,1.577h.936l1.327-.015v.064a.843.843,0,0,0,1.685,0v-.093l2.034-.032c-.135,1.407-.18,2.834-.226,4.219-.043,1.284-.087,2.612-.2,3.912-.4,4.594-3.6,5.8-8.282,6.19-4.433.373-9.324.545-15.389.545Q3355.252,3121.733,3353.287,3121.715Zm-5.35-72.523c1.533,0,2.532,1.608,3.41,3.026l.053.085c-8.936,5.285-17.913,10.831-26.6,16.2l-.078.086c-1.854-.059-3.708-.129-5.561-.224a25.832,25.832,0,0,1-2.873-.314c6.4-3.937,12.079-7.395,17.357-10.564q4.62-2.775,9.255-5.523c.4-.237.862-.566,1.352-.919a10.05,10.05,0,0,1,3.244-1.808A2.373,2.373,0,0,1,3347.938,3049.191Zm28.278,17.116a4.644,4.644,0,0,0,.1.473,4.1,4.1,0,0,1,.089.441,8.491,8.491,0,0,1,.047,1.439,1.2,1.2,0,0,0-.146-.01.379.379,0,0,0-.181.034c-.316-.523-1.563-2.539-1.563-2.539A8.57,8.57,0,0,1,3376.215,3066.308Zm3.718,3.283a20.03,20.03,0,0,0-.191,2.022c-.017.582.015,1.159.047,1.735.015.25.029.5.038.746a8.444,8.444,0,0,0-1.331-.606c0-.254.034-.557.066-.886.113-1.134.249-2.535-.484-3.3a10.2,10.2,0,0,0-.027-2.4,3.1,3.1,0,0,0-.7-1.928,2.727,2.727,0,0,0-1.663-.461l-.189-.014c-.472-.034-.947-.049-1.424-.049a1.032,1.032,0,0,0-.523.076l-1.625-2.634c3.756.03,7.906.171,8.184,4.956A15.13,15.13,0,0,1,3379.933,3069.591Zm-39.852-.8c1.8-.964,3.857-2.083,5.84-3.267.71-.426,1.407-.871,2.106-1.315.582-.374,1.165-.745,1.755-1.1.3-.186.519-.329.688-.442.3-.2.407-.268.517-.268a1.56,1.56,0,0,1,.46.14l.734.267a15.2,15.2,0,0,0,4.938,1.212,8.077,8.077,0,0,0,3.526-.9,43.28,43.28,0,0,0,4.177,5.6l-3.278-.006q-5.55,0-11.1.038-5.109.034-10.221.042Zm-19.789,1.316c3.564.169,7.359.273,11.947.329q3.979.049,7.96.044c3.761,0,7.521-.023,11.282-.048l5.232-.032q3.158-.016,6.317-.019,2.911,0,5.825.026c1.9.017,3.8.043,5.7.091,2.248.057,2.3.614,2.26,2.512a44.089,44.089,0,0,0-8.89-.733c-.9-.015-1.788-.028-2.638-.06-2.941-.1-5.573-.155-8.046-.155q-1.882,0-3.768.042c-1.5.035-3,.049-4.506.049-3.158,0-6.367-.062-9.468-.125s-6.306-.125-9.462-.125q-1.418,0-2.839.017c-.9.013-1.959.11-3.081.21-1.409.129-2.866.261-4.293.261a9.751,9.751,0,0,1-4.847-.965,3.876,3.876,0,0,1-1.85-2.178c1.365.771,3.34.839,5.26.839h.772C3319.57,3070.087,3319.951,3070.089,3320.292,3070.106Zm60.662,35.093h-.02c-.7.015-1.48.055-2.314.095-1.23.063-2.623.133-4.014.133-3.713,0-8.852-.45-10.584-4.355a8.053,8.053,0,0,1,.1-6.239c1.225-3.433,3.365-5.086,6.739-5.206,1.165-.041,2.343-.1,3.526-.161,2.115-.106,4.3-.216,6.427-.216.784,0,1.564.013,2.314.046,3.69.828,3.249,5.711,2.957,8.943l-.066.756-.042.582c-.133,1.914-.332,4.81-2.242,5.563a2.882,2.882,0,0,1-1.011.136c-.316,0-.644-.022-.952-.042C3381.5,3105.216,3381.245,3105.2,3380.954,3105.2Zm-20.455-56.441.023.136c1.793.076,3.66,3.446,4.9,5.679.32.575.6,1.077.825,1.433,2.5,3.925,5.075,8.055,7.864,12.623-.314.017-.625.037-.916.057-.515.036-.978.068-1.413.068h-.013c-1.067-.017-2.135-.019-3.2-.022l-1.511.064-.144.025.064-.165-.559-.662a39.545,39.545,0,0,1-4.719-6.394.83.83,0,0,0-.731-.414.876.876,0,0,0-.422.106,8.978,8.978,0,0,1-4.21,1.183,5.54,5.54,0,0,1-4.372-2.031.81.81,0,0,0-.615-.256.757.757,0,0,0-.424.12,141.853,141.853,0,0,1-14.014,8.264c-.119.063-.214.144-.176.193l-.774,0c-2.259-.009-4.516-.018-6.773-.062l-1.418-.034c9.062-5.584,17.5-10.7,25.782-15.62l3.522-2.088c.253-.15.593-.4.968-.674a6.734,6.734,0,0,1,2.46-1.388v-.136Zm-43.146,13.563a16.111,16.111,0,0,1,4.187-.445c.523,0,1.047.011,1.566.023l-2.608,1.594-1.02.648a21.509,21.509,0,0,0-5.748,1.153A6.383,6.383,0,0,1,3317.353,3062.322Zm-3.4,4.511c.093-.23.546-.627,2.474-.847l-2.244,1.375C3313.877,3067.135,3313.9,3066.953,3313.95,3066.832Z" transform="translate(-3311.019 -3046.94)" fill="#fff"/>
          <path id="Path_475" data-name="Path 475" d="M3346.941,3071.15a.746.746,0,0,0-.325-.144.777.777,0,0,0-.257-.038.859.859,0,0,0-.093,0,5.8,5.8,0,0,0-.7-.043,5.5,5.5,0,0,0-5.342,3.761,4.91,4.91,0,0,0,2.975,6.419,5.573,5.573,0,0,0,1.856.331,5.3,5.3,0,0,0,1.884-10.29Zm-1.884,8.6a4.053,4.053,0,0,1-1.386-.26,2.91,2.91,0,0,1-2.013-3.422,4.174,4.174,0,0,1,3.882-3.488,3.657,3.657,0,0,1,.61.051,3.475,3.475,0,0,1,2.255,1.943,3.777,3.777,0,0,1-.324,3.168A3.386,3.386,0,0,1,3345.058,3079.747Z" transform="translate(-3285.178 -3025.504)" fill="#fff"/>
          <path id="Path_476" data-name="Path 476" d="M3318.366,3063.42a.766.766,0,0,0-.82-.769l-2.655.165a.858.858,0,0,0-.809.917.755.755,0,0,0,.765.772l2.709-.168A.856.856,0,0,0,3318.366,3063.42Z" transform="translate(-3308.282 -3032.902)" fill="#fff"/>
          <path id="Path_477" data-name="Path 477" d="M3322.585,3063.334a.748.748,0,0,0-.814-.74l-3.126.277a.889.889,0,0,0-.8.949.731.731,0,0,0,.741.742l3.2-.28A.886.886,0,0,0,3322.585,3063.334Z" transform="translate(-3304.92 -3032.951)" fill="#fff"/>
          <path id="Path_478" data-name="Path 478" d="M3325.538,3063.614a.825.825,0,0,0-.814-.871c-.265-.006-.53-.007-.795-.007-.415,0-.827.007-1.242.021a.832.832,0,0,0-.812.886.771.771,0,0,0,.787.8h.037q.613-.021,1.23-.021c.263,0,.81.01.81.01A.79.79,0,0,0,3325.538,3063.614Z" transform="translate(-3301.32 -3032.826)" fill="#fff"/>
          <path id="Path_479" data-name="Path 479" d="M3329.891,3063.517a.773.773,0,0,0-.821-.784h0q-1.227.063-2.454.063l-.191,0a.845.845,0,0,0,0,1.69h.189q1.236,0,2.467-.063A.847.847,0,0,0,3329.891,3063.517Z" transform="translate(-3297.986 -3032.828)" fill="#fff"/>
          <path id="Path_480" data-name="Path 480" d="M3333.855,3063.808a.892.892,0,0,0-.8-.953c-.851-.08-1.717-.12-2.573-.12l-.246,0a.813.813,0,0,0-.818.854.8.8,0,0,0,.822.833l.242,0c.848,0,1.7.04,2.546.12l.091,0A.72.72,0,0,0,3333.855,3063.808Z" transform="translate(-3294.578 -3032.826)" fill="#fff"/>
          <path id="Path_481" data-name="Path 481" d="M3336.819,3064.512h.036a.775.775,0,0,0,.788-.8.837.837,0,0,0-.814-.886c-.269-.01-.534-.035-.8-.061-.339-.032-.679-.064-1.019-.064a3.919,3.919,0,0,0-.924.1.762.762,0,0,0-.6.874.851.851,0,0,0,.827.784.96.96,0,0,0,.216-.026,2.528,2.528,0,0,1,.6-.066,7.61,7.61,0,0,1,.917.075C3336.3,3064.472,3336.565,3064.5,3336.819,3064.512Z" transform="translate(-3290.954 -3032.858)" fill="#fff"/>
          <path id="Path_482" data-name="Path 482" d="M3337.861,3064.354c.484.013.969.021,1.451.021q1.117,0,2.231-.047a.841.841,0,0,0,.813-.893.778.778,0,0,0-.822-.8h0q-1.11.049-2.22.048c-.481,0-.961-.006-1.471-.019a.777.777,0,0,0-.8.812A.829.829,0,0,0,3337.861,3064.354Z" transform="translate(-3287.763 -3032.914)" fill="#fff"/>
          <path id="Path_483" data-name="Path 483" d="M3342.233,3064.341h0c.278-.011.557-.017.834-.017.661,0,1.331.032,1.994.1l.093,0a.718.718,0,0,0,.732-.733.9.9,0,0,0-.8-.958c-.672-.066-1.354-.1-2.022-.1-.281,0-.562.006-.844.017a.838.838,0,0,0-.813.891A.778.778,0,0,0,3342.233,3064.341Z" transform="translate(-3283.862 -3032.915)" fill="#fff"/>
          <path id="Path_484" data-name="Path 484" d="M3346.359,3066.262a.768.768,0,0,0,.68.42.926.926,0,0,0,.78-.45.8.8,0,0,0,0-.817,9.239,9.239,0,0,0-1.464-1.971.785.785,0,0,0-.568-.254.905.905,0,0,0-.8.559.8.8,0,0,0,.175.886A7.353,7.353,0,0,1,3346.359,3066.262Z" transform="translate(-3280.723 -3032.419)" fill="#fff"/>
          <path id="Path_485" data-name="Path 485" d="M3346.528,3066.246a.844.844,0,0,0-.61.245.776.776,0,0,0-.2.581l.1,2.386a.877.877,0,0,0,1.483.568.771.771,0,0,0,.2-.579l-.1-2.388A.842.842,0,0,0,3346.528,3066.246Z" transform="translate(-3280.017 -3029.688)" fill="#fff"/>
          <path id="Path_486" data-name="Path 486" d="M3318.614,3083.792l-2.033-.106a.761.761,0,0,0-.773.782.849.849,0,0,0,.811.906l2.07.108a.762.762,0,0,0,.774-.784A.857.857,0,0,0,3318.614,3083.792Z" transform="translate(-3306.74 -3014.106)" fill="#fff"/>
          <path id="Path_487" data-name="Path 487" d="M3323.5,3083.767l-3.7-.125a.773.773,0,0,0-.79.8.832.832,0,0,0,.814.884l3.7.123a.773.773,0,0,0,.789-.805A.833.833,0,0,0,3323.5,3083.767Z" transform="translate(-3303.88 -3014.145)" fill="#fff"/>
          <path id="Path_488" data-name="Path 488" d="M3327.36,3083.641h-.017a14.35,14.35,0,0,1-1.7.1c-.462,0-.928-.023-1.486-.072a.72.72,0,0,0-.733.733.9.9,0,0,0,.8.958q.713.068,1.422.068h0a14.45,14.45,0,0,0,1.733-.1.911.911,0,0,0,.792-.983A.723.723,0,0,0,3327.36,3083.641Z" transform="translate(-3299.936 -3014.146)" fill="#fff"/>
          <path id="Path_489" data-name="Path 489" d="M3330.654,3083.59l-2.3.091a.839.839,0,0,0-.812.89.771.771,0,0,0,.784.8l2.336-.092a.834.834,0,0,0,.813-.889A.778.778,0,0,0,3330.654,3083.59Z" transform="translate(-3296.255 -3014.191)" fill="#fff"/>
          <path id="Path_490" data-name="Path 490" d="M3334.86,3083.733h-2.571a.844.844,0,0,0,0,1.687l2.573,0a.845.845,0,0,0,0-1.689Z" transform="translate(-3292.746 -3014.066)" fill="#fff"/>
          <path id="Path_491" data-name="Path 491" d="M3339.19,3083.642a.954.954,0,0,0-.2.023,10.166,10.166,0,0,1-2.235.242,12.816,12.816,0,0,1-1.3-.072.71.71,0,0,0-.722.718.907.907,0,0,0,.8.973,11.263,11.263,0,0,0,1.235.066,12.089,12.089,0,0,0,2.666-.3.746.746,0,0,0,.607-.854A.872.872,0,0,0,3339.19,3083.642Z" transform="translate(-3289.837 -3014.145)" fill="#fff"/>
          <path id="Path_492" data-name="Path 492" d="M3342.6,3083.76h-.01c-.17.015-.341.023-.513.023-.4,0-.8-.035-1.2-.071s-.816-.07-1.225-.07q-.267,0-.534.023a.893.893,0,0,0-.8.951.745.745,0,0,0,.818.736h.01c.17-.014.341-.02.51-.02.4,0,.8.034,1.2.068s.816.07,1.226.07c.179,0,.357-.008.537-.023a.888.888,0,0,0,.8-.948A.746.746,0,0,0,3342.6,3083.76Z" transform="translate(-3286.633 -3014.145)" fill="#fff"/>
          <path id="Path_493" data-name="Path 493" d="M3345.328,3085.124h.008l.138.135a.776.776,0,0,0,.791-.805.868.868,0,0,0-.937-.885,7.406,7.406,0,0,0-1.316.159,7.121,7.121,0,0,1-1.26.153v.133l-.01,0-.138-.137a.775.775,0,0,0-.79.805.834.834,0,0,0,.814.884l.124,0a7.288,7.288,0,0,0,1.313-.159,7.067,7.067,0,0,1,1.263-.154Z" transform="translate(-3283.502 -3014.211)" fill="#fff"/>
          <path id="Path_494" data-name="Path 494" d="M3345.461,3085.617l.073,0a3.477,3.477,0,0,0,2.816-1.728.774.774,0,0,0,.017-.805.938.938,0,0,0-.788-.458.776.776,0,0,0-.686.409,1.735,1.735,0,0,1-1.38.9.865.865,0,0,0-.8.934A.739.739,0,0,0,3345.461,3085.617Z" transform="translate(-3280.915 -3015.056)" fill="#fff"/>
          <path id="Path_495" data-name="Path 495" d="M3346.714,3083.327a.906.906,0,0,0,.92-.8l.214-1.924a.721.721,0,0,0-.164-.582.8.8,0,0,0-.6-.246.9.9,0,0,0-.92.8l-.216,1.922a.726.726,0,0,0,.166.581A.8.8,0,0,0,3346.714,3083.327Z" transform="translate(-3279.813 -3017.596)" fill="#fff"/>
          <path id="Path_496" data-name="Path 496" d="M3350.806,3072.375a4.827,4.827,0,0,1,.394,1.757c.03.311.061.615.116.9a.724.724,0,0,0,.736.621.961.961,0,0,0,.723-.339.849.849,0,0,0,.175-.71c-.057-.3-.1-.6-.137-.909a4.789,4.789,0,0,0-.926-2.71,4.018,4.018,0,0,0-3.189-1.132c-.223,0-.445.008-.665.017a.847.847,0,0,0-.811.9.765.765,0,0,0,.779.79l.153-.006c.216-.011.446-.021.679-.021A2.041,2.041,0,0,1,3350.806,3072.375Z" transform="translate(-3278.669 -3026.464)" fill="#fff"/>
          <path id="Path_497" data-name="Path 497" d="M3350.035,3073.478a.826.826,0,0,0-.843.9.807.807,0,0,0,.843.82.874.874,0,0,0,.575-.2.833.833,0,0,0,.267-.689A.806.806,0,0,0,3350.035,3073.478Z" transform="translate(-3276.91 -3023.229)" fill="#fff"/>
          <path id="Path_498" data-name="Path 498" d="M3334.518,3052.21a.813.813,0,0,0-.7-.387.928.928,0,0,0-.8.467.737.737,0,0,0,.049.783q1.009,1.549,1.977,3.119a.8.8,0,0,0,.694.4.931.931,0,0,0,.794-.462.757.757,0,0,0-.033-.8Q3335.527,3053.761,3334.518,3052.21Z" transform="translate(-3291.442 -3042.575)" fill="#fff"/>
          <path id="Path_499" data-name="Path 499" d="M3336.229,3050.5a1.759,1.759,0,0,0-.981.318l.079.115h0l-.234,0c-.952.82-.994,1.947-.119,3.255.49.737,1.265,1.715,2.3,1.715a1.828,1.828,0,0,0,.862-.229,1.775,1.775,0,0,0,.935-1.119,3.022,3.022,0,0,0-.485-2.289C3338.265,3051.741,3337.388,3050.5,3336.229,3050.5Zm-.043,2.432c-.231-.47-.231-.489-.036-.676a.251.251,0,0,1,.123-.032c.318,0,.676.593.886.941a2.116,2.116,0,0,1,.307.665.293.293,0,0,1-.163.35.471.471,0,0,1-.261-.1A3.455,3.455,0,0,1,3336.186,3052.935Z" transform="translate(-3290.174 -3043.756)" fill="#fff"/>
          <path id="Path_500" data-name="Path 500" d="M3337.135,3049.779c-.954.82-1,1.945-.119,3.253.49.736,1.263,1.716,2.3,1.716a1.825,1.825,0,0,0,.861-.229,1.777,1.777,0,0,0,.938-1.119,3.024,3.024,0,0,0-.487-2.289c-.322-.532-1.2-1.768-2.359-1.768a1.749,1.749,0,0,0-.979.316Zm1.055,1.316a.273.273,0,0,1,.123-.032c.32,0,.678.6.885.937a2.1,2.1,0,0,1,.31.668.3.3,0,0,1-.164.352.463.463,0,0,1-.26-.1,3.459,3.459,0,0,1-.856-1.148C3338,3051.3,3338,3051.284,3338.19,3051.1Z" transform="translate(-3288.352 -3044.793)" fill="#fff"/>
        </g>
        <path id="Path_640" data-name="Path 640" d="M36.584,0A36.584,36.584,0,1,1,0,36.584,36.584,36.584,0,0,1,36.584,0Z" transform="translate(1084.596 4004.325)" fill="#fffdc9" opacity="0.15"/>
      </g>
    </g>
  </g>
</svg>
