<svg xmlns="http://www.w3.org/2000/svg" width="73.168" height="109.665" viewBox="0 0 73.168 109.665">
  <g id="Group_524" data-name="Group 524" transform="translate(-305.53 -4121.162)">
    <g id="Group_436" data-name="Group 436" transform="translate(-68.335 149)">
      <g id="Group_325" data-name="Group 325" transform="translate(376.85 3989.807)">
        <path id="Path_470" data-name="Path 470" d="M2985.469,3101.705a43.819,43.819,0,0,0-6.906-18.685c-4.215-6.127-10.261-10.615-15.671-14.2a2.858,2.858,0,0,0,1.573-1.484,2.641,2.641,0,0,0-.061-2.051,3.345,3.345,0,0,0-1.392-1.587c.657-.837,1.272-1.708,1.888-2.577a33.385,33.385,0,0,1,3.815-4.748c1.389-1.354,2.649-2.821,3.868-4.241,1.132-1.32,2.3-2.686,3.568-3.945a.889.889,0,0,0,.211-.971.987.987,0,0,0-.869-.634c-1.026-.053-1.989-.159-2.91-.264a31.086,31.086,0,0,0-3.34-.249,9.729,9.729,0,0,0-5.361,1.469,11.691,11.691,0,0,0-1.46,1.122,4.332,4.332,0,0,1-2.63,1.415,2.622,2.622,0,0,1-1.076-.252,8.485,8.485,0,0,1-2.159-1.589,8.479,8.479,0,0,0-2.5-1.77,8.018,8.018,0,0,0-2.953-.57,7.116,7.116,0,0,0-2.062.3,12.688,12.688,0,0,0-2.985,1.508,7.326,7.326,0,0,1-3.7,1.5,4.7,4.7,0,0,1-2.96-1.239c-2.18-1.772-3.585-2.4-5.37-2.4a16.284,16.284,0,0,0-3.9.652.906.906,0,0,0-.615.545.947.947,0,0,0,.051.839,49.258,49.258,0,0,0,4.5,6.044c2.421,2.926,4.923,5.948,6.12,9.5a5.347,5.347,0,0,0-1.28.71,2.679,2.679,0,0,0-1.294,2.422,3,3,0,0,0,1.7,2.157c-5.158,2.73-9.045,7.2-12.806,11.53l-1.1,1.261c-3.182,3.638-5.514,8.819-6.931,15.4-.986,4.58-2.212,13.395.666,20.977,2.174,5.721,6.923,10.994,13.376,14.848a35.236,35.236,0,0,0,17.338,5.048c1.308.053,2.605.089,3.891.089h0a33.013,33.013,0,0,0,14.238-2.687,34.26,34.26,0,0,0,15.491-14.721C2985.928,3115.385,2986.583,3109.344,2985.469,3101.705Zm-65.8-.36c.418-4.09,1.723-11.77,5.743-17.262,5.813-7.942,11.335-12.848,16.879-15,.129-.049.224-.125.209-.146a26.052,26.052,0,0,1,3.446-.2c1.29,0,2.579.066,3.869.132,1.064.053,2.128.108,3.194.125.786.013,1.687.094,2.64.18,1.2.107,2.433.219,3.634.219a5.815,5.815,0,0,0,.962-.058c8.951,5.79,18.589,13.521,22.192,26.95a43.281,43.281,0,0,1,1.534,14.969c-.611,6.933-4.63,13.535-11.314,18.591a28.116,28.116,0,0,1-17.2,5.825l-1.441,0c-5.515,0-11.335-.21-16.556-2.712a35.128,35.128,0,0,1-13.5-10.666C2918.948,3115.53,2919.035,3107.547,2919.671,3101.346Zm19.23-51.34a6.731,6.731,0,0,0,3.437,1.534c.144.011.286.019.424.019a6.416,6.416,0,0,0,3.166-.99,13.127,13.127,0,0,0,1.879-1.3,5.132,5.132,0,0,1,3.357-1.506,5.709,5.709,0,0,1,1.316.165,8.119,8.119,0,0,1,3.578,2.227l.528.471a5.106,5.106,0,0,0,3.3,1.555,4.755,4.755,0,0,0,2.99-1.295c.258-.216.507-.432.753-.646a9.358,9.358,0,0,1,3.354-2.147,6.846,6.846,0,0,1,2.041-.251,31,31,0,0,1,3.869.346l.61.078c-.761.831-1.5,1.681-2.23,2.531-1.229,1.424-2.5,2.9-3.887,4.247a32.912,32.912,0,0,0-3.823,4.768c-.746,1.061-1.517,2.155-2.357,3.17a21.24,21.24,0,0,0-2.223-.374l-.734-.1a37.613,37.613,0,0,0-5.444-.358c-1.759,0-3.554.089-5.243.178-.531.028-1.1.036-1.7.041a25.14,25.14,0,0,0-3.876.248c-1.255-3.758-3.813-6.871-6.286-9.882a60.371,60.371,0,0,1-3.875-5.069,8.544,8.544,0,0,1,2.386-.5l.195,0a5.245,5.245,0,0,1,3.306,1.814A13.506,13.506,0,0,0,2938.9,3050.006Zm9.623,14.112c.627-.019,1.252-.038,1.869-.064.88-.04,1.763-.066,2.641-.066,1.075,0,2.038.042,2.939.128,1.171.114,2.421.29,3.821.544l.184.031c.576.094,2.108.346,2.269,1.007.1.389-.3.931-1.148,1.567a2.413,2.413,0,0,1-1.3.235,23.969,23.969,0,0,1-2.755-.24c-.589-.074-1.1-.137-1.407-.144-.589-.012-1.176-.015-1.764-.019-1.018-.008-2.035-.014-3.053-.063l-.329-.016c-1.432-.07-2.911-.142-4.363-.142a32.4,32.4,0,0,0-4.035.231l-.165.01a1.994,1.994,0,0,1-1.532-.848,1.167,1.167,0,0,1-.14-1.121c.191-.473,2.611-.674,3.522-.75l.5-.046C2945.673,3064.2,2947.124,3064.16,2948.525,3064.118Z" transform="translate(-2917.346 -3045.558)" fill="#fff"/>
        <path id="Path_472" data-name="Path 472" d="M2921.949,3083.956a42.318,42.318,0,0,1,7.392-16.689.779.779,0,0,0,.1-.846,1.037,1.037,0,0,0-.918-.532.955.955,0,0,0-.786.4,43.542,43.542,0,0,0-7.6,17.188.934.934,0,0,0,.185.789,1.067,1.067,0,0,0,.809.381A.813.813,0,0,0,2921.949,3083.956Z" transform="translate(-2914.878 -3027.393)" fill="#fff"/>
        <path id="Path_473" data-name="Path 473" d="M2926.4,3065.868a.9.9,0,0,0,.915-.943.981.981,0,0,0-.228-.64.935.935,0,0,0-1.375,0,.972.972,0,0,0-.227.642A.9.9,0,0,0,2926.4,3065.868Z" transform="translate(-2910.073 -3029.094)" fill="#fff"/>
        <text id="N" transform="translate(35.15 66.193)" fill="#fff" font-size="26" font-family="Helvetica-Light, Helvetica" font-weight="300"><tspan x="-9.386" y="0">N</tspan></text>
        <rect id="Rectangle_250" data-name="Rectangle 250" width="20" height="1" transform="translate(24.15 56.193)" fill="#fff"/>
        <rect id="Rectangle_251" data-name="Rectangle 251" width="20" height="1" transform="translate(24.15 59.193)" fill="#fff"/>
      </g>
      <circle id="Ellipse_99" data-name="Ellipse 99" cx="36.584" cy="36.584" r="36.584" transform="translate(373.865 3972.162)" fill="#fffdc9" opacity="0.15"/>
    </g>
  </g>
</svg>
