<svg xmlns="http://www.w3.org/2000/svg" width="52.077" height="50.207" viewBox="0 0 52.077 50.207"><g transform="translate(-564.894 -2079.035)"><path d="M605.47,2104.541c.028-1.98-.121-3.534-2.248-4,0-.339.01-.687.018-1.039.048-2.015.1-4.1-1.138-5.384l-.065-.042.085-.042c.028-.467.029-.924.031-1.38,0-.6.005-1.222.069-1.852a5.539,5.539,0,0,0-.372-3.093c-.808-1.55-2.624-1.679-4.416-1.679l-.926,0q-1.4-2.238-2.832-4.456c-.107-.166-.22-.375-.344-.6-.412-.758-.927-1.7-1.643-1.9a1.069,1.069,0,0,0-.281-.039,2.266,2.266,0,0,0-1.138.456c-.09.056-.178.111-.264.16-.879.5-1.753,1.02-2.627,1.535l-.383.225c-.052-.092-.106-.191-.162-.3-.477-.873-1.129-2.07-2.054-2.082a2.941,2.941,0,0,0-1.524.682c-.155.107-.3.21-.444.293q-1.684.995-3.367,2c-2.269,1.352-4.532,2.715-6.742,4.074a.42.42,0,0,0-.12-.02h-.24c-.289,0-.59-.006-.9-.013s-.65-.014-.979-.014c-1.611,0-3.255.164-4.377,1.352a4.284,4.284,0,0,0-1.058,2.792,46.327,46.327,0,0,0-.022,6.808c.037.832.075,1.661.1,2.485.039,1.52.007,3.066-.024,4.562a40.718,40.718,0,0,0,.761,10.911c.6,2.377,1.189,3.259,3.478,3.8a21.118,21.118,0,0,0,4.9.468c.576,0,1.156-.01,1.738-.02l.112,0q.918-.015,1.835-.015c2.082,0,4.2.054,6.244.106s4.164.105,6.248.105c1.5,0,2.845-.027,4.117-.083.358-.016.724-.025,1.1-.033,2.233-.051,4.543-.1,6.191-1.749,1.175-1.173,1.133-3.245,1.1-5.073-.013-.639-.025-1.245.013-1.784.081,0,.165,0,.25.008.108,0,.218.009.327.009a1.521,1.521,0,0,0,.877-.216c1.132-.786,1.114-3.75,1.106-5.342C605.469,2104.9,605.468,2104.7,605.47,2104.541Zm-18.254,13.982c-1.546-.014-3.117-.065-4.637-.113-1.75-.057-3.559-.115-5.34-.118h-.088c-.511,0-1.019.007-1.525.015s-1,.015-1.5.015a19.68,19.68,0,0,1-4.571-.434,3.324,3.324,0,0,1-2.366-1.81,1.847,1.847,0,0,0,.458.06.422.422,0,0,0,.428-.438.431.431,0,0,0-.432-.453.956.956,0,0,1-.663-.252.423.423,0,0,0-.232-.108c-.1-.375-.19-.767-.275-1.172a28.927,28.927,0,0,1-.585-5.354c-.028-1.291.023-2.6.073-3.869.053-1.369.109-2.786.063-4.185-.027-.856-.07-1.718-.113-2.585-.038-.765-.076-1.533-.1-2.3.063.039.127.077.194.11a.467.467,0,0,0,.2.049.486.486,0,0,0,.456-.376.387.387,0,0,0-.22-.448c-.24-.118-.467-.248-.662-.338-.017-.808-.016-1.491,0-2.131a4.842,4.842,0,0,0,3.431.968c.207,0,.4,0,.588-.012,1.649-.067,3.02-.1,4.314-.1,1.425,0,2.732.038,4,.117,1.11.069,2.308.1,3.663.1,1.449,0,2.923-.039,4.348-.075s2.9-.076,4.344-.076c.562,0,1.122.006,1.684.02,1.579.037,2.971.1,4.253.182.24.016.488.028.744.04,1.392.064,2.97.137,4.027.99,1.361,1.1,1.271,3.218,1.192,5.088-.014.334-.027.661-.032.971l-.334,0c-.894,0-1.807.045-2.691.088-.719.035-1.437.069-2.15.081-1.614.028-2.889.05-4.014,1.405a6.417,6.417,0,0,0-1.339,5.151,3.72,3.72,0,0,0,2.021,2.664,11.264,11.264,0,0,0,5.032.832h.494l.7-.008v.034a.446.446,0,0,0,.891,0v-.049l1.073-.017c-.07.743-.095,1.5-.119,2.228-.022.678-.045,1.379-.1,2.067-.21,2.425-1.9,3.06-4.373,3.268-2.342.2-4.924.289-8.127.289Q588.253,2118.534,587.216,2118.523Zm-2.825-38.3c.81,0,1.336.85,1.8,1.6l.028.046c-4.72,2.79-9.461,5.72-14.047,8.553l-.041.045q-1.47-.045-2.938-.118a13.268,13.268,0,0,1-1.517-.166c3.379-2.078,6.379-3.905,9.166-5.578q2.44-1.467,4.888-2.918c.212-.125.455-.3.715-.485a5.307,5.307,0,0,1,1.712-.955A1.351,1.351,0,0,1,584.391,2080.223Zm14.934,9.039a2.253,2.253,0,0,0,.05.25,2.1,2.1,0,0,1,.046.233,4.559,4.559,0,0,1,.026.76.715.715,0,0,0-.077,0,.2.2,0,0,0-.095.017c-.168-.276-.827-1.341-.827-1.341A4.556,4.556,0,0,1,599.325,2089.262Zm1.962,1.735a10.63,10.63,0,0,0-.1,1.067c-.009.307.008.612.025.917.007.131.015.262.02.393a4.44,4.44,0,0,0-.7-.32c0-.133.019-.294.036-.468.058-.6.131-1.338-.256-1.745a5.336,5.336,0,0,0-.015-1.268,1.635,1.635,0,0,0-.369-1.018,1.441,1.441,0,0,0-.878-.244l-.1-.007c-.25-.018-.5-.026-.752-.026a.551.551,0,0,0-.277.04l-.858-1.391c1.985.017,4.176.09,4.323,2.617A7.9,7.9,0,0,1,601.287,2091Zm-21.045-.424c.952-.509,2.037-1.1,3.084-1.725.374-.225.743-.46,1.111-.695.308-.2.616-.393.928-.583.159-.1.274-.174.362-.233.158-.1.216-.141.274-.141a.83.83,0,0,1,.243.073l.386.141a8.007,8.007,0,0,0,2.609.64,4.273,4.273,0,0,0,1.862-.476,22.778,22.778,0,0,0,2.206,2.96l-1.731,0q-2.933,0-5.864.021c-1.8.011-3.6.021-5.4.021Zm-10.452.7c1.882.089,3.887.145,6.31.174q2.1.026,4.2.024c1.987,0,3.973-.013,5.958-.026l2.763-.017q1.668-.008,3.337-.01,1.537,0,3.075.014,1.508.014,3.012.049c1.188.029,1.216.323,1.2,1.326a23.315,23.315,0,0,0-4.7-.387c-.476-.008-.943-.015-1.393-.031-1.552-.056-2.942-.083-4.248-.083q-1,0-1.99.022-1.191.029-2.38.027c-1.669,0-3.363-.034-5-.067s-3.331-.066-5-.066q-.75,0-1.5.01c-.477.006-1.036.057-1.628.111-.744.067-1.513.137-2.266.137a5.146,5.146,0,0,1-2.561-.51,2.051,2.051,0,0,1-.977-1.15,5.955,5.955,0,0,0,2.779.443h.407C569.41,2091.258,569.611,2091.26,569.79,2091.268Zm32.037,18.534h-.011c-.368.007-.781.028-1.222.05-.649.032-1.384.069-2.119.069-1.962,0-4.676-.238-5.59-2.3a4.257,4.257,0,0,1,.051-3.3,3.632,3.632,0,0,1,3.56-2.749c.614-.021,1.236-.052,1.862-.084,1.116-.057,2.271-.115,3.394-.115.414,0,.826.008,1.222.025,1.948.436,1.715,3.016,1.562,4.722l-.035.4-.022.307c-.07,1.011-.175,2.54-1.185,2.938a1.519,1.519,0,0,1-.534.072c-.166,0-.34-.011-.5-.022C602.115,2109.81,601.981,2109.8,601.827,2109.8Zm-10.8-29.808.012.072c.947.04,1.934,1.821,2.586,3,.169.3.316.569.436.757,1.321,2.073,2.68,4.254,4.153,6.666-.167.009-.33.02-.484.031-.272.019-.517.035-.747.035h-.006c-.564-.009-1.127-.01-1.691-.011l-.8.033-.076.013.034-.087-.295-.35a20.932,20.932,0,0,1-2.492-3.376.436.436,0,0,0-.386-.219.477.477,0,0,0-.223.056,4.738,4.738,0,0,1-2.222.625,2.927,2.927,0,0,1-2.31-1.073.426.426,0,0,0-.324-.135.4.4,0,0,0-.225.064,74.72,74.72,0,0,1-7.4,4.364c-.063.033-.113.076-.093.1l-.41,0c-1.192,0-2.384-.01-3.577-.032l-.749-.019c4.787-2.949,9.243-5.648,13.616-8.249l1.861-1.1c.133-.078.312-.21.511-.356a3.557,3.557,0,0,1,1.3-.733v-.072Zm-22.786,7.164a8.469,8.469,0,0,1,2.212-.236c.276,0,.552.006.826.013l-1.376.841-.54.342a11.348,11.348,0,0,0-3.034.609A3.363,3.363,0,0,1,568.238,2087.158Zm-1.8,2.382c.05-.122.288-.331,1.306-.447l-1.185.725C566.4,2089.7,566.416,2089.6,566.441,2089.54Z" fill="#ffbf3e"/><path d="M597.512,2103.14a.613.613,0,0,0-.308-.1l-.05,0a3.034,3.034,0,0,0-.367-.022,2.9,2.9,0,0,0-2.822,1.986,2.594,2.594,0,0,0,1.572,3.389,2.935,2.935,0,0,0,.979.175,2.8,2.8,0,0,0,1-5.434Zm-1,4.54a2.145,2.145,0,0,1-.732-.137,1.536,1.536,0,0,1-1.062-1.807,2.2,2.2,0,0,1,2.049-1.842,1.9,1.9,0,0,1,.322.027,1.84,1.84,0,0,1,1.192,1.027,2,2,0,0,1-.172,1.672A1.785,1.785,0,0,1,596.516,2107.68Z" fill="#ffbf3e"/><path d="M570.22,2095.152a.406.406,0,0,0-.434-.407l-1.4.087a.452.452,0,0,0-.427.484.4.4,0,0,0,.4.408l1.431-.088A.453.453,0,0,0,570.22,2095.152Z" fill="#ffbf3e"/><path d="M574.223,2095.079a.4.4,0,0,0-.431-.389l-1.65.146a.468.468,0,0,0-.423.5.386.386,0,0,0,.391.392l1.69-.148A.469.469,0,0,0,574.223,2095.079Z" fill="#ffbf3e"/><path d="M577.684,2095.293a.434.434,0,0,0-.431-.459c-.14,0-.28,0-.42,0q-.327,0-.655.011a.441.441,0,0,0-.43.468.408.408,0,0,0,.417.424h.018c.217-.008.433-.012.65-.012.139,0,.429.005.429.005A.417.417,0,0,0,577.684,2095.293Z" fill="#ffbf3e"/><path d="M581.744,2095.241a.409.409,0,0,0-.435-.414h0c-.433.022-.864.033-1.3.033h-.1a.446.446,0,0,0,0,.891h.1c.435,0,.868-.011,1.3-.032A.449.449,0,0,0,581.744,2095.241Z" fill="#ffbf3e"/><path d="M585.637,2095.4a.47.47,0,0,0-.422-.5c-.45-.042-.908-.063-1.359-.063h-.13a.429.429,0,0,0-.432.451.422.422,0,0,0,.433.44h.129c.447,0,.9.021,1.344.063l.048,0A.381.381,0,0,0,585.637,2095.4Z" fill="#ffbf3e"/><path d="M589.115,2095.752h.02a.407.407,0,0,0,.415-.423.441.441,0,0,0-.429-.469c-.142-.005-.282-.018-.423-.032-.18-.017-.36-.034-.539-.034a2.062,2.062,0,0,0-.488.053.4.4,0,0,0-.318.461.449.449,0,0,0,.436.414.5.5,0,0,0,.114-.014,1.354,1.354,0,0,1,.319-.034,4.251,4.251,0,0,1,.484.039C588.844,2095.73,588.982,2095.747,589.115,2095.752Z" fill="#ffbf3e"/><path d="M591.351,2095.639c.255.006.511.01.767.01q.59,0,1.177-.025a.444.444,0,0,0,.43-.472.411.411,0,0,0-.435-.419h0q-.586.024-1.172.025c-.254,0-.509,0-.778-.011a.412.412,0,0,0-.42.429A.438.438,0,0,0,591.351,2095.639Z" fill="#ffbf3e"/><path d="M595.72,2095.631h0c.147-.006.293-.009.44-.009.349,0,.7.018,1.053.052l.049,0a.381.381,0,0,0,.387-.388.473.473,0,0,0-.422-.506c-.354-.034-.714-.052-1.067-.052-.149,0-.3,0-.446.009a.444.444,0,0,0-.43.471A.412.412,0,0,0,595.72,2095.631Z" fill="#ffbf3e"/><path d="M599.557,2096.907a.4.4,0,0,0,.359.222.491.491,0,0,0,.412-.238.42.42,0,0,0,0-.43,4.857,4.857,0,0,0-.772-1.042.417.417,0,0,0-.3-.134.479.479,0,0,0-.424.3.419.419,0,0,0,.093.468A3.915,3.915,0,0,1,599.557,2096.907Z" fill="#ffbf3e"/><path d="M600.019,2098.34a.445.445,0,0,0-.322.13.406.406,0,0,0-.107.306l.053,1.26a.464.464,0,0,0,.784.3.4.4,0,0,0,.107-.306l-.054-1.261A.444.444,0,0,0,600.019,2098.34Z" fill="#ffbf3e"/><path d="M571.165,2115.836l-1.074-.056a.4.4,0,0,0-.409.414.449.449,0,0,0,.429.478l1.093.057a.4.4,0,0,0,.409-.414A.453.453,0,0,0,571.165,2115.836Z" fill="#ffbf3e"/><path d="M575.256,2115.8l-1.957-.066a.41.41,0,0,0-.417.425.44.44,0,0,0,.43.467l1.957.066a.41.41,0,0,0,.417-.425A.441.441,0,0,0,575.256,2115.8Z" fill="#ffbf3e"/><path d="M579.377,2115.735h-.01a7.746,7.746,0,0,1-.9.053c-.245,0-.49-.012-.786-.038a.379.379,0,0,0-.386.387.472.472,0,0,0,.421.506q.376.036.751.036h0a7.6,7.6,0,0,0,.916-.055.481.481,0,0,0,.418-.519A.382.382,0,0,0,579.377,2115.735Z" fill="#ffbf3e"/><path d="M583.059,2115.684l-1.213.048a.441.441,0,0,0-.429.47.406.406,0,0,0,.414.422l1.233-.048a.444.444,0,0,0,.43-.471A.412.412,0,0,0,583.059,2115.684Z" fill="#ffbf3e"/><path d="M587.134,2115.827l-1.357,0a.446.446,0,0,0,0,.891l1.358,0a.446.446,0,0,0,0-.891Z" fill="#ffbf3e"/><path d="M590.957,2115.736a.484.484,0,0,0-.107.012,5.39,5.39,0,0,1-1.18.128,6.838,6.838,0,0,1-.69-.038.376.376,0,0,0-.381.379.479.479,0,0,0,.42.514,5.927,5.927,0,0,0,.652.035,6.4,6.4,0,0,0,1.409-.157.4.4,0,0,0,.321-.451A.46.46,0,0,0,590.957,2115.736Z" fill="#ffbf3e"/><path d="M594.449,2115.8h0c-.091.008-.181.011-.271.011-.212,0-.423-.018-.635-.036s-.432-.037-.648-.037c-.093,0-.187,0-.282.012a.469.469,0,0,0-.423.5.392.392,0,0,0,.432.389h0c.09-.008.18-.011.269-.011.213,0,.424.018.636.036s.431.037.647.037c.095,0,.189,0,.284-.012a.468.468,0,0,0,.423-.5A.392.392,0,0,0,594.449,2115.8Z" fill="#ffbf3e"/><path d="M597.544,2116.484h.005l.073.071a.409.409,0,0,0,.417-.425.457.457,0,0,0-.495-.467,3.872,3.872,0,0,0-.694.083,3.772,3.772,0,0,1-.667.082v.07h0l-.073-.071a.408.408,0,0,0-.417.425.439.439,0,0,0,.43.466h.064a3.882,3.882,0,0,0,.7-.084,3.738,3.738,0,0,1,.666-.081Z" fill="#ffbf3e"/><path d="M598.982,2116.3h.039a1.834,1.834,0,0,0,1.486-.913.409.409,0,0,0,.01-.425.5.5,0,0,0-.417-.241.412.412,0,0,0-.362.215.913.913,0,0,1-.729.473.458.458,0,0,0-.424.493A.391.391,0,0,0,598.982,2116.3Z" fill="#ffbf3e"/><path d="M600.224,2113.747a.477.477,0,0,0,.486-.42l.114-1.016a.382.382,0,0,0-.087-.306.42.42,0,0,0-.317-.131.479.479,0,0,0-.487.422l-.113,1.014a.38.38,0,0,0,.087.307A.422.422,0,0,0,600.224,2113.747Z" fill="#ffbf3e"/><path d="M602.99,2103.281a2.551,2.551,0,0,1,.208.928c.016.163.032.324.061.476a.382.382,0,0,0,.388.328.511.511,0,0,0,.383-.179.449.449,0,0,0,.092-.374c-.031-.158-.052-.319-.072-.481a2.53,2.53,0,0,0-.489-1.431,2.121,2.121,0,0,0-1.684-.6c-.118,0-.236,0-.351.009a.446.446,0,0,0-.429.475.405.405,0,0,0,.412.416l.081,0c.114,0,.236-.011.359-.011A1.076,1.076,0,0,1,602.99,2103.281Z" fill="#ffbf3e"/><path d="M603.512,2105.572a.436.436,0,0,0-.446.472.426.426,0,0,0,.446.433.47.47,0,0,0,.3-.107.448.448,0,0,0,.141-.365A.425.425,0,0,0,603.512,2105.572Z" fill="#ffbf3e"/><path d="M587.643,2084.122a.432.432,0,0,0-.369-.2.492.492,0,0,0-.424.246.389.389,0,0,0,.027.414q.532.818,1.044,1.648a.421.421,0,0,0,.365.21.491.491,0,0,0,.42-.244.4.4,0,0,0-.017-.42Q588.176,2084.941,587.643,2084.122Z" fill="#ffbf3e"/><path d="M589.215,2082.6a.923.923,0,0,0-.517.167l.041.061h-.124c-.5.433-.525,1.028-.063,1.72.26.388.668.9,1.216.9a.968.968,0,0,0,.455-.121.941.941,0,0,0,.495-.591,1.6,1.6,0,0,0-.256-1.208C590.291,2083.252,589.827,2082.6,589.215,2082.6Zm-.022,1.283c-.122-.247-.122-.258-.02-.357a.142.142,0,0,1,.065-.016c.169,0,.357.312.468.5a1.1,1.1,0,0,1,.163.35.157.157,0,0,1-.087.186.255.255,0,0,1-.138-.054A1.823,1.823,0,0,1,589.193,2083.881Z" fill="#ffbf3e"/><path d="M590.656,2081.667c-.5.433-.526,1.028-.063,1.719.26.388.668.906,1.216.906a.962.962,0,0,0,.455-.122.939.939,0,0,0,.495-.59,1.6,1.6,0,0,0-.257-1.209c-.171-.281-.634-.935-1.247-.935a.922.922,0,0,0-.517.167Zm.558.7a.141.141,0,0,1,.064-.016c.169,0,.359.314.467.5a1.079,1.079,0,0,1,.164.352.157.157,0,0,1-.087.186.246.246,0,0,1-.137-.054,1.814,1.814,0,0,1-.451-.606C591.112,2082.472,591.112,2082.462,591.214,2082.362Z" fill="#ffbf3e"/><circle cx="19.32" cy="19.32" r="19.32" transform="translate(578.33 2090.601)" fill="#fffdc9" opacity="0.396"/></g></svg>