<svg xmlns="http://www.w3.org/2000/svg" width="105.369" height="88.379" viewBox="0 0 105.369 88.379">
  <g id="Group_439" data-name="Group 439" transform="translate(-1058.923 -4262.313)">
    <g id="Group_423" data-name="Group 423" transform="translate(0 10)">
      <g id="Group_329" data-name="Group 329" transform="translate(1058.923 4252.313)">
        <g id="Group_328" data-name="Group 328" transform="translate(0 11.254)">
          <path id="Path_501" data-name="Path 501" d="M3388.1,3217.957c-.426-1.455-2.594-2.526-4.336-3.386-.581-.288-1.108-.548-1.495-.786q-4.646-2.871-9.31-5.707c-4.584-2.778-9.326-5.429-13.91-7.991q-2.483-1.385-4.961-2.783l-.721-.417a7.856,7.856,0,0,0-3.95-1.473,4.328,4.328,0,0,0-1.006.12,31.342,31.342,0,0,0-7.945,3.656c-.954.547-1.884,1.079-2.778,1.545-6.94,3.617-14.391,7.9-22.779,13.086l-.57.339c-1.522.9-3.606,2.123-3.427,4.071.229,2.452,3.372,2.64,4.726,2.721l1.3-.018-.01.28c-.075,1.5-.158,3.185,1.458,3.873.013,3.283.073,6.565.132,9.848.072,3.939.147,8.012.126,11.9a1.545,1.545,0,0,0-.189.055c-1.3.489-1.46,1.421-1.531,2.591-.145,2.46-.093,4.993-.04,7.441.016.733.033,1.466.045,2.2,0,0-.22.04-.3.062-2.595.7-2.51,2.763-2.421,4.952l.015.384a6.322,6.322,0,0,0-1.041.329,2.789,2.789,0,0,0-1.458,1.8,6.289,6.289,0,0,0,.284,4.56c.655,1.133,2.136,1.191,3.327,1.24l.483.021c.886.052,1.779.072,2.674.072,1.308,0,2.621-.042,3.931-.083,1.149-.036,2.3-.072,3.433-.08,2.222-.015,4.452-.057,6.684-.1,2.79-.052,5.586-.1,8.376-.1,3.241,0,6.061.074,8.63.226q4.92.008,9.843.034,5.991.028,11.983.035,5.873,0,11.74-.068a4.612,4.612,0,0,0,3.859-1.676,4.477,4.477,0,0,0,.3-4.124,3.154,3.154,0,0,0-2.408-2.055c0-.273,0-.554.005-.837.024-1.647.049-3.351-1.474-4.211a4.416,4.416,0,0,0-1.221-.433c0-.879.017-1.761.029-2.644.032-2.3.066-4.678-.055-7.006a2.838,2.838,0,0,0-1.447-2.71c-.143-5.132-.239-10.265-.335-15.4l-.123-6.429a2.658,2.658,0,0,0,1.146-.651,4.021,4.021,0,0,0,.621-2.9c0-.167-.01-.329-.01-.484.553.022,1.12.043,1.676.043a9.683,9.683,0,0,0,2.583-.271,2.793,2.793,0,0,0,1.734-1.166A1.888,1.888,0,0,0,3388.1,3217.957Zm-4.312.945a5.555,5.555,0,0,1-2.02.291c-.722,0-1.483-.064-2.2-.123-.642-.055-1.25-.106-1.768-.106-3.536-.011-7.071-.089-10.6-.169-3.588-.079-7.3-.162-10.95-.168h-1.182c-6.211,0-12.524.1-18.631.189l-20.785.311-.258-.015c-.838-.046-1.789-.1-1.988-.561-.188-.437.235-1.265,1.255-2.461a4.262,4.262,0,0,1,1.2-.754c.216-.106.417-.207.572-.3l4.041-2.418c2.844-1.7,5.69-3.389,8.561-5.041,5.433-3.126,10.808-5.978,15.978-8.479.362-.175.738-.385,1.124-.6a7.585,7.585,0,0,1,3.447-1.28,2.835,2.835,0,0,1,.553.054,7.9,7.9,0,0,1,2.5,1.247c.348.224.686.443,1.009.623,1.11.619,2.238,1.208,3.367,1.795,1.389.723,2.829,1.473,4.207,2.272,5.609,3.259,11.14,6.625,15.811,9.49q3.075,1.883,6.141,3.785l.26.159c.773.473,1.572.964,1.536,1.384C3384.933,3218.305,3384.527,3218.606,3383.785,3218.9Zm-.761,45.4c-.168-.006-.337-.009-.505-.009-.888,0-1.78.072-2.644.14-.727.059-1.406.113-1.981.113l-.274-.005c-2.128-.078-4.427-.115-7.027-.115-2.8,0-5.592.041-8.385.085-2.325.036-4.648.072-6.967.082l-1.117,0c-3.268,0-6.535-.064-9.8-.126s-6.531-.127-9.8-.127l-1.591.006c-1.574.007-3.148.017-4.72.017-1.845,0-3.691-.011-5.541-.049-.487-.01-1.031-.034-1.615-.059-.927-.04-1.948-.083-2.967-.083-.767,0-1.439.025-2.047.076-.024-2.019.341-2.943,2.441-3.369a11.429,11.429,0,0,1,2.275-.178c.417,0,.838.011,1.25.021s.8.019,1.185.019c.18,0,.356,0,.527-.008,1.3-.038,2.591-.053,3.888-.053,2.25,0,4.5.043,6.746.089l3.638.072c6.277.127,12.768.256,19.157.3l.912,0c2.411,0,4.817-.059,7.224-.116,2.056-.049,4.115-.1,6.175-.112h.4c.849,0,1.7.015,2.545.032s1.7.031,2.55.031h.183c.422,0,.931-.05,1.465-.1.59-.057,1.216-.116,1.791-.116a4.306,4.306,0,0,1,1.212.14c1.407.426,1.411,1.843,1.413,3.213Zm-23.326,6.353c-3.388-.038-6.773-.075-10.147-.08-1.809-.107-3.782-.161-6.031-.161-2.06,0-4.118.042-6.179.085s-4.118.083-6.183.083q-1.156,0-2.312-.018-2.045-.038-4.1-.038-3.022,0-6.04.093c-.351.011-.7.032-1.04.052-.458.029-.9.057-1.325.057-1.525,0-2.587-.376-2.83-2.236-.193-1.479-.219-1.67,1.369-2.019a20.352,20.352,0,0,1,3.946-.312l.962-.017c.638-.019,1.279-.025,1.916-.025,1.254,0,2.509.027,3.763.053s2.515.053,3.772.053c.365,0,.731,0,1.1-.008q1.154-.016,2.308-.015c2.823,0,5.644.064,8.466.131s5.646.13,8.472.13q1.119,0,2.238-.015c6.552-.09,13.533-.138,21.971-.149,0,0,6.483.025,7.7.025l1.515,0a3.1,3.1,0,0,1,2.278.595,2.031,2.031,0,0,1,.362,1.621c-.168,1.759-1.235,1.927-2.971,1.993-3.62.138-7.451.2-12.059.2C3366.978,3270.738,3363.337,3270.7,3359.7,3270.656Zm-41-19.549c-.064-1.01-.13-2.053.761-2.522a2.333,2.333,0,0,1,.993-.146c.276,0,.562.015.825.029.208.012.4.021.659.021h.083c1.057-.044,2.112-.085,3.168-.1.35-.008.852-.07,1.408-.141a19.293,19.293,0,0,1,2.258-.2,2.909,2.909,0,0,1,1.1.159c.945.413.86,1.806.79,2.928-.017.277-.034.534-.032.755.01,1.731.006,3.463,0,5.2l0,1.814-1.892-.023c-.952-.006-1.992-.051-3.072-.1-1.267-.057-2.587-.114-3.885-.114a27.927,27.927,0,0,0-3.117.15c-.024-2.229-.021-4.459-.015-6.688v-.282C3318.734,3251.609,3318.717,3251.36,3318.7,3251.107Zm13.673-29.779c0-.209-.009-.409-.009-.6q4.7-.056,9.4-.091c-.006.188-.015.381-.024.578-.074,1.515-.158,3.229,1.458,3.884.013,3.28.072,6.561.133,9.843.07,3.936.146,8.008.125,11.9a1.607,1.607,0,0,0-.192.055c-1.3.489-1.458,1.421-1.529,2.591-.147,2.465-.092,5-.04,7.457q.023,1.068.042,2.13-4.6-.093-9.193-.152c0-.832.016-1.664.027-2.5.032-2.3.064-4.678-.055-7.006a2.838,2.838,0,0,0-1.446-2.71c-.144-5.145-.241-10.289-.335-15.434l-.123-6.392a2.683,2.683,0,0,0,1.146-.651A4.012,4.012,0,0,0,3332.375,3221.328Zm24.813,0c-.007-.255-.013-.5-.007-.733,3.024.008,6.052.04,9.08.074l.312,0c-.006.178-.013.361-.022.548-.074,1.5-.155,3.184,1.456,3.87.014,3.283.074,6.565.133,9.846.073,3.938.146,8.014.131,11.9a2,2,0,0,0-.2.056c-1.3.489-1.458,1.421-1.529,2.591-.147,2.464-.092,5-.04,7.453.015.731.031,1.461.053,2.249l-1.248.027c-2.4.053-4.806.106-7.209.106l-.754,0c0-.973.017-1.948.031-2.926.032-2.289.066-4.658-.054-6.976a2.84,2.84,0,0,0-1.446-2.71c-.144-5.105-.238-10.214-.335-15.321l-.125-6.506a2.657,2.657,0,0,0,1.148-.651A4.04,4.04,0,0,0,3357.188,3221.323Zm-13.673,29.786c-.063-1.009-.133-2.054.761-2.524a2.328,2.328,0,0,1,.992-.146c.275,0,.562.015.825.029.207.012.4.021.659.021h.083c1.057-.044,2.112-.085,3.169-.1.35-.008.852-.07,1.409-.141a19.239,19.239,0,0,1,2.257-.2,2.908,2.908,0,0,1,1.1.159c.945.413.858,1.809.79,2.928-.017.277-.034.534-.033.755.009,1.806,0,3.615,0,5.421l-.006,1.988c-3.988-.037-7.976-.112-11.964-.191-.028-2.131-.022-4.262-.017-6.395l0-.871C3343.545,3251.611,3343.531,3251.363,3343.515,3251.109Zm10.524-4.726c-.5,0-1.04.04-1.59.08-.521.038-1.052.076-1.581.083l-.231,0c-.537,0-1.136-.025-1.763-.049-.689-.029-1.413-.059-2.126-.059-.5,0-.991.015-1.462.053,0-3.86-.067-7.782-.134-11.577-.055-3.146-.112-6.291-.129-9.438.418.038.856.053,1.3.053,1,0,2.051-.078,2.982-.145.625-.047,1.214-.091,1.729-.106l.68-.012c.561-.007,1.224-.013,1.886-.066l.114,5.98c.1,5.067.191,10.133.331,15.2Zm.638-23.285a5.647,5.647,0,0,1-2.507.4c-.4,0-.788-.011-1.148-.023-.3-.009-.586-.016-.825-.016l-1.137.011c-.676.01-1.352.017-2.028.017-.364,0-.729,0-1.092-.007-1.049-.019-1.632-.167-1.95-.5-.392-.4-.423-1.147-.411-2.362q4.672-.032,9.348-.029l2.428,0c0,.129,0,.261,0,.4C3355.355,3221.826,3355.357,3222.687,3354.677,3223.1Zm-34.468,2.38c.418.038.856.053,1.3.053,1,0,2.053-.078,2.984-.145.625-.047,1.212-.091,1.726-.106l.682-.012c.561-.007,1.224-.013,1.884-.066l.115,6.018c.1,5.054.189,10.108.329,15.162h-.006c-.5,0-1.039.04-1.592.08-.52.038-1.051.076-1.581.083l-.231,0c-.537,0-1.136-.025-1.76-.049-.691-.029-1.415-.059-2.129-.059-.5,0-.988.015-1.46.053,0-3.867-.066-7.8-.134-11.6C3320.283,3231.757,3320.227,3228.617,3320.209,3225.478Zm49.626,0c.416.038.854.053,1.3.053,1,0,2.053-.078,2.984-.145.625-.047,1.214-.091,1.727-.106l.682-.012c.561-.007,1.223-.013,1.885-.066l.117,6.014c.093,5.056.19,10.112.328,15.166h-.006c-.5,0-1.041.04-1.592.08-.519.038-1.051.076-1.581.083l-.231,0c-.538,0-1.136-.022-1.763-.049-.689-.029-1.412-.058-2.126-.058-.5,0-.989.013-1.46.051,0-3.867-.067-7.8-.134-11.6C3369.907,3231.757,3369.853,3228.617,3369.835,3225.478Zm-39.294-4.734v.242c0,.835.005,1.7-.674,2.111a5.652,5.652,0,0,1-2.507.4c-.4,0-.79-.011-1.15-.023-.3-.009-.586-.016-.825-.016l-1.137.011c-.674.01-1.35.017-2.026.017-.365,0-.729,0-1.094-.007-2.223-.038-2.372-.654-2.354-2.572Q3324.659,3220.822,3330.541,3220.744Zm49.832,30.388c-.017.277-.032.534-.032.755.01,1.731,0,3.463,0,5.194l0,1.774c-.118,0-.236,0-.356,0-.947,0-1.924.078-2.867.154-.835.066-1.626.129-2.308.129l-.186,0q-1.139-.019-2.278-.019c-1.323,0-2.645.018-3.969.041-.029-2.174-.023-4.349-.019-6.526l0-.786c0-.233-.015-.481-.032-.735-.065-1.01-.131-2.053.763-2.522a2.32,2.32,0,0,1,.991-.146c.274,0,.563.015.825.029.209.012.4.021.661.021h.084c1.055-.044,2.109-.085,3.166-.1.35-.008.852-.07,1.411-.141a19.248,19.248,0,0,1,2.255-.2,2.894,2.894,0,0,1,1.1.159C3380.528,3248.617,3380.443,3250.013,3380.373,3251.132Zm-.21-30.146c0,.835.007,1.7-.672,2.111a5.651,5.651,0,0,1-2.508.4c-.4,0-.789-.011-1.148-.023-.306-.009-.587-.016-.827-.016l-1.134.011c-.676.01-1.352.017-2.028.017-.365,0-.729,0-1.092-.007-1.176-.021-1.773-.205-2.063-.635a4.083,4.083,0,0,1-.292-2.157l1.819.016c1.009.009,2.02.017,3.029.035,1.793.031,3.586.053,5.38.053l1.536,0Z" transform="translate(-3310.898 -3195.414)" fill="#fff"/>
          <path id="Path_502" data-name="Path 502" d="M3338.693,3198.845a9.356,9.356,0,0,0-3.543-.681c-3.215,0-6.953,1.647-8.051,5.33a8.21,8.21,0,0,0,5.773,10.426,12.753,12.753,0,0,0,2.73.3c3.97,0,6.944-1.92,7.957-5.139A8.348,8.348,0,0,0,3338.693,3198.845Zm-5.338,13.313a6.464,6.464,0,0,1-4.685-7.239c.326-3.372,3.575-4.908,6.455-4.908a7.616,7.616,0,0,1,3.668.895,6.456,6.456,0,0,1,3.011,7.674c-.826,2.436-3.068,3.833-6.152,3.833A10.777,10.777,0,0,1,3333.355,3212.159Z" transform="translate(-3296.759 -3192.957)" fill="#fff"/>
          <path id="Path_503" data-name="Path 503" d="M3323.214,3203.319a.894.894,0,0,0-.466.14c-2.556,1.578-5.1,3.227-7.576,4.9a.951.951,0,0,0,.457,1.723.853.853,0,0,0,.483-.159c2.482-1.685,5.027-3.333,7.564-4.9a.867.867,0,0,0,.394-1.011A.923.923,0,0,0,3323.214,3203.319Z" transform="translate(-3307.443 -3188.351)" fill="#fff"/>
          <path id="Path_504" data-name="Path 504" d="M3321.129,3202.34a.852.852,0,0,0-.667.289.958.958,0,0,0-.219.623.871.871,0,0,0,.886.912.853.853,0,0,0,.667-.292.95.95,0,0,0,.22-.622A.871.871,0,0,0,3321.129,3202.34Z" transform="translate(-3302.547 -3189.225)" fill="#fff"/>
        </g>
        <circle id="Ellipse_101" data-name="Ellipse 101" cx="36.584" cy="36.584" r="36.584" transform="translate(32.2)" fill="#fff" opacity="0.15"/>
      </g>
    </g>
  </g>
</svg>
