<svg xmlns="http://www.w3.org/2000/svg" width="12.301" height="12.255" viewBox="0 0 12.301 12.255"><defs><style>.a{fill:#fff;}</style></defs><g transform="translate(-751.851 -353.194)"><path class="a" d="M751.851,356.223v6.151c0,2.019,3.094,3.075,6.15,3.075s6.151-1.056,6.151-3.075v-6.151C764.152,352.184,751.851,352.184,751.851,356.223Zm10.763,3.075c0,.542-1.752,1.538-4.613,1.538s-4.613-1-4.613-1.538v-1a11.181,11.181,0,0,0,9.226,0ZM758,354.686c2.861,0,4.613.995,4.613,1.537s-1.752,1.538-4.613,1.538-4.613-1-4.613-1.538S755.14,354.686,758,354.686Zm0,9.225c-2.861,0-4.613-1-4.613-1.537v-1a11.181,11.181,0,0,0,9.226,0v1C762.614,362.916,760.862,363.911,758,363.911Z"/></g></svg>