<svg xmlns="http://www.w3.org/2000/svg" xmlns:xlink="http://www.w3.org/1999/xlink" width="29.036" height="29.036" viewBox="0 0 29.036 29.036">
  <defs>
    <linearGradient id="linear-gradient" y1="0.5" x2="1" y2="0.5" gradientUnits="objectBoundingBox">
      <stop offset="0" stop-color="#04e5ff"/>
      <stop offset="0.72" stop-color="#367bff"/>
    </linearGradient>
  </defs>
  <g id="Group_418" data-name="Group 418" transform="translate(-770.391 -500.592)">
    <circle id="Ellipse_72" data-name="Ellipse 72" cx="14.518" cy="14.518" r="14.518" transform="translate(770.391 500.592)" fill="#f3faff"/>
    <g id="Group_280" data-name="Group 280">
      <path id="Path_344" data-name="Path 344" d="M791.441,510.807h-4.3a1.076,1.076,0,1,0,0,2.152h1.706l-3.859,3.859-3.543-3.543a1.075,1.075,0,0,0-1.522,0l-4.3,4.3a1.076,1.076,0,0,0,1.521,1.522l3.544-3.544,3.544,3.544a1.076,1.076,0,0,0,1.521,0l4.62-4.62v1.707a1.076,1.076,0,0,0,2.152,0v-4.3A1.075,1.075,0,0,0,791.441,510.807Z" fill="url(#linear-gradient)"/>
    </g>
  </g>
</svg>
