<svg xmlns="http://www.w3.org/2000/svg" width="56" height="56" viewBox="0 0 56 56">
  <g id="Group_86" data-name="Group 86" transform="translate(-688 -409)">
    <circle id="Ellipse_30" data-name="Ellipse 30" cx="28" cy="28" r="28" transform="translate(688 409)" fill="#319efe" opacity="0.33"/>
    <circle id="Ellipse_31" data-name="Ellipse 31" cx="23" cy="23" r="23" transform="translate(693 414)" fill="#00a8ff" opacity="0.2"/>
    <g id="Group_4" data-name="Group 4" transform="translate(705.558 429.908)">
      <g id="Group_3" data-name="Group 3" transform="translate(0)">
        <path id="Path_3" data-name="Path 3" d="M28.585,188.216a.411.411,0,0,0,.289.4v-.781l-.034.015A.4.4,0,0,0,28.585,188.216Z" transform="translate(-12.494 -177.213)" fill="#0090ff"/>
        <path id="Path_4" data-name="Path 4" d="M29.227,189.824a.806.806,0,0,0,.1-.053.534.534,0,0,0,.259-.469.446.446,0,0,0-.357-.441Z" transform="translate(-11.931 -176.311)" fill="#0090ff"/>
        <path id="Path_5" data-name="Path 5" d="M34.909,182.348l-.062-.026-.024-.011a2.031,2.031,0,0,0-1.162-.09l-.026.006-.039.011c-3.654.991-8.513,2.307-10.9,2.935l-.054.017-.161.064a9.181,9.181,0,0,1-2.006.37.451.451,0,0,0-.45.45v.328a.426.426,0,0,0-.006.084l.006,4.14a.453.453,0,0,0,.443.529,4.842,4.842,0,0,1,3.063,1.44c.212.167.424.336.646.5a5.872,5.872,0,0,0,3.649,1.346c.687,0,1.244-.008,1.685-.021H31.44a5.283,5.283,0,1,0,10.551-.137,5.8,5.8,0,0,0-.267-1.744l.051.021a1.936,1.936,0,0,0,.248.058,1.576,1.576,0,0,0,.6-.011,1.967,1.967,0,0,0,1.725-2,2.046,2.046,0,0,0-.55-1.4l-.023-.024a1.955,1.955,0,0,0-.434-.34l-8.307-6.422A.465.465,0,0,0,34.909,182.348Zm1.8,16.944a4.837,4.837,0,0,1-4.664-4.666H33.2a1.556,1.556,0,0,0,1.453-1.066,1.532,1.532,0,0,0,.242.527,1.971,1.971,0,0,0,1.194.762v.317a2.158,2.158,0,0,1-.171-.175.531.531,0,0,0-.428-.214.652.652,0,0,0-.259.071l-.032.017-.447.28h0a.509.509,0,0,0-.141.756,2.619,2.619,0,0,0,.518.55,2.57,2.57,0,0,0,.961.5v.193a.547.547,0,0,0,.539.554h.437a.548.548,0,0,0,.539-.554v-.191a2.362,2.362,0,0,0,.79-.353,1.708,1.708,0,0,0,.754-1.43,1.53,1.53,0,0,0-.312-.995,2.094,2.094,0,0,0-1.233-.724v-.077a.6.6,0,0,0,.2.034.573.573,0,0,0,.3-.081l.024-.017.492-.328a.5.5,0,0,0,.094-.771,2.235,2.235,0,0,0-1.107-.726v-.259a.548.548,0,0,0-.539-.556h-.437a.547.547,0,0,0-.539.556v.236a2.21,2.21,0,0,0-.447.161,1.741,1.741,0,0,0-.944.968,1.63,1.63,0,0,0-.831-1.062,1.483,1.483,0,0,0-.666-.161h-.287a4.6,4.6,0,0,1,3.795-2.093c.069,0,.137.006.2.011l3.607,2.492.381.293a5.231,5.231,0,0,1,.486,2.213A4.857,4.857,0,0,1,36.712,199.292Zm1.779-6.882a.2.2,0,0,1,.064.15.2.2,0,0,1-.1.171l-.492.328,0,0a.376.376,0,0,1-.148.045.294.294,0,0,1-.2-.079,1.236,1.236,0,0,0-.3-.208v.88a1.922,1.922,0,0,1,1.3.659,1.241,1.241,0,0,1,.248.805,1.409,1.409,0,0,1-.629,1.19,2.19,2.19,0,0,1-.916.357v.434a.246.246,0,0,1-.238.253h-.437a.246.246,0,0,1-.24-.253v-.434a2.446,2.446,0,0,1-1.537-.985.213.213,0,0,1,.06-.325l.447-.278,0,0a.46.46,0,0,1,.131-.039.227.227,0,0,1,.193.1,1.763,1.763,0,0,0,.7.522v-1.1a1.785,1.785,0,0,1-1.246-.691,1.3,1.3,0,0,1-.236-.741,1.347,1.347,0,0,1,.869-1.284,2.113,2.113,0,0,1,.614-.184v-.482a.248.248,0,0,1,.24-.255h.437a.248.248,0,0,1,.238.255v.5A1.953,1.953,0,0,1,38.492,192.41Zm-6.368-.886a.406.406,0,0,0-.021.051H29.757a.989.989,0,0,1-.743-.993,1.028,1.028,0,0,1,.445-.86c.139-.041.452-.129.863-.246l.321-.09c.4-.1.813-.22,1.22-.343l.081-.024c1.755-.5,2.873-.807,3.172-.884a1.486,1.486,0,0,1,.25.009l.813.563A5.288,5.288,0,0,0,32.124,191.524Zm10.7-1.952a.623.623,0,0,0,.058.039,1,1,0,0,1,.246.19l.011.011a1.147,1.147,0,0,1,.313.794,1.071,1.071,0,0,1-.935,1.107l-.058.009a.7.7,0,0,1-.291.008.871.871,0,0,1-.114-.026.893.893,0,0,1-.143-.064.561.561,0,0,1-.084-.051l-.021-.015-.891-.687-.019-.013L35.8,187.354a.43.43,0,0,0-.143-.066,2.017,2.017,0,0,0-.638-.051.4.4,0,0,0-.083.013c-.295.073-1.924.531-3.241.9l-.09.026q-.605.186-1.2.338l-.33.094-.927.263a.459.459,0,0,0-.105.043,1.933,1.933,0,0,0-.933,1.665,1.879,1.879,0,0,0,1.524,1.884.346.346,0,0,0,.077.007h3.234a.527.527,0,0,1,0,1.045H29.488c-.445.013-.993.021-1.67.021a4.979,4.979,0,0,1-3.112-1.167c-.212-.158-.419-.321-.623-.482a6.159,6.159,0,0,0-3.164-1.608v-3.247l-.006-.48c0-.019,0-.039.006-.06a12.853,12.853,0,0,0,1.815-.377l.049-.017.163-.064c2.4-.631,7.243-1.941,10.886-2.93l.026-.007a1.119,1.119,0,0,1,.646.054l.036.017,7.933,6.13Z" transform="translate(-20.011 -182.174)" fill="#0090ff"/>
      </g>
    </g>
  </g>
</svg>
