<svg xmlns="http://www.w3.org/2000/svg" width="8.66" height="11.149" viewBox="0 0 8.66 11.149"><defs><style>.a{fill:#e5e5e5;}</style></defs><g transform="translate(-21.945 -285.738)"><path class="a" d="M23.326,296.887h5.9a1.383,1.383,0,0,0,1.381-1.381v-3.777a1.382,1.382,0,0,0-1.2-1.368v-1.493a3.13,3.13,0,1,0-6.26,0v1.493a1.382,1.382,0,0,0-1.2,1.368v3.777A1.383,1.383,0,0,0,23.326,296.887Zm-.865-5.158a.866.866,0,0,1,.865-.865h5.9a.866.866,0,0,1,.865.865v3.777a.866.866,0,0,1-.865.865h-5.9a.866.866,0,0,1-.865-.865Zm3.814-5.475a2.617,2.617,0,0,1,2.614,2.614v1.479h-.413v-1.479a2.2,2.2,0,1,0-4.4,0v1.479h-.413v-1.479A2.617,2.617,0,0,1,26.275,286.254Zm1.686,4.093H24.59v-1.479a1.686,1.686,0,0,1,3.371,0Z"/><path class="a" d="M25.76,295.017h1.03a.206.206,0,0,0,.206-.206v-2.387a.207.207,0,0,0-.206-.207H25.76a.207.207,0,0,0-.206.207v2.387A.206.206,0,0,0,25.76,295.017Zm.206-2.387h.618V294.6h-.618Z"/></g></svg>