<svg xmlns="http://www.w3.org/2000/svg" xmlns:xlink="http://www.w3.org/1999/xlink" width="270.817" height="75" viewBox="0 0 270.817 75">
  <defs>
    <linearGradient id="linear-gradient" x1="0.5" x2="0.5" y2="1" gradientUnits="objectBoundingBox">
      <stop offset="0" stop-color="#103366"/>
      <stop offset="1" stop-color="#002251"/>
    </linearGradient>
    <linearGradient id="linear-gradient-2" y1="0.5" x2="1" y2="0.5" gradientUnits="objectBoundingBox">
      <stop offset="0.005" stop-color="#ffe403"/>
      <stop offset="1" stop-color="#ffe53f"/>
    </linearGradient>
    <linearGradient id="linear-gradient-4" y1="0.5" x2="1" y2="0.5" gradientUnits="objectBoundingBox">
      <stop offset="0.005" stop-color="#ffe403"/>
      <stop offset="1" stop-color="#ffdb24"/>
    </linearGradient>
  </defs>
  <g id="Group_526" data-name="Group 526" transform="translate(-299 -79)">
    <circle id="Ellipse_141" data-name="Ellipse 141" cx="37.5" cy="37.5" r="37.5" transform="translate(299 79)" fill="url(#linear-gradient)"/>
    <text id="Backup_Cash" data-name="Backup Cash" transform="translate(382.817 132.371)" fill="#072a5b" font-size="33" font-family="Quicksand-Bold, Quicksand" font-weight="700" letter-spacing="-0.05em"><tspan x="0" y="0">Backup Cash</tspan></text>
    <g id="Group_518" data-name="Group 518" transform="translate(3.581 4.722)">
      <g id="Group_400" data-name="Group 400" transform="translate(320.547 87.632)">
        <g id="Group_399" data-name="Group 399">
          <path id="Path_623" data-name="Path 623" d="M2939.354,1015.368l-13.021-1.373a1.729,1.729,0,0,1-1.494-2.336l6.461-19.333a1.786,1.786,0,0,1,1.957-1.044l7.318,1c6.682.911,11.817,6.4,11.555,12.882h0C2951.882,1011.255,2946.2,1016.089,2939.354,1015.368Zm-8.657-4.274,9.1,1c4.92.541,9.11-2.861,9.4-7.285h0c.333-5.1-3.667-9.484-8.977-10.193l-4.847-.646a1.776,1.776,0,0,0-1.962,1.1l-4.22,13.794A1.709,1.709,0,0,0,2930.7,1011.094Z" transform="translate(-2924.386 -991.033)" fill="url(#linear-gradient-2)"/>
          <path id="Path_624" data-name="Path 624" d="M2939.438,1015.788l-13.057-1.372a2.067,2.067,0,0,1-1.562-.933,2.1,2.1,0,0,1-.182-1.8l6.514-19.326a2.1,2.1,0,0,1,2.284-1.215l7.3,1c6.8.932,12.061,6.538,11.81,13.146C2952.31,1011.533,2946.473,1016.525,2939.438,1015.788Zm-6.1-24.193a1.494,1.494,0,0,0-1.626.873L2925.3,1011.8a1.437,1.437,0,0,0,1.24,1.938l12.988,1.377c6.641.7,12.184-3.992,12.438-9.905.272-6.334-4.761-11.728-11.3-12.619Zm6.549,20.9-9.123-1a2.1,2.1,0,0,1-1.533-.9,2,2,0,0,1-.228-1.71l4.257-13.791a2.085,2.085,0,0,1,2.291-1.283l4.837.647c5.44.726,9.561,5.237,9.234,10.464C2949.331,1009.509,2944.982,1013.055,2939.882,1012.5Zm-4.43-18.2a1.486,1.486,0,0,0-1.632.922l-4.182,13.8a1.386,1.386,0,0,0,.17,1.212,1.468,1.468,0,0,0,1.083.633l9.076,1c4.723.522,8.773-2.75,9.062-7,.335-4.945-3.56-9.231-8.72-9.918Z" transform="translate(-2924.514 -991.118)" fill="url(#linear-gradient-2)"/>
        </g>
      </g>
      <g id="Group_402" data-name="Group 402" transform="translate(343.309 110.241)">
        <g id="Group_401" data-name="Group 401">
          <path id="Path_625" data-name="Path 625" d="M2946.922,1011.807l-2.665-3.5-4.081,2.673-1.133-1.887,5.571-3.552,3.841,4.954Z" transform="translate(-2938.817 -1005.329)" fill="url(#linear-gradient-4)"/>
          <path id="Path_626" data-name="Path 626" d="M2946.989,1012.126l-2.677-3.521-4.1,2.693-1.312-2.187.138-.089,5.687-3.617.092.119,3.946,5.082Zm-2.618-3.964.094.124,2.556,3.353,1.293-1.1-3.645-4.7-5.315,3.4.953,1.587Z" transform="translate(-2938.899 -1005.406)" fill="url(#linear-gradient-4)"/>
        </g>
      </g>
      <path id="Path_627" data-name="Path 627" d="M2929.912,1003.485s-1.626,3.973,0,4.144-4.676-.354-4.676-.354" transform="translate(-2603.547 -896.284)" fill="#131414" opacity="0.15"/>
      <g id="Group_404" data-name="Group 404" transform="translate(316.767 100.333)">
        <g id="Group_403" data-name="Group 403" transform="translate(0)">
          <path id="Path_628" data-name="Path 628" d="M2936.365,1033.843l-2.017-.15a12.64,12.64,0,0,1-10.239-6.649,15.254,15.254,0,0,1-.8-12.362l1.721-4.847a15.542,15.542,0,0,1,16.139-10.412l4.285.516-.31,2.873-4.391-.511a11.833,11.833,0,0,0-12.351,8.211l-2.148,6.571a4.111,4.111,0,0,0-.216,1.354c.165,6.161,3.872,10.307,9.019,10.719l1.956.157c7.8.625,15.189-5.775,15.521-13.5l2.059.206C2954.316,1025.941,2946.525,1034.595,2936.365,1033.843Z" transform="translate(-2921.982 -999.04)" fill="#ffe403"/>
          <path id="Path_629" data-name="Path 629" d="M2936.443,1034.415l-2.024-.149a12.976,12.976,0,0,1-10.526-6.847,15.652,15.652,0,0,1-.791-12.7l1.735-4.847a15.844,15.844,0,0,1,16.519-10.624l4.571.554-.364,3.446-4.708-.547a11.417,11.417,0,0,0-11.975,7.984l-2.128,6.571a3.729,3.729,0,0,0-.191,1.217c.169,5.728,3.612,9.94,8.71,10.352l1.95.157c7.78.628,14.8-5.855,15.13-13.1l.016-.351,2.706.272-.008.351C2954.8,1026.488,2946.715,1035.168,2936.443,1034.415Zm4.83-34.607a15.1,15.1,0,0,0-15.761,10.2l-1.707,4.845a14.847,14.847,0,0,0,.807,12.026,12.311,12.311,0,0,0,9.953,6.456l2.011.15c9.658.722,17.348-7.321,17.822-17.041l-1.407-.141a15.159,15.159,0,0,1-15.894,13.556l-1.962-.156c-5.491-.437-9.184-4.958-9.331-11.091a4.515,4.515,0,0,1,.239-1.491l2.166-6.57a12.15,12.15,0,0,1,12.733-8.437l4.072.477.255-2.3Z" transform="translate(-2922.125 -999.145)" fill="#ffe403"/>
        </g>
      </g>
    </g>
  </g>
</svg>
