<svg xmlns="http://www.w3.org/2000/svg" width="18" height="18" viewBox="0 0 18 18">
  <g id="Group_658" data-name="Group 658" transform="translate(-635.136 -205.032)">
    <circle id="Ellipse_9" data-name="Ellipse 9" cx="9" cy="9" r="9" transform="translate(635.136 205.032)" fill="#f9f9f9" opacity="0.5"/>
    <path id="Path_28" data-name="Path 28" d="M4794.4,211.331a1.335,1.335,0,0,0-1.888,0l-3.775,3.775a.448.448,0,0,0-.13.315v1.258a.445.445,0,0,0,.445.445h1.258a.449.449,0,0,0,.315-.13l3.776-3.775A1.338,1.338,0,0,0,4794.4,211.331Zm-.629.63a.446.446,0,0,1,0,.629l-.314.314-.63-.629.315-.314A.444.444,0,0,1,4793.77,211.961Zm-3.645,4.273h-.63V215.6l2.7-2.7.629.629Z" transform="translate(-4147.271)" fill="#f9f9f9"/>
  </g>
</svg>
