<svg xmlns="http://www.w3.org/2000/svg" width="7.056" height="8.109" viewBox="0 0 7.056 8.109">
  <g id="Group_18" data-name="Group 18" transform="translate(-4661.293 -206.886)">
    <path id="Path_29" data-name="Path 29" d="M4663.36,214.995a1.619,1.619,0,0,1-1.145-2.764l2.29-2.29a.54.54,0,1,1,.763.764l-2.29,2.29a.54.54,0,0,0,.763.763l3.054-3.053a1.62,1.62,0,0,0,0-2.29,1.657,1.657,0,0,0-2.29,0l-2.29,2.29a.54.54,0,0,1-.764-.764l2.29-2.29a2.763,2.763,0,0,1,3.817,0,2.7,2.7,0,0,1,0,3.817l-3.053,3.053A1.613,1.613,0,0,1,4663.36,214.995Z" fill="#666"/>
  </g>
</svg>
