<svg xmlns="http://www.w3.org/2000/svg" width="157.835" height="166.042" viewBox="0 0 157.835 166.042">
  <g id="Group_366" data-name="Group 366" transform="translate(-3042.637 -1984.651)">
    <path id="Path_568" data-name="Path 568" d="M3063.583,2019.41l78.342-33.473-96.971,115.247,135.972-81.774-107.993,118.9,125.5-54.008-56.5,59.44" fill="none" stroke="#fcff7b" stroke-miterlimit="10" stroke-width="1"/>
    <g id="Group_358" data-name="Group 358">
      <g id="Group_354" data-name="Group 354" opacity="0.1">
        <path id="Path_569" data-name="Path 569" d="M3157.045,2037.333a14.205,14.205,0,0,1,.474-3.637c-8.743-1.491-20.387-2.8-26.808-2.8-6.222,0-17.345,1.225-25.982,2.657a14.178,14.178,0,0,1-12.957,17.936c.924,12.524,4.152,29.554,7.956,38.745,6.3,15.229,28.094,28.619,30.983,30.983,2.886-2.364,24.68-15.754,30.98-30.983,3.811-9.208,7.044-26.286,7.96-38.816A14.179,14.179,0,0,1,3157.045,2037.333Z"/>
        <path id="Path_570" data-name="Path 570" d="M3130.711,2037.99a159.567,159.567,0,0,0-18.5,1.611,21.253,21.253,0,0,1-12.794,17.3c.665,5.643,1.68,11.57,2.866,16.925a88.54,88.54,0,0,0,4,13.7c4.2,10.142,17.707,20.211,24.433,24.977a.185.185,0,0,0,.02-.015v-74.5Z"/>
        <path id="Path_571" data-name="Path 571" d="M3150.089,2039.723a164.731,164.731,0,0,0-19.358-1.733v74.5c6.732-4.774,20.218-14.832,24.409-24.962a88.266,88.266,0,0,0,4-13.7,174.143,174.143,0,0,0,2.909-17.3A21.245,21.245,0,0,1,3150.089,2039.723Z"/>
      </g>
      <g id="Group_357" data-name="Group 357">
        <g id="Group_356" data-name="Group 356">
          <path id="Path_572" data-name="Path 572" d="M3152.582,2032.87a14.166,14.166,0,0,1,.474-3.637c-8.743-1.491-20.388-2.8-26.809-2.8-6.222,0-17.344,1.225-25.981,2.657a14.177,14.177,0,0,1-12.957,17.935c.924,12.524,4.152,29.555,7.956,38.745,6.3,15.23,28.093,28.62,30.982,30.983,2.887-2.363,24.681-15.753,30.981-30.983,3.81-9.207,7.044-26.285,7.96-38.815A14.18,14.18,0,0,1,3152.582,2032.87Z" fill="#255cf4"/>
          <g id="Group_355" data-name="Group 355">
            <path id="Path_573" data-name="Path 573" d="M3126.247,2033.526a159.544,159.544,0,0,0-18.5,1.611,21.254,21.254,0,0,1-12.794,17.3c.665,5.644,1.68,11.57,2.866,16.926a88.412,88.412,0,0,0,3.995,13.7c4.2,10.142,17.707,20.211,24.432,24.977l.021-.015v-74.5Z" fill="#5eaef7"/>
            <path id="Path_574" data-name="Path 574" d="M3145.626,2035.259a164.966,164.966,0,0,0-19.358-1.733v74.5c6.732-4.774,20.217-14.832,24.409-24.962a88.36,88.36,0,0,0,4-13.7,174.3,174.3,0,0,0,2.91-17.3A21.241,21.241,0,0,1,3145.626,2035.259Z" fill="#268fef"/>
          </g>
        </g>
      </g>
    </g>
    <g id="Group_365" data-name="Group 365">
      <g id="Group_359" data-name="Group 359" opacity="0.1">
        <path id="Path_575" data-name="Path 575" d="M3132.653,2046.893a1.051,1.051,0,1,1-1.05-1.051A1.051,1.051,0,0,1,3132.653,2046.893Z"/>
        <path id="Path_576" data-name="Path 576" d="M3133.933,2098.223a2.331,2.331,0,1,1-2.33-2.331A2.331,2.331,0,0,1,3133.933,2098.223Z"/>
        <path id="Path_577" data-name="Path 577" d="M3139.569,2071.484H3123.7a2.251,2.251,0,0,0-2.245,2.244v13.326a2.251,2.251,0,0,0,2.245,2.244h15.87a2.251,2.251,0,0,0,2.244-2.244v-13.326A2.251,2.251,0,0,0,3139.569,2071.484Z"/>
        <path id="Path_578" data-name="Path 578" d="M3138.492,2071.484l-1.978-.009v-6.625a3.961,3.961,0,0,0-3.956-3.957h-1.911a3.961,3.961,0,0,0-3.956,3.957v6.625h-1.978v-6.625a5.941,5.941,0,0,1,5.934-5.935h1.911c3.272,0,5.934,2.662,5.934,6.615Z"/>
        <path id="Path_579" data-name="Path 579" d="M3135.393,2083.948l-2.434-4.215a2.85,2.85,0,1,0-2.651,0l-2.433,4.215c-.27.468-.05.85.491.85h6.536C3135.441,2084.8,3135.663,2084.416,3135.393,2083.948Z"/>
      </g>
      <g id="Group_364" data-name="Group 364">
        <g id="Group_363" data-name="Group 363">
          <g id="Group_360" data-name="Group 360">
            <path id="Path_580" data-name="Path 580" d="M3127.653,2041.893a1.051,1.051,0,1,1-1.05-1.051A1.051,1.051,0,0,1,3127.653,2041.893Z" fill="#fff"/>
            <path id="Path_581" data-name="Path 581" d="M3128.933,2093.223a2.331,2.331,0,1,1-2.33-2.331A2.331,2.331,0,0,1,3128.933,2093.223Z" fill="#fff"/>
          </g>
          <g id="Group_362" data-name="Group 362">
            <path id="Path_582" data-name="Path 582" d="M3134.569,2066.484H3118.7a2.251,2.251,0,0,0-2.245,2.244v13.326a2.251,2.251,0,0,0,2.245,2.244h15.87a2.251,2.251,0,0,0,2.244-2.244v-13.326A2.251,2.251,0,0,0,3134.569,2066.484Z" fill="#fff8a4"/>
            <g id="Group_361" data-name="Group 361">
              <path id="Path_583" data-name="Path 583" d="M3133.492,2066.484l-1.978-.009v-6.625a3.961,3.961,0,0,0-3.956-3.957h-1.911a3.961,3.961,0,0,0-3.956,3.957v6.625h-1.978v-6.625a5.941,5.941,0,0,1,5.934-5.935h1.911c3.272,0,5.934,2.662,5.934,6.615Z" fill="#f9e595"/>
            </g>
            <path id="Path_584" data-name="Path 584" d="M3130.393,2078.948l-2.434-4.215a2.85,2.85,0,1,0-2.651,0l-2.433,4.215c-.27.468-.05.85.491.85h6.536C3130.441,2079.8,3130.663,2079.416,3130.393,2078.948Z" fill="#367bff"/>
          </g>
        </g>
      </g>
    </g>
    <circle id="Ellipse_118" data-name="Ellipse 118" cx="3.931" cy="3.931" r="3.931" transform="translate(3178.29 2014.552)" fill="#ffffb0"/>
    <circle id="Ellipse_119" data-name="Ellipse 119" cx="3.931" cy="3.931" r="3.931" transform="translate(3061.772 2015.479)" fill="#ffffb0"/>
    <circle id="Ellipse_120" data-name="Ellipse 120" cx="3.931" cy="3.931" r="3.931" transform="translate(3135.35 2142.832)" fill="#ffffb0"/>
  </g>
</svg>
