<svg xmlns="http://www.w3.org/2000/svg" width="15.432" height="15.432" viewBox="0 0 15.432 15.432">
  <g id="Group_421" data-name="Group 421" transform="translate(-605.204 -249.957)">
    <g id="Group_346" data-name="Group 346" transform="translate(-1420.04)">
      <circle id="Ellipse_91" data-name="Ellipse 91" cx="7.716" cy="7.716" r="7.716" transform="translate(2025.244 249.957)" fill="#367bff"/>
    </g>
    <g id="Group_347" data-name="Group 347" transform="translate(-1420.04)">
      <path id="Path_387" data-name="Path 387" d="M2036.939,259.912a.185.185,0,0,0,.217-.148l.157-.821a.186.186,0,0,0-.029-.139.184.184,0,0,0-.119-.078l-.317-.06a2.172,2.172,0,0,0-.106-.51l.268-.182a.187.187,0,0,0,.049-.258l-.47-.69a.181.181,0,0,0-.119-.078.185.185,0,0,0-.139.028l-.267.182a2.141,2.141,0,0,0-.434-.286l.06-.317a.185.185,0,0,0-.148-.217l-.82-.157a.187.187,0,0,0-.14.029.194.194,0,0,0-.078.119l-.06.316a2.293,2.293,0,0,0-.51.106l-.181-.266a.187.187,0,0,0-.258-.05l-.691.47a.182.182,0,0,0-.078.118.188.188,0,0,0,.029.14l.181.267a2.237,2.237,0,0,0-.286.435l-.317-.061a.186.186,0,0,0-.139.029.184.184,0,0,0-.078.119l-.156.821a.185.185,0,0,0,.147.217l.317.06a2.172,2.172,0,0,0,.106.51l-.267.181a.187.187,0,0,0-.05.258l.47.691a.186.186,0,0,0,.119.078.181.181,0,0,0,.139-.029l.267-.181a2.2,2.2,0,0,0,.435.286l-.06.317a.185.185,0,0,0,.147.217l.821.157a.208.208,0,0,0,.035,0,.186.186,0,0,0,.182-.151l.06-.317a2.175,2.175,0,0,0,.51-.106l.181.267a.186.186,0,0,0,.119.078.183.183,0,0,0,.14-.029l.691-.469a.187.187,0,0,0,.049-.258l-.182-.267a2.15,2.15,0,0,0,.286-.435Zm-.6-.342a1.851,1.851,0,0,1-.376.571.186.186,0,0,0-.02.233l.159.234-.384.261-.159-.234a.186.186,0,0,0-.224-.068,1.8,1.8,0,0,1-.669.139.186.186,0,0,0-.179.151l-.053.278-.456-.087.053-.277a.186.186,0,0,0-.111-.207,1.831,1.831,0,0,1-.571-.375.184.184,0,0,0-.233-.02l-.234.159-.261-.384.234-.159a.186.186,0,0,0,.068-.224,1.821,1.821,0,0,1-.139-.669.186.186,0,0,0-.151-.179l-.278-.053.087-.456.278.053a.187.187,0,0,0,.206-.111,1.828,1.828,0,0,1,.375-.571.185.185,0,0,0,.02-.233l-.159-.234.384-.261.159.234a.185.185,0,0,0,.224.067,1.841,1.841,0,0,1,.669-.139.186.186,0,0,0,.18-.151l.053-.277.455.087-.053.277a.187.187,0,0,0,.111.207,1.817,1.817,0,0,1,.571.375.185.185,0,0,0,.233.02l.234-.159.261.384-.234.159a.185.185,0,0,0-.067.224,1.837,1.837,0,0,1,.139.669.184.184,0,0,0,.151.179l.277.053-.087.456-.277-.053A.184.184,0,0,0,2036.343,259.57Z" fill="#fff"/>
      <path id="Path_388" data-name="Path 388" d="M2034.886,257.547a1.335,1.335,0,1,0-.5,2.622h0a1.335,1.335,0,1,0,.5-2.622Zm.7,1.492a.963.963,0,0,1-1.127.765h0a.964.964,0,0,1,.178-1.91.947.947,0,0,1,.183.018A.964.964,0,0,1,2035.583,259.039Z" fill="#fff"/>
      <path id="Path_389" data-name="Path 389" d="M2028.694,256.849a.14.14,0,0,0,.158.118l.24-.034a1.658,1.658,0,0,0,.2.336l-.146.194a.143.143,0,0,0-.026.1.14.14,0,0,0,.054.092l.5.376a.139.139,0,0,0,.195-.028l.146-.194a1.65,1.65,0,0,0,.379.1l.034.24a.137.137,0,0,0,.055.091.133.133,0,0,0,.083.029l.02,0,.622-.089a.14.14,0,0,0,.118-.158l-.034-.24a1.659,1.659,0,0,0,.336-.2l.194.146a.14.14,0,0,0,.2-.029l.376-.5a.139.139,0,0,0-.028-.2l-.194-.146a1.661,1.661,0,0,0,.1-.379l.24-.035a.138.138,0,0,0,.118-.157l-.089-.622a.14.14,0,0,0-.158-.118l-.24.034a1.657,1.657,0,0,0-.2-.336l.146-.194a.143.143,0,0,0,.026-.1.14.14,0,0,0-.054-.092l-.5-.376a.138.138,0,0,0-.1-.026.135.135,0,0,0-.091.054l-.146.194a1.65,1.65,0,0,0-.379-.1l-.034-.24a.14.14,0,0,0-.158-.118l-.622.089a.138.138,0,0,0-.118.158l.034.24a1.66,1.66,0,0,0-.336.2l-.194-.146a.143.143,0,0,0-.1-.026.139.139,0,0,0-.092.054l-.376.5a.138.138,0,0,0,.028.195l.194.146a1.641,1.641,0,0,0-.1.379l-.24.034a.138.138,0,0,0-.118.158Zm.417-.554a.14.14,0,0,0,.12-.129,1.348,1.348,0,0,1,.127-.5.14.14,0,0,0-.043-.171l-.17-.128.209-.279.17.128a.14.14,0,0,0,.176-.007,1.378,1.378,0,0,1,.442-.262.139.139,0,0,0,.09-.151l-.03-.21.345-.05.03.21a.141.141,0,0,0,.13.119,1.393,1.393,0,0,1,.5.128.14.14,0,0,0,.171-.043l.127-.17.279.209-.127.17a.139.139,0,0,0,.007.176,1.372,1.372,0,0,1,.262.441.14.14,0,0,0,.151.091l.21-.03.05.345-.21.03a.141.141,0,0,0-.12.13,1.37,1.37,0,0,1-.127.5.14.14,0,0,0,.043.171l.17.127-.209.279-.17-.127a.139.139,0,0,0-.176.007,1.377,1.377,0,0,1-.442.262.139.139,0,0,0-.09.151l.03.21-.345.05-.03-.21a.141.141,0,0,0-.13-.12,1.372,1.372,0,0,1-.5-.127.137.137,0,0,0-.059-.013.139.139,0,0,0-.112.055l-.127.171-.28-.209.128-.17a.139.139,0,0,0-.007-.176,1.376,1.376,0,0,1-.262-.442.139.139,0,0,0-.151-.09l-.21.03-.05-.345Z" fill="#fff"/>
      <path id="Path_390" data-name="Path 390" d="M2030.617,257.259a.993.993,0,0,0,.143-.011,1,1,0,1,0-.143.011Zm-.1-1.72a.713.713,0,0,1,.1-.008.728.728,0,1,1-.1.008Z" fill="#fff"/>
    </g>
  </g>
</svg>
