<svg xmlns="http://www.w3.org/2000/svg" width="57.294" height="75.567" viewBox="0 0 57.294 75.567">
  <g id="Group_425" data-name="Group 425" transform="translate(-327.683 -7369.532)">
    <g id="Group_407" data-name="Group 407" transform="translate(333.633 7369.532)">
      <g id="Group_406" data-name="Group 406">
        <g id="Group_405" data-name="Group 405">
          <path id="Path_630" data-name="Path 630" d="M2963.307,4873.833l-20.492-2.163a2.719,2.719,0,0,1-2.352-3.673l10.169-30.429a2.8,2.8,0,0,1,3.078-1.64l11.517,1.572c10.517,1.437,18.6,10.076,18.186,20.273h0C2983.023,4867.36,2974.084,4874.967,2963.307,4873.833Zm-13.624-6.727L2964,4868.68c7.741.851,14.336-4.5,14.79-11.467h0c.523-8.016-5.773-14.925-14.129-16.039l-7.625-1.017a2.8,2.8,0,0,0-3.091,1.735l-6.641,21.709A2.69,2.69,0,0,0,2949.683,4867.106Z" transform="translate(-2939.75 -4835.535)" fill="#636363"/>
          <path id="Path_631" data-name="Path 631" d="M2963.5,4874.531l-20.549-2.159a3.247,3.247,0,0,1-2.458-1.469,3.3,3.3,0,0,1-.286-2.837l10.251-30.414a3.293,3.293,0,0,1,3.594-1.913l11.494,1.573c10.71,1.466,18.985,10.288,18.589,20.687C2983.754,4867.835,2974.566,4875.694,2963.5,4874.531Zm-9.606-38.076a2.348,2.348,0,0,0-2.56,1.374l-10.085,30.432a2.265,2.265,0,0,0,1.955,3.051l20.438,2.166c10.452,1.106,19.176-6.282,19.577-15.589.428-9.967-7.494-18.458-17.781-19.858Zm10.306,32.9-14.359-1.572a3.293,3.293,0,0,1-2.412-1.411,3.143,3.143,0,0,1-.36-2.69l6.7-21.706a3.281,3.281,0,0,1,3.607-2.018l7.61,1.016c8.563,1.146,15.05,8.245,14.535,16.471C2979.064,4864.651,2972.22,4870.231,2964.2,4869.353Zm-6.973-28.648a2.338,2.338,0,0,0-2.568,1.449l-6.582,21.718a2.187,2.187,0,0,0,.269,1.906,2.319,2.319,0,0,0,1.7,1l14.286,1.577c7.432.82,13.808-4.331,14.26-11.024.527-7.783-5.6-14.527-13.724-15.609Z" transform="translate(-2940.01 -4835.706)" fill="#636363"/>
        </g>
      </g>
    </g>
    <g id="Group_410" data-name="Group 410" transform="translate(369.454 7405.113)">
      <g id="Group_409" data-name="Group 409">
        <g id="Group_408" data-name="Group 408">
          <path id="Path_632" data-name="Path 632" d="M2971.516,4864.535l-4.193-5.51-6.423,4.207-1.783-2.971,8.766-5.588,6.047,7.8Z" transform="translate(-2958.76 -4854.341)" fill="#636363"/>
          <path id="Path_633" data-name="Path 633" d="M2971.658,4865.074l-4.214-5.542-6.451,4.238-2.065-3.439.217-.141,8.951-5.691.144.185,6.211,8Zm-4.12-6.238.145.193,4.026,5.276,2.033-1.737-5.735-7.4-8.362,5.343,1.5,2.5Z" transform="translate(-2958.928 -4854.498)" fill="#636363"/>
        </g>
      </g>
    </g>
    <path id="Path_634" data-name="Path 634" d="M2948.318,4851.97s-2.558,6.254,0,6.523-7.358-.559-7.358-.559" transform="translate(-2605.529 2548.359)" fill="#636363"/>
    <g id="Group_413" data-name="Group 413" transform="translate(327.683 7389.52)">
      <g id="Group_412" data-name="Group 412" transform="translate(0 0)">
        <g id="Group_411" data-name="Group 411">
          <path id="Path_635" data-name="Path 635" d="M2959.213,4900.826l-3.175-.236a19.889,19.889,0,0,1-16.112-10.465,24.011,24.011,0,0,1-1.26-19.457l2.71-7.627c3.915-11.017,14.836-17.659,25.4-16.387l6.745.813-.49,4.522-6.91-.8c-8.26-.964-16.638,4.356-19.439,12.92l-3.38,10.341a6.417,6.417,0,0,0-.339,2.134c.258,9.7,6.094,16.221,14.194,16.87l3.079.246c12.275.984,23.9-9.09,24.426-21.247l3.241.324C2987.465,4888.391,2975.2,4902.01,2959.213,4900.826Z" transform="translate(-2936.577 -4846.052)" fill="#636363"/>
          <path id="Path_636" data-name="Path 636" d="M2959.4,4901.77l-3.185-.233a20.419,20.419,0,0,1-16.565-10.773,24.635,24.635,0,0,1-1.246-19.991l2.73-7.627c4.058-11.323,15.143-18.033,26-16.721l7.194.872-.572,5.422-7.407-.862a17.971,17.971,0,0,0-18.846,12.567l-3.35,10.341a5.846,5.846,0,0,0-.3,1.917c.265,9.013,5.684,15.642,13.707,16.291l3.07.248c12.246.988,23.291-9.215,23.811-20.615l.024-.553,4.26.431-.015.551C2988.292,4889.294,2975.568,4902.957,2959.4,4901.77Zm7.6-54.462c-10.4-1.252-20.987,5.212-24.808,16.052l-2.687,7.624a23.371,23.371,0,0,0,1.271,18.927,19.378,19.378,0,0,0,15.664,10.161l3.164.234c15.2,1.135,27.3-11.52,28.047-26.819l-2.212-.222c-.816,11.832-12.278,22.346-25.015,21.333l-3.089-.246c-8.642-.688-14.453-7.8-14.686-17.453a7.225,7.225,0,0,1,.378-2.347l3.409-10.341c2.927-8.866,11.493-14.279,20.04-13.279l6.409.751.4-3.622Z" transform="translate(-2936.868 -4846.261)" fill="#636363"/>
        </g>
      </g>
    </g>
  </g>
</svg>
