<svg xmlns="http://www.w3.org/2000/svg" xmlns:xlink="http://www.w3.org/1999/xlink" width="465.457" height="659.206" viewBox="0 0 465.457 659.206">
  <defs>
    <linearGradient id="linear-gradient" x1="0.238" y1="0.501" x2="2.686" y2="0.501" gradientUnits="objectBoundingBox">
      <stop offset="0" stop-color="#fff"/>
      <stop offset="1" stop-color="#f0ff9a"/>
    </linearGradient>
    <clipPath id="clip-path">
      <path id="Path_156" data-name="Path 156" d="M1799.124,1449.078l-465.457,1.943V793.008l354.39-1.193a70.949,70.949,0,0,1,71.188,70.949Z" fill="url(#linear-gradient)"/>
    </clipPath>
    <radialGradient id="radial-gradient" cx="51.93" cy="12.605" r="213.944" gradientTransform="translate(39.325 11.862) scale(0.243 0.059)" gradientUnits="userSpaceOnUse">
      <stop offset="0" stop-color="#d0dadc"/>
      <stop offset="1" stop-color="#d0dadc" stop-opacity="0"/>
    </radialGradient>
    <linearGradient id="linear-gradient-3" x1="-1.053" y1="0.185" x2="-1.203" y2="0.773" gradientUnits="objectBoundingBox">
      <stop offset="0.002" stop-color="#499cd8"/>
      <stop offset="1" stop-color="#0e1340"/>
    </linearGradient>
    <linearGradient id="linear-gradient-4" x1="1.437" y1="-2.518" x2="1.257" y2="-1.754" xlink:href="#linear-gradient-3"/>
    <linearGradient id="linear-gradient-5" x1="-36.539" y1="7.861" x2="-36.709" y2="8.699" xlink:href="#linear-gradient-3"/>
    <linearGradient id="linear-gradient-6" x1="0.5" y1="0.431" x2="0.5" y2="-0.099" gradientUnits="objectBoundingBox">
      <stop offset="0.011" stop-color="#ffd73e"/>
      <stop offset="1" stop-color="#f2a739"/>
    </linearGradient>
  </defs>
  <g id="Group_235" data-name="Group 235" transform="translate(-7.805 -0.24)">
    <g id="Group_134" data-name="Group 134" transform="translate(-1325.862 -791.575)">
      <path id="Path_141" data-name="Path 141" d="M1799.124,1449.078l-465.457,1.943V793.008l354.39-1.193a70.949,70.949,0,0,1,71.188,70.949Z" fill="url(#linear-gradient)"/>
      <g id="Group_133" data-name="Group 133" clip-path="url(#clip-path)">
        <g id="Group_132" data-name="Group 132">
          <ellipse id="Ellipse_18" data-name="Ellipse 18" cx="51.93" cy="12.605" rx="51.93" ry="12.605" transform="translate(1656.038 1297.147)" fill="url(#radial-gradient)"/>
          <g id="Group_131" data-name="Group 131">
            <g id="Group_119" data-name="Group 119">
              <path id="Path_142" data-name="Path 142" d="M1601.817,1117.679c-1.968-9.012-2.9-18.623,1.872-27.1a18.252,18.252,0,0,1,8.995-8.1c12.359-4.91,23.347,5.953,29.552,16.568,4.777,8.172,8.69,17.115,16.988,22.533a18.794,18.794,0,0,0,10.654,3.228c13.9-.361,17.725-15.921,13.213-26.621-3.782-8.967-11.591-15.507-18.5-22.4a151.131,151.131,0,0,1-38.5-65.37c-4.4-15.5-5.986-33.387,5.926-45.908,6.192-6.509,15.756-9.259,24.123-5.915,10.272,4.105,12.21,14.02,13.835,23.141,1.356,7.615,3.049,15.789,9.641,20.513,4.231,3.032,10.077,3.5,14.043.125,3.993-3.393,3.524-8.481,3.245-13.121a112.4,112.4,0,0,1,27.873-80.384c10.576-11.922,28.718-22.009,41.714-11.209a22.362,22.362,0,0,1,6.91,10.752c3.021,9.936.734,19.894-1.532,29.606l-12.4,53.154a5.719,5.719,0,0,0,8.848,5.941l37.04-25.422a23.212,23.212,0,0,1,11.587-4.221c13.681-.851,17.572,10.917,17.734,20.982.357,22.162-11.5,43.111-27.284,58.84s-35.322,27.114-54.38,38.747c-5.923,3.615-12.121,7.577-14.24,14.543-1.2,3.959-.377,8.455,2.764,11.176,5.3,4.587,12.726,1.421,18.222-2.2,17.02-11.216,31.187-27.034,51.911-31.769a37.12,37.12,0,0,1,22.139,1.447c21.76,8.808,20.625,32.021,10.317,46.91-10.863,15.692-27.077,26-42.454,36.854-30.887,21.808-73.83,61.171-115.3,48.7-24.283-7.275-45.614-25.7-61.025-45.165A121.423,121.423,0,0,1,1601.817,1117.679Z" fill="url(#linear-gradient-3)"/>
              <g id="Group_118" data-name="Group 118">
                <g id="Group_115" data-name="Group 115">
                  <path id="Path_143" data-name="Path 143" d="M1712.667,1266.889a1.083,1.083,0,0,1-1.079-1,1109.92,1109.92,0,0,1,16.535-294.881,1.082,1.082,0,0,1,2.126.408,1107.719,1107.719,0,0,0-16.5,294.308,1.079,1.079,0,0,1-.995,1.16A.6.6,0,0,1,1712.667,1266.889Z" fill="#00939b"/>
                </g>
                <g id="Group_116" data-name="Group 116">
                  <path id="Path_144" data-name="Path 144" d="M1716.955,1060.454a55.307,55.307,0,0,1-19.637-3.441c-15.54-5.893-26.173-18.363-32.357-27.785-8.01-12.2-13.384-26.246-18.126-38.635a1.082,1.082,0,0,1,2.021-.774c4.7,12.287,10.032,26.214,17.914,38.221,6.009,9.156,16.319,21.263,31.315,26.948,18.636,7.065,42.674,2.621,62.736-11.6,18.365-13.022,31.71-31.508,44.616-49.385a1.082,1.082,0,1,1,1.754,1.266c-13.009,18.02-26.46,36.655-45.119,49.886C1747.953,1055.161,1731.877,1060.454,1716.955,1060.454Z" fill="#00939b"/>
                </g>
                <g id="Group_117" data-name="Group 117">
                  <path id="Path_145" data-name="Path 145" d="M1704.624,1180.264a65.4,65.4,0,0,1-20.743-3.266c-26.57-8.87-43.4-34.385-53.741-52.8a1.083,1.083,0,0,1,1.888-1.061c10.169,18.108,26.679,43.179,52.538,51.811,22.07,7.37,49.095,1.663,72.291-15.255l4.438-3.232c19.662-14.305,38.235-27.817,57.689-47.785a1.081,1.081,0,1,1,1.549,1.509c-19.582,20.1-38.227,33.666-57.965,48.028l-4.436,3.229C1741.237,1173.76,1722.318,1180.264,1704.624,1180.264Z" fill="#00939b"/>
                </g>
              </g>
            </g>
            <g id="Group_124" data-name="Group 124">
              <path id="Path_146" data-name="Path 146" d="M1686.665,1190.612c.126-4.49.807-9.143,4.027-12.6a8.824,8.824,0,0,1,5.154-2.79c6.36-.894,10.244,5.514,11.916,11.252,1.288,4.417,2.081,9.1,5.338,12.62a9.008,9.008,0,0,0,4.615,2.758c6.553,1.436,10.153-5.481,9.284-11.063-.729-4.679-3.627-8.675-6.064-12.735a73.839,73.839,0,0,1-10.433-35.367c-.26-7.84,1.077-16.483,8.112-21.029a10.671,10.671,0,0,1,11.987-.009c4.334,3.128,4.089,8.042,3.79,12.543-.25,3.759-.407,7.821,2.131,10.817a5.492,5.492,0,0,0,6.563,1.682c2.265-1.144,2.637-3.6,3.046-5.831a55.021,55.021,0,0,1,22.4-34.8c6.34-4.417,16.01-7.091,20.842-.481a10.913,10.913,0,0,1,1.986,5.884c.26,5.049-1.968,9.494-4.159,13.826L1775.211,1149a2.766,2.766,0,0,0,3.454,3.833l20.3-7.744a11.122,11.122,0,0,1,5.918-.657c6.508,1.179,6.962,7.194,5.868,11.973-2.41,10.524-10.4,19.061-19.62,24.677s-19.7,8.742-29.976,12.041c-3.194,1.026-6.558,2.183-8.36,5.233a5.212,5.212,0,0,0-.005,5.6c1.947,2.782,5.8,2.143,8.791,1.065,9.276-3.338,17.751-9.181,28.008-9.026a17.754,17.754,0,0,1,10.2,3.243c9.168,6.681,5.938,17.529-.621,23.38-6.913,6.166-15.7,9.166-24.17,12.524-17,6.745-41.693,20.4-59.665,9.709-10.529-6.247-18.378-17.428-23.333-28.415A59.427,59.427,0,0,1,1686.665,1190.612Z" fill="url(#linear-gradient-4)"/>
              <g id="Group_123" data-name="Group 123">
                <g id="Group_120" data-name="Group 120">
                  <path id="Path_147" data-name="Path 147" d="M1721.368,1274.566a1.1,1.1,0,0,1-.179-.015,1.082,1.082,0,0,1-.89-1.245,546.116,546.116,0,0,1,42.067-137.7,1.082,1.082,0,1,1,1.968.9,543.992,543.992,0,0,0-41.9,137.154A1.084,1.084,0,0,1,1721.368,1274.566Z" fill="#00939b"/>
                </g>
                <g id="Group_121" data-name="Group 121">
                  <path id="Path_148" data-name="Path 148" d="M1755.213,1178.345a29.831,29.831,0,0,1-17.085-4.935c-6.717-4.667-10.305-11.906-12.134-17.156-2.354-6.759-3.242-14.051-4.025-20.482a1.081,1.081,0,0,1,.943-1.2,1.069,1.069,0,0,1,1.2.943c.77,6.323,1.644,13.493,3.921,20.034,1.723,4.946,5.086,11.753,11.326,16.09,7.753,5.388,19.328,6.039,30.2,1.7,10.03-4,18.394-11.172,26.483-18.108a1.083,1.083,0,0,1,1.409,1.644c-8.223,7.051-16.726,14.34-27.089,18.477A41.173,41.173,0,0,1,1755.213,1178.345Z" fill="#00939b"/>
                </g>
                <g id="Group_122" data-name="Group 122">
                  <path id="Path_149" data-name="Path 149" d="M1736.6,1233.715a34.612,34.612,0,0,1-18.694-5.1c-11.578-7.369-16.544-21.511-19.272-31.508a1.082,1.082,0,1,1,2.088-.571c2.633,9.651,7.4,23.287,18.346,30.253,9.323,5.935,22.452,6.349,35.116,1.095l2.437-1.008c10.856-4.487,21.11-8.725,32.51-15.9a1.081,1.081,0,1,1,1.152,1.83c-11.556,7.273-21.892,11.544-32.836,16.067l-2.435,1.009A48.323,48.323,0,0,1,1736.6,1233.715Z" fill="#00939b"/>
                </g>
              </g>
            </g>
            <g id="Group_129" data-name="Group 129">
              <path id="Path_150" data-name="Path 150" d="M1712.381,1213.16c-.766-3.045-1.935-6.117-4.656-7.989a6.168,6.168,0,0,0-3.94-1.124c-4.476.353-6.156,5.314-6.428,9.483-.21,3.209-.042,6.524-1.731,9.421a6.308,6.308,0,0,1-2.732,2.581c-4.255,1.972-7.759-2.2-8.011-6.144-.211-3.3,1.161-6.469,2.209-9.609a51.611,51.611,0,0,0,1.764-25.716c-1.009-5.389-3.231-11.085-8.72-13.121a7.46,7.46,0,0,0-8.182,1.808c-2.484,2.792-1.573,6.108-.687,9.134.74,2.528,1.463,5.276.184,7.7a3.838,3.838,0,0,1-4.224,2.141c-1.719-.437-2.345-2.06-2.961-3.518a38.467,38.467,0,0,0-20.556-20.355c-4.995-2.054-12-2.414-14.3,2.829a7.633,7.633,0,0,0-.465,4.316c.587,3.484,2.781,6.181,4.932,8.805l11.772,14.362a1.934,1.934,0,0,1-1.777,3.139l-15.029-2.209a7.773,7.773,0,0,0-4.138.447c-4.262,1.79-3.661,5.964-2.191,9.06,3.238,6.816,9.984,11.432,17.127,13.869s14.765,2.982,22.279,3.678c2.336.216,4.806.5,6.5,2.305a3.643,3.643,0,0,1,.852,3.824c-.908,2.193-3.63,2.34-5.838,2.058-6.836-.873-13.5-3.578-20.48-1.918a12.41,12.41,0,0,0-6.471,3.757c-5.245,5.948-1.4,12.862,3.964,15.861,5.652,3.162,12.106,3.877,18.391,4.887,12.624,2.028,31.542,7.608,42.187-2.409,6.239-5.858,9.9-14.677,11.62-22.925A41.542,41.542,0,0,0,1712.381,1213.16Z" fill="url(#linear-gradient-5)"/>
              <g id="Group_128" data-name="Group 128">
                <g id="Group_125" data-name="Group 125">
                  <path id="Path_151" data-name="Path 151" d="M1701.249,1276.051a1.081,1.081,0,0,1-1-.678,379.871,379.871,0,0,0-49.321-87.177,1.082,1.082,0,0,1,1.726-1.306,382.028,382.028,0,0,1,49.6,87.676,1.081,1.081,0,0,1-1,1.485Z" fill="#00939b"/>
                </g>
                <g id="Group_126" data-name="Group 126">
                  <path id="Path_152" data-name="Path 152" d="M1657.91,1216.149a31.2,31.2,0,0,1-5.015-.412c-7.75-1.259-14.681-4.96-21.385-8.538a1.083,1.083,0,0,1,1.018-1.911c6.549,3.5,13.32,7.11,20.713,8.315,7.973,1.3,15.662-.861,20.063-5.635,3.543-3.84,4.788-8.926,5.209-12.514a67.462,67.462,0,0,0-.358-14.193,1.082,1.082,0,0,1,.972-1.183,1.1,1.1,0,0,1,1.181.972,69.11,69.11,0,0,1,.354,14.657c-.457,3.906-1.83,9.461-5.767,13.728C1670.889,1213.778,1664.759,1216.149,1657.91,1216.149Z" fill="#00939b"/>
                </g>
                <g id="Group_127" data-name="Group 127">
                  <path id="Path_153" data-name="Path 153" d="M1677.956,1251.2a36.438,36.438,0,0,1-6.326-.564l-1.837-.321c-8.159-1.431-15.867-2.784-24.872-6a1.082,1.082,0,0,1,.729-2.037c8.832,3.157,16.451,4.493,24.518,5.907l1.838.323c9.334,1.647,18.122-.583,23.511-5.972,6.334-6.335,7.511-16.281,7.844-23.211a1.082,1.082,0,0,1,2.162.1c-.351,7.288-1.611,17.773-8.476,24.636C1692.418,1248.687,1685.553,1251.2,1677.956,1251.2Z" fill="#00939b"/>
                </g>
              </g>
            </g>
            <g id="Group_130" data-name="Group 130">
              <path id="Path_154" data-name="Path 154" d="M1731.858,1266.448h-45.636a2.6,2.6,0,0,0-2.531,3.171l1.691,7.429a2.6,2.6,0,0,0,2.531,2.02h42.254a2.6,2.6,0,0,0,2.531-2.02l1.691-7.429A2.6,2.6,0,0,0,1731.858,1266.448Z" fill="#ffd73e"/>
              <path id="Path_155" data-name="Path 155" d="M1688.535,1280.261l3.673,25.473a3.51,3.51,0,0,0,3.475,3.01H1722.4a3.511,3.511,0,0,0,3.475-3.01l3.673-25.473Z" fill="url(#linear-gradient-6)"/>
            </g>
          </g>
        </g>
      </g>
    </g>
    <circle id="Ellipse_19" data-name="Ellipse 19" cx="44.279" cy="44.279" r="44.279" transform="translate(83 50.85)" fill="#fffdc9" opacity="0.5"/>
    <circle id="Ellipse_20" data-name="Ellipse 20" cx="68.524" cy="68.524" r="68.524" transform="translate(13.009 3.952)" fill="#fffdc9" opacity="0.5"/>
  </g>
</svg>
