<svg xmlns="http://www.w3.org/2000/svg" width="5.206" height="5.207" viewBox="0 0 5.206 5.207">
  <g id="Group_213" data-name="Group 213" transform="translate(-5865.788 -198.296)">
    <g id="Group_212" data-name="Group 212">
      <path id="Path_262" data-name="Path 262" d="M5869.041,203.5h-1.3a.326.326,0,0,1-.326-.326v-1.859l-1.577-2.524a.325.325,0,0,1-.009-.33.328.328,0,0,1,.285-.168h4.555a.325.325,0,0,1,.276.5l-1.577,2.524v1.859A.326.326,0,0,1,5869.041,203.5Zm-.976-.651h.651v-1.627a.315.315,0,0,1,.05-.172l1.315-2.106H5866.7l1.316,2.106a.327.327,0,0,1,.049.172Z" fill="#8a93d6"/>
    </g>
  </g>
</svg>
