<svg xmlns="http://www.w3.org/2000/svg" width="47" height="47" viewBox="0 0 47 47">
  <g id="Group_87" data-name="Group 87" transform="translate(-876.286 -409)">
    <circle id="Ellipse_32" data-name="Ellipse 32" cx="23.5" cy="23.5" r="23.5" transform="translate(876.286 409)" fill="#3161fe" opacity="0.33"/>
    <circle id="Ellipse_33" data-name="Ellipse 33" cx="19.304" cy="19.304" r="19.304" transform="translate(880.482 413.196)" fill="#10f" opacity="0.2"/>
    <g id="Group_78" data-name="Group 78" transform="translate(890.796 422.934)">
      <path id="Path_7" data-name="Path 7" d="M34.613,228.792a4.21,4.21,0,1,0-7.318,0H22.226l-1.292,3.516.608,8.024h18.3l.529-8.041-1.64-3.5Zm-7.386-2.078a3.723,3.723,0,0,1,5.92-3.01c.046.033.093.069.139.105a3.769,3.769,0,0,1,.879,1.014,3.708,3.708,0,0,1,.517,1.89,3.814,3.814,0,0,1-.019.381,3.727,3.727,0,0,1-7.435-.381Zm4.628,4.111h5.036v.865H24.412v-.865h5.641l.052.011a4.234,4.234,0,0,0,.83.088h.019A4.146,4.146,0,0,0,31.855,230.825Zm7.307,8.782H22.215l-.488-6.431H39.586Zm.463-7.04-.006.1H21.687l-.006-.095-.013-.159,1.063-2.892h5.085c.06.066.124.129.189.191a4.2,4.2,0,0,0,1.085.78H24.075v1.539H37.229v-1.539H32.817a4.258,4.258,0,0,0,1.274-.97h4.177l1.366,2.911Z" transform="translate(-20.934 -222.505)" fill="#0054ff"/>
    </g>
  </g>
</svg>
