<svg xmlns="http://www.w3.org/2000/svg" xmlns:xlink="http://www.w3.org/1999/xlink" width="327.156" height="296.996" viewBox="0 0 327.156 296.996">
  <defs>
    <filter id="Path_585" x="57.749" y="56.654" width="135.157" height="165.237" filterUnits="userSpaceOnUse">
      <feOffset dy="4" input="SourceAlpha"/>
      <feGaussianBlur stdDeviation="5" result="blur"/>
      <feFlood flood-opacity="0.102"/>
      <feComposite operator="in" in2="blur"/>
      <feComposite in="SourceGraphic"/>
    </filter>
    <filter id="Rectangle_219" x="95.625" y="122.242" width="113.906" height="60.998" filterUnits="userSpaceOnUse">
      <feOffset dy="5" input="SourceAlpha"/>
      <feGaussianBlur stdDeviation="5" result="blur-2"/>
      <feFlood flood-color="#367bff" flood-opacity="0.4"/>
      <feComposite operator="in" in2="blur-2"/>
      <feComposite in="SourceGraphic"/>
    </filter>
    <filter id="Ellipse_121" x="187.784" y="121.242" width="43.01" height="43.01" filterUnits="userSpaceOnUse">
      <feOffset dy="4" input="SourceAlpha"/>
      <feGaussianBlur stdDeviation="5" result="blur-3"/>
      <feFlood flood-color="#0a3560" flood-opacity="0.2"/>
      <feComposite operator="in" in2="blur-3"/>
      <feComposite in="SourceGraphic"/>
    </filter>
    <linearGradient id="linear-gradient" y1="0.483" x2="1" y2="0.517" gradientUnits="objectBoundingBox">
      <stop offset="0" stop-color="#57f676"/>
      <stop offset="1" stop-color="#57a976"/>
    </linearGradient>
  </defs>
  <g id="Group_376" data-name="Group 376" transform="translate(-237.077 -3484.086)">
    <g transform="matrix(1, 0, 0, 1, 237.08, 3484.09)" filter="url(#Path_585)">
      <path id="Path_585-2" data-name="Path 585" d="M3153.319,4630.258h-89.074c-4.046,0-7.342-4.354-7.362-9.726l-.432-114.786c-.02-5.371,3.244-9.725,7.289-9.725h89.074c4.046,0,7.342,4.354,7.362,9.725l.432,114.786C3160.628,4625.9,3157.365,4630.258,3153.319,4630.258Z" transform="translate(-2983.2 -4427.87)" fill="#e3eeff" stroke="#fff" stroke-miterlimit="10" stroke-width="1"/>
    </g>
    <g transform="matrix(1, 0, 0, 1, 237.08, 3484.09)" filter="url(#Rectangle_219)">
      <path id="Rectangle_219-2" data-name="Rectangle 219" d="M15.5,0H83.906a0,0,0,0,1,0,0V15.5A15.5,15.5,0,0,1,68.407,31H15.5A15.5,15.5,0,0,1,0,15.5v0A15.5,15.5,0,0,1,15.5,0Z" transform="translate(110.62 132.24)" fill="#367bff"/>
    </g>
    <g transform="matrix(1, 0, 0, 1, 237.08, 3484.09)" filter="url(#Ellipse_121)">
      <circle id="Ellipse_121-2" data-name="Ellipse 121" cx="6.505" cy="6.505" r="6.505" transform="translate(202.78 132.24)" fill="#367bff"/>
    </g>
    <path id="Rectangle_220" data-name="Rectangle 220" d="M12.839,0H69.508a0,0,0,0,1,0,0V12.839A12.839,12.839,0,0,1,56.668,25.679H12.839A12.839,12.839,0,0,1,0,12.839v0A12.839,12.839,0,0,1,12.839,0Z" transform="translate(316.879 3580.711)" fill="#fff" stroke="#fff" stroke-miterlimit="10" stroke-width="1"/>
    <rect id="Rectangle_221" data-name="Rectangle 221" width="103.751" height="14.796" transform="translate(310.732 3671.908)" fill="#fff" stroke="#fff" stroke-miterlimit="10" stroke-width="1"/>
    <circle id="Ellipse_122" data-name="Ellipse 122" cx="5.209" cy="5.209" r="5.209" transform="translate(391.29 3581.896)" fill="#fff" stroke="#fff" stroke-miterlimit="10" stroke-width="1"/>
    <g id="Group_369" data-name="Group 369" transform="translate(-2746.125 -943.782)">
      <g id="Group_367" data-name="Group 367">
        <path id="Path_586" data-name="Path 586" d="M3078.047,4512.1l-4.769-17.8a8.668,8.668,0,0,0-14.5-3.885l-13.03,13.029a8.668,8.668,0,0,0,3.886,14.5l17.8,4.769a8.668,8.668,0,0,0,10.616-10.616l-4.769-17.8a8.668,8.668,0,0,0-14.5-3.885l-13.03,13.029a8.668,8.668,0,0,0,3.886,14.5l17.8,4.769A8.668,8.668,0,0,0,3078.047,4512.1Z" fill="#fff" opacity="0.05"/>
        <path id="Path_587" data-name="Path 587" d="M3075.7,4511.524l-4.769-17.8a8.668,8.668,0,0,0-14.5-3.886l-13.03,13.03a8.668,8.668,0,0,0,3.886,14.5l17.8,4.769a8.668,8.668,0,0,0,10.616-10.616l-4.769-17.8a8.668,8.668,0,0,0-14.5-3.886l-13.03,13.03a8.668,8.668,0,0,0,3.886,14.5l17.8,4.769A8.668,8.668,0,0,0,3075.7,4511.524Z" fill="#e3e3e3" opacity="0.525"/>
        <path id="Path_588" data-name="Path 588" d="M3073.351,4510.952l-4.769-17.8a8.668,8.668,0,0,0-14.5-3.886l-13.03,13.03a8.668,8.668,0,0,0,3.886,14.5l17.8,4.769a8.668,8.668,0,0,0,10.616-10.616l-4.769-17.8a8.668,8.668,0,0,0-14.5-3.886l-13.03,13.03a8.668,8.668,0,0,0,3.886,14.5l17.8,4.769A8.668,8.668,0,0,0,3073.351,4510.952Z" fill="#c6c6c6"/>
      </g>
      <path id="Path_589" data-name="Path 589" d="M3044.8,4516.17l17.684,5.183a8.668,8.668,0,0,0,10.861-10.365l-4.354-17.9a8.669,8.669,0,0,0-14.408-4.223l-13.33,12.722a8.668,8.668,0,0,0,3.547,14.588l17.684,5.183a8.668,8.668,0,0,0,10.861-10.365l-4.354-17.9a8.669,8.669,0,0,0-14.408-4.223l-13.33,12.722A8.668,8.668,0,0,0,3044.8,4516.17Z" fill="#367bff"/>
      <g id="Group_368" data-name="Group 368">
        <path id="Path_590" data-name="Path 590" d="M3066.114,4503.879a8.127,8.127,0,0,0-16.238-.148c0,.118-.008.236-.008.354a8,8,0,0,0,1.164,4.165l-1.464,4.325,4.5-1.43a8.135,8.135,0,0,0,12.05-7.06C3066.118,4504.016,3066.118,4503.948,3066.114,4503.879Zm-8.121,6.984a6.805,6.805,0,0,1-3.758-1.122l-2.625.837.852-2.518a6.72,6.72,0,0,1-1.3-3.975,6.267,6.267,0,0,1,.034-.658,6.834,6.834,0,0,1,13.606.129c.015.175.023.35.023.529A6.812,6.812,0,0,1,3057.993,4510.863Z" fill="#fff" fill-rule="evenodd"/>
        <path id="Path_591" data-name="Path 591" d="M3061.717,4505.713c-.2-.1-1.179-.578-1.362-.643s-.316-.1-.449.1-.517.643-.631.772-.232.148-.434.05a5.41,5.41,0,0,1-1.6-.982,5.936,5.936,0,0,1-1.107-1.365c-.114-.2-.011-.305.088-.4s.2-.232.3-.346c.027-.034.049-.064.072-.1a2.153,2.153,0,0,0,.126-.236.359.359,0,0,0-.015-.346c-.05-.1-.449-1.072-.617-1.468s-.33-.327-.448-.327-.248-.019-.381-.019a.734.734,0,0,0-.532.247,2.213,2.213,0,0,0-.7,1.651,2.546,2.546,0,0,0,.1.673,4.505,4.505,0,0,0,.712,1.37,8.181,8.181,0,0,0,3.4,2.986c2.027.787,2.027.524,2.393.49a1.981,1.981,0,0,0,1.342-.939,1.626,1.626,0,0,0,.118-.94C3062.048,4505.861,3061.915,4505.812,3061.717,4505.713Z" fill="#fff" fill-rule="evenodd"/>
      </g>
    </g>
    <g id="Group_370" data-name="Group 370" transform="translate(-2746.125 -943.782)">
      <path id="Path_592" data-name="Path 592" d="M3250.016,4649.15l-6.148-26.52a12.805,12.805,0,0,0-21.217-6.464l-19.892,18.585a12.806,12.806,0,0,0,5.009,21.607l26.041,7.934a12.806,12.806,0,0,0,16.207-15.142l-6.148-26.52a12.805,12.805,0,0,0-21.217-6.464l-19.892,18.585a12.806,12.806,0,0,0,5.009,21.607l26.041,7.934A12.806,12.806,0,0,0,3250.016,4649.15Z" fill="#fff" opacity="0.05"/>
      <path id="Path_593" data-name="Path 593" d="M3246.578,4648.187l-6.148-26.519a12.806,12.806,0,0,0-21.217-6.465l-19.892,18.585a12.806,12.806,0,0,0,5.01,21.607l26.04,7.935a12.806,12.806,0,0,0,16.207-15.143l-6.148-26.519a12.806,12.806,0,0,0-21.217-6.465l-19.892,18.585a12.806,12.806,0,0,0,5.01,21.607l26.04,7.935A12.806,12.806,0,0,0,3246.578,4648.187Z" fill="#9bbdff" opacity="0.525"/>
      <path id="Path_594" data-name="Path 594" d="M3243.14,4647.225l-6.148-26.519a12.805,12.805,0,0,0-21.217-6.465l-19.892,18.585a12.806,12.806,0,0,0,5.01,21.607l26.04,7.934a12.805,12.805,0,0,0,16.207-15.142l-6.148-26.519a12.805,12.805,0,0,0-21.217-6.465l-19.892,18.585a12.806,12.806,0,0,0,5.01,21.607l26.04,7.934A12.805,12.805,0,0,0,3243.14,4647.225Z" fill="#367bff"/>
    </g>
    <circle id="Ellipse_123" data-name="Ellipse 123" cx="24.5" cy="24.5" r="24.5" transform="translate(449.022 3670.504)" fill="url(#linear-gradient)"/>
    <g id="Group_373" data-name="Group 373" transform="translate(-2746.125 -943.782)">
      <path id="Path_596" data-name="Path 596" d="M3232.81,4636.419a12.006,12.006,0,0,0-23.968-1.033c-.011.174-.023.348-.029.522a11.822,11.822,0,0,0,1.51,6.208l-2.38,6.312,6.716-1.886a12.017,12.017,0,0,0,18.146-9.819C3232.809,4636.621,3232.812,4636.521,3232.81,4636.419Zm-12.341,9.9a10.041,10.041,0,0,1-5.492-1.845l-3.917,1.1,1.384-3.675a9.906,9.906,0,0,1-1.721-5.934,9.451,9.451,0,0,1,.083-.97,10.1,10.1,0,0,1,20.083.873c.013.259.016.518.007.782A10.064,10.064,0,0,1,3220.469,4646.323Z" fill="#fff" fill-rule="evenodd"/>
      <path id="Path_597" data-name="Path 597" d="M3226.226,4638.906c-.293-.156-1.712-.913-1.978-1.018s-.462-.161-.668.124-.8.923-.971,1.108-.35.208-.643.052a7.946,7.946,0,0,1-2.315-1.53,8.762,8.762,0,0,1-1.566-2.071c-.158-.3,0-.45.15-.591s.3-.333.46-.5c.042-.05.077-.093.112-.137a3.3,3.3,0,0,0,.2-.342.526.526,0,0,0,0-.512c-.068-.148-.609-1.606-.836-2.2s-.472-.5-.646-.5-.364-.041-.561-.047a1.086,1.086,0,0,0-.8.338,3.271,3.271,0,0,0-1.11,2.4,3.682,3.682,0,0,0,.118,1,6.614,6.614,0,0,0,.981,2.057,12.084,12.084,0,0,0,4.871,4.58c2.954,1.264,2.967.876,3.508.844a2.937,2.937,0,0,0,2.03-1.32,2.414,2.414,0,0,0,.221-1.381C3226.707,4639.141,3226.513,4639.062,3226.226,4638.906Z" fill="#fff" fill-rule="evenodd"/>
    </g>
  </g>
</svg>
