<svg xmlns="http://www.w3.org/2000/svg" xmlns:xlink="http://www.w3.org/1999/xlink" width="183.562" height="184.16" viewBox="0 0 183.562 184.16">
  <defs>
    <linearGradient id="linear-gradient" y1="0.483" x2="1" y2="0.517" gradientUnits="objectBoundingBox">
      <stop offset="0" stop-color="#57cf77"/>
      <stop offset="1" stop-color="#29f144"/>
    </linearGradient>
  </defs>
  <g id="Group_431" data-name="Group 431" transform="translate(-228.568 -6727.504)">
    <g id="Group_395" data-name="Group 395" transform="translate(280.109 6785.136)">
      <path id="Path_617" data-name="Path 617" d="M3261.83,4657.538l-7.563-32.624a15.753,15.753,0,0,0-26.1-7.952l-24.47,22.863a15.754,15.754,0,0,0,6.162,26.58l32.035,9.76a15.752,15.752,0,0,0,19.937-18.627l-7.563-32.624a15.753,15.753,0,0,0-26.1-7.952l-24.47,22.863a15.754,15.754,0,0,0,6.162,26.58l32.035,9.76A15.752,15.752,0,0,0,3261.83,4657.538Z" transform="translate(-3190.231 -4610.34)" fill="rgba(255,227,65,0.41)" opacity="0.05"/>
      <path id="Path_618" data-name="Path 618" d="M3258.392,4656.575l-7.563-32.624a15.753,15.753,0,0,0-26.1-7.952l-24.471,22.863a15.753,15.753,0,0,0,6.163,26.58l32.034,9.762a15.754,15.754,0,0,0,19.937-18.629l-7.563-32.624a15.753,15.753,0,0,0-26.1-7.952l-24.471,22.863a15.753,15.753,0,0,0,6.163,26.58l32.034,9.762A15.754,15.754,0,0,0,3258.392,4656.575Z" transform="translate(-3191.022 -4610.562)" fill="rgba(255,227,65,0.41)" opacity="0.525"/>
      <path id="Path_619" data-name="Path 619" d="M3254.954,4655.614l-7.563-32.623a15.753,15.753,0,0,0-26.1-7.953l-24.47,22.863a15.753,15.753,0,0,0,6.163,26.58l32.034,9.76a15.752,15.752,0,0,0,19.937-18.627l-7.563-32.623a15.753,15.753,0,0,0-26.1-7.953l-24.47,22.863a15.753,15.753,0,0,0,6.163,26.58l32.034,9.76A15.752,15.752,0,0,0,3254.954,4655.614Z" transform="translate(-3191.813 -4610.783)" fill="rgba(255,227,65,0.41)"/>
    </g>
    <ellipse id="Ellipse_133" data-name="Ellipse 133" cx="30.139" cy="30.139" rx="30.139" ry="30.139" transform="translate(284.212 6789.444)" fill="url(#linear-gradient)"/>
    <g id="Group_398" data-name="Group 398" transform="translate(299.952 6801.89)">
      <path id="Path_621" data-name="Path 621" d="M3238.534,4639.186a14.769,14.769,0,0,0-29.485-1.271c-.014.214-.028.427-.036.643a14.546,14.546,0,0,0,1.858,7.637l-2.928,7.765,8.262-2.321a14.783,14.783,0,0,0,22.323-12.079C3238.532,4639.434,3238.536,4639.311,3238.534,4639.186Zm-15.182,12.183a12.348,12.348,0,0,1-6.756-2.27l-4.819,1.358,1.7-4.52a12.187,12.187,0,0,1-2.117-7.3,11.636,11.636,0,0,1,.1-1.193,12.421,12.421,0,0,1,24.706,1.074c.017.318.02.637.009.962A12.381,12.381,0,0,1,3223.352,4651.369Z" transform="translate(-3207.943 -4624.403)" fill="#fff" fill-rule="evenodd"/>
      <path id="Path_622" data-name="Path 622" d="M3228.8,4640.785c-.361-.191-2.106-1.122-2.433-1.251s-.569-.2-.822.152-.979,1.136-1.195,1.363-.43.256-.791.063a9.75,9.75,0,0,1-2.848-1.882,10.791,10.791,0,0,1-1.926-2.548c-.194-.367,0-.553.185-.727s.373-.409.566-.61c.052-.062.095-.114.138-.169a4.088,4.088,0,0,0,.242-.421.647.647,0,0,0-.006-.629c-.084-.183-.75-1.976-1.029-2.706s-.581-.614-.795-.622-.448-.05-.69-.058a1.337,1.337,0,0,0-.983.416,4.028,4.028,0,0,0-1.365,2.955,4.539,4.539,0,0,0,.146,1.23,8.132,8.132,0,0,0,1.206,2.53c.171.241,2.366,4.064,5.992,5.635,3.634,1.555,3.65,1.077,4.315,1.038a3.614,3.614,0,0,0,2.5-1.624,2.965,2.965,0,0,0,.272-1.7C3229.391,4641.074,3229.152,4640.978,3228.8,4640.785Z" transform="translate(-3206.308 -4622.942)" fill="#fff" fill-rule="evenodd"/>
    </g>
  </g>
</svg>
