<svg xmlns="http://www.w3.org/2000/svg" width="13.232" height="9.054" viewBox="0 0 13.232 9.054"><defs><style>.a{fill:#e5e5e5;}</style></defs><g transform="translate(-19.387 -375.76)"><path class="a" d="M32.442,378.975l-1.593-.367v-2.621a.227.227,0,0,0-.227-.227H19.615a.228.228,0,0,0-.228.227V381.9a.227.227,0,0,0,.228.227h.96l-.006.025a.231.231,0,0,0,.029.172.224.224,0,0,0,.142.1l.118.028,10.26,2.359a.185.185,0,0,0,.033,0,.226.226,0,0,0,.219-.171l1.024-4.446.219-.95a.227.227,0,0,0-.171-.272Zm-1.593,1.671.006,0-.006.024Zm-4.2,1.775a1.7,1.7,0,0,0,.9-.26c.017-.011.032-.023.049-.035h2.914l-.111.483c-.035,0-.069-.005-.1-.006a1.239,1.239,0,0,0-1.175.808l-5.583-1.285h2.145c.043.029.088.057.133.082s.069.036.1.053a1.676,1.676,0,0,0,.337.116A1.754,1.754,0,0,0,26.648,382.421Zm-.266-.295h.531A1.437,1.437,0,0,1,26.382,382.126Zm-6.54-.454v-5.458H30.4v5.458Zm11.138,2.642-9.5-2.188h1.43a.105.105,0,0,0,.08.09l6.186,1.424.016,0a.11.11,0,0,0,.11-.078,1.026,1.026,0,0,1,.975-.75,1.068,1.068,0,0,1,.194.017.107.107,0,0,0,.122-.081l.152-.658a.255.255,0,0,0,.044-.036.225.225,0,0,0,.065-.158v-.282l.234-1.015a.107.107,0,0,0-.074-.127.96.96,0,0,1-.16-.06v-1.34l1.27.292Z"/><path class="a" d="M29.524,377.653a1.081,1.081,0,0,1-1.009-1.046.111.111,0,0,0-.111-.107H21.832a.112.112,0,0,0-.111.107,1.081,1.081,0,0,1-1.008,1.046.111.111,0,0,0-.106.112v2.357a.111.111,0,0,0,.1.111,1.082,1.082,0,0,1,1.009,1.047.112.112,0,0,0,.111.106H28.4a.11.11,0,0,0,.111-.106,1.082,1.082,0,0,1,1.009-1.047.112.112,0,0,0,.106-.111v-2.357A.112.112,0,0,0,29.524,377.653Zm-.118,2.367a1.3,1.3,0,0,0-1.1,1.142H21.935a1.3,1.3,0,0,0-1.1-1.142v-2.154a1.3,1.3,0,0,0,1.1-1.143H28.3a1.3,1.3,0,0,0,1.1,1.143Z"/><path class="a" d="M25.175,377.118a1.826,1.826,0,1,0,1.772,1.825A1.8,1.8,0,0,0,25.175,377.118Zm0,3.367a1.543,1.543,0,1,1,1.489-1.542A1.518,1.518,0,0,1,25.175,380.485Z"/></g></svg>