<svg xmlns="http://www.w3.org/2000/svg" xmlns:xlink="http://www.w3.org/1999/xlink" width="662.45" height="577.604" viewBox="0 0 662.45 577.604">
  <defs>
    <linearGradient id="linear-gradient" x1="1" y1="0.5" x2="0" y2="0.5" gradientUnits="objectBoundingBox">
      <stop offset="0.011" stop-color="#ffd73e"/>
      <stop offset="1" stop-color="#f2a739"/>
    </linearGradient>
    <linearGradient id="linear-gradient-2" x1="1" y1="0.5" x2="0" y2="0.5" gradientUnits="objectBoundingBox">
      <stop offset="0.107" stop-color="#353535"/>
      <stop offset="1" stop-color="#555"/>
    </linearGradient>
    <linearGradient id="linear-gradient-3" x1="1" y1="0.5" x2="0" y2="0.5" gradientUnits="objectBoundingBox">
      <stop offset="0.011" stop-color="#ffcb2b"/>
      <stop offset="1" stop-color="#f29e3a"/>
    </linearGradient>
    <filter id="Path_1660" x="406.713" y="29.885" width="126.016" height="126.016" filterUnits="userSpaceOnUse">
      <feOffset dy="20" input="SourceAlpha"/>
      <feGaussianBlur stdDeviation="15" result="blur"/>
      <feFlood flood-color="#ffd604" flood-opacity="0.278"/>
      <feComposite operator="in" in2="blur"/>
      <feComposite in="SourceGraphic"/>
    </filter>
    <filter id="Path_1660-2" x="312.114" y="129.244" width="132.409" height="132.409" filterUnits="userSpaceOnUse">
      <feOffset dy="20" input="SourceAlpha"/>
      <feGaussianBlur stdDeviation="15" result="blur-2"/>
      <feFlood flood-color="#ffd604" flood-opacity="0.349"/>
      <feComposite operator="in" in2="blur-2"/>
      <feComposite in="SourceGraphic"/>
    </filter>
    <filter id="Path_1660-3" x="197.035" y="0" width="176.721" height="176.721" filterUnits="userSpaceOnUse">
      <feOffset dy="20" input="SourceAlpha"/>
      <feGaussianBlur stdDeviation="15" result="blur-3"/>
      <feFlood flood-color="#ffd604" flood-opacity="0.349"/>
      <feComposite operator="in" in2="blur-3"/>
      <feComposite in="SourceGraphic"/>
    </filter>
    <clipPath id="clip-path">
      <path id="Path_75" data-name="Path 75" d="M27.557,1.837c-3.113,4.422-8.613,7.185-11.377,8.615A62.68,62.68,0,0,0,8.072,15.71C4.224,18.5,4.017,18.3,1.251,13.729c-3.805-6.29,1.887-12.4,6.162-10.421,1.323.613,5.7,1.065,10.444-.01,3.3-.746,8.2-3.3,9.84-3.3.717,0,.809.49-.14,1.837" fill="#262626"/>
    </clipPath>
    <radialGradient id="radial-gradient" cx="53.326" cy="6.865" r="365.495" gradientTransform="matrix(-0.235, 0, 0, 0.055, 65.881, 6.484)" gradientUnits="userSpaceOnUse">
      <stop offset="0" stop-color="#d0dadc"/>
      <stop offset="1" stop-color="#d0dadc" stop-opacity="0"/>
    </radialGradient>
    <radialGradient id="radial-gradient-2" cx="53.344" cy="6.872" r="365.495" gradientTransform="matrix(-0.235, 0, 0, 0.055, 65.904, 6.491)" xlink:href="#radial-gradient"/>
    <radialGradient id="radial-gradient-3" cx="54.639" cy="8.043" r="365.495" gradientTransform="matrix(-0.235, 0, 0, 0.055, 67.504, 7.598)" xlink:href="#radial-gradient"/>
    <radialGradient id="radial-gradient-4" cx="233.961" cy="51.957" r="1065.964" gradientTransform="matrix(-0.23, 0, 0, 0.053, 287.824, 49.203)" xlink:href="#radial-gradient"/>
    <clipPath id="clip-path-3">
      <path id="Path_2" data-name="Path 2" d="M357.758,155.849c.835,10.423,1.421,20.862,2.117,31.291.243,3.618.472,7.241.867,10.844.36,3.291.423,7.88,2.031,10.794a13.414,13.414,0,0,0,1.8,2.321c5.733,6.475,9.425,13.944,13.248,21.549,2.886,5.758,5.316,13.121,9.67,18.029,2.314,2.609.414,6.345-3.814,5.262-5.21-1.331-8.545-2.782-16.821-12.081-4.437-4.988-8.593-10.16-12.775-15.33-10.64-13.15-14.221-30.311-16.8-46.442a138.215,138.215,0,0,1-2.165-23.58c-.137-7.5,1.935-10.5,8.958-12.282a7.52,7.52,0,0,1,1.841-.225c5.781,0,11.564,6.3,11.848,9.848" transform="translate(-335.104 -146.001)" fill="#ef9e35"/>
    </clipPath>
    <clipPath id="clip-path-4">
      <path id="Path_3" data-name="Path 3" d="M384.377,130.765a78.186,78.186,0,0,1,16.142,2.217c5.894,1.3,11.855,2.861,16.9,6.084,5.5,3.507,10.126,9.216,11.548,15.512a63.607,63.607,0,0,1,.883,19.86c-3.213,35.786-7.054,77.014-7.054,77.014l-65.726,2.414c5.2-18.86,7.1-64.8,3.543-93.7-.106-.864-.2-1.726-.263-2.593-.5-6.453.022-13.639,3.994-19.089,4.424-6.075,12.364-7.718,19.656-7.718h.374" transform="translate(-357.072 -130.765)" fill="#f4b939"/>
    </clipPath>
    <clipPath id="clip-path-5">
      <path id="Path_5" data-name="Path 5" d="M431.01,265.8,363.161,268.3s-6.2-13.172-1.794-38.994l65.726-2.414A351.85,351.85,0,0,1,431.01,265.8" transform="translate(-359.786 -226.89)" fill="#103366"/>
    </clipPath>
    <clipPath id="clip-path-6">
      <path id="Path_7" data-name="Path 7" d="M522.808,236.132c.021,0,.044.005.065.005h.1c8.82,0,16.828,6.992,17.8,15.548l6.406,53.706.07.6,7.952,69.9,7.316,64.4a13.615,13.615,0,0,1-8.151,14.3,15.276,15.276,0,0,1-6.117,1.245h-.1c-.017,0-.037,0-.058,0H527.871c-.021,0-.043,0-.061,0H230.155c-8.821,0-16.824-6.992-17.8-15.55L197.785,312.143l-7.177-60.457c-.977-8.556,5.45-15.548,14.268-15.548H502.524c.018,0,.041-.005.061-.005Z" transform="translate(-190.509 -236.132)" fill="#ffcb57"/>
    </clipPath>
    <clipPath id="clip-path-7">
      <path id="Path_8" data-name="Path 8" d="M359.57,382.558c.8,1.34,4.519,4.362,9.57,6.254s15.636,2.481,9.85,4.525-12.657,1.19-16.137.795a75.233,75.233,0,0,0-10.915-.216c-5.377.165-5.427-.143-4.926-5.839a8.237,8.237,0,0,1,8.091-7.754,5.024,5.024,0,0,1,4.467,2.236" transform="translate(-346.812 -380.322)" fill="none"/>
    </clipPath>
    <linearGradient id="linear-gradient-5" x1="-69.06" y1="-69.594" x2="-68.953" y2="-69.594" gradientUnits="objectBoundingBox">
      <stop offset="0" stop-color="#36078b"/>
      <stop offset="1" stop-color="#16b1ff"/>
    </linearGradient>
    <clipPath id="clip-path-8">
      <path id="Path_9" data-name="Path 9" d="M448.376,376.579c.8,1.335,3.141,8.883,8.193,10.776s14.031,4.093,8.248,6.137-12.66,1.188-16.137.8-4.3-4.539-7.937-6.353c-5.619-2.81-4.9-2.527-4.4-8.224.387-4.372,3.275-6.186,6.206-6.186a6.855,6.855,0,0,1,5.826,3.053" transform="translate(-436.011 -373.526)" fill="none"/>
    </clipPath>
    <linearGradient id="linear-gradient-6" x1="-55.528" y1="-73.336" x2="-55.448" y2="-73.336" xlink:href="#linear-gradient-5"/>
    <clipPath id="clip-path-9">
      <path id="Path_10" data-name="Path 10" d="M467.547,325.53c-14.859,14.788-38.477,57.641-53.449,74.28,0,0-2.028-3.641-3.487-4.112a7.928,7.928,0,0,0-4.273-.08,5.922,5.922,0,0,1-4.124-.239c-1-.492-1.939-.95-.674-2.236,9.686-9.792,34.085-82.569,56.62-90.538a21.343,21.343,0,0,1,7.065-1.323c11.086,0,15.234,11.393,2.322,24.248" transform="translate(-400.93 -301.282)" fill="none"/>
    </clipPath>
    <linearGradient id="linear-gradient-7" x1="-11.827" y1="-26.835" x2="-11.81" y2="-26.835" gradientUnits="objectBoundingBox">
      <stop offset="0" stop-color="#ff664f"/>
      <stop offset="1" stop-color="#9e005d"/>
    </linearGradient>
    <clipPath id="clip-path-10">
      <path id="Path_16" data-name="Path 16" d="M390.669,95.875c1.948,3.488-2.018,3.543-4.83,7.239-1.511,1.986-1.627,8.465-2.7,9.349-3.97,3.256-5.412,2.308-7.719-1.371-2.162-3.456,4.163-18.982,10.44-18.98,1.659,0,3.317,1.085,4.814,3.763" transform="translate(-374.982 -92.112)" fill="#0f3265"/>
    </clipPath>
    <clipPath id="clip-path-11">
      <path id="Path_19" data-name="Path 19" d="M390.173,105.136c1.144,3.764-22.456,1.291-29.365-1.267a6.345,6.345,0,0,1-1.975-11.045,21.069,21.069,0,0,1,11.631-3.667c8.756,0,16.687,6.054,19.709,15.979" transform="translate(-356.397 -89.157)" fill="#0f3265"/>
    </clipPath>
    <clipPath id="clip-path-12">
      <path id="Path_22" data-name="Path 22" d="M122.249,284.079C69.633,304.1,41.323,266.733,39.9,240.3c-1.674-30.986,13.328-62.642,13.328-62.642,76.548,20.869,106.6,92.128,69.026,106.423" transform="translate(-39.765 -177.656)" fill="#ffd16b"/>
    </clipPath>
    <clipPath id="clip-path-13">
      <path id="Path_24" data-name="Path 24" d="M82.386,200.771a99.155,99.155,0,0,1,13.738,21.576,135.184,135.184,0,0,1,8.64,23.95c1.121,4.1,1.934,8.259,2.771,12.415.643,4.185,1.428,8.358,1.806,12.577a242.357,242.357,0,0,1,1.337,25.339c-.115,4.227-.1,8.461-.33,12.68-.294,4.219-.391,8.451-.854,12.654a421.309,421.309,0,0,1-7.637,50.123l-.615-.122.418-6.362.61-6.313c.4-4.2.588-8.427.888-12.62.634-8.384,1.09-16.752,1.421-25.09.566-16.671.472-33.288-1.477-49.636-.33-4.107-1.023-8.15-1.6-12.216l-1.147-6.038c-.344-2.025-.947-3.98-1.334-5.988a148.578,148.578,0,0,0-7.4-23.346l-1.179-2.834-1.32-2.766c-.843-1.872-1.856-3.645-2.787-5.477a87.988,87.988,0,0,0-6.531-10.467,70.978,70.978,0,0,0-17.545-17.877l.254-.557c7.851,3.925,14.325,9.871,19.868,16.4" transform="translate(-62.264 -184.375)" fill="#f7bd3a"/>
    </clipPath>
    <clipPath id="clip-path-14">
      <path id="Path_26" data-name="Path 26" d="M97.04,217.734c-1.087,20.125-22.634,48.57-62.692,33.329-28.605-10.882-5.724-65.124,52.547-81.011,0,0,11.42,24.1,10.145,47.682" transform="translate(-22.059 -170.052)" fill="#ffd16b"/>
    </clipPath>
    <clipPath id="clip-path-15">
      <path id="Path_28" data-name="Path 28" d="M89.135,175.5C79.04,189.814,71.212,205.555,64.449,221.59A355.732,355.732,0,0,0,48.1,271.116c-1.035,4.217-1.922,8.473-2.893,12.706l-1.4,6.363L42.7,296.6l-2.178,12.843-1.542,12.931-.769,6.465c-.2,2.161-.3,4.329-.454,6.494l-.848,12.993c-.185,2.163-.227,4.332-.227,6.5l-.071,6.51-.138,13.02-.478.008-.555-6.516-.408-6.533-.4-6.544c-.157-2.182-.272-4.369-.243-6.551l.157-13.119c.027-2.19.053-4.38.171-6.566l.527-6.546c.343-4.364.7-8.738,1.136-13.1l1.891-13.028,1.021-6.507c.418-2.156.909-4.3,1.356-6.447.941-4.293,1.8-8.607,2.807-12.884l3.566-12.717c.558-2.128,1.231-4.224,1.944-6.308s1.367-4.19,2.106-6.268,1.4-4.173,2.208-6.224l2.445-6.15,2.451-6.137,2.778-6.011c7.366-16.01,16.293-31.47,27.788-44.987Z" transform="translate(-34.391 -175.224)" fill="#f7bd3a"/>
    </clipPath>
    <clipPath id="clip-path-16">
      <path id="Path_30" data-name="Path 30" d="M173.26,241.04C97.613,263.531,62.22,208.447,63.137,171.4c1.076-43.417,25.5-86.045,25.5-86.045,104.54,37.06,138.643,139.625,84.623,155.686" transform="translate(-63.119 -85.354)" fill="#ffd16b"/>
    </clipPath>
    <clipPath id="clip-path-17">
      <path id="Path_31" data-name="Path 31" d="M84.561,129.044c3.943,5.385,7.641,10.934,11.181,16.572a350.32,350.32,0,0,1,19.207,34.945A403.566,403.566,0,0,1,141.736,255.3a444.458,444.458,0,0,1,11.882,78.289,508.613,508.613,0,0,1-1.279,79.109l-.746-.064-.216-9.924c-.035-3.3.067-6.586-.043-9.881l-.312-9.872c-.1-3.284-.183-6.564-.447-9.843-.369-6.556-.516-13.1-1.152-19.624-.285-3.262-.479-6.524-.7-9.782l-.972-9.755c-.315-3.247-.628-6.495-1.1-9.723l-1.173-9.709c-.392-3.236-.954-6.451-1.424-9.674-.5-3.217-.937-6.445-1.583-9.637-2.116-12.849-4.833-25.586-8-38.207-3.053-12.648-6.789-25.127-10.942-37.472-4.009-12.4-8.849-24.528-13.934-36.571-5.224-11.986-10.91-23.811-17.236-35.35a280.3,280.3,0,0,0-20.911-33.7l.551-.491a184.516,184.516,0,0,1,12.566,15.63" transform="translate(-71.444 -113.414)" fill="#f7bd3a"/>
    </clipPath>
    <clipPath id="clip-path-19">
      <path id="Path_34" data-name="Path 34" d="M195.586,265.085c-46.25,32.468-83.657,2.86-91.939-22.643-9.7-29.893-3.27-64.525-3.27-64.525,80.292,1.661,128.232,63.985,95.208,87.168" transform="translate(-98.287 -177.917)" fill="#ffd16b"/>
    </clipPath>
    <clipPath id="clip-path-20">
      <path id="Path_36" data-name="Path 36" d="M104.387,199.165l5.634,4.617,5.366,4.9c3.655,3.2,6.956,6.733,10.325,10.206a266.943,266.943,0,0,1,34.643,46.159l6.956,12.617c.568,1.057,1.18,2.089,1.716,3.163l1.512,3.261,3.027,6.521,3.026,6.52c.5,1.091,1.03,2.163,1.491,3.269l1.279,3.35,5.127,13.406c1.844,4.424,3.092,9.039,4.509,13.6l4.176,13.709c2.354,9.246,4.362,18.578,6.558,27.863l-.529.1c-3.229-9.072-5.686-18.258-8.777-27.251l-4.9-13.38c-1.657-4.441-3.017-8.972-5.038-13.272-1.876-4.353-3.734-8.7-5.5-13.075l-1.346-3.274c-.48-1.078-1.036-2.123-1.549-3.185l-3.145-6.352c-1.063-2.11-2.064-4.244-3.08-6.373l-1.517-3.194c-.533-1.051-1.147-2.062-1.719-3.095l-6.951-12.329c-1.077-2.1-2.42-4.047-3.672-6.047l-3.8-5.974c-1.287-1.977-2.483-4.015-3.847-5.942-1.39-1.91-2.815-3.794-4.169-5.732l-4.11-5.782c-1.333-1.956-2.939-3.7-4.4-5.566-3.031-3.633-5.847-7.464-9.1-10.922l-4.752-5.312c-1.533-1.825-3.337-3.384-4.96-5.128l-5.018-5.1-5.282-4.84a167.47,167.47,0,0,0-22.7-17.825l.232-.471a146.367,146.367,0,0,1,24.295,16.161" transform="translate(-79.86 -183.004)" fill="#f7bd3a"/>
    </clipPath>
    <clipPath id="clip-path-21">
      <path id="Path_38" data-name="Path 38" d="M135.318,161.835c2.369.174,4.689.575,7.032.876,2.306.493,4.617.942,6.888,1.541,2.255.684,4.525,1.266,6.711,2.161a50.261,50.261,0,0,1,12.66,6.58l-.146.465a274.582,274.582,0,0,0-27-5.986,146.79,146.79,0,0,0-27.487-2.776l-.014-.483a42.842,42.842,0,0,1,14.225-2.566q.817-.036,1.633-.035c1.838,0,3.671.12,5.5.225" transform="translate(-113.961 -161.61)" fill="#f7bd3a"/>
    </clipPath>
    <clipPath id="clip-path-22">
      <path id="Path_40" data-name="Path 40" d="M132.866,135.879a54.324,54.324,0,0,1,11.658,2.305A56.466,56.466,0,0,1,155.3,142.89a36.743,36.743,0,0,1,9.486,7.325l-.212.439c-3.54-1.455-7.124-2.825-10.712-4.17q-5.4-1.985-10.885-3.7c-3.65-1.17-7.33-2.246-11.052-3.17-3.734-.874-7.49-1.648-11.293-2.18l.056-.481a29.336,29.336,0,0,1,8.711-1.212c1.164,0,2.322.05,3.469.138" transform="translate(-120.631 -135.741)" fill="#f7bd3a"/>
    </clipPath>
    <clipPath id="clip-path-23">
      <path id="Path_42" data-name="Path 42" d="M94.48,145.337a30.511,30.511,0,0,0-3.355,6.3c-.826,1.917-1.448,3.947-2.2,6s-1.533,4.186-2.464,6.4a40.623,40.623,0,0,1-3.7,6.89H82.3a42.005,42.005,0,0,1,.535-7.452,39.718,39.718,0,0,1,1.769-7.293A23.639,23.639,0,0,1,88.2,149.51a14.193,14.193,0,0,1,6.113-4.585Z" transform="translate(-82.294 -144.925)" fill="#f7bd3a"/>
    </clipPath>
    <clipPath id="clip-path-24">
      <path id="Path_44" data-name="Path 44" d="M107.356,123.2a20.505,20.505,0,0,0-1.274,5.279c-.219,1.6-.289,3.248-.436,4.947s-.371,3.446-.648,5.277a27.3,27.3,0,0,1-1.489,5.8l-.339.074a37.239,37.239,0,0,1-.968-11.448,18.415,18.415,0,0,1,1.332-5.64,9.9,9.9,0,0,1,3.624-4.569Z" transform="translate(-102.109 -122.929)" fill="#f7bd3a"/>
    </clipPath>
    <clipPath id="clip-path-25">
      <path id="Path_45" data-name="Path 45" d="M116.717,337.424c-17.258,10.656-29.984-.707-32.385-10.005-2.814-10.89.251-23.146.251-23.146,28.681,2.259,44.454,25.544,32.133,33.151" transform="translate(-83.144 -304.273)" fill="#0d2b5d"/>
    </clipPath>
    <clipPath id="clip-path-26">
      <path id="Path_46" data-name="Path 46" d="M94.236,340.761c-20.079,3.788-27.637-11.3-26.359-20.808,1.492-11.135,8.965-21.448,8.965-21.448,25.844,12.285,31.733,39.553,17.395,42.256" transform="translate(-67.739 -298.505)" fill="#0d2b5d"/>
    </clipPath>
    <clipPath id="clip-path-27">
      <path id="Path_47" data-name="Path 47" d="M71.533,342c-17.827-4.84-17.626-20.028-12.619-27.215,5.866-8.42,16.23-13.821,16.23-13.821,15.765,20.11,9.121,44.492-3.611,41.036" transform="translate(-55.99 -300.961)" fill="#0d2b5d"/>
    </clipPath>
    <clipPath id="clip-path-28">
      <path id="Path_48" data-name="Path 48" d="M52.929,337.626c-12.431-10.72-6.1-22.9.859-26.8,8.154-4.556,18.718-4.962,18.718-4.962,4.565,22.262-10.694,39.412-19.577,31.758" transform="translate(-45.85 -305.868)" fill="#0d2b5d"/>
    </clipPath>
    <clipPath id="clip-path-29">
      <path id="Path_50" data-name="Path 50" d="M128.67,321.932a5.8,5.8,0,0,1,5.874,6.413l-8.31,67.789a5.85,5.85,0,0,1-5.87,5.056H60.075a5.857,5.857,0,0,1-5.875-5.056l-8.306-67.789a5.8,5.8,0,0,1,5.872-6.413Z" transform="translate(-45.851 -321.932)" fill="url(#linear-gradient)"/>
    </clipPath>
    <linearGradient id="linear-gradient-9" x1="12.03" y1="35.093" x2="12.007" y2="35.093" xlink:href="#linear-gradient"/>
    <clipPath id="clip-path-30">
      <path id="Path_52" data-name="Path 52" d="M140.012,317.434a3.821,3.821,0,0,1,3.853,4.355l-1.816,11.522a3.863,3.863,0,0,1-3.855,3.211H45.7a3.867,3.867,0,0,1-3.855-3.211l-1.813-11.522a3.82,3.82,0,0,1,3.853-4.355Z" transform="translate(-39.983 -317.434)" fill="#ffd73e"/>
    </clipPath>
    <clipPath id="clip-path-31">
      <path id="Path_56" data-name="Path 56" d="M309.662,177.379l3.849,12.816c-8.805,17.964-5.6,64.067.453,64.32,0,0-52.984-23.211-54.606-33.081-1.593-9.7,38.218-44.085,49.72-44.089a4.846,4.846,0,0,1,.584.033" transform="translate(-259.312 -177.346)" fill="#0f3265"/>
    </clipPath>
    <clipPath id="clip-path-32">
      <path id="Path_57" data-name="Path 57" d="M266.023,219.4c5.483,3.532,9.609,11.008,10.021,14.833,2.315,21.586,3.486,37.913,4.9,43.293,2.071,7.855-9.137,11.123-11.64,6.6-2.115-3.819-5.773-12.75-9.638-34.674a155.874,155.874,0,0,1-2.705-23.046c-.276-5.369,3.011-7.846,6.109-7.846a5.459,5.459,0,0,1,2.949.841" transform="translate(-256.949 -218.558)" fill="none"/>
    </clipPath>
    <linearGradient id="linear-gradient-10" x1="-35.538" y1="-39.074" x2="-35.479" y2="-39.074" xlink:href="#linear-gradient-7"/>
    <clipPath id="clip-path-33">
      <path id="Path_59" data-name="Path 59" d="M278.75,260.428c-1.538,2.973-5.33,1.433-15.03,6.355-13.97,7.1-18.152,8.284-29.619,10.9-7.485,1.71-13.024-8-4.491-11.708,7.212-3.13,41.234-9.65,45.608-11.562a2.33,2.33,0,0,1,.936-.207c2.349,0,3.706,4.074,2.6,6.219" transform="translate(-225.3 -254.209)" fill="#ef9e35"/>
    </clipPath>
    <clipPath id="clip-path-34">
      <path id="Path_62" data-name="Path 62" d="M287.515,216.635a34.538,34.538,0,0,1,5.466.743,16.956,16.956,0,0,1,8.989,5.351c2.24,2.763,3.336,6.286,4.693,9.494,5.538,13.094,13.7,13.577,7.556,29.309-8.875,22.716,4.236,57.792,4.8,68.96H260.262c.148-1.333,3.282-13.817,3.653-15.364.971-4.084,1.812-8.2,2.393-12.359a68.2,68.2,0,0,0,.088-20.822c-1.6-9.322-3.347-18.7-6.512-27.657q-.848-2.4-1.838-4.752c-1.645-3.887-3.607-7.656-4.917-11.659a23.574,23.574,0,0,1-1.166-11.093c1.45-9.049,12.118-10.915,22.071-10.915,5.144,0,10.095.5,13.482.763" transform="translate(-251.724 -215.872)" fill="#f6bb3a"/>
    </clipPath>
    <clipPath id="clip-path-35">
      <path id="Path_67" data-name="Path 67" d="M281.88,237.933a4.952,4.952,0,0,1,4.569,7.135l-13.362,26.2a5.11,5.11,0,0,1-4.566,2.751H225.467a4.951,4.951,0,0,1-4.568-7.13l13.367-26.209a5.1,5.1,0,0,1,4.564-2.75Z" transform="translate(-220.366 -237.933)" fill="url(#linear-gradient-2)"/>
    </clipPath>
    <linearGradient id="linear-gradient-12" x1="12.568" y1="53.235" x2="12.548" y2="53.235" xlink:href="#linear-gradient-2"/>
    <clipPath id="clip-path-36">
      <rect id="Rectangle_36" data-name="Rectangle 36" width="19.705" height="3.42" fill="#fff"/>
    </clipPath>
    <clipPath id="clip-path-37">
      <path id="Path_73" data-name="Path 73" d="M231.37,328.286c.672,1.267,3.882,4.195,8.324,6.119s13.873,2.83,8.636,4.524-11.338.673-14.431.191a64.832,64.832,0,0,0-9.737-.573c-4.8-.028-4.842-.316-4.2-5.577a7.492,7.492,0,0,1,7.259-6.91,4.5,4.5,0,0,1,4.146,2.226" transform="translate(-219.672 -326.06)" fill="#143061"/>
    </clipPath>
    <clipPath id="clip-path-38">
      <path id="Path_75-3" data-name="Path 75" d="M178.9,409.111c-3.113,4.422-8.613,7.185-11.377,8.615a62.662,62.662,0,0,0-8.108,5.258c-3.848,2.794-4.055,2.589-6.821-1.981-3.805-6.29,1.887-12.4,6.162-10.421,1.323.613,5.7,1.065,10.444-.01,3.3-.746,8.2-3.3,9.84-3.3.717,0,.809.49-.14,1.837" transform="translate(-151.341 -407.274)" fill="#262626"/>
    </clipPath>
    <clipPath id="clip-path-39">
      <path id="Path_76" data-name="Path 76" d="M300.786,184.6c1.116,3.352-4.877,2.762-12.51,2.168-11.247-.87-26.049-1.74-26.909,10-.526,7.194-2.248-15.6,4.818-21.149,3.242-2.547,9.429-4.986,15.8-4.986,7.509,0,15.277,3.385,18.8,13.97" transform="translate(-260.797 -170.627)" fill="#0e3164"/>
    </clipPath>
    <clipPath id="clip-path-40">
      <path id="Path_78" data-name="Path 78" d="M275.166,183.631c1.922,5.129-1.516,15.086-2.072,11.642-.9-5.552-14.079-9.382-13.777-15.845.2-4.261,1.767-5.826,3.849-5.826,4.271,0,10.711,6.581,12,10.028" transform="translate(-259.312 -173.603)" fill="#0e3164"/>
    </clipPath>
    <clipPath id="clip-path-41">
      <path id="Path_80" data-name="Path 80" d="M312.357,171.541l-25.77,24.181a5.338,5.338,0,0,0-1.574,2.693,167.436,167.436,0,0,0-3.2,26.566c-.325,7-11.15,6.926-11.279-.078a70.922,70.922,0,0,1,1.791-15.414c1.837-8.8,3.624-39.185,30.088-39.185a43.978,43.978,0,0,1,9.948,1.237" transform="translate(-270.522 -170.304)" fill="#0e3164"/>
    </clipPath>
    <clipPath id="clip-path-42">
      <path id="Path_82" data-name="Path 82" d="M252.772,285.743c-11.345,15.739-25.9,28.508-46.127,60.027,0,0-1.556-1.282-3.306-2.559-1.081-.786-4.534-.786-9.784,1.736,15.017-24.139,24.657-56.858,43.2-72.645A16.57,16.57,0,0,1,247.327,268c7.789,0,12.9,7.4,5.445,17.747" transform="translate(-193.556 -267.996)" fill="url(#linear-gradient-3)"/>
    </clipPath>
    <linearGradient id="linear-gradient-14" x1="-11.078" y1="-28.924" x2="-11.058" y2="-28.924" xlink:href="#linear-gradient-3"/>
    <clipPath id="clip-path-43">
      <path id="Path_85" data-name="Path 85" d="M291.32,284.07c-10.457,12.231-43.327,42.453-55.622,53.174-18.945,16.514-37.183,14.091-40.412-1.875-.646-3.2.685-8.776,5.845-12.619s60.094-41.751,69.781-49c5.94-4.447,10.531-6.147,13.967-6.147,9.194,0,10.114,12.176,6.441,16.469" transform="translate(-195.135 -267.601)" fill="url(#linear-gradient)"/>
    </clipPath>
    <linearGradient id="linear-gradient-17" x1="-0.2" y1="0.5" x2="1.2" y2="0.5" xlink:href="#linear-gradient"/>
    <clipPath id="clip-path-44">
      <path id="Path_90" data-name="Path 90" d="M305.859,220.82c4.387,4.757,6.435,13,5.843,16.8-3.377,21.453-6.489,37.539-6.514,43.092-.04,8.108-11.735,8.525-12.982,3.538-1.052-4.212-2.269-13.75-.308-35.912a155.792,155.792,0,0,1,3.378-22.961c.954-4.45,3.833-6.276,6.512-6.276a5.544,5.544,0,0,1,4.072,1.716" transform="translate(-290.855 -219.104)" fill="#ef9e35"/>
    </clipPath>
    <clipPath id="clip-path-45">
      <path id="Path_92" data-name="Path 92" d="M316.567,247.355c0,2.644-5.124,3.4-11.935,11.714-9.812,11.975-13.143,14.7-22.532,21.6-6.133,4.5-15.251-2.2-8.993-8.942,5.286-5.694,33.864-25.488,37.807-28.144a2.8,2.8,0,0,1,1.592-.493,4.478,4.478,0,0,1,4.062,4.262" transform="translate(-271.004 -243.093)" fill="#ef9e35"/>
    </clipPath>
    <clipPath id="clip-path-46">
      <path id="Path_96" data-name="Path 96" d="M357.157,141.523c15.359,14.395,22.806,34.716,26.811,40.669a11.972,11.972,0,0,1,3.21.335c8.509,2.175,22.034,11.749,42.157,19.279,3.31,1.237,2.436,7.909-1.67,9.355-5.062,1.787-10.513-.54-22.751-3.718-7.584-1.97-15.317-3.848-22.518-6.956-3.711-1.6-7.709-3.391-10.862-5.881l-.648-.519A106.871,106.871,0,0,1,357.164,180.9c-3.282-3.754-6.4-7.64-9.424-11.592a142.361,142.361,0,0,1-13.253-19.877c-3.72-6.571-.059-14.349,5.668-16.014a11.134,11.134,0,0,1,3.147-.482c4.6,0,8.231,3.316,13.855,8.587" transform="translate(-332.982 -132.937)" fill="#ef9e35"/>
    </clipPath>
  </defs>
  <g id="Group_529" data-name="Group 529" transform="translate(-295.074 -1240.586)">
    <g id="Group_519" data-name="Group 519" transform="translate(746.787 1295.471)" opacity="0.7">
      <g transform="matrix(1, 0, 0, 1, -451.71, -54.88)" filter="url(#Path_1660)">
        <path id="Path_1660-4" data-name="Path 1660" d="M18.008,0A18.008,18.008,0,1,1,0,18.008,18.008,18.008,0,0,1,18.008,0Z" transform="translate(451.71 54.88)" fill="#ffe403"/>
      </g>
      <g id="Group_512" data-name="Group 512" transform="translate(11.573 7.556)">
        <path id="Path_529" data-name="Path 529" d="M3189.3,1229.537h1.105a1.3,1.3,0,0,1,1.107.621l7,11.424h.139l-.139-3.2v-7.543a1.3,1.3,0,0,1,1.3-1.3h0a1.3,1.3,0,0,1,1.3,1.3v14.017a1.3,1.3,0,0,1-1.3,1.3h-.71a1.3,1.3,0,0,1-1.109-.62l-7.371-12.028h-.138l.138,3.2v8.145a1.3,1.3,0,0,1-1.3,1.3h-.024a1.3,1.3,0,0,1-1.3-1.3v-14.017A1.3,1.3,0,0,1,3189.3,1229.537Z" transform="translate(-3188 -1229.537)" fill="#fff"/>
      </g>
      <g id="Group_513" data-name="Group 513" transform="translate(7.952 12.429)">
        <path id="Path_530" data-name="Path 530" d="M3188.9,1233.2h-2.35a1.272,1.272,0,0,0,0,2.544h2.35Z" transform="translate(-3185.277 -1233.2)" fill="#fff"/>
        <path id="Path_531" data-name="Path 531" d="M3199.327,1233.2h-1.472v2.544h1.472a1.272,1.272,0,0,0,0-2.544Z" transform="translate(-3181.122 -1233.2)" fill="#fff"/>
      </g>
      <g id="Group_514" data-name="Group 514" transform="translate(7.952 16.642)">
        <path id="Path_532" data-name="Path 532" d="M3188.9,1236.367h-2.35a1.272,1.272,0,0,0,0,2.544h2.35Z" transform="translate(-3185.277 -1236.367)" fill="#fff"/>
        <path id="Path_533" data-name="Path 533" d="M3199.327,1236.367h-1.472v2.544h1.472a1.272,1.272,0,0,0,0-2.544Z" transform="translate(-3181.122 -1236.367)" fill="#fff"/>
      </g>
    </g>
    <g id="Group_528" data-name="Group 528" transform="translate(652.188 1394.831)">
      <g id="Group_520" data-name="Group 520" transform="translate(0 0)" opacity="0.36">
        <g transform="matrix(1, 0, 0, 1, -357.11, -154.24)" filter="url(#Path_1660-2)">
          <path id="Path_1660-5" data-name="Path 1660" d="M21.2,0A21.2,21.2,0,1,1,0,21.2,21.2,21.2,0,0,1,21.2,0Z" transform="translate(357.11 154.24)" fill="#ffe403"/>
        </g>
        <g id="Group_512-2" data-name="Group 512" transform="translate(13.627 8.897)">
          <path id="Path_529-2" data-name="Path 529" d="M3189.531,1229.537h1.3a1.529,1.529,0,0,1,1.3.732l8.242,13.452h.165l-.165-3.77v-8.882a1.532,1.532,0,0,1,1.531-1.531h0a1.53,1.53,0,0,1,1.53,1.531v16.5a1.529,1.529,0,0,1-1.53,1.53h-.837a1.527,1.527,0,0,1-1.3-.73l-8.68-14.163h-.163l.163,3.772v9.59a1.529,1.529,0,0,1-1.529,1.53h-.028a1.53,1.53,0,0,1-1.531-1.53v-16.5A1.532,1.532,0,0,1,3189.531,1229.537Z" transform="translate(-3188 -1229.537)" fill="#fff"/>
        </g>
        <g id="Group_513-2" data-name="Group 513" transform="translate(9.363 14.635)">
          <path id="Path_530-2" data-name="Path 530" d="M3189.542,1233.2h-2.767a1.5,1.5,0,0,0,0,3h2.767Z" transform="translate(-3185.277 -1233.2)" fill="#fff"/>
          <path id="Path_531-2" data-name="Path 531" d="M3199.589,1233.2h-1.734v3h1.734a1.5,1.5,0,0,0,0-3Z" transform="translate(-3178.152 -1233.2)" fill="#fff"/>
        </g>
        <g id="Group_514-2" data-name="Group 514" transform="translate(9.363 19.596)">
          <path id="Path_532-2" data-name="Path 532" d="M3189.542,1236.367h-2.767a1.5,1.5,0,0,0,0,3h2.767Z" transform="translate(-3185.277 -1236.367)" fill="#fff"/>
          <path id="Path_533-2" data-name="Path 533" d="M3199.589,1236.367h-1.734v3h1.734a1.5,1.5,0,0,0,0-3Z" transform="translate(-3178.152 -1236.367)" fill="#fff"/>
        </g>
      </g>
    </g>
    <g id="Group_521" data-name="Group 521" transform="translate(537.109 1265.586)" opacity="0.7">
      <g transform="matrix(1, 0, 0, 1, -242.04, -25)" filter="url(#Path_1660-3)">
        <path id="Path_1660-6" data-name="Path 1660" d="M43.361,0A43.361,43.361,0,1,1,0,43.361,43.361,43.361,0,0,1,43.361,0Z" transform="translate(242.04 25)" fill="#ffe403"/>
      </g>
      <g id="Group_512-3" data-name="Group 512" transform="translate(27.866 18.193)">
        <path id="Path_529-3" data-name="Path 529" d="M3191.129,1229.537h2.661a3.127,3.127,0,0,1,2.667,1.5l16.854,27.507h.336l-.336-7.711v-18.162a3.132,3.132,0,0,1,3.129-3.13h0a3.13,3.13,0,0,1,3.13,3.13v33.75a3.128,3.128,0,0,1-3.13,3.129h-1.71a3.127,3.127,0,0,1-2.669-1.492l-17.749-28.962h-.333l.333,7.714v19.611a3.127,3.127,0,0,1-3.127,3.129h-.056a3.13,3.13,0,0,1-3.13-3.129v-33.75A3.132,3.132,0,0,1,3191.129,1229.537Z" transform="translate(-3188 -1229.537)" fill="#fff"/>
      </g>
      <g id="Group_513-3" data-name="Group 513" transform="translate(19.147 29.927)">
        <path id="Path_530-3" data-name="Path 530" d="M3194,1233.2h-5.658a3.063,3.063,0,0,0,0,6.125H3194Z" transform="translate(-3185.277 -1233.2)" fill="#fff"/>
        <path id="Path_531-3" data-name="Path 531" d="M3201.4,1233.2h-3.544v6.125h3.544a3.063,3.063,0,0,0,0-6.125Z" transform="translate(-3157.564 -1233.2)" fill="#fff"/>
      </g>
      <g id="Group_514-3" data-name="Group 514" transform="translate(19.147 40.072)">
        <path id="Path_532-3" data-name="Path 532" d="M3194,1236.366h-5.658a3.063,3.063,0,0,0,0,6.125H3194Z" transform="translate(-3185.277 -1236.366)" fill="#fff"/>
        <path id="Path_533-3" data-name="Path 533" d="M3201.4,1236.366h-3.544v6.125h3.544a3.063,3.063,0,0,0,0-6.125Z" transform="translate(-3157.564 -1236.366)" fill="#fff"/>
      </g>
    </g>
    <g id="Group_504" data-name="Group 504" transform="translate(345.696 1357.355)">
      <g id="Group_503" data-name="Group 503" transform="translate(0 0)">
        <g id="Group_452" data-name="Group 452" transform="matrix(0.839, 0.545, -0.545, 0.839, 101.282, 398.838)" opacity="0.85">
          <path id="Path_74" data-name="Path 74" d="M27.557,1.837c-3.113,4.422-8.613,7.185-11.377,8.615A62.68,62.68,0,0,0,8.072,15.71C4.224,18.5,4.017,18.3,1.251,13.729c-3.805-6.29,1.887-12.4,6.162-10.421,1.323.613,5.7,1.065,10.444-.01,3.3-.746,8.2-3.3,9.84-3.3.717,0,.809.49-.14,1.837" transform="translate(0 0)" fill="#262626"/>
          <g id="Group_80" data-name="Group 80" transform="translate(0 0)" clip-path="url(#clip-path)">
            <path id="Path_678" data-name="Path 678" d="M0,36.575l32.1-.446L32.6,0,.5.446Z" transform="matrix(-0.538, -0.843, 0.843, -0.538, 6.339, 32.831)" fill="#262626"/>
          </g>
        </g>
        <g id="Group_453" data-name="Group 453" transform="matrix(0.839, 0.545, -0.545, 0.839, 128.5, 395.083)" opacity="0.81">
          <path id="Path_74-2" data-name="Path 74" d="M27.557,1.837c-3.113,4.422-8.613,7.185-11.377,8.615A62.68,62.68,0,0,0,8.072,15.71C4.224,18.5,4.017,18.3,1.251,13.729c-3.805-6.29,1.887-12.4,6.162-10.421,1.323.613,5.7,1.065,10.444-.01,3.3-.746,8.2-3.3,9.84-3.3.717,0,.809.49-.14,1.837" transform="translate(0 0)" fill="#262626"/>
          <g id="Group_80-2" data-name="Group 80" transform="translate(0 0)" clip-path="url(#clip-path)">
            <path id="Path_678-2" data-name="Path 678" d="M0,36.575l32.1-.446L32.6,0,.5.446Z" transform="matrix(-0.538, -0.843, 0.843, -0.538, 6.339, 32.831)" fill="#262626"/>
          </g>
        </g>
        <path id="Path_685" data-name="Path 685" d="M4986.849,2651.6l3.325,14.025h5.961l3.832-16.178Z" transform="translate(-4920.298 -2245.274)" fill="#3d3a3a" opacity="0.58"/>
        <path id="Path_686" data-name="Path 686" d="M4986.849,2652.386l4.53,19.112h8.122l5.222-22.047Z" transform="translate(-4795.974 -2248.208)" fill="#3d3a3a"/>
        <path id="Path_687" data-name="Path 687" d="M4986.849,2652.386l4.53,19.112h8.122l5.222-22.047Z" transform="translate(-4551.016 -2248.208)" fill="#3d3a3a"/>
        <ellipse id="Ellipse_135" data-name="Ellipse 135" cx="86.055" cy="20.261" rx="86.055" ry="20.261" transform="translate(435.834 370.341)" fill="url(#radial-gradient)"/>
        <ellipse id="Ellipse_136" data-name="Ellipse 136" cx="86.055" cy="20.261" rx="86.055" ry="20.261" transform="translate(439.717 354.019)" fill="url(#radial-gradient-2)"/>
        <ellipse id="Ellipse_137" data-name="Ellipse 137" cx="86.055" cy="20.261" rx="86.055" ry="20.261" transform="translate(187.76 394.542)" fill="url(#radial-gradient-3)"/>
        <ellipse id="Ellipse_138" data-name="Ellipse 138" cx="245.41" cy="56.499" rx="245.41" ry="56.499" transform="translate(35.141 347.837)" opacity="0.37" fill="url(#radial-gradient-4)"/>
        <path id="Path_688" data-name="Path 688" d="M382.729,114.948c-.308.549-6.348,12.425-10.2,21.821-1.89,4.605,1.222,10.737,5.967,12.573.07.028.144.053.211.078,4.693,1.689,11.8-.448,13.126-5.16a128.928,128.928,0,0,1,6.261-16.887Z" transform="translate(-260.845 -77.792)" fill="#d7d7d7"/>
        <g id="Group_454" data-name="Group 454" transform="translate(131.576 76.144)">
          <g id="Group_1" data-name="Group 1" transform="translate(0 0)" clip-path="url(#clip-path-3)">
            <path id="Path_664" data-name="Path 664" d="M0,117.332l119.9-1.817L121.642,0,1.744,1.817Z" transform="matrix(-0.665, -0.747, 0.747, -0.665, 23.927, 139.948)" fill="#ef9e35"/>
          </g>
        </g>
        <g id="Group_455" data-name="Group 455" transform="translate(83.369 57.015)">
          <g id="Group_3" data-name="Group 3" transform="translate(0 0)" clip-path="url(#clip-path-4)">
            <path id="Path_665" data-name="Path 665" d="M0,137.863l142-2.129L144.022,0l-142,2.129Z" transform="translate(29.42 160.971) rotate(-129.565)" fill="#f4b939"/>
          </g>
        </g>
        <g id="Group_456" data-name="Group 456" transform="translate(81.788 177.702)">
          <g id="Group_6" data-name="Group 6" transform="translate(0 0)">
            <path id="Path_4" data-name="Path 4" d="M431.01,265.8,363.161,268.3s-6.2-13.172-1.794-38.994l65.726-2.414A351.85,351.85,0,0,1,431.01,265.8" transform="translate(-359.786 -226.89)" fill="#103366"/>
            <g id="Group_5" data-name="Group 5" transform="translate(0)" clip-path="url(#clip-path-5)">
              <path id="Path_666" data-name="Path 666" d="M0,82.984l59.032-.464L59.664,0,.632.464Z" transform="translate(2.058 60.434) rotate(-105.311)" fill="#103366"/>
            </g>
          </g>
        </g>
        <g id="Group_457" data-name="Group 457" transform="translate(0.001 189.305)">
          <path id="Path_6" data-name="Path 6" d="M522.808,236.132c.021,0,.044.005.065.005h.1c8.82,0,16.828,6.992,17.8,15.548l6.406,53.706.07.6,7.952,69.9,7.316,64.4a13.615,13.615,0,0,1-8.151,14.3,15.276,15.276,0,0,1-6.117,1.245h-.1c-.017,0-.037,0-.058,0H527.871c-.021,0-.043,0-.061,0H230.155c-8.821,0-16.824-6.992-17.8-15.55L197.785,312.143l-7.177-60.457c-.977-8.556,5.45-15.548,14.268-15.548H502.524c.018,0,.041-.005.061-.005Z" transform="translate(-190.509 -236.132)" fill="#ffe5ac"/>
          <g id="Group_8" data-name="Group 8" transform="translate(0 0)" clip-path="url(#clip-path-6)">
            <rect id="Rectangle_4" data-name="Rectangle 4" width="373.624" height="219.723" transform="translate(-0.879 0)" fill="#ffcb57"/>
          </g>
        </g>
        <g id="Group_458" data-name="Group 458" transform="translate(135.942 370.339)">
          <g id="Group_10" data-name="Group 10" transform="translate(0 0)" clip-path="url(#clip-path-7)">
            <path id="Path_667" data-name="Path 667" d="M0,39.824l19.16-.066L19.293,0,.134.066Z" transform="translate(0.136 19.363) rotate(-96.482)" fill="url(#linear-gradient-5)"/>
          </g>
        </g>
        <g id="Group_459" data-name="Group 459" transform="translate(23.669 361.806)">
          <g id="Group_12" data-name="Group 12" transform="translate(0 0)" clip-path="url(#clip-path-8)">
            <path id="Path_668" data-name="Path 668" d="M0,37.886,25.766,37.8,25.893,0,.127.089Z" transform="matrix(-0.113, -0.994, 0.994, -0.113, -0.509, 26.009)" fill="url(#linear-gradient-6)"/>
          </g>
        </g>
        <g id="Group_460" data-name="Group 460" transform="translate(25.141 271.102)">
          <g id="Group_14" data-name="Group 14" transform="translate(0 0)" clip-path="url(#clip-path-9)">
            <path id="Path_669" data-name="Path 669" d="M0,104.851l115.818-.91L116.614,0,.8.91Z" transform="matrix(-0.264, -0.965, 0.965, -0.264, 4.27, 119.345)" fill="url(#linear-gradient-7)"/>
          </g>
        </g>
        <rect id="Rectangle_255" data-name="Rectangle 255" width="478.31" height="150.459" transform="translate(44.621 258.569)" fill="none"/>
        <path id="Path_689" data-name="Path 689" d="M368.4,236.132c8.821,0,16.828,7,17.8,15.556l6.415,53.709h52.456c33.413,0,63.762,26.509,67.452,58.919l7.8,68.533c1.357,11.973-8.957,23.006-21.507,23.006H373.461c-8.82,0-16.838-7-17.805-15.555L341.088,312.148l-7.182-60.46c-.978-8.556,5.452-15.556,14.269-15.556Z" transform="translate(-333.807 -46.827)" fill="#ffde94"/>
        <path id="Path_690" data-name="Path 690" d="M177.372,291.3c27.563,0,52.993,18.061,63.123,42.582C243.9,342.137,252.333,347.4,261.5,347.4h252.39a22.476,22.476,0,0,1,21.874,16.449l13.561,51.106a21.187,21.187,0,0,1-9.041,23.492,21.645,21.645,0,0,1-11.454,3.3h-273.6v0H105.758c-8.824,0-16.845-7-17.808-15.555L75.391,315.719a21.963,21.963,0,0,1,20.1-24.2q2.592-.222,5.268-.222Z" transform="translate(-28.762 -32.73)" fill="#ffde94"/>
        <path id="Path_691" data-name="Path 691" d="M334.031,229.993c3.646.814,9.325,2.1,12.426,2.564s2.246,7.355.462,8.468c-2.65,1.664-11.7,3.082-13.675-.335s-5.746-2.625-6.448-6.073,1.275-5.952,7.235-4.624" transform="translate(-152.635 -48.488)" fill="#d8d8d8"/>
        <path id="Path_692" data-name="Path 692" d="M357.786,113.447c-1.631,11.194-1.908,13.69,1.883,19.331a27.355,27.355,0,0,0,15.65,10.627c5.765,1.369,11.533-3.525,14-7.839,2.55-4.468,6.958-15.325,8.358-27.672.709-6.259-5.155-15.447-13.11-17.335s-22.8-4.46-26.78,22.888" transform="translate(-240.664 -84.299)" fill="#d8d8d8"/>
        <g id="Group_461" data-name="Group 461" transform="translate(117.137 8.485)">
          <path id="Path_15" data-name="Path 15" d="M390.669,95.875c1.948,3.488-2.018,3.543-4.83,7.239-1.511,1.986-1.627,8.465-2.7,9.349-3.97,3.256-5.412,2.308-7.719-1.371-2.162-3.456,4.163-18.982,10.44-18.98,1.659,0,3.317,1.085,4.814,3.763" transform="translate(-374.982 -92.112)" fill="#0f3265"/>
          <g id="Group_16" data-name="Group 16" transform="translate(0 0)" clip-path="url(#clip-path-10)">
            <path id="Path_670" data-name="Path 670" d="M0,30.851l30.48-.464L30.942,0,.462.464Z" transform="matrix(-0.694, -0.72, 0.72, -0.694, 7.585, 33.647)" fill="#0f3265"/>
          </g>
        </g>
        <path id="Path_693" data-name="Path 693" d="M393.113,110.729c.642,4.158-.66,7.792-2.906,8.116s-4.585-2.783-5.223-6.939.663-7.79,2.907-8.113,4.585,2.781,5.221,6.937" transform="translate(-272.671 -80.649)" fill="#d7d7d7"/>
        <g id="Group_462" data-name="Group 462" transform="translate(123.582 4.775)">
          <g id="Group_19" data-name="Group 19" transform="translate(0 0)">
            <path id="Path_18" data-name="Path 18" d="M390.173,105.136c1.144,3.764-22.456,1.291-29.365-1.267a6.345,6.345,0,0,1-1.975-11.045,21.069,21.069,0,0,1,11.631-3.667c8.756,0,16.687,6.054,19.709,15.979" transform="translate(-356.397 -89.157)" fill="#0f3265"/>
            <g id="Group_18" data-name="Group 18" transform="translate(0)" clip-path="url(#clip-path-11)">
              <path id="Path_671" data-name="Path 671" d="M0,40.41l39.355-.6L39.961,0,.605.6Z" transform="translate(15.998 38.279) rotate(-133.951)" fill="#0f3265"/>
            </g>
          </g>
        </g>
        <path id="Path_694" data-name="Path 694" d="M327.677,186.779c3.342,1.022,18.754,4.773,14.691,9.036-4.493,4.712-8.9,5.033-12.56,4.075-6.694-1.749-7.147-3.915-7.043-8,.076-2.894,1.736-6.085,4.912-5.114" transform="translate(-142.1 -59.483)" fill="#d8d8d8"/>
        <g id="Group_463" data-name="Group 463" transform="translate(468.6 115.887)">
          <path id="Path_21" data-name="Path 21" d="M122.249,284.079C69.633,304.1,41.323,266.733,39.9,240.3c-1.674-30.986,13.328-62.642,13.328-62.642,76.548,20.869,106.6,92.128,69.026,106.423" transform="translate(-39.765 -177.656)" fill="#ffe5ac"/>
          <g id="Group_21" data-name="Group 21" transform="translate(0 0)" clip-path="url(#clip-path-12)">
            <path id="Path_642" data-name="Path 642" d="M0,172.722l170.873-2.334L173.169,0,2.3,2.334Z" transform="translate(30.865 182.17) rotate(-121.5)" fill="#ffd16b"/>
          </g>
        </g>
        <g id="Group_464" data-name="Group 464" transform="translate(489.694 124.323)">
          <path id="Path_23" data-name="Path 23" d="M82.386,200.771a99.155,99.155,0,0,1,13.738,21.576,135.184,135.184,0,0,1,8.64,23.95c1.121,4.1,1.934,8.259,2.771,12.415.643,4.185,1.428,8.358,1.806,12.577a242.357,242.357,0,0,1,1.337,25.339c-.115,4.227-.1,8.461-.33,12.68-.294,4.219-.391,8.451-.854,12.654a421.309,421.309,0,0,1-7.637,50.123l-.615-.122.418-6.362.61-6.313c.4-4.2.588-8.427.888-12.62.634-8.384,1.09-16.752,1.421-25.09.566-16.671.472-33.288-1.477-49.636-.33-4.107-1.023-8.15-1.6-12.216l-1.147-6.038c-.344-2.025-.947-3.98-1.334-5.988a148.578,148.578,0,0,0-7.4-23.346l-1.179-2.834-1.32-2.766c-.843-1.872-1.856-3.645-2.787-5.477a87.988,87.988,0,0,0-6.531-10.467,70.978,70.978,0,0,0-17.545-17.877l.254-.557c7.851,3.925,14.325,9.871,19.868,16.4" transform="translate(-62.264 -184.375)" fill="#f7bd3a"/>
          <g id="Group_23" data-name="Group 23" transform="translate(0 0)" clip-path="url(#clip-path-13)">
            <path id="Path_643" data-name="Path 643" d="M0,145.664,185.376,143.1,187.332,0,1.955,2.567Z" transform="translate(12.702 211.946) rotate(-122.303)" fill="#f7bd3a"/>
          </g>
        </g>
        <g id="Group_465" data-name="Group 465" transform="translate(515.067 106.34)">
          <path id="Path_25" data-name="Path 25" d="M97.04,217.734c-1.087,20.125-22.634,48.57-62.692,33.329-28.605-10.882-5.724-65.124,52.547-81.011,0,0,11.42,24.1,10.145,47.682" transform="translate(-22.059 -170.052)" fill="#ffd16b"/>
          <g id="Group_25" data-name="Group 25" transform="translate(0 0)" clip-path="url(#clip-path-14)">
            <path id="Path_644" data-name="Path 644" d="M0,131.822l129.706-1.747L131.483,0,1.777,1.747Z" transform="matrix(-0.853, -0.523, 0.523, -0.853, 51.585, 138.674)" fill="#ffd16b"/>
          </g>
        </g>
        <g id="Group_466" data-name="Group 466" transform="translate(519.441 112.834)">
          <path id="Path_27" data-name="Path 27" d="M89.135,175.5C79.04,189.814,71.212,205.555,64.449,221.59A355.732,355.732,0,0,0,48.1,271.116c-1.035,4.217-1.922,8.473-2.893,12.706l-1.4,6.363L42.7,296.6l-2.178,12.843-1.542,12.931-.769,6.465c-.2,2.161-.3,4.329-.454,6.494l-.848,12.993c-.185,2.163-.227,4.332-.227,6.5l-.071,6.51-.138,13.02-.478.008-.555-6.516-.408-6.533-.4-6.544c-.157-2.182-.272-4.369-.243-6.551l.157-13.119c.027-2.19.053-4.38.171-6.566l.527-6.546c.343-4.364.7-8.738,1.136-13.1l1.891-13.028,1.021-6.507c.418-2.156.909-4.3,1.356-6.447.941-4.293,1.8-8.607,2.807-12.884l3.566-12.717c.558-2.128,1.231-4.224,1.944-6.308s1.367-4.19,2.106-6.268,1.4-4.173,2.208-6.224l2.445-6.15,2.451-6.137,2.778-6.011c7.366-16.01,16.293-31.47,27.788-44.987Z" transform="translate(-34.391 -175.224)" fill="#f7bd3a"/>
          <g id="Group_27" data-name="Group 27" transform="translate(0 0)" clip-path="url(#clip-path-15)">
            <path id="Path_645" data-name="Path 645" d="M0,200.562l154.668-2.114L157.415,0,2.748,2.114Z" transform="translate(40.295 226.393) rotate(-147.697)" fill="#f7bd3a"/>
          </g>
        </g>
        <g id="Group_467" data-name="Group 467" transform="translate(401.49)">
          <path id="Path_29" data-name="Path 29" d="M173.26,241.04C97.613,263.531,62.22,208.447,63.137,171.4c1.076-43.417,25.5-86.045,25.5-86.045,104.54,37.06,138.643,139.625,84.623,155.686" transform="translate(-63.119 -85.354)" fill="#ffd16b"/>
          <g id="Group_29" data-name="Group 29" transform="translate(0)" clip-path="url(#clip-path-16)">
            <path id="Path_646" data-name="Path 646" d="M0,232.118l233.064-2.906L235.871,0,2.807,2.906Z" transform="matrix(-0.456, -0.89, 0.89, -0.456, 32.101, 246.966)" fill="#ffd16b"/>
          </g>
        </g>
        <g id="Group_468" data-name="Group 468" transform="translate(443.08 35.23)">
          <g id="Group_33" data-name="Group 33" transform="translate(0 0)">
            <g id="Group_32" data-name="Group 32" clip-path="url(#clip-path-17)">
              <g id="Group_31" data-name="Group 31" transform="translate(-153.219 -85.114)">
                <path id="Path_647" data-name="Path 647" d="M0,224.268l303.665-3.931L306.471,0,2.806,3.931Z" transform="matrix(-0.481, -0.877, 0.877, -0.481, 147.381, 376.557)" fill="#f7bd3a"/>
              </g>
            </g>
          </g>
          <g id="Group_36" data-name="Group 36" transform="translate(0 0)">
            <g id="Group_35" data-name="Group 35" clip-path="url(#clip-path-17)">
              <g id="Group_34" data-name="Group 34" transform="translate(-153.219 -85.114)">
                <path id="Path_648" data-name="Path 648" d="M0,224.268l303.665-3.931L306.471,0,2.806,3.931Z" transform="matrix(-0.481, -0.877, 0.877, -0.481, 147.381, 376.557)" fill="#f7bd3a"/>
                <path id="Path_649" data-name="Path 649" d="M0,224.268l303.665-3.931L306.471,0,2.806,3.931Z" transform="matrix(-0.481, -0.877, 0.877, -0.481, 147.381, 376.557)" fill="#f7bd3a"/>
              </g>
            </g>
          </g>
        </g>
        <g id="Group_469" data-name="Group 469" transform="translate(383.625 116.215)">
          <path id="Path_33" data-name="Path 33" d="M195.586,265.085c-46.25,32.468-83.657,2.86-91.939-22.643-9.7-29.893-3.27-64.525-3.27-64.525,80.292,1.661,128.232,63.985,95.208,87.168" transform="translate(-98.287 -177.917)" fill="#ffd16b"/>
          <g id="Group_38" data-name="Group 38" transform="translate(0 0)" clip-path="url(#clip-path-19)">
            <path id="Path_650" data-name="Path 650" d="M0,182.179l179.9-2.736L182.631,0,2.732,2.736Z" transform="matrix(-0.719, -0.695, 0.695, -0.719, 65.351, 188.776)" fill="#ffd16b"/>
          </g>
        </g>
        <g id="Group_470" data-name="Group 470" transform="translate(395.459 122.602)">
          <path id="Path_35" data-name="Path 35" d="M104.387,199.165l5.634,4.617,5.366,4.9c3.655,3.2,6.956,6.733,10.325,10.206a266.943,266.943,0,0,1,34.643,46.159l6.956,12.617c.568,1.057,1.18,2.089,1.716,3.163l1.512,3.261,3.027,6.521,3.026,6.52c.5,1.091,1.03,2.163,1.491,3.269l1.279,3.35,5.127,13.406c1.844,4.424,3.092,9.039,4.509,13.6l4.176,13.709c2.354,9.246,4.362,18.578,6.558,27.863l-.529.1c-3.229-9.072-5.686-18.258-8.777-27.251l-4.9-13.38c-1.657-4.441-3.017-8.972-5.038-13.272-1.876-4.353-3.734-8.7-5.5-13.075l-1.346-3.274c-.48-1.078-1.036-2.123-1.549-3.185l-3.145-6.352c-1.063-2.11-2.064-4.244-3.08-6.373l-1.517-3.194c-.533-1.051-1.147-2.062-1.719-3.095l-6.951-12.329c-1.077-2.1-2.42-4.047-3.672-6.047l-3.8-5.974c-1.287-1.977-2.483-4.015-3.847-5.942-1.39-1.91-2.815-3.794-4.169-5.732l-4.11-5.782c-1.333-1.956-2.939-3.7-4.4-5.566-3.031-3.633-5.847-7.464-9.1-10.922l-4.752-5.312c-1.533-1.825-3.337-3.384-4.96-5.128l-5.018-5.1-5.282-4.84a167.47,167.47,0,0,0-22.7-17.825l.232-.471a146.367,146.367,0,0,1,24.295,16.161" transform="translate(-79.86 -183.004)" fill="#f7bd3a"/>
          <g id="Group_40" data-name="Group 40" transform="translate(0 0)" clip-path="url(#clip-path-20)">
            <path id="Path_651" data-name="Path 651" d="M0,224.643l217.2-3.289L220.558,0,3.361,3.289Z" transform="matrix(-0.738, -0.674, 0.674, -0.738, 65.629, 252.016)" fill="#f7bd3a"/>
          </g>
        </g>
        <g id="Group_471" data-name="Group 471" transform="translate(416.545 95.741)">
          <g id="Group_43" data-name="Group 43" transform="translate(0 0)">
            <path id="Path_37" data-name="Path 37" d="M135.318,161.835c2.369.174,4.689.575,7.032.876,2.306.493,4.617.942,6.888,1.541,2.255.684,4.525,1.266,6.711,2.161a50.261,50.261,0,0,1,12.66,6.58l-.146.465a274.582,274.582,0,0,0-27-5.986,146.79,146.79,0,0,0-27.487-2.776l-.014-.483a42.842,42.842,0,0,1,14.225-2.566q.817-.036,1.633-.035c1.838,0,3.671.12,5.5.225" transform="translate(-113.961 -161.61)" fill="#f7bd3a"/>
            <g id="Group_42" data-name="Group 42" transform="translate(0)" clip-path="url(#clip-path-21)">
              <path id="Path_652" data-name="Path 652" d="M0,53.883l36.135-.468L36.815,0,.68.468Z" transform="matrix(-0.481, -0.877, 0.877, -0.481, 12.555, 35.019)" fill="#f7bd3a"/>
            </g>
          </g>
        </g>
        <g id="Group_472" data-name="Group 472" transform="translate(418.405 63.262)">
          <g id="Group_46" data-name="Group 46" transform="translate(0 0)">
            <path id="Path_39" data-name="Path 39" d="M132.866,135.879a54.324,54.324,0,0,1,11.658,2.305A56.466,56.466,0,0,1,155.3,142.89a36.743,36.743,0,0,1,9.486,7.325l-.212.439c-3.54-1.455-7.124-2.825-10.712-4.17q-5.4-1.985-10.885-3.7c-3.65-1.17-7.33-2.246-11.052-3.17-3.734-.874-7.49-1.648-11.293-2.18l.056-.481a29.336,29.336,0,0,1,8.711-1.212c1.164,0,2.322.05,3.469.138" transform="translate(-120.631 -135.741)" fill="#f7bd3a"/>
            <g id="Group_45" data-name="Group 45" transform="translate(0)" clip-path="url(#clip-path-22)">
              <path id="Path_653" data-name="Path 653" d="M0,46.856l29.341-.3L29.808,0,.468.3Z" transform="translate(5.517 29.744) rotate(-110.923)" fill="#f7bd3a"/>
            </g>
          </g>
        </g>
        <g id="Group_473" data-name="Group 473" transform="translate(499.996 74.793)">
          <path id="Path_41" data-name="Path 41" d="M94.48,145.337a30.511,30.511,0,0,0-3.355,6.3c-.826,1.917-1.448,3.947-2.2,6s-1.533,4.186-2.464,6.4a40.623,40.623,0,0,1-3.7,6.89H82.3a42.005,42.005,0,0,1,.535-7.452,39.718,39.718,0,0,1,1.769-7.293A23.639,23.639,0,0,1,88.2,149.51a14.193,14.193,0,0,1,6.113-4.585Z" transform="translate(-82.294 -144.925)" fill="#f7bd3a"/>
          <g id="Group_48" data-name="Group 48" transform="translate(0 0)" clip-path="url(#clip-path-23)">
            <rect id="Rectangle_23" data-name="Rectangle 23" width="26.033" height="12.315" transform="translate(-0.049 26.034) rotate(-90.172)" fill="#f7bd3a"/>
          </g>
        </g>
        <g id="Group_474" data-name="Group 474" transform="translate(481.288 47.176)">
          <path id="Path_43" data-name="Path 43" d="M107.356,123.2a20.505,20.505,0,0,0-1.274,5.279c-.219,1.6-.289,3.248-.436,4.947s-.371,3.446-.648,5.277a27.3,27.3,0,0,1-1.489,5.8l-.339.074a37.239,37.239,0,0,1-.968-11.448,18.415,18.415,0,0,1,1.332-5.64,9.9,9.9,0,0,1,3.624-4.569Z" transform="translate(-102.109 -122.929)" fill="#f7bd3a"/>
          <g id="Group_50" data-name="Group 50" transform="translate(0)" clip-path="url(#clip-path-24)">
            <path id="Path_654" data-name="Path 654" d="M0,10.29l22.316-.146L22.38,0,.065.146Z" transform="translate(-0.05 22.87) rotate(-102.579)" fill="#f7bd3a"/>
          </g>
        </g>
        <g id="Group_475" data-name="Group 475" transform="translate(473.28 274.858)">
          <g id="Group_52" data-name="Group 52" transform="translate(0 0)" clip-path="url(#clip-path-25)">
            <path id="Path_672" data-name="Path 672" d="M0,65.624l64.34-.977L65.32,0,.979.977Z" transform="matrix(-0.676, -0.737, 0.737, -0.676, 20.058, 68.152)" fill="#0d2b5d"/>
          </g>
        </g>
        <g id="Group_476" data-name="Group 476" transform="translate(496.889 267.616)">
          <g id="Group_54" data-name="Group 54" transform="translate(0 0)" clip-path="url(#clip-path-26)">
            <path id="Path_673" data-name="Path 673" d="M0,56.62l57.839-.6L58.4,0,.566.6Z" transform="translate(3.937 60.453) rotate(-111.083)" fill="#0d2b5d"/>
          </g>
        </g>
        <g id="Group_477" data-name="Group 477" transform="translate(517.858 270.699)">
          <g id="Group_56" data-name="Group 56" transform="translate(0 0)" clip-path="url(#clip-path-27)">
            <path id="Path_674" data-name="Path 674" d="M0,47.91l41.457-.12L41.6,0,.142.12Z" transform="matrix(-0.995, -0.097, 0.097, -0.995, 34.701, 48.103)" fill="#0d2b5d"/>
          </g>
        </g>
        <g id="Group_478" data-name="Group 478" transform="translate(531.863 276.861)">
          <g id="Group_58" data-name="Group 58" transform="translate(0 0)" clip-path="url(#clip-path-28)">
            <path id="Path_675" data-name="Path 675" d="M0,53.291l52-.7L52.715,0,.719.7Z" transform="translate(21.456 56.204) rotate(-148.452)" fill="#0d2b5d"/>
          </g>
        </g>
        <g id="Group_479" data-name="Group 479" transform="translate(470.617 297.029)">
          <path id="Path_49" data-name="Path 49" d="M128.67,321.932a5.8,5.8,0,0,1,5.874,6.413l-8.31,67.789a5.85,5.85,0,0,1-5.87,5.056H60.075a5.857,5.857,0,0,1-5.875-5.056l-8.306-67.789a5.8,5.8,0,0,1,5.872-6.413Z" transform="translate(-45.851 -321.932)" fill="url(#linear-gradient)"/>
          <g id="Group_60" data-name="Group 60" transform="translate(0)" clip-path="url(#clip-path-29)">
            <rect id="Rectangle_29" data-name="Rectangle 29" width="89.49" height="79.258" transform="translate(-0.378 0)" fill="url(#linear-gradient-9)"/>
          </g>
        </g>
        <g id="Group_480" data-name="Group 480" transform="translate(463.02 291.382)">
          <path id="Path_51" data-name="Path 51" d="M140.012,317.434a3.821,3.821,0,0,1,3.853,4.355l-1.816,11.522a3.863,3.863,0,0,1-3.855,3.211H45.7a3.867,3.867,0,0,1-3.855-3.211l-1.813-11.522a3.82,3.82,0,0,1,3.853-4.355Z" transform="translate(-39.983 -317.434)" fill="#ffd73e"/>
          <g id="Group_62" data-name="Group 62" transform="translate(0 0)" clip-path="url(#clip-path-30)">
            <rect id="Rectangle_30" data-name="Rectangle 30" width="104.562" height="19.088" transform="translate(-0.317 0.001)" fill="#ffd73e"/>
          </g>
        </g>
        <path id="Path_695" data-name="Path 695" d="M320.818,191.936c1.425.643,9.858,4.486,9.13,5.78-1.107,1.965-6.778-.334-10.536-1.847-2.039-.817-4.15-3-3.183-4.215s2.306-.747,4.588.281" transform="translate(-120.291 -58.377)" fill="#d8d8d8"/>
        <g id="Group_481" data-name="Group 481" transform="translate(337.899 258.565)">
          <path id="Path_54" data-name="Path 54" d="M182.36,291.3c33.419,0,63.767,26.51,67.451,58.932l1.322,11.573,6.478,56.948c1.362,11.968-8.952,23.006-21.5,23.006H110.741a17.493,17.493,0,0,1-6.406-1.245,18,18,0,0,1-11.4-14.3L85.62,361.8l-7.251-63.754A55.517,55.517,0,0,1,97.218,291.9a59.973,59.973,0,0,1,8.539-.6Z" transform="translate(-78.369 -291.296)" fill="#ffde94"/>
        </g>
        <g id="Group_482" data-name="Group 482" transform="translate(228.407 115.498)">
          <path id="Path_55" data-name="Path 55" d="M309.662,177.379l3.849,12.816c-8.805,17.964-5.6,64.067.453,64.32,0,0-52.984-23.211-54.606-33.081-1.593-9.7,38.218-44.085,49.72-44.089a4.846,4.846,0,0,1,.584.033" transform="translate(-259.312 -177.346)" fill="#0f3265"/>
          <g id="Group_65" data-name="Group 65" transform="translate(0 0)" clip-path="url(#clip-path-31)">
            <path id="Path_655" data-name="Path 655" d="M0,73.6l71.878-.655L72.559,0,.681.655Z" transform="translate(48.941 75.716) rotate(-161.361)" fill="#0f3265"/>
          </g>
        </g>
        <g id="Group_483" data-name="Group 483" transform="translate(261.865 167.24)">
          <g id="Group_67" data-name="Group 67" transform="translate(0 0)" clip-path="url(#clip-path-32)">
            <path id="Path_656" data-name="Path 656" d="M0,72.919l35.216-.132L35.5,0,.281.132Z" transform="translate(25.913 73.451) rotate(-172.754)" fill="url(#linear-gradient-10)"/>
          </g>
        </g>
        <g id="Group_484" data-name="Group 484" transform="translate(273.239 212.001)">
          <path id="Path_58" data-name="Path 58" d="M278.75,260.428c-1.538,2.973-5.33,1.433-15.03,6.355-13.97,7.1-18.152,8.284-29.619,10.9-7.485,1.71-13.024-8-4.491-11.708,7.212-3.13,41.234-9.65,45.608-11.562a2.33,2.33,0,0,1,.936-.207c2.349,0,3.706,4.074,2.6,6.219" transform="translate(-225.3 -254.209)" fill="#ef9e35"/>
          <g id="Group_69" data-name="Group 69" transform="translate(0 0)" clip-path="url(#clip-path-33)">
            <path id="Path_657" data-name="Path 657" d="M0,64.414l44.463-.466L45.118,0,.655.466Z" transform="matrix(-0.365, -0.931, 0.931, -0.365, 3.431, 45.361)" fill="#ef9e35"/>
          </g>
        </g>
        <path id="Path_696" data-name="Path 696" d="M279.927,201.145c-.069.618-1.081,13.786-1.261,23.893-.087,4.953,3.6,9.658,7.277,9.774.052,0,.1,0,.162,0,3.6,0,7.849-4.4,7.528-9.259a175.959,175.959,0,0,1-.127-17.941Z" transform="translate(-35.639 -55.767)" fill="#d8d8d8"/>
        <g id="Group_485" data-name="Group 485" transform="translate(225.588 163.868)">
          <g id="Group_72" data-name="Group 72" transform="translate(0)">
            <path id="Path_61" data-name="Path 61" d="M287.515,216.635a34.538,34.538,0,0,1,5.466.743,16.956,16.956,0,0,1,8.989,5.351c2.24,2.763,3.336,6.286,4.693,9.494,5.538,13.094,13.7,13.577,7.556,29.309-8.875,22.716,4.236,57.792,4.8,68.96H260.262c.148-1.333,3.282-13.817,3.653-15.364.971-4.084,1.812-8.2,2.393-12.359a68.2,68.2,0,0,0,.088-20.822c-1.6-9.322-3.347-18.7-6.512-27.657q-.848-2.4-1.838-4.752c-1.645-3.887-3.607-7.656-4.917-11.659a23.574,23.574,0,0,1-1.166-11.093c1.45-9.049,12.118-10.915,22.071-10.915,5.144,0,10.095.5,13.482.763" transform="translate(-251.724 -215.872)" fill="#f6bb3a"/>
            <g id="Group_71" data-name="Group 71" transform="translate(0)" clip-path="url(#clip-path-34)">
              <path id="Path_658" data-name="Path 658" d="M0,92.647l126.163-.789L126.722,0,.559.789Z" transform="translate(1.939 128.891) rotate(-101.952)" fill="#f6bb3a"/>
            </g>
          </g>
        </g>
        <path id="Path_697" data-name="Path 697" d="M266.989,243.525c2.7-2.18,6.29-4.376,8.821-4.693s-1.684,3.08-3.6,4.866-7.492,1.661-5.223-.173" transform="translate(-2.78 -46.142)" fill="#d8d8d8"/>
        <path id="Path_698" data-name="Path 698" d="M264.409,242.445c7.125-1.289,10.694-3.112,14.022-1.99s-1.3,5.7-3.71,6.514-10.856,4.24-13.444,2.7-2.128-6.265,3.132-7.222" transform="translate(2.909 -45.811)" fill="#d8d8d8"/>
        <g id="Group_486" data-name="Group 486" transform="translate(266.851 191.567)">
          <path id="Path_65" data-name="Path 65" d="M281.88,237.933a4.952,4.952,0,0,1,4.569,7.135l-13.362,26.2a5.11,5.11,0,0,1-4.566,2.751H225.467a4.951,4.951,0,0,1-4.568-7.13l13.367-26.209a5.1,5.1,0,0,1,4.564-2.75Z" transform="translate(-220.366 -237.933)" fill="url(#linear-gradient-2)"/>
          <g id="Group_74" data-name="Group 74" transform="translate(0 0)" clip-path="url(#clip-path-35)">
            <path id="Path_66" data-name="Path 66" d="M223.5,239.814l-17.674,45.334L292.4,275.9l17.674-45.334Z" transform="translate(-224.643 -239.815)" fill="url(#linear-gradient-12)"/>
          </g>
        </g>
        <g id="Group_487" data-name="Group 487" transform="translate(294.394 207.904)">
          <rect id="Rectangle_35" data-name="Rectangle 35" width="19.705" height="3.42" transform="translate(0 0)" fill="#fff"/>
          <g id="Group_76" data-name="Group 76" transform="translate(0 0)" clip-path="url(#clip-path-36)">
            <path id="Path_68" data-name="Path 68" d="M253.128,252.175h-17.8l.688-1.237h17.8Z" transform="translate(-234.109 -250.947)" fill="#fff"/>
            <path id="Path_69" data-name="Path 69" d="M252.75,253.928H240.768l.686-1.239h11.981Z" transform="translate(-240.769 -250.5)" fill="#fff"/>
          </g>
        </g>
        <path id="Path_699" data-name="Path 699" d="M261.317,196.727c-1.371,11.223-1.589,13.723,2.33,19.282a27.408,27.408,0,0,0,15.889,10.276c5.795,1.24,11.441-3.775,13.809-8.141,2.45-4.52,6.6-15.466,7.713-27.837.564-6.271-5.509-15.327-13.508-17.04s-22.891-3.962-26.234,23.459" transform="translate(-19.464 -63.124)" fill="#d8d8d8"/>
        <path id="Path_700" data-name="Path 700" d="M222.863,259.576a42.388,42.388,0,0,1,6.276-7.262c3.136-2.339,6.377-1.775,6.7-.708.481,1.587.5,6.035-1.425,7.694a8.916,8.916,0,0,1-6.117,1.991c-1.949-.174-7.059,1.079-5.436-1.715" transform="translate(94.53 -43.109)" fill="#d8d8d8"/>
        <g id="Group_488" data-name="Group 488" transform="translate(304.168 302.212)">
          <path id="Path_72" data-name="Path 72" d="M231.37,328.286c.672,1.267,3.882,4.195,8.324,6.119s13.873,2.83,8.636,4.524-11.338.673-14.431.191a64.832,64.832,0,0,0-9.737-.573c-4.8-.028-4.842-.316-4.2-5.577a7.492,7.492,0,0,1,7.259-6.91,4.5,4.5,0,0,1,4.146,2.226" transform="translate(-219.672 -326.06)" fill="#143061"/>
          <g id="Group_78" data-name="Group 78" transform="translate(0 0)" clip-path="url(#clip-path-37)">
            <path id="Path_676" data-name="Path 676" d="M0,17.3l35.343-.086L35.386,0,.043.086Z" transform="translate(33.705 17.337) rotate(-175.358)" fill="#143061"/>
          </g>
        </g>
        <g id="Group_489" data-name="Group 489" transform="translate(394.559 404.178)">
          <path id="Path_74-3" data-name="Path 74" d="M178.9,409.111c-3.113,4.422-8.613,7.185-11.377,8.615a62.662,62.662,0,0,0-8.108,5.258c-3.848,2.794-4.055,2.589-6.821-1.981-3.805-6.29,1.887-12.4,6.162-10.421,1.323.613,5.7,1.065,10.444-.01,3.3-.746,8.2-3.3,9.84-3.3.717,0,.809.49-.14,1.837" transform="translate(-151.341 -407.274)" fill="#262626"/>
          <g id="Group_80-3" data-name="Group 80" transform="translate(0 0)" clip-path="url(#clip-path-38)">
            <path id="Path_678-3" data-name="Path 678" d="M0,36.575l32.1-.446L32.6,0,.5.446Z" transform="matrix(-0.538, -0.843, 0.843, -0.538, 6.339, 32.831)" fill="#262626"/>
          </g>
        </g>
        <g id="Group_490" data-name="Group 490" transform="translate(241.014 107.062)">
          <g id="Group_82" data-name="Group 82" transform="translate(0 0)" clip-path="url(#clip-path-39)">
            <path id="Path_659" data-name="Path 659" d="M0,45.454l51.364-.468L51.784,0,.42.468Z" transform="translate(36.984 46.474) rotate(-161.361)" fill="#0e3164"/>
          </g>
        </g>
        <g id="Group_491" data-name="Group 491" transform="translate(266.627 110.799)">
          <g id="Group_84" data-name="Group 84" transform="translate(0)" clip-path="url(#clip-path-40)">
            <path id="Path_77" data-name="Path 77" d="M250.948,197.045l11.328-26.939,25.708,6.956L276.656,204Z" transform="translate(-260.726 -174.496)" fill="#0e3164"/>
          </g>
        </g>
        <g id="Group_492" data-name="Group 492" transform="translate(226.715 106.657)">
          <path id="Path_79" data-name="Path 79" d="M312.357,171.541l-25.77,24.181a5.338,5.338,0,0,0-1.574,2.693,167.436,167.436,0,0,0-3.2,26.566c-.325,7-11.15,6.926-11.279-.078a70.922,70.922,0,0,1,1.791-15.414c1.837-8.8,3.624-39.185,30.088-39.185a43.978,43.978,0,0,1,9.948,1.237" transform="translate(-270.522 -170.304)" fill="#372f55"/>
          <g id="Group_86" data-name="Group 86" transform="translate(0 0)" clip-path="url(#clip-path-41)">
            <path id="Path_660" data-name="Path 660" d="M0,85.521l68.906-.628L69.7,0,.792.628Z" transform="translate(37.557 88.579) rotate(-161.361)" fill="#0e3164"/>
          </g>
        </g>
        <g id="Group_493" data-name="Group 493" transform="translate(305.318 229.311)">
          <path id="Path_81" data-name="Path 81" d="M252.772,285.743c-11.345,15.739-25.9,28.508-46.127,60.027,0,0-1.556-1.282-3.306-2.559-1.081-.786-4.534-.786-9.784,1.736,15.017-24.139,24.657-56.858,43.2-72.645A16.57,16.57,0,0,1,247.327,268c7.789,0,12.9,7.4,5.445,17.747" transform="translate(-193.556 -267.996)" fill="url(#linear-gradient-3)"/>
          <g id="Group_88" data-name="Group 88" transform="translate(0 0)" clip-path="url(#clip-path-42)">
            <path id="Path_661" data-name="Path 661" d="M0,99.26l100.922-1.376L102.238,0,1.317,1.376Z" transform="matrix(-0.521, -0.854, 0.854, -0.521, 17.615, 108.379)" fill="url(#linear-gradient-14)"/>
          </g>
        </g>
        <path id="Path_701" data-name="Path 701" d="M309.693,307.165s15.069,19.656-8.119,36.184H260.462s-19.735,1.35-9.525-36.184Z" transform="translate(-16.812 -28.676)" fill="url(#linear-gradient)"/>
        <g id="Group_494" data-name="Group 494" transform="translate(267.93 228.815)">
          <path id="Path_84" data-name="Path 84" d="M291.32,284.07c-10.457,12.231-43.327,42.453-55.622,53.174-18.945,16.514-37.183,14.091-40.412-1.875-.646-3.2.685-8.776,5.845-12.619s60.094-41.751,69.781-49c5.94-4.447,10.531-6.147,13.967-6.147,9.194,0,10.114,12.176,6.441,16.469" transform="translate(-195.135 -267.601)" fill="url(#linear-gradient)"/>
          <g id="Group_90" data-name="Group 90" transform="translate(0 0)" clip-path="url(#clip-path-43)">
            <path id="Path_662" data-name="Path 662" d="M0,132.569l125.3-1.709L127.062,0,1.76,1.709Z" transform="matrix(-0.521, -0.854, 0.854, -0.521, 26.213, 131.843)" fill="url(#linear-gradient-17)"/>
          </g>
        </g>
        <path id="Path_702" data-name="Path 702" d="M189.705,312.364a55.1,55.1,0,0,1,15.256,2.285c12.92,3.751,57.277,28.871,74.816,38.1a8.608,8.608,0,0,1,3.377,3.706,25.306,25.306,0,0,1,2.719,3.739c9.957,16.557,41.457,61.468,52.3,75.1a12.752,12.752,0,0,0-4.742.2c-1.069.36-2.378,2.412-3.7,4.976-.449.875-.872,1.691-2.088.541-9.092-8.622-53.655-51.234-62.652-71.846-.447-.139-.88-.267-1.345-.426-11.538-3.944-76.259-21.672-82.406-23.754s-12.384-5.606-14.459-12.18C162.97,320.728,173.693,312.361,189.705,312.364Z" transform="translate(65.652 -27.348)" fill="url(#linear-gradient)"/>
        <path id="Path_703" data-name="Path 703" d="M297.4,194.82c1.636,3.891,1.263,7.719-.837,8.551s-5.132-1.647-6.769-5.537-1.265-7.715.836-8.549,5.133,1.646,6.771,5.534" transform="translate(-53.49 -58.838)" fill="#d8d8d8"/>
        <g id="Group_495" data-name="Group 495" transform="translate(221.285 167.926)">
          <g id="Group_93" data-name="Group 93" transform="translate(0 0)">
            <path id="Path_88" data-name="Path 88" d="M305.859,220.82c4.387,4.757,6.435,13,5.843,16.8-3.377,21.453-6.489,37.539-6.514,43.092-.04,8.108-11.735,8.525-12.982,3.538-1.052-4.212-2.269-13.75-.308-35.912a155.792,155.792,0,0,1,3.378-22.961c.954-4.45,3.833-6.276,6.512-6.276a5.544,5.544,0,0,1,4.072,1.716" transform="translate(-290.855 -219.104)" fill="#ef9e35"/>
            <g id="Group_92" data-name="Group 92" clip-path="url(#clip-path-44)">
              <path id="Path_89" data-name="Path 89" d="M314.047,219.832l5.342,73.712-27.7-3.576-5.342-73.712Z" transform="translate(-292.607 -219.832)" fill="#ef9e35"/>
            </g>
          </g>
        </g>
        <g id="Group_496" data-name="Group 496" transform="translate(222.363 198.045)">
          <path id="Path_91" data-name="Path 91" d="M316.567,247.355c0,2.644-5.124,3.4-11.935,11.714-9.812,11.975-13.143,14.7-22.532,21.6-6.133,4.5-15.251-2.2-8.993-8.942,5.286-5.694,33.864-25.488,37.807-28.144a2.8,2.8,0,0,1,1.592-.493,4.478,4.478,0,0,1,4.062,4.262" transform="translate(-271.004 -243.093)" fill="#ef9e35"/>
          <g id="Group_95" data-name="Group 95" transform="translate(0 0)" clip-path="url(#clip-path-45)">
            <path id="Path_663" data-name="Path 663" d="M0,61.723l64.2-.834L65,0,.8.834Z" transform="matrix(-0.869, -0.495, 0.495, -0.869, 33.684, 63.94)" fill="#ef9e35"/>
          </g>
        </g>
        <path id="Path_704" data-name="Path 704" d="M361.667,147.619s18.586,41.987,34.474,46.29a259.111,259.111,0,0,1,26.777,8.712Z" transform="translate(-272.341 -69.444)" fill="#212121" opacity="0.3"/>
        <g id="Group_497" data-name="Group 497" transform="translate(89.325 59.742)">
          <g id="Group_98" data-name="Group 98" transform="translate(0 0)">
            <path id="Path_95" data-name="Path 95" d="M357.157,141.523c15.359,14.395,22.806,34.716,26.811,40.669a11.972,11.972,0,0,1,3.21.335c8.509,2.175,22.034,11.749,42.157,19.279,3.31,1.237,2.436,7.909-1.67,9.355-5.062,1.787-10.513-.54-22.751-3.718-7.584-1.97-15.317-3.848-22.518-6.956-3.711-1.6-7.709-3.391-10.862-5.881l-.648-.519A106.871,106.871,0,0,1,357.164,180.9c-3.282-3.754-6.4-7.64-9.424-11.592a142.361,142.361,0,0,1-13.253-19.877c-3.72-6.571-.059-14.349,5.668-16.014a11.134,11.134,0,0,1,3.147-.482c4.6,0,8.231,3.316,13.855,8.587" transform="translate(-332.982 -132.937)" fill="#ef9e35"/>
            <g id="Group_97" data-name="Group 97" transform="translate(0)" clip-path="url(#clip-path-46)">
              <path id="Path_677" data-name="Path 677" d="M0,130.306l128.463-1.956L130.418,0,1.954,1.956Z" transform="translate(49.064 132.185) rotate(-135.186)" fill="#ef9e35"/>
            </g>
          </g>
        </g>
        <path id="Path_705" data-name="Path 705" d="M243,312.443s16.867-4.492,35.424,17.2Z" transform="translate(25.74 -27.426)" fill="#212121"/>
      </g>
    </g>
  </g>
</svg>
